<?xml version="1.0" standalone="no"?>
<!DOCTYPE svg PUBLIC "-//W3C//DTD SVG 1.1//EN" "http://www.w3.org/Graphics/SVG/1.1/DTD/svg11.dtd" >
<svg xmlns="http://www.w3.org/2000/svg" xmlns:xlink="http://www.w3.org/1999/xlink" version="1.1">
<metadata>
Created by FontForge 20201107 at Fri May  9 06:11:33 2025
 By 
(c) 1999-2024 Typodermic Fonts Inc.
</metadata>
<defs>
<font id="Coolvetica-Cond" horiz-adv-x="741" >
  <font-face 
    font-family="Coolvetica Cond"
    font-weight="400"
    font-stretch="condensed"
    units-per-em="2048"
    panose-1="2 11 6 6 3 6 2 2 0 4"
    ascent="1638"
    descent="-410"
    x-height="983"
    cap-height="1360"
    bbox="-672 -477 1264 1958"
    underline-thickness="40"
    underline-position="-292"
    unicode-range="U+0017-E006"
  />
<missing-glyph horiz-adv-x="610" 
d="M420 0h-230q-135 0 -135 123v1114q0 123 135 123h230q135 0 135 -123v-1114q0 -123 -135 -123zM465 123v1114q0 39 -45 39h-230q-47 0 -47 -39v-1114q0 -41 47 -41h230q45 0 45 41z" />
    <glyph glyph-name=".notdef" horiz-adv-x="610" 
d="M420 0h-230q-135 0 -135 123v1114q0 123 135 123h230q135 0 135 -123v-1114q0 -123 -135 -123zM465 123v1114q0 39 -45 39h-230q-47 0 -47 -39v-1114q0 -41 47 -41h230q45 0 45 41z" />
    <glyph glyph-name="uni0000" horiz-adv-x="0" 
 />
    <glyph glyph-name="uni0000" horiz-adv-x="0" 
 />
    <glyph glyph-name="nonmarkingreturn" horiz-adv-x="682" 
 />
    <glyph glyph-name="uni0017" horiz-adv-x="241" 
 />
    <glyph glyph-name="space" unicode=" " horiz-adv-x="241" 
 />
    <glyph glyph-name="exclam" unicode="!" horiz-adv-x="342" 
d="M258 0h-178v246h178v-246zM236 397h-130q-32 324 -32 572v391h194v-332q0 -313 -32 -631z" />
    <glyph glyph-name="quotedbl" unicode="&#x22;" horiz-adv-x="493" 
d="M197 877h-142v499h142v-499zM436 877h-141v499h141v-499z" />
    <glyph glyph-name="numbersign" unicode="#" horiz-adv-x="804" 
d="M274 0h-131l35 418h-115l11 125h114l23 284h-117l10 125h117l35 408h129l-33 -408h146l34 408h127l-32 -408h118l-12 -125h-117l-24 -284h123l-15 -125h-118l-33 -418h-131l35 418h-146zM342 827l-25 -284h146l24 284h-145z" />
    <glyph glyph-name="dollar" unicode="$" horiz-adv-x="784" 
d="M459 -123h-142v139q-136 15 -199 99.5t-63 246.5v46h174v-70q0 -84 36.5 -124t117.5 -40q86 0 120 44.5t34 129.5v47q0 81 -74 142q-27 23 -123 83t-147 107q-132 121 -132 256v64q0 131 65 206t191 90v152h142v-152q57 -8 99.5 -29.5t70.5 -52.5t45 -75t24 -93t7 -110
v-25h-173v66q0 160 -145 160q-71 0 -107 -37.5t-36 -99.5v-46q0 -42 18.5 -74.5t73.5 -74.5q43 -34 143 -94.5t146 -102.5q53 -48 78.5 -105.5t25.5 -143.5v-60q0 -150 -65.5 -232.5t-204.5 -99.5v-137z" />
    <glyph glyph-name="percent" unicode="%" horiz-adv-x="815" 
d="M236 -39h-113l461 1438h112zM786 461v-252q0 -215 -159 -215q-80 0 -122 56t-42 163v248q0 106 42 161.5t122 55.5q159 0 159 -217zM352 1149v-252q0 -215 -159 -215q-80 0 -122 56t-42 163v248q0 106 42 161.5t122 55.5q159 0 159 -217zM688 209v254q0 123 -63 123
q-62 0 -62 -123v-254q0 -123 64 -123q61 0 61 123zM254 897v254q0 123 -64 123q-61 0 -61 -123v-254q0 -123 64 -123q61 0 61 123z" />
    <glyph glyph-name="ampersand" unicode="&#x26;" horiz-adv-x="737" 
d="M55 332v155q0 106 46 163.5t118 70.5v8q-69 12 -106 68t-37 151v115q0 57 18 108.5t53 94.5t95 68.5t137 25.5h80v-172h-78q-67 0 -101 -40t-34 -104v-114q0 -72 29 -103.5t110 -31.5h70v-154h-76q-77 0 -109 -35t-32 -106v-181q0 -161 149 -161q80 0 110.5 48.5
t30.5 153.5v435h162v-467q0 -340 -313 -340q-157 0 -239.5 88.5t-82.5 255.5z" />
    <glyph glyph-name="quotesingle" unicode="'" horiz-adv-x="251" 
d="M197 877h-142v499h142v-499z" />
    <glyph glyph-name="parenleft" unicode="(" horiz-adv-x="471" 
d="M434 -293h-131q-98 171 -153.5 413.5t-55.5 489.5q0 241 54.5 477t154.5 404h131q-88 -188 -135 -420t-47 -463q0 -234 46.5 -470.5t135.5 -430.5z" />
    <glyph glyph-name="parenright" unicode=")" horiz-adv-x="471" 
d="M168 -293h-129q88 195 135 432t47 469q0 231 -47 463t-135 420h129q101 -168 156 -404.5t55 -476.5q0 -247 -55.5 -489.5t-155.5 -413.5z" />
    <glyph glyph-name="asterisk" unicode="*" horiz-adv-x="679" 
d="M567 831l-82 -59l-147 195l-141 -195l-86 59l143 201l-225 74l30 94l224 -72v248h110v-248l223 72l35 -94l-227 -74z" />
    <glyph glyph-name="plus" unicode="+" horiz-adv-x="704" 
d="M420 385h-139v231h-226v140h226v221h139v-221h227v-140h-227v-231z" />
    <glyph glyph-name="comma" unicode="," horiz-adv-x="290" 
d="M55 -338v107q41 25 60.5 65.5t19.5 106.5v59h-80v246h181v-283q0 -130 -45 -203t-136 -98z" />
    <glyph glyph-name="hyphen" unicode="-" horiz-adv-x="360" 
d="M313 543h-268v153h268v-153z" />
    <glyph glyph-name="hyphen" unicode="&#xad;" horiz-adv-x="360" 
d="M313 543h-268v153h268v-153z" />
    <glyph glyph-name="period" unicode="." horiz-adv-x="290" 
d="M236 0h-181v246h181v-246z" />
    <glyph glyph-name="slash" unicode="/" horiz-adv-x="442" 
d="M162 0h-148l267 1360h147z" />
    <glyph glyph-name="zero" unicode="0" horiz-adv-x="757" 
d="M700 940v-520q0 -432 -317 -432q-160 0 -244 112t-84 324v512q0 212 84 324t244 112q155 0 236 -108t81 -324zM520 418v524q0 260 -141 260q-69 0 -105 -66.5t-36 -195.5v-520q0 -129 36 -195.5t105 -66.5q141 0 141 260z" />
    <glyph glyph-name="one" unicode="1" horiz-adv-x="405" 
d="M350 0h-176v1075h-135v146q87 0 118.5 30t39.5 109h153v-1360z" />
    <glyph glyph-name="two" unicode="2" horiz-adv-x="731" 
d="M686 0h-631v219q0 102 21.5 169t77.5 132q45 52 156.5 145t144.5 132q32 37 43.5 75.5t11.5 100.5v76q0 80 -30 115.5t-107 35.5q-80 0 -108.5 -39t-28.5 -127v-94h-173v78q0 63 4.5 107.5t16.5 87t34 70t56 49t84 31t117 9.5q93 0 153.5 -18.5t94.5 -60t47.5 -97.5
t13.5 -141v-90q0 -86 -20.5 -142t-65.5 -108q-37 -41 -148 -137t-143 -134q-69 -79 -69 -188v-94h448v-162z" />
    <glyph glyph-name="three" unicode="3" horiz-adv-x="731" 
d="M690 487v-155q0 -167 -82 -255.5t-239 -88.5q-155 0 -234.5 85.5t-79.5 254.5v67h174v-78q0 -159 136 -159q143 0 143 161v181q0 71 -35.5 106t-118.5 35h-86v154h92q79 0 109.5 34.5t30.5 100.5v127q0 64 -34 103.5t-101 39.5q-64 0 -100 -39.5t-36 -105.5v-80h-174v63
q0 154 83 244t229 90q77 0 137 -25.5t95 -69t53 -95t18 -107.5v-127q0 -94 -37.5 -150.5t-106.5 -68.5v-8q72 -13 118 -70.5t46 -163.5z" />
    <glyph glyph-name="three" unicode="&#x417;" horiz-adv-x="731" 
d="M690 487v-155q0 -167 -82 -255.5t-239 -88.5q-155 0 -234.5 85.5t-79.5 254.5v67h174v-78q0 -159 136 -159q143 0 143 161v181q0 71 -35.5 106t-118.5 35h-86v154h92q79 0 109.5 34.5t30.5 100.5v127q0 64 -34 103.5t-101 39.5q-64 0 -100 -39.5t-36 -105.5v-80h-174v63
q0 154 83 244t229 90q77 0 137 -25.5t95 -69t53 -95t18 -107.5v-127q0 -94 -37.5 -150.5t-106.5 -68.5v-8q72 -13 118 -70.5t46 -163.5z" />
    <glyph glyph-name="four" unicode="4" horiz-adv-x="745" 
d="M438 483v623h-8l-268 -623h276zM610 0h-176v330h-395v149l356 881h215v-877h97v-153h-97v-330z" />
    <glyph glyph-name="five" unicode="5" horiz-adv-x="743" 
d="M688 586v-254q0 -167 -81 -255.5t-238 -88.5q-63 0 -115.5 15.5t-99 51.5t-73 104.5t-26.5 164.5v26h174v-35q0 -157 138 -157q69 0 104 41.5t35 119.5v250q0 77 -33.5 107.5t-95.5 30.5q-88 0 -139 -64h-181l31 717h559v-162h-401l-21 -414h8q73 80 205 80
q250 0 250 -278z" />
    <glyph glyph-name="six" unicode="6" horiz-adv-x="743" 
d="M688 627v-299q0 -340 -313 -340q-158 0 -239 88.5t-81 255.5v690q0 169 82 259.5t240 90.5q150 0 230.5 -80.5t80.5 -232.5v-41h-174v33q0 149 -135 149q-141 0 -141 -164v-295h8q31 58 85.5 94.5t131.5 36.5q103 0 164 -65t61 -180zM514 317v269q0 66 -31 99.5t-88 33.5
q-117 0 -157 -129v-271q0 -161 139 -161q137 0 137 159z" />
    <glyph glyph-name="seven" unicode="7" horiz-adv-x="616" 
d="M324 0h-179q7 235 95.5 597t177.5 597h-379v166h541v-148q-93 -251 -174.5 -610.5t-81.5 -601.5z" />
    <glyph glyph-name="eight" unicode="8" horiz-adv-x="729" 
d="M498 930v127q0 64 -33.5 103.5t-99.5 39.5t-100 -40t-34 -103v-127q0 -66 29 -100.5t105 -34.5t104.5 34.5t28.5 100.5zM508 319v187q0 67 -33 101t-110 34t-110.5 -34t-33.5 -101v-187q0 -161 144 -161q143 0 143 161zM688 487v-155q0 -168 -81.5 -256t-241.5 -88
t-242 88t-82 256v155q0 104 46 162.5t118 71.5v8q-144 25 -144 219v127q0 56 18 107.5t53.5 95t95.5 69t137 25.5t137 -25.5t95 -69t53 -95t18 -107.5v-127q0 -194 -144 -219v-8q72 -13 118 -71.5t46 -162.5z" />
    <glyph glyph-name="nine" unicode="9" horiz-adv-x="743" 
d="M506 324v327h-8q-71 -131 -217 -131q-103 0 -164.5 65.5t-61.5 180.5v266q0 340 314 340q159 0 239 -87.5t80 -256.5v-690q0 -170 -81 -260t-238 -90q-151 0 -230.5 80.5t-79.5 232.5v61h170v-53q0 -149 136 -149q141 0 141 164zM506 801v239q0 162 -139 162
q-138 0 -138 -160v-235q0 -133 119 -133q118 0 158 127z" />
    <glyph glyph-name="colon" unicode=":" horiz-adv-x="290" 
d="M236 10h-181v246h181v-246zM236 752h-181v245h181v-245z" />
    <glyph glyph-name="semicolon" unicode=";" horiz-adv-x="290" 
d="M236 752h-181v245h181v-245zM55 -328v105q41 27 60.5 67.5t19.5 106.5v59h-80v246h181v-283q0 -130 -45 -203t-136 -98z" />
    <glyph glyph-name="less" unicode="&#x3c;" horiz-adv-x="704" 
d="M647 315l-592 291v150l592 295v-158l-438 -209v-8l438 -207v-154z" />
    <glyph glyph-name="equal" unicode="=" horiz-adv-x="704" 
d="M647 807h-592v139h592v-139zM647 418h-592v139h592v-139z" />
    <glyph glyph-name="greater" unicode="&#x3e;" horiz-adv-x="704" 
d="M647 606l-592 -291v154l441 207v8l-441 209v158l592 -295v-150z" />
    <glyph glyph-name="question" unicode="?" horiz-adv-x="710" 
d="M444 0h-178v244h178v-244zM440 395h-170v97q0 88 43 165q24 44 81 117t73 113q18 45 18 102v55q0 84 -26.5 120t-104.5 36q-46 0 -75.5 -11.5t-43 -36.5t-18 -52.5t-4.5 -71.5v-63h-172v51q0 54 2 90.5t9 77t20.5 66.5t36.5 51.5t56.5 39.5t81 22.5t109.5 8.5
q97 0 157.5 -19t92.5 -64t42.5 -101t10.5 -148v-69q0 -76 -28 -137q-22 -47 -81.5 -123.5t-80.5 -120.5q-29 -63 -29 -125v-70z" />
    <glyph glyph-name="at" unicode="@" horiz-adv-x="958" 
d="M750 -8l41 -107q-97 -57 -293 -57q-92 0 -161.5 13t-118.5 41t-81 66t-50 94.5t-25 118.5t-7 146v488q0 73 5 129t18 108t34.5 89.5t54.5 68t78 49.5t104.5 29t135.5 10q86 0 151 -12.5t111 -39.5t76 -64.5t47 -93.5t24 -119t7 -148v-406q0 -112 -49.5 -168.5
t-144.5 -56.5q-98 0 -123 76h-9q-25 -41 -57 -58.5t-76 -17.5q-87 0 -116 56.5t-29 187.5v288q0 67 4.5 109t18.5 77.5t42.5 51.5t73.5 16q97 0 133 -77h6l9 67h84v-616q0 -28 14.5 -45t42.5 -17q61 0 61 94v437q0 69 -3.5 114.5t-14 91t-30.5 72t-53 48.5t-82 31t-116 9
q-69 0 -119.5 -9.5t-85 -32t-55.5 -50.5t-32.5 -73.5t-15 -91t-3.5 -113.5v-488q0 -80 5 -129t23.5 -97t53.5 -73t94.5 -40t147.5 -15q146 0 250 39zM408 768v-408q0 -43 17 -62t52 -19q88 0 88 118v336q0 119 -84 119q-73 0 -73 -84z" />
    <glyph glyph-name="A" unicode="A" horiz-adv-x="761" 
d="M735 0h-180l-53 319h-250l-49 -319h-178l231 1360h248zM373 1073l-97 -596h201l-96 596h-8z" />
    <glyph glyph-name="A" unicode="&#x410;" horiz-adv-x="761" 
d="M735 0h-180l-53 319h-250l-49 -319h-178l231 1360h248zM373 1073l-97 -596h201l-96 596h-8z" />
    <glyph glyph-name="A" unicode="&#x391;" horiz-adv-x="761" 
d="M735 0h-180l-53 319h-250l-49 -319h-178l231 1360h248zM373 1073l-97 -596h201l-96 596h-8z" />
    <glyph glyph-name="B" unicode="B" horiz-adv-x="745" 
d="M453 0h-398v1360h371q136 0 197 -69.5t61 -203.5v-139q0 -189 -137 -223v-8q79 -14 117 -66.5t38 -158.5v-259q0 -120 -57.5 -176.5t-191.5 -56.5zM520 291v213q0 71 -30 102t-99 31h-155v-477h161q64 0 93.5 32t29.5 99zM512 930v131q0 72 -27 105.5t-94 33.5h-155v-409
h157q119 0 119 139z" />
    <glyph glyph-name="B" unicode="&#x412;" horiz-adv-x="745" 
d="M453 0h-398v1360h371q136 0 197 -69.5t61 -203.5v-139q0 -189 -137 -223v-8q79 -14 117 -66.5t38 -158.5v-259q0 -120 -57.5 -176.5t-191.5 -56.5zM520 291v213q0 71 -30 102t-99 31h-155v-477h161q64 0 93.5 32t29.5 99zM512 930v131q0 72 -27 105.5t-94 33.5h-155v-409
h157q119 0 119 139z" />
    <glyph glyph-name="B" unicode="&#x392;" horiz-adv-x="745" 
d="M453 0h-398v1360h371q136 0 197 -69.5t61 -203.5v-139q0 -189 -137 -223v-8q79 -14 117 -66.5t38 -158.5v-259q0 -120 -57.5 -176.5t-191.5 -56.5zM520 291v213q0 71 -30 102t-99 31h-155v-477h161q64 0 93.5 32t29.5 99zM512 930v131q0 72 -27 105.5t-94 33.5h-155v-409
h157q119 0 119 139z" />
    <glyph glyph-name="C" unicode="C" horiz-adv-x="743" 
d="M514 317v238h174v-227q0 -340 -313 -340q-157 0 -238.5 88.5t-81.5 255.5v700q0 169 79.5 254.5t234.5 85.5q156 0 237.5 -85t81.5 -253v-162h-174v162q0 80 -35.5 123t-103.5 43q-67 0 -102 -42t-35 -122v-719q0 -159 137 -159q139 0 139 159z" />
    <glyph glyph-name="C" unicode="&#x421;" horiz-adv-x="743" 
d="M514 317v238h174v-227q0 -340 -313 -340q-157 0 -238.5 88.5t-81.5 255.5v700q0 169 79.5 254.5t234.5 85.5q156 0 237.5 -85t81.5 -253v-162h-174v162q0 80 -35.5 123t-103.5 43q-67 0 -102 -42t-35 -122v-719q0 -159 137 -159q139 0 139 159z" />
    <glyph glyph-name="D" unicode="D" horiz-adv-x="757" 
d="M391 0h-336v1360h336q153 0 231 -79t78 -234v-715q0 -332 -309 -332zM236 166h143q79 0 109 54t30 163v598q0 107 -32 160t-117 53h-133v-1028z" />
    <glyph glyph-name="E" unicode="E" horiz-adv-x="598" 
d="M563 0h-508v1360h492v-166h-311v-397h284v-168h-284v-463h327v-166z" />
    <glyph glyph-name="E" unicode="&#x415;" horiz-adv-x="598" 
d="M563 0h-508v1360h492v-166h-311v-397h284v-168h-284v-463h327v-166z" />
    <glyph glyph-name="E" unicode="&#x395;" horiz-adv-x="598" 
d="M563 0h-508v1360h492v-166h-311v-397h284v-168h-284v-463h327v-166z" />
    <glyph glyph-name="F" unicode="F" horiz-adv-x="595" 
d="M240 0h-185v1360h502v-166h-317v-418h274v-164h-274v-612z" />
    <glyph glyph-name="G" unicode="G" horiz-adv-x="743" 
d="M688 0h-121l-8 104h-8q-29 -56 -76 -86t-129 -30q-139 0 -215 89.5t-76 254.5v690q0 167 81.5 258.5t234.5 91.5q154 0 235.5 -93t81.5 -261v-78h-174v94q0 80 -35.5 123t-103.5 43q-67 0 -102 -42t-35 -122v-717q0 -79 34 -120t99 -41q120 0 143 137v268h-154v164h328
v-727z" />
    <glyph glyph-name="H" unicode="H" horiz-adv-x="765" 
d="M709 0h-183v639h-286v-639h-185v1360h185v-557h286v557h183v-1360z" />
    <glyph glyph-name="H" unicode="&#x41d;" horiz-adv-x="765" 
d="M709 0h-183v639h-286v-639h-185v1360h185v-557h286v557h183v-1360z" />
    <glyph glyph-name="H" unicode="&#x397;" horiz-adv-x="765" 
d="M709 0h-183v639h-286v-639h-185v1360h185v-557h286v557h183v-1360z" />
    <glyph glyph-name="I" unicode="I" horiz-adv-x="294" 
d="M240 0h-185v1360h185v-1360z" />
    <glyph glyph-name="I" unicode="&#x4cf;" horiz-adv-x="294" 
d="M240 0h-185v1360h185v-1360z" />
    <glyph glyph-name="I" unicode="&#x4c0;" horiz-adv-x="294" 
d="M240 0h-185v1360h185v-1360z" />
    <glyph glyph-name="I" unicode="&#x406;" horiz-adv-x="294" 
d="M240 0h-185v1360h185v-1360z" />
    <glyph glyph-name="I" unicode="&#x399;" horiz-adv-x="294" 
d="M240 0h-185v1360h185v-1360z" />
    <glyph glyph-name="J" unicode="J" horiz-adv-x="727" 
d="M492 319v1041h180v-1028q0 -167 -81.5 -255.5t-238.5 -88.5q-311 0 -311 340v166h172v-177q0 -159 137 -159q69 0 105.5 41t36.5 120z" />
    <glyph glyph-name="J" unicode="&#x408;" horiz-adv-x="727" 
d="M492 319v1041h180v-1028q0 -167 -81.5 -255.5t-238.5 -88.5q-311 0 -311 340v166h172v-177q0 -159 137 -159q69 0 105.5 41t36.5 120z" />
    <glyph glyph-name="K" unicode="K" horiz-adv-x="753" 
d="M729 0h-186l-195 588h-8l-98 -193v-395h-187v1360h187v-610h8l295 610h186l-256 -539z" />
    <glyph glyph-name="K" unicode="&#x41a;" horiz-adv-x="753" 
d="M729 0h-186l-195 588h-8l-98 -193v-395h-187v1360h187v-610h8l295 610h186l-256 -539z" />
    <glyph glyph-name="K" unicode="&#x39a;" horiz-adv-x="753" 
d="M729 0h-186l-195 588h-8l-98 -193v-395h-187v1360h187v-610h8l295 610h186l-256 -539z" />
    <glyph glyph-name="L" unicode="L" horiz-adv-x="612" 
d="M575 0h-520v1360h185v-1192h335v-168z" />
    <glyph glyph-name="M" unicode="M" horiz-adv-x="1071" 
d="M1016 0h-164v752q0 126 6 295h-8l-229 -1047h-170l-230 1047h-8q6 -169 6 -295v-752h-164v1360h279l201 -998h8l200 998h273v-1360z" />
    <glyph glyph-name="M" unicode="&#x41c;" horiz-adv-x="1071" 
d="M1016 0h-164v752q0 126 6 295h-8l-229 -1047h-170l-230 1047h-8q6 -169 6 -295v-752h-164v1360h279l201 -998h8l200 998h273v-1360z" />
    <glyph glyph-name="M" unicode="&#x39c;" horiz-adv-x="1071" 
d="M1016 0h-164v752q0 126 6 295h-8l-229 -1047h-170l-230 1047h-8q6 -169 6 -295v-752h-164v1360h279l201 -998h8l200 998h273v-1360z" />
    <glyph glyph-name="N" unicode="N" horiz-adv-x="802" 
d="M745 0h-215l-311 1053h-8q6 -150 6 -287v-766h-162v1360h242l285 -977h8q-6 194 -6 330v647h161v-1360z" />
    <glyph glyph-name="N" unicode="&#x39d;" horiz-adv-x="802" 
d="M745 0h-215l-311 1053h-8q6 -150 6 -287v-766h-162v1360h242l285 -977h8q-6 194 -6 330v647h161v-1360z" />
    <glyph glyph-name="O" unicode="O" 
d="M692 1018v-690q0 -169 -82 -254.5t-237 -85.5q-158 0 -242 89t-84 255v690q0 166 85 258t239 92q153 0 237 -93.5t84 -260.5zM512 317v717q0 80 -37 123t-106 43q-66 0 -103 -42.5t-37 -121.5v-717q0 -79 36.5 -120t105.5 -41q141 0 141 159z" />
    <glyph glyph-name="O" unicode="&#x41e;" 
d="M692 1018v-690q0 -169 -82 -254.5t-237 -85.5q-158 0 -242 89t-84 255v690q0 166 85 258t239 92q153 0 237 -93.5t84 -260.5zM512 317v717q0 80 -37 123t-106 43q-66 0 -103 -42.5t-37 -121.5v-717q0 -79 36.5 -120t105.5 -41q141 0 141 159z" />
    <glyph glyph-name="O" unicode="&#x39f;" 
d="M692 1018v-690q0 -169 -82 -254.5t-237 -85.5q-158 0 -242 89t-84 255v690q0 166 85 258t239 92q153 0 237 -93.5t84 -260.5zM512 317v717q0 80 -37 123t-106 43q-66 0 -103 -42.5t-37 -121.5v-717q0 -79 36.5 -120t105.5 -41q141 0 141 159z" />
    <glyph glyph-name="P" unicode="P" horiz-adv-x="733" 
d="M434 541h-194v-541h-185v1360h379q136 0 197 -69.5t61 -203.5v-274q0 -134 -61 -203t-197 -69zM240 1194v-494h157q121 0 121 142v225q0 127 -121 127h-157z" />
    <glyph glyph-name="P" unicode="&#x420;" horiz-adv-x="733" 
d="M434 541h-194v-541h-185v1360h379q136 0 197 -69.5t61 -203.5v-274q0 -134 -61 -203t-197 -69zM240 1194v-494h157q121 0 121 142v225q0 127 -121 127h-157z" />
    <glyph glyph-name="P" unicode="&#x3a1;" horiz-adv-x="733" 
d="M434 541h-194v-541h-185v1360h379q136 0 197 -69.5t61 -203.5v-274q0 -134 -61 -203t-197 -69zM240 1194v-494h157q121 0 121 142v225q0 127 -121 127h-157z" />
    <glyph glyph-name="Q" unicode="Q" horiz-adv-x="739" 
d="M692 1018v-686q0 -291 -246 -328v-192q0 -125 105 -125q51 0 73.5 29t22.5 89v140h164v-131q0 -291 -254 -291q-135 0 -201.5 79t-66.5 218v186q-242 40 -242 328v684q0 171 82 262.5t244 91.5q319 0 319 -354zM512 330v702q0 80 -35.5 124t-103.5 44q-70 0 -107 -44
t-37 -122v-704q0 -78 36.5 -120t105.5 -42q141 0 141 162z" />
    <glyph glyph-name="R" unicode="R" horiz-adv-x="743" 
d="M236 0h-181v1360h379q137 0 197.5 -69t60.5 -204v-186q0 -185 -139 -221v-8q73 -14 108 -66.5t35 -152.5v-453h-180v467q0 68 -25 96.5t-90 28.5h-165v-592zM514 885v182q0 64 -29 95.5t-92 31.5h-157v-449h159q58 0 88.5 32.5t30.5 107.5z" />
    <glyph glyph-name="S" unicode="S" horiz-adv-x="768" 
d="M696 958h-172v78q0 164 -145 164q-71 0 -107 -39t-36 -102v-53q0 -46 16.5 -77.5t62.5 -68.5q41 -32 154 -104t154 -109q50 -44 74 -100t24 -146v-84q0 -163 -81.5 -246t-256.5 -83t-255.5 85.5t-80.5 256.5v78h174v-80q0 -85 38 -127.5t120 -42.5q149 0 149 155v62
q0 62 -18 97t-70 75q-38 32 -136.5 99t-145.5 112q-54 55 -79.5 113t-25.5 137v59q0 141 80.5 223t243.5 82q90 0 154 -26t99 -75t50.5 -110.5t15.5 -142.5v-60z" />
    <glyph glyph-name="S" unicode="&#x405;" horiz-adv-x="768" 
d="M696 958h-172v78q0 164 -145 164q-71 0 -107 -39t-36 -102v-53q0 -46 16.5 -77.5t62.5 -68.5q41 -32 154 -104t154 -109q50 -44 74 -100t24 -146v-84q0 -163 -81.5 -246t-256.5 -83t-255.5 85.5t-80.5 256.5v78h174v-80q0 -85 38 -127.5t120 -42.5q149 0 149 155v62
q0 62 -18 97t-70 75q-38 32 -136.5 99t-145.5 112q-54 55 -79.5 113t-25.5 137v59q0 141 80.5 223t243.5 82q90 0 154 -26t99 -75t50.5 -110.5t15.5 -142.5v-60z" />
    <glyph glyph-name="T" unicode="T" horiz-adv-x="716" 
d="M449 0h-183v1194h-227v166h641v-166h-231v-1194z" />
    <glyph glyph-name="T" unicode="&#x422;" horiz-adv-x="716" 
d="M449 0h-183v1194h-227v166h641v-166h-231v-1194z" />
    <glyph glyph-name="T" unicode="&#x3a4;" horiz-adv-x="716" 
d="M449 0h-183v1194h-227v166h641v-166h-231v-1194z" />
    <glyph glyph-name="U" unicode="U" horiz-adv-x="753" 
d="M516 319v1041h180v-1028q0 -167 -81 -255.5t-238 -88.5q-156 0 -239 86t-83 254v1032h181v-1043q0 -159 139 -159q141 0 141 161z" />
    <glyph glyph-name="V" unicode="V" horiz-adv-x="761" 
d="M506 0h-250l-231 1360h182l172 -1073h8l170 1073h178z" />
    <glyph glyph-name="W" unicode="W" horiz-adv-x="1116" 
d="M420 0h-232l-163 1360h176l118 -1034h9l127 1034h207l131 -1034h8l117 1034h174l-164 -1360h-232l-135 1053h-8z" />
    <glyph glyph-name="X" unicode="X" horiz-adv-x="796" 
d="M584 1360h180l-254 -653l262 -707h-188l-183 508h-8l-184 -508h-184l262 688l-254 672h184l178 -483h8z" />
    <glyph glyph-name="X" unicode="&#x425;" horiz-adv-x="796" 
d="M584 1360h180l-254 -653l262 -707h-188l-183 508h-8l-184 -508h-184l262 688l-254 672h184l178 -483h8z" />
    <glyph glyph-name="X" unicode="&#x3a7;" horiz-adv-x="796" 
d="M584 1360h180l-254 -653l262 -707h-188l-183 508h-8l-184 -508h-184l262 688l-254 672h184l178 -483h8z" />
    <glyph glyph-name="Y" unicode="Y" horiz-adv-x="755" 
d="M473 0h-184v575l-269 785h179l180 -541h8l172 541h174l-260 -787v-573z" />
    <glyph glyph-name="Y" unicode="&#x4ae;" horiz-adv-x="755" 
d="M473 0h-184v575l-269 785h179l180 -541h8l172 541h174l-260 -787v-573z" />
    <glyph glyph-name="Y" unicode="&#x3a5;" horiz-adv-x="755" 
d="M473 0h-184v575l-269 785h179l180 -541h8l172 541h174l-260 -787v-573z" />
    <glyph glyph-name="Z" unicode="Z" horiz-adv-x="690" 
d="M651 0h-612v170l416 1024h-412v166h598v-168l-412 -1026h422v-166z" />
    <glyph glyph-name="Z" unicode="&#x396;" horiz-adv-x="690" 
d="M651 0h-612v170l416 1024h-412v166h598v-168l-412 -1026h422v-166z" />
    <glyph glyph-name="bracketleft" unicode="[" horiz-adv-x="471" 
d="M434 -266h-334v1739h334v-150h-194v-1442h194v-147z" />
    <glyph glyph-name="backslash" unicode="\" horiz-adv-x="442" 
d="M428 0h-147l-267 1360h148z" />
    <glyph glyph-name="bracketright" unicode="]" horiz-adv-x="471" 
d="M373 -266h-334v147h194v1442h-194v150h334v-1739z" />
    <glyph glyph-name="asciicircum" unicode="^" horiz-adv-x="704" 
d="M25 836l254 524h149l256 -524h-160l-168 370h-8l-168 -370h-155z" />
    <glyph glyph-name="underscore" unicode="_" horiz-adv-x="509" 
d="M514 -211h-514v119h514v-119z" />
    <glyph glyph-name="grave" unicode="`" horiz-adv-x="522" 
d="M391 1032l-330 299l95 107l305 -334z" />
    <glyph glyph-name="a" unicode="a" horiz-adv-x="727" 
d="M496 260v281q-12 -9 -22.5 -15t-24.5 -11.5t-23.5 -8.5t-32.5 -9.5t-39 -11.5q-82 -25 -108.5 -57t-26.5 -92v-88q0 -105 117 -105q60 0 98 28.5t62 88.5zM670 0h-162l-6 125h-8q-37 -65 -91 -101t-143 -36q-215 0 -215 219v98q0 126 56.5 185.5t205.5 101.5l38.5 11
l38.5 11t34 11t31.5 13.5t23 15.5t16.5 20.5t5 25.5v41q0 101 -127 101q-140 0 -140 -111v-63h-166v84q0 121 82 182t234 61q293 0 293 -229v-766z" />
    <glyph glyph-name="a" unicode="&#x430;" horiz-adv-x="727" 
d="M496 260v281q-12 -9 -22.5 -15t-24.5 -11.5t-23.5 -8.5t-32.5 -9.5t-39 -11.5q-82 -25 -108.5 -57t-26.5 -92v-88q0 -105 117 -105q60 0 98 28.5t62 88.5zM670 0h-162l-6 125h-8q-37 -65 -91 -101t-143 -36q-215 0 -215 219v98q0 126 56.5 185.5t205.5 101.5l38.5 11
l38.5 11t34 11t31.5 13.5t23 15.5t16.5 20.5t5 25.5v41q0 101 -127 101q-140 0 -140 -111v-63h-166v84q0 121 82 182t234 61q293 0 293 -229v-766z" />
    <glyph glyph-name="b" unicode="b" 
d="M504 291v401q0 148 -129 148q-59 0 -91.5 -36.5t-54.5 -123.5v-381q19 -81 53.5 -118.5t94.5 -37.5q127 0 127 148zM217 0h-158v1376h174v-516h9q56 135 207 135q127 0 180 -80.5t53 -224.5v-399q0 -135 -57 -219t-176 -84q-158 0 -218 153h-8z" />
    <glyph glyph-name="c" unicode="c" horiz-adv-x="724" 
d="M498 295v70h168v-70q0 -156 -72.5 -231.5t-228.5 -75.5q-155 0 -230.5 75t-75.5 232v393q0 156 75.5 231.5t232.5 75.5q155 0 227 -75t72 -232v-65h-166v65q0 148 -133 148q-136 0 -136 -148v-393q0 -148 134 -148q69 0 101 36.5t32 111.5z" />
    <glyph glyph-name="c" unicode="&#x441;" horiz-adv-x="724" 
d="M498 295v70h168v-70q0 -156 -72.5 -231.5t-228.5 -75.5q-155 0 -230.5 75t-75.5 232v393q0 156 75.5 231.5t232.5 75.5q155 0 227 -75t72 -232v-65h-166v65q0 148 -133 148q-136 0 -136 -148v-393q0 -148 134 -148q69 0 101 36.5t32 111.5z" />
    <glyph glyph-name="d" unicode="d" 
d="M238 692v-401q0 -148 129 -148q62 0 93 36t52 128v371q-19 92 -49 127t-94 35t-97.5 -34.5t-33.5 -113.5zM682 0h-158l-6 141h-8q-32 -80 -84 -116.5t-131 -36.5q-111 0 -173.5 68t-62.5 194v483q0 126 62 194t172 68q151 0 207 -135h8v516h174v-1376z" />
    <glyph glyph-name="e" unicode="e" horiz-adv-x="735" 
d="M676 340v-45q0 -154 -76.5 -230.5t-234.5 -76.5q-155 0 -230.5 75t-75.5 232v393q0 156 75.5 231.5t232.5 75.5t233 -76t76 -231v-244h-445v-153q0 -148 134 -148q137 0 137 148v49h174zM502 575v117q0 148 -135 148q-136 0 -136 -148v-117h271z" />
    <glyph glyph-name="e" unicode="&#x435;" horiz-adv-x="735" 
d="M676 340v-45q0 -154 -76.5 -230.5t-234.5 -76.5q-155 0 -230.5 75t-75.5 232v393q0 156 75.5 231.5t232.5 75.5t233 -76t76 -231v-244h-445v-153q0 -148 134 -148q137 0 137 148v49h174zM502 575v117q0 148 -135 148q-136 0 -136 -148v-117h271z" />
    <glyph glyph-name="f" unicode="f" horiz-adv-x="569" 
d="M535 983v-158h-201v-825h-176v825h-123v158h123v107q0 286 301 286h71v-157h-71q-125 0 -125 -129v-107h201z" />
    <glyph glyph-name="g" unicode="g" 
d="M238 692v-344q0 -97 27.5 -141.5t92.5 -44.5q56 0 91 33t63 110v379q-16 86 -45.5 121t-97.5 35q-67 0 -99 -34t-32 -114zM682 -170q0 -307 -313 -307q-155 0 -229 76t-74 231v109h167v-109q0 -147 136 -147q137 0 137 147v305h-8q-52 -135 -209 -135q-121 0 -175.5 78
t-54.5 237v418q0 121 59 191.5t173 70.5q76 0 129.5 -36.5t89.5 -116.5h8l6 141h158v-1153z" />
    <glyph glyph-name="h" unicode="h" horiz-adv-x="747" 
d="M688 0h-178v700q0 140 -125 140q-143 0 -149 -203v-637h-177v1376h177v-516h8q54 135 211 135q121 0 177 -76.5t56 -191.5v-727z" />
    <glyph glyph-name="h" unicode="&#x4bb;" horiz-adv-x="747" 
d="M688 0h-178v700q0 140 -125 140q-143 0 -149 -203v-637h-177v1376h177v-516h8q54 135 211 135q121 0 177 -76.5t56 -191.5v-727z" />
    <glyph glyph-name="i" unicode="i" horiz-adv-x="294" 
d="M236 0h-177v983h177v-983zM236 1104h-177v221h177v-221z" />
    <glyph glyph-name="i" unicode="&#x456;" horiz-adv-x="294" 
d="M236 0h-177v983h177v-983zM236 1104h-177v221h177v-221z" />
    <glyph glyph-name="j" unicode="j" horiz-adv-x="342" 
d="M-334 -170v115h168v-115q0 -75 33 -111t102 -36q137 0 137 147v1153h177v-1153q0 -307 -312 -307q-156 0 -230.5 75.5t-74.5 231.5zM283 1104h-177v221h177v-221z" />
    <glyph glyph-name="j" unicode="&#x458;" horiz-adv-x="342" 
d="M-334 -170v115h168v-115q0 -75 33 -111t102 -36q137 0 137 147v1153h177v-1153q0 -307 -312 -307q-156 0 -230.5 75.5t-74.5 231.5zM283 1104h-177v221h177v-221z" />
    <glyph glyph-name="k" unicode="k" horiz-adv-x="739" 
d="M713 0h-187l-186 422h-6l-98 -137v-285h-177v1376h177v-811h8l280 418h193l-250 -389z" />
    <glyph glyph-name="l" unicode="l" horiz-adv-x="294" 
d="M236 0h-177v1376h177v-1376z" />
    <glyph glyph-name="m" unicode="m" horiz-adv-x="1167" 
d="M1108 0h-178v700q0 140 -121 140q-58 0 -88 -32.5t-53 -111.5v-696h-170v700q0 140 -121 140q-58 0 -88 -32.5t-53 -111.5v-696h-177v983h164l6 -141h9q59 153 204 153q79 0 135 -43t76 -123q39 91 95 128.5t131 37.5q104 0 166.5 -68.5t62.5 -193.5v-733z" />
    <glyph glyph-name="n" unicode="n" horiz-adv-x="747" 
d="M688 0h-178v700q0 140 -127 140q-60 0 -91.5 -32.5t-55.5 -111.5v-696h-177v983h164l6 -141h9q32 79 84.5 116t130.5 37q107 0 171 -68.5t64 -193.5v-733z" />
    <glyph glyph-name="o" unicode="o" horiz-adv-x="733" 
d="M674 688v-393q0 -158 -75 -232.5t-232 -74.5t-232.5 74.5t-75.5 232.5v393q0 158 75.5 232.5t232.5 74.5t232 -74.5t75 -232.5zM502 295v393q0 148 -135 148q-136 0 -136 -148v-393q0 -148 136 -148q135 0 135 148z" />
    <glyph glyph-name="o" unicode="&#x43e;" horiz-adv-x="733" 
d="M674 688v-393q0 -158 -75 -232.5t-232 -74.5t-232.5 74.5t-75.5 232.5v393q0 158 75.5 232.5t232.5 74.5t232 -74.5t75 -232.5zM502 295v393q0 148 -135 148q-136 0 -136 -148v-393q0 -148 136 -148q135 0 135 148z" />
    <glyph glyph-name="o" unicode="&#x3bf;" horiz-adv-x="733" 
d="M674 688v-393q0 -158 -75 -232.5t-232 -74.5t-232.5 74.5t-75.5 232.5v393q0 158 75.5 232.5t232.5 74.5t232 -74.5t75 -232.5zM502 295v393q0 148 -135 148q-136 0 -136 -148v-393q0 -148 136 -148q135 0 135 148z" />
    <glyph glyph-name="p" unicode="p" 
d="M504 291v401q0 148 -129 148q-60 0 -92 -32.5t-54 -111.5v-409q22 -79 54 -111.5t92 -32.5q129 0 129 148zM233 -477h-174v1460h158l6 -141h8q32 80 84 116.5t131 36.5q111 0 173.5 -68t62.5 -194v-483q0 -126 -61.5 -194t-171.5 -68q-151 0 -207 135h-9v-600z" />
    <glyph glyph-name="p" unicode="&#x440;" 
d="M504 291v401q0 148 -129 148q-60 0 -92 -32.5t-54 -111.5v-409q22 -79 54 -111.5t92 -32.5q129 0 129 148zM233 -477h-174v1460h158l6 -141h8q32 80 84 116.5t131 36.5q111 0 173.5 -68t62.5 -194v-483q0 -126 -61.5 -194t-171.5 -68q-151 0 -207 135h-9v-600z" />
    <glyph glyph-name="q" unicode="q" 
d="M1087 -55v-115q0 -156 -69.5 -231.5t-216.5 -75.5q-148 0 -220.5 76t-72.5 231v293h-8q-56 -135 -209 -135q-123 0 -177.5 80.5t-54.5 236.5v428q0 126 62.5 194t173.5 68q79 0 131 -36.5t84 -116.5h8l6 141h158v-1096q0 -115 24.5 -159.5t92.5 -44.5q63 0 92 35t29 112
v115h167zM238 692v-401q0 -148 129 -148q59 0 91 33.5t54 114.5v401q-22 81 -54 114.5t-91 33.5q-129 0 -129 -148z" />
    <glyph glyph-name="r" unicode="r" horiz-adv-x="567" 
d="M236 0h-177v983h164l6 -168h9q61 180 213 180q42 0 81 -20v-162q-32 21 -92 21q-84 0 -132 -51.5t-72 -178.5v-604z" />
    <glyph glyph-name="s" unicode="s" horiz-adv-x="722" 
d="M662 680h-166v57q0 111 -131 111q-66 0 -101 -25t-35 -71v-31q0 -31 14 -51t58 -47q45 -28 134 -69.5t130 -68.5q55 -36 81 -80.5t26 -115.5v-45q0 -130 -73.5 -193t-229.5 -63q-164 0 -241 67.5t-77 200.5v59h168v-65q0 -60 33 -88.5t108 -28.5q72 0 105 26.5t33 82.5
v39q0 34 -17 59.5t-69 54.5q-39 20 -132 71t-130 79q-89 66 -89 174v49q0 103 78.5 165t218.5 62q149 0 226.5 -70t77.5 -196v-49z" />
    <glyph glyph-name="s" unicode="&#x455;" horiz-adv-x="722" 
d="M662 680h-166v57q0 111 -131 111q-66 0 -101 -25t-35 -71v-31q0 -31 14 -51t58 -47q45 -28 134 -69.5t130 -68.5q55 -36 81 -80.5t26 -115.5v-45q0 -130 -73.5 -193t-229.5 -63q-164 0 -241 67.5t-77 200.5v59h168v-65q0 -60 33 -88.5t108 -28.5q72 0 105 26.5t33 82.5
v39q0 34 -17 59.5t-69 54.5q-39 20 -132 71t-130 79q-89 66 -89 174v49q0 103 78.5 165t218.5 62q149 0 226.5 -70t77.5 -196v-49z" />
    <glyph glyph-name="t" unicode="t" horiz-adv-x="702" 
d="M489 295v266h152v-266q0 -160 -61.5 -233.5t-212.5 -73.5q-158 0 -233 75.5t-75 231.5v960h174v-272h408v-158h-408v-530q0 -148 136 -148q65 0 92.5 35.5t27.5 112.5z" />
    <glyph glyph-name="u" unicode="u" horiz-adv-x="743" 
d="M59 983h179v-688q0 -82 30 -117t97 -35q65 0 94.5 34.5t48.5 125.5v680h176v-983h-166l-4 141h-8q-33 -83 -84 -118t-133 -35q-123 0 -176.5 76.5t-53.5 232.5v686z" />
    <glyph glyph-name="v" unicode="v" horiz-adv-x="698" 
d="M467 0h-227l-217 983h178l151 -760h8l146 760h170z" />
    <glyph glyph-name="v" unicode="&#x3bd;" horiz-adv-x="698" 
d="M467 0h-227l-217 983h178l151 -760h8l146 760h170z" />
    <glyph glyph-name="w" unicode="w" horiz-adv-x="1019" 
d="M383 0h-215l-148 983h164l107 -737h8l115 737h192l119 -737h8l105 737h161l-147 -983h-215l-123 752h-8z" />
    <glyph glyph-name="x" unicode="x" horiz-adv-x="731" 
d="M526 983h176l-231 -473l240 -510h-185l-159 344h-9l-155 -344h-183l242 500l-233 483h180l158 -328h8z" />
    <glyph glyph-name="x" unicode="&#x445;" horiz-adv-x="731" 
d="M526 983h176l-231 -473l240 -510h-185l-159 344h-9l-155 -344h-183l242 500l-233 483h180l158 -328h8z" />
    <glyph glyph-name="y" unicode="y" 
d="M238 983v-674q0 -147 129 -147q59 0 92 34.5t53 120.5v666h170v-1153q0 -155 -77 -231t-234 -76q-156 0 -230.5 75.5t-74.5 231.5v109h167v-109q0 -147 136 -147q137 0 137 147v305h-8q-31 -73 -82 -104t-127 -31q-123 0 -176.5 67.5t-53.5 190.5v725h179z" />
    <glyph glyph-name="y" unicode="&#x443;" 
d="M238 983v-674q0 -147 129 -147q59 0 92 34.5t53 120.5v666h170v-1153q0 -155 -77 -231t-234 -76q-156 0 -230.5 75.5t-74.5 231.5v109h167v-109q0 -147 136 -147q137 0 137 147v305h-8q-31 -73 -82 -104t-127 -31q-123 0 -176.5 67.5t-53.5 190.5v725h179z" />
    <glyph glyph-name="z" unicode="z" horiz-adv-x="628" 
d="M588 0h-545v166l350 659h-348v158h535v-160l-351 -661h359v-162z" />
    <glyph glyph-name="braceleft" unicode="{" horiz-adv-x="471" 
d="M434 -268h-90q-174 0 -174 245v431q0 124 -107 124v146q107 0 107 123v428q0 246 174 246h90v-140h-39q-86 0 -86 -106v-428q0 -153 -102 -193v-8q102 -40 102 -192v-431q0 -106 86 -106h39v-139z" />
    <glyph glyph-name="bar" unicode="|" horiz-adv-x="385" 
d="M262 -256h-139v1763h139v-1763z" />
    <glyph glyph-name="braceright" unicode="}" horiz-adv-x="471" 
d="M127 -268h-90v139h39q86 0 86 106v431q0 152 102 192v8q-102 40 -102 193v428q0 106 -86 106h-39v140h90q174 0 174 -246v-428q0 -123 107 -123v-146q-107 0 -107 -124v-431q0 -245 -174 -245z" />
    <glyph glyph-name="asciitilde" unicode="~" horiz-adv-x="704" 
d="M483 586q-53 0 -138 28.5t-130 28.5q-87 0 -160 -76v150q65 65 162 65q55 0 141 -28.5t129 -28.5q95 0 160 74v-150q-66 -63 -164 -63z" />
    <glyph glyph-name="uni00A0" unicode="&#xa0;" horiz-adv-x="241" 
 />
    <glyph glyph-name="exclamdown" unicode="&#xa1;" horiz-adv-x="342" 
d="M84 1008h178v-246h-178v246zM106 610h130q32 -324 32 -571v-391h-194v332q0 312 32 630z" />
    <glyph glyph-name="cent" unicode="&#xa2;" horiz-adv-x="716" 
d="M432 -12h-139v192q-121 15 -179.5 90t-58.5 213v418q0 137 58.5 211.5t179.5 91.5v168h139v-170q119 -15 174.5 -89t55.5 -212v-65h-166v77q0 75 -32.5 111.5t-101.5 36.5q-135 0 -135 -148v-442q0 -147 133 -147q69 0 101.5 36t32.5 111v82h168v-70q0 -136 -55.5 -211
t-174.5 -92v-192z" />
    <glyph glyph-name="sterling" unicode="&#xa3;" 
d="M686 666v-166h-448v-332h448v-168h-631v1028q0 167 82.5 255.5t239.5 88.5q309 0 309 -340v-203h-172v213q0 160 -135 160q-141 0 -141 -162v-374h448z" />
    <glyph glyph-name="currency" unicode="&#xa4;" horiz-adv-x="872" 
d="M727 297l-106 113q-87 -60 -183 -60q-91 0 -182 60l-104 -113l-91 90l113 105q-59 86 -59 184q0 97 57 180l-109 105l91 88l100 -107q83 57 184 57q96 0 185 -59l102 109l88 -88l-108 -103q59 -89 59 -184q0 -96 -59 -182l110 -105zM655 676q0 89 -64 152t-153 63
q-90 0 -152.5 -63.5t-62.5 -153.5q0 -89 63 -152t152 -63q90 0 153.5 63.5t63.5 153.5z" />
    <glyph glyph-name="yen" unicode="&#xa5;" horiz-adv-x="755" 
d="M467 0h-172v217h-201v115h201v160h-201v114h191l-265 754h175l184 -547h8l176 547h170l-256 -754h209v-114h-219v-160h219v-115h-219v-217z" />
    <glyph glyph-name="brokenbar" unicode="&#xa6;" horiz-adv-x="385" 
d="M262 -256h-139v786h139v-786zM262 729h-139v778h139v-778z" />
    <glyph glyph-name="section" unicode="&#xa7;" horiz-adv-x="628" 
d="M573 43v-63q0 -136 -61.5 -201.5t-192.5 -65.5q-138 0 -201 70t-63 207v41h140v-64q0 -63 26.5 -93t89.5 -30q59 0 85 28t26 87v78q0 38 -13 63.5t-55 55.5q-20 14 -57.5 35.5t-66 38t-62.5 44t-56.5 57t-37.5 74t-15 97.5v172q0 62 26 112t73 78v25q-99 77 -99 213v37
q0 106 65.5 169.5t184.5 63.5q123 0 184.5 -70.5t61.5 -193.5v-45h-137v59q0 117 -107 117q-55 0 -81.5 -27t-26.5 -73v-43q0 -36 11 -56.5t46 -50.5q30 -22 72.5 -46.5t73 -41t64 -42t54.5 -52t35 -68t14 -94.5v-203q0 -136 -59 -198v-23q59 -62 59 -178zM422 410v227
q0 21 -6.5 38.5t-14.5 29.5t-29.5 28t-35.5 24.5t-49 28.5q-84 -14 -84 -100v-192q0 -22 9 -42t20.5 -34t34 -30.5t37.5 -25t43 -23.5t40 -22q35 22 35 93z" />
    <glyph glyph-name="dieresis" unicode="&#xa8;" horiz-adv-x="583" 
d="M219 1104h-164v221h164v-221zM528 1104h-163v221h163v-221z" />
    <glyph glyph-name="copyright" unicode="&#xa9;" horiz-adv-x="757" 
d="M700 1018v-690q0 -170 -81.5 -255t-237.5 -85q-159 0 -242.5 89t-83.5 255v690q0 166 85 258t239 92q153 0 237 -93.5t84 -260.5zM623 328v690q0 131 -64.5 203.5t-179.5 72.5q-117 0 -181.5 -71.5t-64.5 -200.5v-690q0 -130 63 -198t185 -68q117 0 179.5 66t62.5 196z
M526 766h-77v74q0 80 -66 80q-39 0 -53.5 -26t-14.5 -81v-272q0 -55 14.5 -82t53.5 -27q66 0 66 78v111h77v-105q0 -158 -143 -158q-71 0 -108 41.5t-37 118.5v316q0 77 37 119t106 42q70 0 107.5 -43.5t37.5 -120.5v-65z" />
    <glyph glyph-name="ordfeminine" unicode="&#xaa;" horiz-adv-x="489" 
d="M315 930v164q-21 -18 -77 -35q-48 -14 -63 -31t-15 -51v-57q0 -62 65 -62q35 0 55.5 17.5t34.5 54.5zM428 768h-104l-5 72h-6q-39 -80 -135 -80q-129 0 -129 133v63q0 74 32.5 109t127.5 63q60 17 83 30t23 38v23q0 29 -17.5 42t-55.5 13q-41 0 -58.5 -14.5t-17.5 -47.5
v-38h-107v49q0 74 49.5 111.5t141.5 37.5q178 0 178 -139v-465z" />
    <glyph glyph-name="guillemotleft" unicode="&#xab;" horiz-adv-x="585" 
d="M256 377l-229 274l229 275l70 -76l-172 -199l172 -198zM489 377l-229 274l229 275l70 -76l-172 -199l172 -198z" />
    <glyph glyph-name="logicalnot" unicode="&#xac;" horiz-adv-x="704" 
d="M647 16h-139v779h-453v139h592v-918z" />
    <glyph glyph-name="registered" unicode="&#xae;" horiz-adv-x="593" 
d="M537 1108v-270q0 -254 -238 -254q-119 0 -181.5 66t-62.5 192v268q0 125 63.5 193.5t178.5 68.5t177.5 -69.5t62.5 -194.5zM475 838v270q0 96 -46.5 148.5t-131.5 52.5t-131.5 -52t-46.5 -147v-268q0 -197 180 -197q176 0 176 193zM410 786h-64v125q0 43 -43 43h-53v-168
h-64v412h133q48 0 68.5 -24t20.5 -72v-45q0 -66 -46 -72v-6q48 -9 48 -72v-121zM344 1051v45q0 45 -39 45h-55v-131h53q41 0 41 41z" />
    <glyph glyph-name="macron" unicode="&#xaf;" horiz-adv-x="591" 
d="M535 1151h-480v113h480v-113z" />
    <glyph glyph-name="degree" unicode="&#xb0;" horiz-adv-x="362" 
d="M180 1059q-75 0 -111 44.5t-36 115.5q0 72 35.5 114.5t111.5 42.5t113 -42.5t37 -114.5q0 -71 -37.5 -115.5t-112.5 -44.5zM180 1133q38 0 57 23.5t19 62.5t-19 62.5t-57 23.5q-74 0 -74 -86t74 -86z" />
    <glyph glyph-name="plusminus" unicode="&#xb1;" horiz-adv-x="704" 
d="M420 385h-139v231h-226v140h226v221h139v-221h227v-140h-227v-231zM647 51h-592v139h592v-139z" />
    <glyph glyph-name="twosuperior" unicode="&#xb2;" horiz-adv-x="417" 
d="M369 688h-316v109q0 94 56 155q19 21 69.5 62.5t67.5 62.5q28 39 28 92v37q0 37 -13 52.5t-46 15.5q-36 0 -48.5 -16.5t-12.5 -59.5v-49h-97v43q0 94 30.5 134t127.5 40q90 0 122 -36t32 -122v-41q0 -89 -47 -139q-16 -18 -66.5 -60.5t-67.5 -60.5q-21 -22 -27.5 -41
t-6.5 -51v-39h215v-88z" />
    <glyph glyph-name="threesuperior" unicode="&#xb3;" horiz-adv-x="417" 
d="M371 915v-67q0 -166 -158 -166q-160 0 -160 180v25h97v-29q0 -47 13 -65.5t48 -18.5q32 0 46.5 15.5t14.5 52.5v80q0 38 -16 56.5t-53 18.5h-43v84h47q36 0 48.5 17t12.5 55v49q0 38 -12.5 54t-44.5 16q-34 0 -47.5 -17.5t-13.5 -58.5v-29h-97v23q0 85 41 130.5t117 45.5
q73 0 111 -44t38 -112v-49q0 -99 -69 -117v-4q80 -20 80 -125z" />
    <glyph glyph-name="acute" unicode="&#xb4;" horiz-adv-x="522" 
d="M461 1331l-330 -299l-70 72l306 334z" />
    <glyph glyph-name="paragraph" unicode="&#xb6;" horiz-adv-x="749" 
d="M668 -205h-146v1419h-186v-1419h-148v1106q-147 21 -147 160v143q0 156 205 156h479l-57 -148v-1417z" />
    <glyph glyph-name="periodcentered" unicode="&#xb7;" horiz-adv-x="290" 
d="M236 559h-181v246h181v-246z" />
    <glyph glyph-name="cedilla" unicode="&#xb8;" horiz-adv-x="272" 
d="M57 -459v86q40 13 59 37t19 72v31h-78v196h158v-184q0 -111 -37.5 -168t-120.5 -70z" />
    <glyph glyph-name="onesuperior" unicode="&#xb9;" horiz-adv-x="284" 
d="M229 688h-96v512h-88v80q56 0 74.5 16.5t23.5 63.5h86v-672z" />
    <glyph glyph-name="ordmasculine" unicode="&#xba;" horiz-adv-x="483" 
d="M422 1186v-238q0 -96 -45 -141t-141 -45t-140.5 45t-44.5 141v238q0 96 44.5 141t140.5 45t141 -45t45 -141zM311 948v238q0 45 -18.5 64.5t-56.5 19.5q-39 0 -57.5 -19.5t-18.5 -64.5v-238q0 -45 18.5 -65.5t57.5 -20.5q75 0 75 86z" />
    <glyph glyph-name="guillemotright" unicode="&#xbb;" horiz-adv-x="585" 
d="M96 377l-69 76l172 200l-172 197l69 76l230 -273zM330 377l-70 76l172 200l-172 197l70 76l229 -273z" />
    <glyph glyph-name="onequarter" unicode="&#xbc;" horiz-adv-x="815" 
d="M244 688h-97v512h-88v80q56 0 75 17t24 63h86v-672zM209 -39h-113l461 1438h113zM705 0h-97v139h-190v84l168 449h119v-447h49v-86h-49v-139zM608 225v303h-4l-115 -303h119z" />
    <glyph glyph-name="onehalf" unicode="&#xbd;" horiz-adv-x="815" 
d="M193 -39h-113l461 1438h112zM221 688h-96v512h-88v80q56 0 74.5 16.5t23.5 63.5h86v-672zM776 0h-315v109q0 95 55 155q19 21 69.5 62.5t67.5 62.5q29 40 29 92v37q0 37 -13 52.5t-46 15.5q-36 0 -49 -17t-13 -59v-49h-96v43q0 94 30.5 134t127.5 40q90 0 121.5 -36
t31.5 -122v-41q0 -89 -47 -139q-16 -18 -66 -60.5t-67 -60.5q-21 -23 -28 -41.5t-7 -50.5v-39h215v-88z" />
    <glyph glyph-name="threequarters" unicode="&#xbe;" horiz-adv-x="815" 
d="M354 915v-67q0 -166 -157 -166q-160 0 -160 180v25h96v-29q0 -46 13.5 -65t48.5 -19q32 0 46.5 15.5t14.5 52.5v80q0 38 -16.5 56.5t-53.5 18.5h-43v84h47q36 0 49 17t13 55v49q0 38 -12.5 54t-44.5 16q-35 0 -48.5 -17.5t-13.5 -58.5v-29h-96v23q0 85 41 130.5t117 45.5
q73 0 111 -44t38 -112v-49q0 -99 -70 -117v-4q80 -20 80 -125zM258 -39h-113l461 1438h113zM727 0h-96v139h-191v84l168 449h119v-447h49v-86h-49v-139zM631 225v303h-4l-115 -303h119z" />
    <glyph glyph-name="questiondown" unicode="&#xbf;" horiz-adv-x="710" 
d="M264 1008h180v-244h-180v244zM268 612h170v-96q0 -89 -43 -166q-24 -44 -80.5 -116.5t-72.5 -112.5q-19 -47 -19 -103v-55q0 -84 26.5 -120t104.5 -36q88 0 115 42t27 131v63h172v-51q0 -63 -3 -104.5t-13.5 -86.5t-31.5 -72t-55.5 -50.5t-87.5 -33.5t-125 -10
q-97 0 -157.5 19t-92.5 64t-42.5 101t-10.5 148v70q0 70 29 137q19 42 79.5 120.5t82.5 123.5q28 61 28 125v69z" />
    <glyph glyph-name="Agrave" unicode="&#xc0;" horiz-adv-x="761" 
d="M735 0h-180l-53 319h-250l-49 -319h-178l231 1360h248zM373 1073l-97 -596h201l-96 596h-8zM467 1386l-330 300l94 106l306 -334z" />
    <glyph glyph-name="Aacute" unicode="&#xc1;" horiz-adv-x="761" 
d="M735 0h-180l-53 319h-250l-49 -319h-178l231 1360h248zM373 1073l-97 -596h201l-96 596h-8zM618 1686l-329 -300l-70 72l305 334z" />
    <glyph glyph-name="Acircumflex" unicode="&#xc2;" horiz-adv-x="761" 
d="M735 0h-180l-53 319h-250l-49 -319h-178l231 1360h248zM373 1073l-97 -596h201l-96 596h-8zM643 1450l-78 -61l-192 221l-193 -221l-78 61l189 264h162z" />
    <glyph glyph-name="Atilde" unicode="&#xc3;" horiz-adv-x="761" 
d="M735 0h-180l-53 319h-250l-49 -319h-178l231 1360h248zM373 1073l-97 -596h201l-96 596h-8zM575 1606l80 -47q-33 -121 -149 -121q-45 0 -122.5 33.5t-121.5 33.5q-30 0 -49.5 -13t-32.5 -46l-80 47q36 121 150 121q46 0 124 -34t120 -34q61 0 81 60z" />
    <glyph glyph-name="Adieresis" unicode="&#xc4;" horiz-adv-x="761" 
d="M735 0h-180l-53 319h-250l-49 -319h-178l231 1360h248zM373 1073l-97 -596h201l-96 596h-8zM307 1458h-164v221h164v-221zM616 1458h-163v221h163v-221z" />
    <glyph glyph-name="Aring" unicode="&#xc5;" horiz-adv-x="761" 
d="M735 0h-180l-53 319h-250l-49 -319h-178l231 1360h248zM373 1073l-97 -596h201l-96 596h-8zM379 1464q46 0 71 29.5t25 83.5q0 56 -25 86.5t-71 30.5q-47 0 -71.5 -30.5t-24.5 -86.5q0 -54 24.5 -83.5t71.5 -29.5zM379 1386q-88 0 -132 50t-44 141q0 92 44 142t132 50
q86 0 130 -50t44 -142q0 -91 -44 -141t-130 -50z" />
    <glyph glyph-name="AE" unicode="&#xc6;" horiz-adv-x="1021" 
d="M987 0h-504v319h-231l-49 -319h-178l231 1360h715v-166h-307v-397h280v-168h-280v-463h323v-166zM385 1194l-111 -717h209v717h-98z" />
    <glyph glyph-name="Ccedilla" unicode="&#xc7;" horiz-adv-x="743" 
d="M514 317v238h174v-227q0 -340 -313 -340q-157 0 -238.5 88.5t-81.5 255.5v700q0 169 79.5 254.5t234.5 85.5q156 0 237.5 -85t81.5 -253v-162h-174v162q0 80 -35.5 123t-103.5 43q-67 0 -102 -42t-35 -122v-719q0 -159 137 -159q139 0 139 159zM287 -459v86q40 13 59 37
t19 72v31h-78v196h157v-184q0 -111 -37 -168t-120 -70z" />
    <glyph glyph-name="Egrave" unicode="&#xc8;" horiz-adv-x="598" 
d="M563 0h-508v1360h492v-166h-311v-397h284v-168h-284v-463h327v-166zM397 1386l-329 300l94 106l305 -334z" />
    <glyph glyph-name="Egrave" unicode="&#x400;" horiz-adv-x="598" 
d="M563 0h-508v1360h492v-166h-311v-397h284v-168h-284v-463h327v-166zM397 1386l-329 300l94 106l305 -334z" />
    <glyph glyph-name="Eacute" unicode="&#xc9;" horiz-adv-x="598" 
d="M563 0h-508v1360h492v-166h-311v-397h284v-168h-284v-463h327v-166zM547 1686l-330 -300l-70 72l306 334z" />
    <glyph glyph-name="Ecircumflex" unicode="&#xca;" horiz-adv-x="598" 
d="M563 0h-508v1360h492v-166h-311v-397h284v-168h-284v-463h327v-166zM575 1450l-77 -61l-193 221l-192 -221l-78 61l188 264h162z" />
    <glyph glyph-name="Edieresis" unicode="&#xcb;" horiz-adv-x="598" 
d="M563 0h-508v1360h492v-166h-311v-397h284v-168h-284v-463h327v-166zM229 1458h-163v221h163v-221zM539 1458h-164v221h164v-221z" />
    <glyph glyph-name="Edieresis" unicode="&#x401;" horiz-adv-x="598" 
d="M563 0h-508v1360h492v-166h-311v-397h284v-168h-284v-463h327v-166zM229 1458h-163v221h163v-221zM539 1458h-164v221h164v-221z" />
    <glyph glyph-name="Igrave" unicode="&#xcc;" horiz-adv-x="337" 
d="M283 0h-185v1360h185v-1360zM250 1386l-330 300l94 106l305 -334z" />
    <glyph glyph-name="Iacute" unicode="&#xcd;" horiz-adv-x="348" 
d="M240 0h-185v1360h185v-1360zM434 1686l-330 -300l-69 72l305 334z" />
    <glyph glyph-name="Icircumflex" unicode="&#xce;" horiz-adv-x="430" 
d="M307 0h-184v1360h184v-1360zM485 1450l-77 -61l-193 221l-192 -221l-78 61l188 264h162z" />
    <glyph glyph-name="Idieresis" unicode="&#xcf;" horiz-adv-x="407" 
d="M293 0h-184v1360h184v-1360zM131 1434h-164v221h164v-221zM440 1434h-164v221h164v-221z" />
    <glyph glyph-name="Idieresis" unicode="&#x407;" horiz-adv-x="407" 
d="M293 0h-184v1360h184v-1360zM131 1434h-164v221h164v-221zM440 1434h-164v221h164v-221z" />
    <glyph glyph-name="Idieresis" unicode="&#x3aa;" horiz-adv-x="407" 
d="M293 0h-184v1360h184v-1360zM131 1434h-164v221h164v-221zM440 1434h-164v221h164v-221z" />
    <glyph glyph-name="Eth" unicode="&#xd0;" horiz-adv-x="786" 
d="M420 0h-334v629h-72v168h72v563h334q153 0 232 -79t79 -234v-715q0 -332 -311 -332zM264 166h144q55 0 87 32.5t42 80.5t10 120v602q0 98 -33.5 145.5t-116.5 47.5h-133v-397h156v-168h-156v-463z" />
    <glyph glyph-name="Eth" unicode="&#x110;" horiz-adv-x="786" 
d="M420 0h-334v629h-72v168h72v563h334q153 0 232 -79t79 -234v-715q0 -332 -311 -332zM264 166h144q55 0 87 32.5t42 80.5t10 120v602q0 98 -33.5 145.5t-116.5 47.5h-133v-397h156v-168h-156v-463z" />
    <glyph glyph-name="Ntilde" unicode="&#xd1;" horiz-adv-x="802" 
d="M745 0h-215l-311 1053h-8q6 -150 6 -287v-766h-162v1360h242l285 -977h8q-6 194 -6 330v647h161v-1360zM598 1606l80 -47q-33 -121 -150 -121q-45 0 -122 33.5t-121 33.5q-30 0 -49.5 -13t-32.5 -46l-80 47q36 121 149 121q46 0 124 -34t120 -34q62 0 82 60z" />
    <glyph glyph-name="Ograve" unicode="&#xd2;" 
d="M692 1018v-690q0 -169 -82 -254.5t-237 -85.5q-158 0 -242 89t-84 255v690q0 166 85 258t239 92q153 0 237 -93.5t84 -260.5zM512 317v717q0 80 -37 123t-106 43q-66 0 -103 -42.5t-37 -121.5v-717q0 -79 36.5 -120t105.5 -41q141 0 141 159zM467 1386l-330 300l94 106
l306 -334z" />
    <glyph glyph-name="Oacute" unicode="&#xd3;" 
d="M692 1018v-690q0 -169 -82 -254.5t-237 -85.5q-158 0 -242 89t-84 255v690q0 166 85 258t239 92q153 0 237 -93.5t84 -260.5zM512 317v717q0 80 -37 123t-106 43q-66 0 -103 -42.5t-37 -121.5v-717q0 -79 36.5 -120t105.5 -41q141 0 141 159zM612 1686l-329 -300l-70 72
l305 334z" />
    <glyph glyph-name="Ocircumflex" unicode="&#xd4;" 
d="M692 1018v-690q0 -169 -82 -254.5t-237 -85.5q-158 0 -242 89t-84 255v690q0 166 85 258t239 92q153 0 237 -93.5t84 -260.5zM512 317v717q0 80 -37 123t-106 43q-66 0 -103 -42.5t-37 -121.5v-717q0 -79 36.5 -120t105.5 -41q141 0 141 159zM643 1450l-78 -61l-192 221
l-193 -221l-78 61l189 264h162z" />
    <glyph glyph-name="Otilde" unicode="&#xd5;" 
d="M692 1018v-690q0 -169 -82 -254.5t-237 -85.5q-158 0 -242 89t-84 255v690q0 166 85 258t239 92q153 0 237 -93.5t84 -260.5zM512 317v717q0 80 -37 123t-106 43q-66 0 -103 -42.5t-37 -121.5v-717q0 -79 36.5 -120t105.5 -41q141 0 141 159zM569 1606l80 -47
q-33 -121 -149 -121q-45 0 -122.5 33.5t-121.5 33.5q-30 0 -49.5 -13t-32.5 -46l-80 47q36 121 150 121q46 0 123 -34t120 -34q62 0 82 60z" />
    <glyph glyph-name="Odieresis" unicode="&#xd6;" 
d="M692 1018v-690q0 -169 -82 -254.5t-237 -85.5q-158 0 -242 89t-84 255v690q0 166 85 258t239 92q153 0 237 -93.5t84 -260.5zM512 317v717q0 80 -37 123t-106 43q-66 0 -103 -42.5t-37 -121.5v-717q0 -79 36.5 -120t105.5 -41q141 0 141 159zM299 1458h-164v221h164v-221
zM608 1458h-164v221h164v-221z" />
    <glyph glyph-name="multiply" unicode="&#xd7;" horiz-adv-x="704" 
d="M625 854l-174 -172l176 -174l-101 -98l-174 174l-174 -174l-98 96l174 174l-172 174l98 98l172 -174l174 174z" />
    <glyph glyph-name="Oslash" unicode="&#xd8;" 
d="M199 -39h-115l39 123q-76 92 -76 248v690q0 166 85 258t239 92q82 0 153 -33l21 60h114l-43 -131q76 -95 76 -250v-690q0 -169 -82 -254.5t-237 -85.5q-89 0 -156 28zM229 1036v-622h9l231 749q-37 37 -100 37q-66 0 -103 -42.5t-37 -121.5zM512 317v621h-8l-232 -748
q32 -32 99 -32q141 0 141 159z" />
    <glyph glyph-name="Ugrave" unicode="&#xd9;" horiz-adv-x="753" 
d="M516 319v1041h180v-1028q0 -167 -81 -255.5t-238 -88.5q-156 0 -239 86t-83 254v1032h181v-1043q0 -159 139 -159q141 0 141 161zM471 1386l-330 300l95 106l305 -334z" />
    <glyph glyph-name="Uacute" unicode="&#xda;" horiz-adv-x="753" 
d="M516 319v1041h180v-1028q0 -167 -81 -255.5t-238 -88.5q-156 0 -239 86t-83 254v1032h181v-1043q0 -159 139 -159q141 0 141 161zM614 1686l-329 -300l-70 72l305 334z" />
    <glyph glyph-name="Ucircumflex" unicode="&#xdb;" horiz-adv-x="753" 
d="M516 319v1041h180v-1028q0 -167 -81 -255.5t-238 -88.5q-156 0 -239 86t-83 254v1032h181v-1043q0 -159 139 -159q141 0 141 161zM643 1450l-78 -61l-192 221l-193 -221l-78 61l189 264h162z" />
    <glyph glyph-name="Udieresis" unicode="&#xdc;" horiz-adv-x="753" 
d="M516 319v1041h180v-1028q0 -167 -81 -255.5t-238 -88.5q-156 0 -239 86t-83 254v1032h181v-1043q0 -159 139 -159q141 0 141 161zM303 1458h-164v221h164v-221zM612 1458h-163v221h163v-221z" />
    <glyph glyph-name="Yacute" unicode="&#xdd;" horiz-adv-x="755" 
d="M473 0h-184v575l-269 785h179l180 -541h8l172 541h174l-260 -787v-573zM627 1686l-330 -300l-70 72l305 334z" />
    <glyph glyph-name="Thorn" unicode="&#xde;" horiz-adv-x="743" 
d="M55 0v1360h185v-203h194q136 0 197 -69t61 -203v-338q0 -134 -61 -203.5t-197 -69.5h-194v-274h-185zM397 997h-157v-563h157q68 0 94.5 41.5t26.5 126.5v254q0 141 -121 141z" />
    <glyph glyph-name="germandbls" unicode="&#xdf;" horiz-adv-x="778" 
d="M555 303v166q0 102 -35.5 150.5t-130.5 48.5h-59v147h47q129 0 129 125v156q0 133 -137 133q-82 0 -112 -49t-30 -152v-1028h-172v1081q0 160 77.5 234t244.5 74q154 0 232.5 -63.5t78.5 -207.5v-151q0 -194 -145 -219v-9q184 -23 184 -274v-162q0 -162 -69 -238.5
t-224 -76.5q-63 0 -131 20v150q55 -19 105 -19q147 0 147 164z" />
    <glyph glyph-name="agrave" unicode="&#xe0;" horiz-adv-x="727" 
d="M496 260v281q-12 -9 -22.5 -15t-24.5 -11.5t-23.5 -8.5t-32.5 -9.5t-39 -11.5q-82 -25 -108.5 -57t-26.5 -92v-88q0 -105 117 -105q60 0 98 28.5t62 88.5zM670 0h-162l-6 125h-8q-37 -65 -91 -101t-143 -36q-215 0 -215 219v98q0 126 56.5 185.5t205.5 101.5l38.5 11
l38.5 11t34 11t31.5 13.5t23 15.5t16.5 20.5t5 25.5v41q0 101 -127 101q-140 0 -140 -111v-63h-166v84q0 121 82 182t234 61q293 0 293 -229v-766zM459 1032l-330 299l94 107l305 -334z" />
    <glyph glyph-name="aacute" unicode="&#xe1;" horiz-adv-x="727" 
d="M496 260v281q-12 -9 -22.5 -15t-24.5 -11.5t-23.5 -8.5t-32.5 -9.5t-39 -11.5q-82 -25 -108.5 -57t-26.5 -92v-88q0 -105 117 -105q60 0 98 28.5t62 88.5zM670 0h-162l-6 125h-8q-37 -65 -91 -101t-143 -36q-215 0 -215 219v98q0 126 56.5 185.5t205.5 101.5l38.5 11
l38.5 11t34 11t31.5 13.5t23 15.5t16.5 20.5t5 25.5v41q0 101 -127 101q-140 0 -140 -111v-63h-166v84q0 121 82 182t234 61q293 0 293 -229v-766zM600 1331l-330 -299l-69 72l305 334z" />
    <glyph glyph-name="acircumflex" unicode="&#xe2;" horiz-adv-x="727" 
d="M496 260v281q-12 -9 -22.5 -15t-24.5 -11.5t-23.5 -8.5t-32.5 -9.5t-39 -11.5q-82 -25 -108.5 -57t-26.5 -92v-88q0 -105 117 -105q60 0 98 28.5t62 88.5zM670 0h-162l-6 125h-8q-37 -65 -91 -101t-143 -36q-215 0 -215 219v98q0 126 56.5 185.5t205.5 101.5l38.5 11
l38.5 11t34 11t31.5 13.5t23 15.5t16.5 20.5t5 25.5v41q0 101 -127 101q-140 0 -140 -111v-63h-166v84q0 121 82 182t234 61q293 0 293 -229v-766zM631 1096l-78 -62l-193 221l-192 -221l-78 62l189 264h161z" />
    <glyph glyph-name="atilde" unicode="&#xe3;" horiz-adv-x="727" 
d="M496 260v281q-12 -9 -22.5 -15t-24.5 -11.5t-23.5 -8.5t-32.5 -9.5t-39 -11.5q-82 -25 -108.5 -57t-26.5 -92v-88q0 -105 117 -105q60 0 98 28.5t62 88.5zM670 0h-162l-6 125h-8q-37 -65 -91 -101t-143 -36q-215 0 -215 219v98q0 126 56.5 185.5t205.5 101.5l38.5 11
l38.5 11t34 11t31.5 13.5t23 15.5t16.5 20.5t5 25.5v41q0 101 -127 101q-140 0 -140 -111v-63h-166v84q0 121 82 182t234 61q293 0 293 -229v-766zM559 1251l80 -47q-33 -121 -150 -121q-45 0 -122 34t-121 34q-30 0 -49.5 -13t-32.5 -46l-80 47q36 121 149 121
q46 0 123.5 -34t120.5 -34q62 0 82 59z" />
    <glyph glyph-name="adieresis" unicode="&#xe4;" horiz-adv-x="727" 
d="M496 260v281q-12 -9 -22.5 -15t-24.5 -11.5t-23.5 -8.5t-32.5 -9.5t-39 -11.5q-82 -25 -108.5 -57t-26.5 -92v-88q0 -105 117 -105q60 0 98 28.5t62 88.5zM670 0h-162l-6 125h-8q-37 -65 -91 -101t-143 -36q-215 0 -215 219v98q0 126 56.5 185.5t205.5 101.5l38.5 11
l38.5 11t34 11t31.5 13.5t23 15.5t16.5 20.5t5 25.5v41q0 101 -127 101q-140 0 -140 -111v-63h-166v84q0 121 82 182t234 61q293 0 293 -229v-766zM291 1104h-164v221h164v-221zM600 1104h-164v221h164v-221z" />
    <glyph glyph-name="aring" unicode="&#xe5;" horiz-adv-x="727" 
d="M496 260v281q-12 -9 -22.5 -15t-24.5 -11.5t-23.5 -8.5t-32.5 -9.5t-39 -11.5q-82 -25 -108.5 -57t-26.5 -92v-88q0 -105 117 -105q60 0 98 28.5t62 88.5zM670 0h-162l-6 125h-8q-37 -65 -91 -101t-143 -36q-215 0 -215 219v98q0 126 56.5 185.5t205.5 101.5l38.5 11
l38.5 11t34 11t31.5 13.5t23 15.5t16.5 20.5t5 25.5v41q0 101 -127 101q-140 0 -140 -111v-63h-166v84q0 121 82 182t234 61q293 0 293 -229v-766zM369 1110q46 0 71 29.5t25 83.5q0 55 -25 85.5t-71 30.5q-47 0 -72 -30t-25 -86q0 -54 25 -83.5t72 -29.5zM369 1032
q-88 0 -132 50t-44 141q0 92 44 142t132 50q86 0 130 -50t44 -142q0 -91 -44 -141t-130 -50z" />
    <glyph glyph-name="ae" unicode="&#xe6;" horiz-adv-x="1169" 
d="M1110 340v-45q0 -154 -76.5 -230.5t-234.5 -76.5q-116 0 -185 41.5t-98 128.5h-8q-72 -170 -250 -170q-213 0 -213 219v98q0 126 56.5 185.5t205.5 101.5l38.5 11l38.5 11t34 11t31.5 13.5t23 15.5t16.5 20.5t5 25.5v41q0 101 -127 101q-140 0 -140 -111v-63h-166v84
q0 121 82 182t234 61q147 0 215 -59q74 59 211 59q155 0 231 -76t76 -231v-244h-444v-153q0 -148 135 -148t135 148v49h174zM496 260v281q-12 -9 -22.5 -15t-24.5 -11.5t-23.5 -8.5t-32.5 -9.5t-39 -11.5q-82 -25 -108.5 -57t-26.5 -92v-88q0 -105 117 -105q60 0 98 28.5
t62 88.5zM938 575v117q0 148 -137 148q-135 0 -135 -148v-117h272z" />
    <glyph glyph-name="ccedilla" unicode="&#xe7;" horiz-adv-x="724" 
d="M498 295v70h168v-70q0 -156 -72.5 -231.5t-228.5 -75.5q-155 0 -230.5 75t-75.5 232v393q0 156 75.5 231.5t232.5 75.5q155 0 227 -75t72 -232v-65h-166v65q0 148 -133 148q-136 0 -136 -148v-393q0 -148 134 -148q69 0 101 36.5t32 111.5zM283 -459v86q40 13 58.5 37
t18.5 72v31h-77v196h157v-184q0 -111 -37 -168t-120 -70z" />
    <glyph glyph-name="egrave" unicode="&#xe8;" horiz-adv-x="735" 
d="M676 340v-45q0 -154 -76.5 -230.5t-234.5 -76.5q-155 0 -230.5 75t-75.5 232v393q0 156 75.5 231.5t232.5 75.5t233 -76t76 -231v-244h-445v-153q0 -148 134 -148q137 0 137 148v49h174zM502 575v117q0 148 -135 148q-136 0 -136 -148v-117h271zM461 1032l-330 299
l94 107l305 -334z" />
    <glyph glyph-name="egrave" unicode="&#x450;" horiz-adv-x="735" 
d="M676 340v-45q0 -154 -76.5 -230.5t-234.5 -76.5q-155 0 -230.5 75t-75.5 232v393q0 156 75.5 231.5t232.5 75.5t233 -76t76 -231v-244h-445v-153q0 -148 134 -148q137 0 137 148v49h174zM502 575v117q0 148 -135 148q-136 0 -136 -148v-117h271zM461 1032l-330 299
l94 107l305 -334z" />
    <glyph glyph-name="eacute" unicode="&#xe9;" horiz-adv-x="735" 
d="M676 340v-45q0 -154 -76.5 -230.5t-234.5 -76.5q-155 0 -230.5 75t-75.5 232v393q0 156 75.5 231.5t232.5 75.5t233 -76t76 -231v-244h-445v-153q0 -148 134 -148q137 0 137 148v49h174zM502 575v117q0 148 -135 148q-136 0 -136 -148v-117h271zM606 1331l-330 -299
l-69 72l305 334z" />
    <glyph glyph-name="ecircumflex" unicode="&#xea;" horiz-adv-x="735" 
d="M676 340v-45q0 -154 -76.5 -230.5t-234.5 -76.5q-155 0 -230.5 75t-75.5 232v393q0 156 75.5 231.5t232.5 75.5t233 -76t76 -231v-244h-445v-153q0 -148 134 -148q137 0 137 148v49h174zM502 575v117q0 148 -135 148q-136 0 -136 -148v-117h271zM637 1096l-78 -62
l-192 221l-193 -221l-78 62l189 264h161z" />
    <glyph glyph-name="edieresis" unicode="&#xeb;" horiz-adv-x="735" 
d="M676 340v-45q0 -154 -76.5 -230.5t-234.5 -76.5q-155 0 -230.5 75t-75.5 232v393q0 156 75.5 231.5t232.5 75.5t233 -76t76 -231v-244h-445v-153q0 -148 134 -148q137 0 137 148v49h174zM502 575v117q0 148 -135 148q-136 0 -136 -148v-117h271zM297 1104h-164v221h164
v-221zM606 1104h-164v221h164v-221z" />
    <glyph glyph-name="edieresis" unicode="&#x451;" horiz-adv-x="735" 
d="M676 340v-45q0 -154 -76.5 -230.5t-234.5 -76.5q-155 0 -230.5 75t-75.5 232v393q0 156 75.5 231.5t232.5 75.5t233 -76t76 -231v-244h-445v-153q0 -148 134 -148q137 0 137 148v49h174zM502 575v117q0 148 -135 148q-136 0 -136 -148v-117h271zM297 1104h-164v221h164
v-221zM606 1104h-164v221h164v-221z" />
    <glyph glyph-name="igrave" unicode="&#xec;" horiz-adv-x="368" 
d="M307 1032l-330 299l95 107l305 -334zM307 0h-176v983h176v-983z" />
    <glyph glyph-name="iacute" unicode="&#xed;" horiz-adv-x="385" 
d="M410 1331l-330 -299l-70 72l305 334zM236 0h-177v983h177v-983z" />
    <glyph glyph-name="icircumflex" unicode="&#xee;" horiz-adv-x="495" 
d="M334 0h-176v983h176v-983zM518 1096l-78 -62l-192 221l-193 -221l-78 62l189 264h162z" />
    <glyph glyph-name="idieresis" unicode="&#xef;" horiz-adv-x="413" 
d="M133 1104h-164v221h164v-221zM442 1104h-163v221h163v-221zM291 0h-176v983h176v-983z" />
    <glyph glyph-name="idieresis" unicode="&#x457;" horiz-adv-x="413" 
d="M133 1104h-164v221h164v-221zM442 1104h-163v221h163v-221zM291 0h-176v983h176v-983z" />
    <glyph glyph-name="eth" unicode="&#xf0;" horiz-adv-x="743" 
d="M684 1356v-86l-121 -51q121 -153 121 -388v-469q0 -102 -14 -169t-49 -115t-96.5 -69t-155.5 -21q-93 0 -156 20.5t-95.5 62t-45.5 92t-13 122.5v450q0 115 64.5 173.5t171.5 58.5q75 0 126 -26.5t85 -92.5h8v70q0 120 -86 245l-235 -98v88l184 76q-80 86 -184 147h169
q83 -41 142 -94zM375 143q84 0 110.5 49.5t26.5 178.5v331q-27 65 -58 88t-85 23q-68 0 -99.5 -34.5t-31.5 -114.5v-402q0 -119 137 -119z" />
    <glyph glyph-name="ntilde" unicode="&#xf1;" horiz-adv-x="747" 
d="M688 0h-178v700q0 140 -127 140q-60 0 -91.5 -32.5t-55.5 -111.5v-696h-177v983h164l6 -141h9q32 79 84.5 116t130.5 37q107 0 171 -68.5t64 -193.5v-733zM571 1251l80 -47q-33 -121 -149 -121q-45 0 -122.5 34t-121.5 34q-30 0 -49.5 -13t-32.5 -46l-80 47
q36 121 150 121q46 0 123 -34t120 -34q62 0 82 59z" />
    <glyph glyph-name="ograve" unicode="&#xf2;" horiz-adv-x="733" 
d="M674 688v-393q0 -158 -75 -232.5t-232 -74.5t-232.5 74.5t-75.5 232.5v393q0 158 75.5 232.5t232.5 74.5t232 -74.5t75 -232.5zM502 295v393q0 148 -135 148q-136 0 -136 -148v-393q0 -148 136 -148q135 0 135 148zM461 1032l-330 299l94 107l305 -334z" />
    <glyph glyph-name="oacute" unicode="&#xf3;" horiz-adv-x="733" 
d="M674 688v-393q0 -158 -75 -232.5t-232 -74.5t-232.5 74.5t-75.5 232.5v393q0 158 75.5 232.5t232.5 74.5t232 -74.5t75 -232.5zM502 295v393q0 148 -135 148q-136 0 -136 -148v-393q0 -148 136 -148q135 0 135 148zM606 1331l-330 -299l-69 72l305 334z" />
    <glyph glyph-name="ocircumflex" unicode="&#xf4;" horiz-adv-x="733" 
d="M674 688v-393q0 -158 -75 -232.5t-232 -74.5t-232.5 74.5t-75.5 232.5v393q0 158 75.5 232.5t232.5 74.5t232 -74.5t75 -232.5zM502 295v393q0 148 -135 148q-136 0 -136 -148v-393q0 -148 136 -148q135 0 135 148zM639 1096l-78 -62l-192 221l-193 -221l-78 62l189 264
h162z" />
    <glyph glyph-name="otilde" unicode="&#xf5;" horiz-adv-x="733" 
d="M674 688v-393q0 -158 -75 -232.5t-232 -74.5t-232.5 74.5t-75.5 232.5v393q0 158 75.5 232.5t232.5 74.5t232 -74.5t75 -232.5zM502 295v393q0 148 -135 148q-136 0 -136 -148v-393q0 -148 136 -148q135 0 135 148zM563 1251l80 -47q-33 -121 -149 -121q-45 0 -122.5 34
t-121.5 34q-30 0 -49.5 -13t-32.5 -46l-80 47q36 121 150 121q46 0 123 -34t120 -34q62 0 82 59z" />
    <glyph glyph-name="odieresis" unicode="&#xf6;" horiz-adv-x="733" 
d="M674 688v-393q0 -158 -75 -232.5t-232 -74.5t-232.5 74.5t-75.5 232.5v393q0 158 75.5 232.5t232.5 74.5t232 -74.5t75 -232.5zM502 295v393q0 148 -135 148q-136 0 -136 -148v-393q0 -148 136 -148q135 0 135 148zM297 1104h-164v221h164v-221zM606 1104h-164v221h164
v-221z" />
    <glyph glyph-name="divide" unicode="&#xf7;" horiz-adv-x="704" 
d="M647 612h-592v140h592v-140zM440 221h-180v244h180v-244zM440 901h-180v244h180v-244z" />
    <glyph glyph-name="oslash" unicode="&#xf8;" horiz-adv-x="733" 
d="M195 -33h-109l43 101q-70 73 -70 227v393q0 158 75.5 232.5t232.5 74.5q89 0 153 -24l21 47h108l-45 -105q70 -73 70 -225v-393q0 -158 -75 -232.5t-232 -74.5q-89 0 -154 24zM231 688v-385h9l211 510q-33 23 -84 23q-136 0 -136 -148zM502 295v381h-8l-213 -508
q35 -21 86 -21q135 0 135 148z" />
    <glyph glyph-name="ugrave" unicode="&#xf9;" horiz-adv-x="743" 
d="M59 983h179v-688q0 -82 30 -117t97 -35q65 0 94.5 34.5t48.5 125.5v680h176v-983h-166l-4 141h-8q-33 -83 -84 -118t-133 -35q-123 0 -176.5 76.5t-53.5 232.5v686zM469 1032l-330 299l94 107l306 -334z" />
    <glyph glyph-name="uacute" unicode="&#xfa;" horiz-adv-x="743" 
d="M59 983h179v-688q0 -82 30 -117t97 -35q65 0 94.5 34.5t48.5 125.5v680h176v-983h-166l-4 141h-8q-33 -83 -84 -118t-133 -35q-123 0 -176.5 76.5t-53.5 232.5v686zM612 1331l-329 -299l-70 72l305 334z" />
    <glyph glyph-name="ucircumflex" unicode="&#xfb;" horiz-adv-x="743" 
d="M59 983h179v-688q0 -82 30 -117t97 -35q65 0 94.5 34.5t48.5 125.5v680h176v-983h-166l-4 141h-8q-33 -83 -84 -118t-133 -35q-123 0 -176.5 76.5t-53.5 232.5v686zM643 1096l-78 -62l-192 221l-193 -221l-78 62l189 264h162z" />
    <glyph glyph-name="udieresis" unicode="&#xfc;" horiz-adv-x="743" 
d="M59 983h179v-688q0 -82 30 -117t97 -35q65 0 94.5 34.5t48.5 125.5v680h176v-983h-166l-4 141h-8q-33 -83 -84 -118t-133 -35q-123 0 -176.5 76.5t-53.5 232.5v686zM301 1104h-164v221h164v-221zM610 1104h-164v221h164v-221z" />
    <glyph glyph-name="yacute" unicode="&#xfd;" 
d="M238 983v-674q0 -147 129 -147q59 0 92 34.5t53 120.5v666h170v-1153q0 -155 -77 -231t-234 -76q-156 0 -230.5 75.5t-74.5 231.5v109h167v-109q0 -147 136 -147q137 0 137 147v305h-8q-31 -73 -82 -104t-127 -31q-123 0 -176.5 67.5t-53.5 190.5v725h179zM612 1331
l-329 -299l-70 72l305 334z" />
    <glyph glyph-name="thorn" unicode="&#xfe;" 
d="M504 291v401q0 148 -127 148q-60 0 -93 -36.5t-55 -123.5v-381q19 -81 53.5 -118.5t94.5 -37.5q127 0 127 148zM233 -477h-174v1853h174v-516h9q31 70 81.5 102.5t127.5 32.5q129 0 180 -86.5t51 -257.5v-321q0 -174 -50.5 -258t-180.5 -84q-77 0 -127 31.5t-82 103.5h-9
v-600z" />
    <glyph glyph-name="ydieresis" unicode="&#xff;" 
d="M238 983v-674q0 -147 129 -147q59 0 92 34.5t53 120.5v666h170v-1153q0 -155 -77 -231t-234 -76q-156 0 -230.5 75.5t-74.5 231.5v109h167v-109q0 -147 136 -147q137 0 137 147v305h-8q-31 -73 -82 -104t-127 -31q-123 0 -176.5 67.5t-53.5 190.5v725h179zM305 1104h-164
v221h164v-221zM614 1104h-163v221h163v-221z" />
    <glyph glyph-name="Amacron" unicode="&#x100;" horiz-adv-x="761" 
d="M735 0h-180l-53 319h-250l-49 -319h-178l231 1360h248zM373 1073l-97 -596h201l-96 596h-8zM614 1505h-479v113h479v-113z" />
    <glyph glyph-name="amacron" unicode="&#x101;" horiz-adv-x="727" 
d="M496 260v281q-12 -9 -22.5 -15t-24.5 -11.5t-23.5 -8.5t-32.5 -9.5t-39 -11.5q-82 -25 -108.5 -57t-26.5 -92v-88q0 -105 117 -105q60 0 98 28.5t62 88.5zM670 0h-162l-6 125h-8q-37 -65 -91 -101t-143 -36q-215 0 -215 219v98q0 126 56.5 185.5t205.5 101.5l38.5 11
l38.5 11t34 11t31.5 13.5t23 15.5t16.5 20.5t5 25.5v41q0 101 -127 101q-140 0 -140 -111v-63h-166v84q0 121 82 182t234 61q293 0 293 -229v-766zM598 1151h-479v113h479v-113z" />
    <glyph glyph-name="Abreve" unicode="&#x102;" horiz-adv-x="761" 
d="M735 0h-180l-53 319h-250l-49 -319h-178l231 1360h248zM373 1073l-97 -596h201l-96 596h-8zM375 1386q-127 0 -202 84t-75 242h129q6 -209 148 -209t145 209h133q0 -160 -75.5 -243t-202.5 -83z" />
    <glyph glyph-name="abreve" unicode="&#x103;" horiz-adv-x="727" 
d="M496 260v281q-12 -9 -22.5 -15t-24.5 -11.5t-23.5 -8.5t-32.5 -9.5t-39 -11.5q-82 -25 -108.5 -57t-26.5 -92v-88q0 -105 117 -105q60 0 98 28.5t62 88.5zM670 0h-162l-6 125h-8q-37 -65 -91 -101t-143 -36q-215 0 -215 219v98q0 126 56.5 185.5t205.5 101.5l38.5 11
l38.5 11t34 11t31.5 13.5t23 15.5t16.5 20.5t5 25.5v41q0 101 -127 101q-140 0 -140 -111v-63h-166v84q0 121 82 182t234 61q293 0 293 -229v-766zM356 1032q-127 0 -201.5 83.5t-74.5 242.5h129q6 -209 147 -209q143 0 146 209h133q0 -159 -76 -242.5t-203 -83.5z" />
    <glyph glyph-name="Aogonek" unicode="&#x104;" horiz-adv-x="761" 
d="M731 -287v-145q-49 -27 -131 -27q-192 0 -192 160v55q0 165 217 232v12h-70l-53 319h-250l-49 -319h-178l231 1360h248l231 -1360q-97 -35 -151 -85.5t-54 -104.5v-46q0 -35 25.5 -51t79.5 -16q63 0 96 16zM373 1073l-97 -596h201l-96 596h-8z" />
    <glyph glyph-name="aogonek" unicode="&#x105;" horiz-adv-x="727" 
d="M666 -287v-145q-50 -27 -134 -27q-97 0 -143.5 39t-46.5 121v55q0 84 58 143t163 91v10h-55l-6 125h-8q-37 -65 -91 -101t-143 -36q-215 0 -215 219v98q0 126 56.5 185.5t205.5 101.5q119 33 148 51q39 22 39 57v41q0 101 -129 101q-138 0 -138 -111v-63h-166v84
q0 121 82 182t234 61q293 0 293 -229v-766q-97 -35 -151 -85.5t-54 -104.5v-46q0 -35 24.5 -51t77.5 -16q63 0 99 16zM496 260v281q-12 -9 -22.5 -15t-24.5 -11.5t-23.5 -8.5t-32.5 -9.5t-39 -11.5q-82 -26 -108.5 -55.5t-26.5 -93.5v-88q0 -105 117 -105q60 0 98 28.5
t62 88.5z" />
    <glyph glyph-name="Cacute" unicode="&#x106;" horiz-adv-x="743" 
d="M514 317v238h174v-227q0 -340 -313 -340q-157 0 -238.5 88.5t-81.5 255.5v700q0 169 79.5 254.5t234.5 85.5q156 0 237.5 -85t81.5 -253v-162h-174v162q0 80 -35.5 123t-103.5 43q-67 0 -102 -42t-35 -122v-719q0 -159 137 -159q139 0 139 159zM616 1686l-329 -300
l-70 72l305 334z" />
    <glyph glyph-name="cacute" unicode="&#x107;" horiz-adv-x="724" 
d="M498 295v70h168v-70q0 -156 -72.5 -231.5t-228.5 -75.5q-155 0 -230.5 75t-75.5 232v393q0 156 75.5 231.5t232.5 75.5q155 0 227 -75t72 -232v-65h-166v65q0 148 -133 148q-136 0 -136 -148v-393q0 -148 134 -148q69 0 101 36.5t32 111.5zM604 1331l-330 -299l-69 72
l305 334z" />
    <glyph glyph-name="Cdotaccent" unicode="&#x10a;" horiz-adv-x="743" 
d="M514 317v238h174v-227q0 -340 -313 -340q-157 0 -238.5 88.5t-81.5 255.5v700q0 169 79.5 254.5t234.5 85.5q156 0 237.5 -85t81.5 -253v-162h-174v162q0 80 -35.5 123t-103.5 43q-67 0 -102 -42t-35 -122v-719q0 -159 137 -159q139 0 139 159zM459 1458h-176v221h176
v-221z" />
    <glyph glyph-name="cdotaccent" unicode="&#x10b;" horiz-adv-x="724" 
d="M498 295v70h168v-70q0 -156 -72.5 -231.5t-228.5 -75.5q-155 0 -230.5 75t-75.5 232v393q0 156 75.5 231.5t232.5 75.5q155 0 227 -75t72 -232v-65h-166v65q0 148 -133 148q-136 0 -136 -148v-393q0 -148 134 -148q69 0 101 36.5t32 111.5zM455 1104h-176v221h176v-221z
" />
    <glyph glyph-name="Ccaron" unicode="&#x10c;" horiz-adv-x="743" 
d="M514 317v238h174v-227q0 -340 -313 -340q-157 0 -238.5 88.5t-81.5 255.5v700q0 169 79.5 254.5t234.5 85.5q156 0 237.5 -85t81.5 -253v-162h-174v162q0 80 -35.5 123t-103.5 43q-67 0 -102 -42t-35 -122v-719q0 -159 137 -159q139 0 139 159zM457 1423h-162l-191 267
l78 61l193 -221l192 221l78 -61z" />
    <glyph glyph-name="ccaron" unicode="&#x10d;" horiz-adv-x="724" 
d="M498 295v70h168v-70q0 -156 -72.5 -231.5t-228.5 -75.5q-155 0 -230.5 75t-75.5 232v393q0 156 75.5 231.5t232.5 75.5q155 0 227 -75t72 -232v-65h-166v65q0 148 -133 148q-136 0 -136 -148v-393q0 -148 134 -148q69 0 101 36.5t32 111.5zM449 1069h-162l-191 266l78 62
l193 -221l192 221l78 -62z" />
    <glyph glyph-name="Dcaron" unicode="&#x10e;" horiz-adv-x="757" 
d="M391 0h-336v1360h336q153 0 231 -79t78 -234v-715q0 -332 -309 -332zM236 166h143q79 0 109 54t30 163v598q0 107 -32 160t-117 53h-133v-1028zM457 1423h-162l-191 267l78 61l193 -221l192 221l78 -61z" />
    <glyph glyph-name="dcaron" unicode="&#x10f;" horiz-adv-x="954" 
d="M238 692v-401q0 -148 129 -148q62 0 93 36t52 128v371q-19 92 -49 127t-94 35t-97.5 -34.5t-33.5 -113.5zM682 0h-158l-6 141h-8q-32 -80 -84 -116.5t-131 -36.5q-111 0 -173.5 68t-62.5 194v483q0 126 62 194t172 68q151 0 207 -135h8v516h174v-1376zM741 793v106
q41 25 60.5 65.5t19.5 106.5v59h-80v246h181v-282q0 -130 -45 -203t-136 -98z" />
    <glyph glyph-name="dcroat" unicode="&#x111;" 
d="M682 0h-158l-6 141h-8q-32 -80 -84 -116.5t-131 -36.5q-111 0 -173.5 68t-62.5 194v483q0 126 62 194t172 68q151 0 207 -135h8v291h-246v113h246v112h174v-112h59v-113h-59v-1151zM238 692v-401q0 -148 129 -148q62 0 93 36t52 128v371q-19 92 -49 127t-94 35
t-97.5 -34.5t-33.5 -113.5z" />
    <glyph glyph-name="Emacron" unicode="&#x112;" horiz-adv-x="598" 
d="M563 0h-508v1360h492v-166h-311v-397h284v-168h-284v-463h327v-166zM547 1505h-479v113h479v-113z" />
    <glyph glyph-name="emacron" unicode="&#x113;" horiz-adv-x="735" 
d="M676 340v-45q0 -154 -76.5 -230.5t-234.5 -76.5q-155 0 -230.5 75t-75.5 232v393q0 156 75.5 231.5t232.5 75.5t233 -76t76 -231v-244h-445v-153q0 -148 134 -148q137 0 137 148v49h174zM502 575v117q0 148 -135 148q-136 0 -136 -148v-117h271zM606 1151h-479v113h479
v-113z" />
    <glyph glyph-name="Ebreve" unicode="&#x114;" horiz-adv-x="598" 
d="M563 0h-508v1360h492v-166h-311v-397h284v-168h-284v-463h327v-166zM319 1386q-127 0 -201.5 83.5t-74.5 242.5h129q6 -209 147 -209q143 0 146 209h133q0 -159 -76 -242.5t-203 -83.5z" />
    <glyph glyph-name="ebreve" unicode="&#x115;" horiz-adv-x="735" 
d="M676 340v-45q0 -154 -76.5 -230.5t-234.5 -76.5q-155 0 -230.5 75t-75.5 232v393q0 156 75.5 231.5t232.5 75.5t233 -76t76 -231v-244h-445v-153q0 -148 134 -148q137 0 137 148v49h174zM502 575v117q0 148 -135 148q-136 0 -136 -148v-117h271zM367 1032q-127 0 -202 84
t-75 242h129q6 -209 148 -209t145 209h133q0 -160 -75.5 -243t-202.5 -83z" />
    <glyph glyph-name="Edotaccent" unicode="&#x116;" horiz-adv-x="598" 
d="M563 0h-508v1360h492v-166h-311v-397h284v-168h-284v-463h327v-166zM403 1458h-176v221h176v-221z" />
    <glyph glyph-name="edotaccent" unicode="&#x117;" horiz-adv-x="735" 
d="M676 340v-45q0 -154 -76.5 -230.5t-234.5 -76.5q-155 0 -230.5 75t-75.5 232v393q0 156 75.5 231.5t232.5 75.5t233 -76t76 -231v-244h-445v-153q0 -148 134 -148q137 0 137 148v49h174zM502 575v117q0 148 -135 148q-136 0 -136 -148v-117h271zM453 1104h-177v221h177
v-221z" />
    <glyph glyph-name="Eogonek" unicode="&#x118;" horiz-adv-x="598" 
d="M559 -287v-145q-49 -27 -133 -27q-97 0 -143.5 39t-46.5 121v55q0 84 56.5 142t158.5 90v12h-396v1360h492v-166h-311v-397h284v-168h-284v-463h327v-166q-97 -35 -151 -85.5t-54 -104.5v-46q0 -67 103 -67q62 0 98 16z" />
    <glyph glyph-name="eogonek" unicode="&#x119;" horiz-adv-x="735" 
d="M494 -287v-145q-49 -27 -132 -27q-98 0 -145 39t-47 121v55q0 71 41 127t115 90v17q-137 9 -202 83t-65 222v393q0 156 75.5 231.5t232.5 75.5t233 -76t76 -231v-244h-445v-153q0 -148 134 -148q137 0 137 148v49h174v-45q0 -249 -203 -295q-86 -36 -133 -87t-47 -103
v-46q0 -35 25 -51t79 -16q64 0 97 16zM502 575v117q0 148 -135 148q-136 0 -136 -148v-117h271z" />
    <glyph glyph-name="Ecaron" unicode="&#x11a;" horiz-adv-x="598" 
d="M563 0h-508v1360h492v-166h-311v-397h284v-168h-284v-463h327v-166zM387 1423h-162l-190 267l78 61l192 -221l193 221l77 -61z" />
    <glyph glyph-name="ecaron" unicode="&#x11b;" horiz-adv-x="735" 
d="M676 340v-45q0 -154 -76.5 -230.5t-234.5 -76.5q-155 0 -230.5 75t-75.5 232v393q0 156 75.5 231.5t232.5 75.5t233 -76t76 -231v-244h-445v-153q0 -148 134 -148q137 0 137 148v49h174zM502 575v117q0 148 -135 148q-136 0 -136 -148v-117h271zM451 1069h-162l-191 266
l78 62l193 -221l192 221l78 -62z" />
    <glyph glyph-name="Gbreve" unicode="&#x11e;" horiz-adv-x="743" 
d="M688 0h-121l-8 104h-8q-29 -56 -76 -86t-129 -30q-139 0 -215 89.5t-76 254.5v690q0 167 81.5 258.5t234.5 91.5q154 0 235.5 -93t81.5 -261v-78h-174v94q0 80 -35.5 123t-103.5 43q-67 0 -102 -42t-35 -122v-717q0 -79 34 -120t99 -41q120 0 143 137v268h-154v164h328
v-727zM379 1386q-127 0 -202 84t-75 242h129q6 -209 148 -209t145 209h133q0 -160 -75.5 -243t-202.5 -83z" />
    <glyph glyph-name="gbreve" unicode="&#x11f;" 
d="M238 692v-344q0 -97 27.5 -141.5t92.5 -44.5q56 0 91 33t63 110v379q-16 86 -45.5 121t-97.5 35q-67 0 -99 -34t-32 -114zM682 -170q0 -307 -313 -307q-155 0 -229 76t-74 231v109h167v-109q0 -147 136 -147q137 0 137 147v305h-8q-52 -135 -209 -135q-121 0 -175.5 78
t-54.5 237v418q0 121 59 191.5t173 70.5q76 0 129.5 -36.5t89.5 -116.5h8l6 141h158v-1153zM377 1032q-127 0 -202 84t-75 242h129q6 -209 148 -209t145 209h133q0 -160 -75.5 -243t-202.5 -83z" />
    <glyph glyph-name="Gdotaccent" unicode="&#x120;" horiz-adv-x="743" 
d="M688 0h-121l-8 104h-8q-29 -56 -76 -86t-129 -30q-139 0 -215 89.5t-76 254.5v690q0 167 81.5 258.5t234.5 91.5q154 0 235.5 -93t81.5 -261v-78h-174v94q0 80 -35.5 123t-103.5 43q-67 0 -102 -42t-35 -122v-717q0 -79 34 -120t99 -41q120 0 143 137v268h-154v164h328
v-727zM463 1458h-176v221h176v-221z" />
    <glyph glyph-name="gdotaccent" unicode="&#x121;" 
d="M238 692v-344q0 -97 27.5 -141.5t92.5 -44.5q56 0 91 33t63 110v379q-16 86 -45.5 121t-97.5 35q-67 0 -99 -34t-32 -114zM682 -170q0 -307 -313 -307q-155 0 -229 76t-74 231v109h167v-109q0 -147 136 -147q137 0 137 147v305h-8q-52 -135 -209 -135q-121 0 -175.5 78
t-54.5 237v418q0 121 59 191.5t173 70.5q76 0 129.5 -36.5t89.5 -116.5h8l6 141h158v-1153zM457 1104h-176v221h176v-221z" />
    <glyph glyph-name="uni0122" unicode="&#x122;" horiz-adv-x="743" 
d="M688 0h-121l-8 104h-8q-29 -56 -76 -86t-129 -30q-139 0 -215 89.5t-76 254.5v690q0 167 81.5 258.5t234.5 91.5q154 0 235.5 -93t81.5 -261v-78h-174v94q0 80 -35.5 123t-103.5 43q-67 0 -102 -42t-35 -122v-717q0 -79 34 -120t99 -41q120 0 143 137v268h-154v164h328
v-727zM293 -459v86q40 13 59 37t19 72v31h-78v196h158v-184q0 -111 -37.5 -168t-120.5 -70z" />
    <glyph glyph-name="uni0123" unicode="&#x123;" 
d="M238 692v-344q0 -97 27.5 -141.5t92.5 -44.5q56 0 91 33t63 110v379q-16 86 -45.5 121t-97.5 35q-67 0 -99 -34t-32 -114zM682 -170q0 -307 -313 -307q-155 0 -229 76t-74 231v109h167v-109q0 -147 136 -147q137 0 137 147v305h-8q-52 -135 -209 -135q-121 0 -175.5 78
t-54.5 237v418q0 121 59 191.5t173 70.5q76 0 129.5 -36.5t89.5 -116.5h8l6 141h158v-1153zM451 1513v-86q-40 -13 -59 -37t-19 -71v-31h78v-196h-158v184q0 111 37.5 167.5t120.5 69.5z" />
    <glyph glyph-name="Hbar" unicode="&#x126;" horiz-adv-x="765" 
d="M709 0h-183v639h-286v-639h-185v1012h-55v114h55v234h185v-234h286v234h183v-234h57v-114h-57v-1012zM240 803h286v209h-286v-209z" />
    <glyph glyph-name="hbar" unicode="&#x127;" horiz-adv-x="747" 
d="M479 1151h-243v-291h8q54 135 211 135q121 0 177 -76.5t56 -191.5v-727h-178v700q0 140 -125 140q-143 0 -149 -203v-637h-177v1151h-59v113h59v112h177v-112h243v-113z" />
    <glyph glyph-name="hbar" unicode="&#x45b;" horiz-adv-x="747" 
d="M479 1151h-243v-291h8q54 135 211 135q121 0 177 -76.5t56 -191.5v-727h-178v700q0 140 -125 140q-143 0 -149 -203v-637h-177v1151h-59v113h59v112h177v-112h243v-113z" />
    <glyph glyph-name="Itilde" unicode="&#x128;" horiz-adv-x="413" 
d="M299 0h-184v1360h184v-1360zM406 1581l79 -47q-33 -121 -149 -121q-45 0 -122.5 34t-121.5 34q-59 0 -82 -60l-80 47q36 121 150 121q46 0 124 -33.5t120 -33.5q62 0 82 59z" />
    <glyph glyph-name="itilde" unicode="&#x129;" horiz-adv-x="489" 
d="M442 1251l80 -47q-33 -121 -149 -121q-45 0 -122.5 34t-121.5 34q-30 0 -49.5 -13t-32.5 -46l-80 47q36 121 150 121q45 0 123 -34t120 -34q62 0 82 59zM330 0h-176v983h176v-983z" />
    <glyph glyph-name="Imacron" unicode="&#x12a;" horiz-adv-x="413" 
d="M299 0h-184v1360h184v-1360zM446 1481h-479v112h479v-112z" />
    <glyph glyph-name="imacron" unicode="&#x12b;" horiz-adv-x="403" 
d="M440 1151h-479v113h479v-113zM287 0h-176v983h176v-983z" />
    <glyph glyph-name="Ibreve" unicode="&#x12c;" horiz-adv-x="428" 
d="M305 0h-184v1360h184v-1360zM213 1386q-127 0 -201.5 83.5t-74.5 242.5h129q6 -209 147 -209q142 0 145 209h134q0 -159 -76 -242.5t-203 -83.5z" />
    <glyph glyph-name="ibreve" unicode="&#x12d;" horiz-adv-x="473" 
d="M236 1032q-127 0 -202 84t-75 242h129q6 -209 148 -209t145 209h133q0 -160 -75.5 -243t-202.5 -83zM324 0h-177v983h177v-983z" />
    <glyph glyph-name="Iogonek" unicode="&#x12e;" horiz-adv-x="321" 
d="M260 -287v-145q-50 -27 -131 -27q-192 0 -192 160v55q0 165 213 232v12h-68v1360h182v-1360q-97 -35 -151 -85.5t-54 -104.5v-46q0 -35 25.5 -51t79.5 -16q63 0 96 16z" />
    <glyph glyph-name="iogonek" unicode="&#x12f;" horiz-adv-x="323" 
d="M258 -287v-145q-49 -27 -131 -27q-98 0 -145.5 39t-47.5 121v55q0 84 57.5 142t160.5 90v12h-66v983h176v-983q-97 -35 -151 -85.5t-54 -104.5v-46q0 -35 25.5 -51t79.5 -16q63 0 96 16zM262 1104h-176v221h176v-221z" />
    <glyph glyph-name="Idotaccent" unicode="&#x130;" horiz-adv-x="294" 
d="M240 0h-185v1360h185v-1360zM236 1434h-177v221h177v-221z" />
    <glyph glyph-name="dotlessi" unicode="&#x131;" horiz-adv-x="294" 
d="M236 0h-177v983h177v-983z" />
    <glyph glyph-name="IJ" unicode="&#x132;" horiz-adv-x="1001" 
d="M240 0h-185v1360h185v-1360zM766 319v1041h180v-1028q0 -167 -81 -255.5t-238 -88.5q-312 0 -312 340v166h172v-177q0 -159 138 -159q141 0 141 161z" />
    <glyph glyph-name="ij" unicode="&#x133;" horiz-adv-x="677" 
d="M238 0h-177v983h177v-983zM238 1104h-177v221h177v-221zM63 -188v69h177v-69q0 -70 23.5 -99.5t76.5 -29.5q52 0 77 30t25 99v1171h176v-1171q0 -146 -68 -217.5t-212 -71.5q-143 0 -209 71t-66 218zM618 1104h-176v221h176v-221z" />
    <glyph glyph-name="uni0136" unicode="&#x136;" horiz-adv-x="753" 
d="M729 0h-186l-195 588h-8l-98 -193v-395h-187v1360h187v-610h8l295 610h186l-256 -539zM281 -459v86q40 13 58.5 37t18.5 72v31h-77v196h157v-184q0 -111 -37 -168t-120 -70z" />
    <glyph glyph-name="uni0137" unicode="&#x137;" horiz-adv-x="739" 
d="M713 0h-187l-186 422h-6l-98 -137v-285h-177v1376h177v-811h8l280 418h193l-250 -389zM279 -459v86q40 13 58.5 37t18.5 72v31h-77v196h157v-184q0 -111 -37 -168t-120 -70z" />
    <glyph glyph-name="Lacute" unicode="&#x139;" horiz-adv-x="612" 
d="M575 0h-520v1360h185v-1192h335v-168zM442 1686l-329 -300l-70 72l305 334z" />
    <glyph glyph-name="lacute" unicode="&#x13a;" horiz-adv-x="329" 
d="M236 0h-177v1376h177v-1376zM420 1686l-330 -300l-70 72l306 334z" />
    <glyph glyph-name="uni013B" unicode="&#x13b;" horiz-adv-x="612" 
d="M575 0h-520v1360h185v-1192h335v-168zM229 -459v86q40 13 59 37t19 72v31h-78v196h158v-184q0 -111 -37.5 -168t-120.5 -70z" />
    <glyph glyph-name="uni013C" unicode="&#x13c;" horiz-adv-x="296" 
d="M236 0h-177v1376h177v-1376zM70 -459v86q40 13 58.5 37t18.5 72v31h-77v196h157v-184q0 -111 -37 -168t-120 -70z" />
    <glyph glyph-name="Lcaron" unicode="&#x13d;" horiz-adv-x="634" 
d="M575 0h-520v1360h185v-1192h335v-168zM360 793v106q41 25 60.5 65.5t19.5 106.5v59h-80v246h181v-282q0 -130 -45 -203t-136 -98z" />
    <glyph glyph-name="lcaron" unicode="&#x13e;" horiz-adv-x="507" 
d="M236 0h-177v1376h177v-1376zM297 793v106q41 25 60.5 65.5t19.5 106.5v59h-80v246h180v-282q0 -130 -44.5 -203t-135.5 -98z" />
    <glyph glyph-name="Lslash" unicode="&#x141;" horiz-adv-x="612" 
d="M575 0h-520v1360h185v-348l264 114v-157l-264 -115v-686h335v-168z" />
    <glyph glyph-name="lslash" unicode="&#x142;" horiz-adv-x="409" 
d="M293 0h-176v586l-103 -39v135l103 39v655h176v-585l102 40v-135l-102 -41v-655z" />
    <glyph glyph-name="Nacute" unicode="&#x143;" horiz-adv-x="802" 
d="M745 0h-215l-311 1053h-8q6 -150 6 -287v-766h-162v1360h242l285 -977h8q-6 194 -6 330v647h161v-1360zM643 1686l-330 -300l-69 72l305 334z" />
    <glyph glyph-name="nacute" unicode="&#x144;" horiz-adv-x="747" 
d="M688 0h-178v700q0 140 -127 140q-60 0 -91.5 -32.5t-55.5 -111.5v-696h-177v983h164l6 -141h9q32 79 84.5 116t130.5 37q107 0 171 -68.5t64 -193.5v-733zM612 1331l-329 -299l-70 72l305 334z" />
    <glyph glyph-name="uni0145" unicode="&#x145;" horiz-adv-x="802" 
d="M745 0h-215l-311 1053h-8q6 -150 6 -287v-766h-162v1360h242l285 -977h8q-6 194 -6 330v647h161v-1360zM313 -459v86q40 13 59 37t19 72v31h-78v196h158v-184q0 -111 -37.5 -168t-120.5 -70z" />
    <glyph glyph-name="uni0146" unicode="&#x146;" horiz-adv-x="747" 
d="M688 0h-178v700q0 140 -127 140q-60 0 -91.5 -32.5t-55.5 -111.5v-696h-177v983h164l6 -141h9q32 79 84.5 116t130.5 37q107 0 171 -68.5t64 -193.5v-733zM295 -459v86q40 13 59 37t19 72v31h-78v196h158v-184q0 -111 -37.5 -168t-120.5 -70z" />
    <glyph glyph-name="Ncaron" unicode="&#x147;" horiz-adv-x="802" 
d="M745 0h-215l-311 1053h-8q6 -150 6 -287v-766h-162v1360h242l285 -977h8q-6 194 -6 330v647h161v-1360zM485 1423h-161l-191 267l78 61l192 -221l193 221l78 -61z" />
    <glyph glyph-name="ncaron" unicode="&#x148;" horiz-adv-x="747" 
d="M688 0h-178v700q0 140 -127 140q-60 0 -91.5 -32.5t-55.5 -111.5v-696h-177v983h164l6 -141h9q32 79 84.5 116t130.5 37q107 0 171 -68.5t64 -193.5v-733zM455 1069h-162l-191 266l78 62l193 -221l192 221l78 -62z" />
    <glyph glyph-name="Eng" unicode="&#x14a;" horiz-adv-x="802" 
d="M745 -170q0 -152 -80.5 -229.5t-226.5 -77.5q-50 0 -82 8v158q21 -6 58 -6q129 0 129 147v127l-324 1096h-8q6 -150 6 -287v-766h-162v1360h242l285 -977h8q-6 194 -6 330v647h161v-1530z" />
    <glyph glyph-name="eng" unicode="&#x14b;" horiz-adv-x="747" 
d="M334 -469v158q14 -6 53 -6q63 0 93 35.5t30 111.5v870q0 140 -127 140q-60 0 -91.5 -32.5t-55.5 -111.5v-696h-177v983h164l6 -141h9q32 79 84.5 116t130.5 37q107 0 171 -68.5t64 -193.5v-903q0 -152 -74 -229.5t-206 -77.5q-42 0 -74 8z" />
    <glyph glyph-name="Omacron" unicode="&#x14c;" 
d="M692 1018v-690q0 -169 -82 -254.5t-237 -85.5q-158 0 -242 89t-84 255v690q0 166 85 258t239 92q153 0 237 -93.5t84 -260.5zM512 317v717q0 80 -37 123t-106 43q-66 0 -103 -42.5t-37 -121.5v-717q0 -79 36.5 -120t105.5 -41q141 0 141 159zM610 1505h-479v113h479v-113
z" />
    <glyph glyph-name="omacron" unicode="&#x14d;" horiz-adv-x="733" 
d="M674 688v-393q0 -158 -75 -232.5t-232 -74.5t-232.5 74.5t-75.5 232.5v393q0 158 75.5 232.5t232.5 74.5t232 -74.5t75 -232.5zM502 295v393q0 148 -135 148q-136 0 -136 -148v-393q0 -148 136 -148q135 0 135 148zM606 1151h-479v113h479v-113z" />
    <glyph glyph-name="Obreve" unicode="&#x14e;" 
d="M692 1018v-690q0 -169 -82 -254.5t-237 -85.5q-158 0 -242 89t-84 255v690q0 166 85 258t239 92q153 0 237 -93.5t84 -260.5zM512 317v717q0 80 -37 123t-106 43q-66 0 -103 -42.5t-37 -121.5v-717q0 -79 36.5 -120t105.5 -41q141 0 141 159zM371 1386q-127 0 -202 84
t-75 242h129q6 -209 148 -209t145 209h133q0 -160 -75.5 -243t-202.5 -83z" />
    <glyph glyph-name="obreve" unicode="&#x14f;" horiz-adv-x="733" 
d="M674 688v-393q0 -158 -75 -232.5t-232 -74.5t-232.5 74.5t-75.5 232.5v393q0 158 75.5 232.5t232.5 74.5t232 -74.5t75 -232.5zM502 295v393q0 148 -135 148q-136 0 -136 -148v-393q0 -148 136 -148q135 0 135 148zM367 1032q-127 0 -202 84t-75 242h129q6 -209 148 -209
t145 209h133q0 -160 -75.5 -243t-202.5 -83z" />
    <glyph glyph-name="Ohungarumlaut" unicode="&#x150;" 
d="M692 1018v-690q0 -169 -82 -254.5t-237 -85.5q-158 0 -242 89t-84 255v690q0 166 85 258t239 92q153 0 237 -93.5t84 -260.5zM512 317v717q0 80 -37 123t-106 43q-66 0 -103 -42.5t-37 -121.5v-717q0 -79 36.5 -120t105.5 -41q141 0 141 159zM219 1386l-82 41l191 365
l114 -66zM461 1386l-82 41l190 365l115 -66z" />
    <glyph glyph-name="ohungarumlaut" unicode="&#x151;" horiz-adv-x="733" 
d="M674 688v-393q0 -158 -75 -232.5t-232 -74.5t-232.5 74.5t-75.5 232.5v393q0 158 75.5 232.5t232.5 74.5t232 -74.5t75 -232.5zM502 295v393q0 148 -135 148q-136 0 -136 -148v-393q0 -148 136 -148q135 0 135 148zM215 1032l-82 41l191 365l114 -66zM457 1032l-82 41
l190 365l115 -66z" />
    <glyph glyph-name="OE" unicode="&#x152;" horiz-adv-x="995" 
d="M961 0h-484q-49 -12 -104 -12q-158 0 -242 89t-84 255v690q0 166 85 258t239 92q53 0 96 -12h479v-166h-307q53 -65 53 -176v-221h226v-168h-226v-301q0 -107 -49 -162h318v-166zM512 317v717q0 80 -37 123t-106 43q-66 0 -103 -42.5t-37 -121.5v-717q0 -79 36.5 -120
t105.5 -41q141 0 141 159z" />
    <glyph glyph-name="oe" unicode="&#x153;" horiz-adv-x="1161" 
d="M1104 340v-45q0 -307 -309 -307q-148 0 -213 65q-68 -65 -215 -65q-157 0 -232.5 74.5t-75.5 232.5v393q0 158 75.5 232.5t232.5 74.5q145 0 215 -67q70 67 215 67q155 0 231 -76t76 -231v-244h-442v-153q0 -148 133 -148q135 0 135 148v49h174zM502 295v393
q0 148 -135 148q-136 0 -136 -148v-393q0 -148 136 -148q135 0 135 148zM932 575v117q0 148 -135 148t-135 -148v-117h270z" />
    <glyph glyph-name="Racute" unicode="&#x154;" horiz-adv-x="743" 
d="M236 0h-181v1360h379q137 0 197.5 -69t60.5 -204v-186q0 -185 -139 -221v-8q73 -14 108 -66.5t35 -152.5v-453h-180v467q0 68 -25 96.5t-90 28.5h-165v-592zM514 885v182q0 64 -29 95.5t-92 31.5h-157v-449h159q58 0 88.5 32.5t30.5 107.5zM594 1686l-330 -300l-69 72
l305 334z" />
    <glyph glyph-name="racute" unicode="&#x155;" horiz-adv-x="567" 
d="M236 0h-177v983h164l6 -168h9q61 180 213 180q42 0 81 -20v-162q-32 21 -92 21q-84 0 -132 -51.5t-72 -178.5v-604zM532 1331l-329 -299l-70 72l305 334z" />
    <glyph glyph-name="uni0156" unicode="&#x156;" horiz-adv-x="743" 
d="M236 0h-181v1360h379q137 0 197.5 -69t60.5 -204v-186q0 -185 -139 -221v-8q73 -14 108 -66.5t35 -152.5v-453h-180v467q0 68 -25 96.5t-90 28.5h-165v-592zM514 885v182q0 64 -29 95.5t-92 31.5h-157v-449h159q58 0 88.5 32.5t30.5 107.5zM289 -459v86q40 13 59 37
t19 72v31h-78v196h157v-184q0 -111 -37 -168t-120 -70z" />
    <glyph glyph-name="uni0157" unicode="&#x157;" horiz-adv-x="567" 
d="M236 0h-177v983h164l6 -168h9q61 180 213 180q42 0 81 -20v-162q-32 21 -92 21q-84 0 -132 -51.5t-72 -178.5v-604zM68 -459v86q40 13 58.5 37t18.5 72v31h-77v196h157v-184q0 -111 -37 -168t-120 -70z" />
    <glyph glyph-name="Rcaron" unicode="&#x158;" horiz-adv-x="743" 
d="M236 0h-181v1360h379q137 0 197.5 -69t60.5 -204v-186q0 -185 -139 -221v-8q73 -14 108 -66.5t35 -152.5v-453h-180v467q0 68 -25 96.5t-90 28.5h-165v-592zM514 885v182q0 64 -29 95.5t-92 31.5h-157v-449h159q58 0 88.5 32.5t30.5 107.5zM444 1423h-161l-191 267l78 61
l192 -221l193 221l78 -61z" />
    <glyph glyph-name="rcaron" unicode="&#x159;" horiz-adv-x="567" 
d="M236 0h-177v983h164l6 -168h9q61 180 213 180q42 0 81 -20v-162q-32 21 -92 21q-84 0 -132 -51.5t-72 -178.5v-604zM377 1069h-162l-190 266l77 62l193 -221l192 221l78 -62z" />
    <glyph glyph-name="Sacute" unicode="&#x15a;" horiz-adv-x="768" 
d="M696 958h-172v78q0 164 -145 164q-71 0 -107 -39t-36 -102v-53q0 -46 16.5 -77.5t62.5 -68.5q41 -32 154 -104t154 -109q50 -44 74 -100t24 -146v-84q0 -163 -81.5 -246t-256.5 -83t-255.5 85.5t-80.5 256.5v78h174v-80q0 -85 38 -127.5t120 -42.5q149 0 149 155v62
q0 62 -18 97t-70 75q-38 32 -136.5 99t-145.5 112q-54 55 -79.5 113t-25.5 137v59q0 141 80.5 223t243.5 82q90 0 154 -26t99 -75t50.5 -110.5t15.5 -142.5v-60zM618 1686l-329 -300l-70 72l305 334z" />
    <glyph glyph-name="sacute" unicode="&#x15b;" horiz-adv-x="722" 
d="M662 680h-166v57q0 111 -131 111q-66 0 -101 -25t-35 -71v-31q0 -31 14 -51t58 -47q45 -28 134 -69.5t130 -68.5q55 -36 81 -80.5t26 -115.5v-45q0 -130 -73.5 -193t-229.5 -63q-164 0 -241 67.5t-77 200.5v59h168v-65q0 -60 33 -88.5t108 -28.5q72 0 105 26.5t33 82.5
v39q0 34 -17 59.5t-69 54.5q-39 20 -132 71t-130 79q-89 66 -89 174v49q0 103 78.5 165t218.5 62q149 0 226.5 -70t77.5 -196v-49zM600 1331l-330 -299l-69 72l305 334z" />
    <glyph glyph-name="Scedilla" unicode="&#x15e;" horiz-adv-x="768" 
d="M696 958h-172v78q0 164 -145 164q-71 0 -107 -39t-36 -102v-53q0 -46 16.5 -77.5t62.5 -68.5q41 -32 154 -104t154 -109q50 -44 74 -100t24 -146v-84q0 -163 -81.5 -246t-256.5 -83t-255.5 85.5t-80.5 256.5v78h174v-80q0 -85 38 -127.5t120 -42.5q149 0 149 155v62
q0 62 -18 97t-70 75q-38 32 -136.5 99t-145.5 112q-54 55 -79.5 113t-25.5 137v59q0 141 80.5 223t243.5 82q90 0 154 -26t99 -75t50.5 -110.5t15.5 -142.5v-60zM301 -459v86q40 13 59 37t19 72v31h-78v196h158v-184q0 -111 -37.5 -168t-120.5 -70z" />
    <glyph glyph-name="Scedilla" unicode="&#x218;" horiz-adv-x="768" 
d="M696 958h-172v78q0 164 -145 164q-71 0 -107 -39t-36 -102v-53q0 -46 16.5 -77.5t62.5 -68.5q41 -32 154 -104t154 -109q50 -44 74 -100t24 -146v-84q0 -163 -81.5 -246t-256.5 -83t-255.5 85.5t-80.5 256.5v78h174v-80q0 -85 38 -127.5t120 -42.5q149 0 149 155v62
q0 62 -18 97t-70 75q-38 32 -136.5 99t-145.5 112q-54 55 -79.5 113t-25.5 137v59q0 141 80.5 223t243.5 82q90 0 154 -26t99 -75t50.5 -110.5t15.5 -142.5v-60zM301 -459v86q40 13 59 37t19 72v31h-78v196h158v-184q0 -111 -37.5 -168t-120.5 -70z" />
    <glyph glyph-name="scedilla" unicode="&#x15f;" horiz-adv-x="722" 
d="M662 680h-166v57q0 111 -131 111q-66 0 -101 -25t-35 -71v-31q0 -31 14 -51t58 -47q45 -28 134 -69.5t130 -68.5q55 -36 81 -80.5t26 -115.5v-45q0 -130 -73.5 -193t-229.5 -63q-164 0 -241 67.5t-77 200.5v59h168v-65q0 -60 33 -88.5t108 -28.5q72 0 105 26.5t33 82.5
v39q0 34 -17 59.5t-69 54.5q-39 20 -132 71t-130 79q-89 66 -89 174v49q0 103 78.5 165t218.5 62q149 0 226.5 -70t77.5 -196v-49zM283 -459v86q40 13 58.5 37t18.5 72v31h-77v196h157v-184q0 -111 -37 -168t-120 -70z" />
    <glyph glyph-name="scedilla" unicode="&#x219;" horiz-adv-x="722" 
d="M662 680h-166v57q0 111 -131 111q-66 0 -101 -25t-35 -71v-31q0 -31 14 -51t58 -47q45 -28 134 -69.5t130 -68.5q55 -36 81 -80.5t26 -115.5v-45q0 -130 -73.5 -193t-229.5 -63q-164 0 -241 67.5t-77 200.5v59h168v-65q0 -60 33 -88.5t108 -28.5q72 0 105 26.5t33 82.5
v39q0 34 -17 59.5t-69 54.5q-39 20 -132 71t-130 79q-89 66 -89 174v49q0 103 78.5 165t218.5 62q149 0 226.5 -70t77.5 -196v-49zM283 -459v86q40 13 58.5 37t18.5 72v31h-77v196h157v-184q0 -111 -37 -168t-120 -70z" />
    <glyph glyph-name="Scaron" unicode="&#x160;" horiz-adv-x="768" 
d="M696 958h-172v78q0 164 -145 164q-71 0 -107 -39t-36 -102v-53q0 -46 16.5 -77.5t62.5 -68.5q41 -32 154 -104t154 -109q50 -44 74 -100t24 -146v-84q0 -163 -81.5 -246t-256.5 -83t-255.5 85.5t-80.5 256.5v78h174v-80q0 -85 38 -127.5t120 -42.5q149 0 149 155v62
q0 62 -18 97t-70 75q-38 32 -136.5 99t-145.5 112q-54 55 -79.5 113t-25.5 137v59q0 141 80.5 223t243.5 82q90 0 154 -26t99 -75t50.5 -110.5t15.5 -142.5v-60zM469 1423h-162l-190 267l78 61l192 -221l193 221l77 -61z" />
    <glyph glyph-name="scaron" unicode="&#x161;" horiz-adv-x="722" 
d="M662 680h-166v57q0 111 -131 111q-66 0 -101 -25t-35 -71v-31q0 -31 14 -51t58 -47q45 -28 134 -69.5t130 -68.5q55 -36 81 -80.5t26 -115.5v-45q0 -130 -73.5 -193t-229.5 -63q-164 0 -241 67.5t-77 200.5v59h168v-65q0 -60 33 -88.5t108 -28.5q72 0 105 26.5t33 82.5
v39q0 34 -17 59.5t-69 54.5q-39 20 -132 71t-130 79q-89 66 -89 174v49q0 103 78.5 165t218.5 62q149 0 226.5 -70t77.5 -196v-49zM440 1069h-161l-191 266l78 62l192 -221l193 221l78 -62z" />
    <glyph glyph-name="uni0162" unicode="&#x162;" horiz-adv-x="716" 
d="M449 0h-183v1194h-227v166h641v-166h-231v-1194zM279 -459v86q40 13 58.5 37t18.5 72v31h-77v196h157v-184q0 -111 -37 -168t-120 -70z" />
    <glyph glyph-name="uni0162" unicode="&#x21a;" horiz-adv-x="716" 
d="M449 0h-183v1194h-227v166h641v-166h-231v-1194zM279 -459v86q40 13 58.5 37t18.5 72v31h-77v196h157v-184q0 -111 -37 -168t-120 -70z" />
    <glyph glyph-name="uni0163" unicode="&#x163;" horiz-adv-x="702" 
d="M489 295v266h152v-266q0 -160 -61.5 -233.5t-212.5 -73.5q-158 0 -233 75.5t-75 231.5v960h174v-272h408v-158h-408v-530q0 -148 136 -148q65 0 92.5 35.5t27.5 112.5zM276 -459v86q40 13 59 37t19 72v31h-78v196h158v-184q0 -111 -37.5 -168t-120.5 -70z" />
    <glyph glyph-name="uni0163" unicode="&#x21b;" horiz-adv-x="702" 
d="M489 295v266h152v-266q0 -160 -61.5 -233.5t-212.5 -73.5q-158 0 -233 75.5t-75 231.5v960h174v-272h408v-158h-408v-530q0 -148 136 -148q65 0 92.5 35.5t27.5 112.5zM276 -459v86q40 13 59 37t19 72v31h-78v196h158v-184q0 -111 -37.5 -168t-120.5 -70z" />
    <glyph glyph-name="Tcaron" unicode="&#x164;" horiz-adv-x="716" 
d="M449 0h-183v1194h-227v166h641v-166h-231v-1194zM442 1407h-161l-191 266l78 62l192 -222l193 222l78 -62z" />
    <glyph glyph-name="tcaron" unicode="&#x165;" horiz-adv-x="886" 
d="M489 295v266h152v-266q0 -160 -61.5 -233.5t-212.5 -73.5q-158 0 -233 75.5t-75 231.5v960h174v-272h408v-158h-408v-530q0 -148 136 -148q65 0 92.5 35.5t27.5 112.5zM676 793v106q41 25 60.5 65.5t19.5 106.5v59h-80v246h180v-282q0 -130 -44.5 -203t-135.5 -98z" />
    <glyph glyph-name="Tbar" unicode="&#x166;" horiz-adv-x="716" 
d="M449 0h-183v596h-147v115h147v483h-227v166h641v-166h-231v-483h149v-115h-149v-596z" />
    <glyph glyph-name="tbar" unicode="&#x167;" horiz-adv-x="702" 
d="M614 616h-381v-321q0 -148 136 -148q65 0 92.5 35.5t27.5 112.5v231h152v-231q0 -160 -61.5 -233.5t-212.5 -73.5q-158 0 -233 75.5t-75 231.5v960h174v-272h408v-158h-408v-110h381v-99z" />
    <glyph glyph-name="Utilde" unicode="&#x168;" horiz-adv-x="753" 
d="M516 319v1041h180v-1028q0 -167 -81 -255.5t-238 -88.5q-156 0 -239 86t-83 254v1032h181v-1043q0 -159 139 -159q141 0 141 161zM573 1606l80 -47q-33 -121 -149 -121q-45 0 -122.5 33.5t-121.5 33.5q-30 0 -49.5 -13t-32.5 -46l-80 47q36 121 150 121q46 0 124 -34
t120 -34q61 0 81 60z" />
    <glyph glyph-name="utilde" unicode="&#x169;" horiz-adv-x="743" 
d="M59 983h179v-688q0 -82 30 -117t97 -35q65 0 94.5 34.5t48.5 125.5v680h176v-983h-166l-4 141h-8q-33 -83 -84 -118t-133 -35q-123 0 -176.5 76.5t-53.5 232.5v686zM571 1251l80 -47q-33 -121 -149 -121q-45 0 -122.5 34t-121.5 34q-30 0 -49.5 -13t-32.5 -46l-80 47
q36 121 150 121q46 0 123 -34t120 -34q62 0 82 59z" />
    <glyph glyph-name="Umacron" unicode="&#x16a;" horiz-adv-x="753" 
d="M516 319v1041h180v-1028q0 -167 -81 -255.5t-238 -88.5q-156 0 -239 86t-83 254v1032h181v-1043q0 -159 139 -159q141 0 141 161zM616 1505h-479v113h479v-113z" />
    <glyph glyph-name="umacron" unicode="&#x16b;" horiz-adv-x="743" 
d="M59 983h179v-688q0 -82 30 -117t97 -35q65 0 94.5 34.5t48.5 125.5v680h176v-983h-166l-4 141h-8q-33 -83 -84 -118t-133 -35q-123 0 -176.5 76.5t-53.5 232.5v686zM612 1151h-479v113h479v-113z" />
    <glyph glyph-name="Ubreve" unicode="&#x16c;" horiz-adv-x="753" 
d="M516 319v1041h180v-1028q0 -167 -81 -255.5t-238 -88.5q-156 0 -239 86t-83 254v1032h181v-1043q0 -159 139 -159q141 0 141 161zM373 1386q-127 0 -202 84t-75 242h129q6 -209 148 -209t145 209h133q0 -160 -75.5 -243t-202.5 -83z" />
    <glyph glyph-name="ubreve" unicode="&#x16d;" horiz-adv-x="743" 
d="M59 983h179v-688q0 -82 30 -117t97 -35q65 0 94.5 34.5t48.5 125.5v680h176v-983h-166l-4 141h-8q-33 -83 -84 -118t-133 -35q-123 0 -176.5 76.5t-53.5 232.5v686zM371 1032q-127 0 -202 84t-75 242h129q6 -209 148 -209t145 209h133q0 -160 -75.5 -243t-202.5 -83z" />
    <glyph glyph-name="Uring" unicode="&#x16e;" horiz-adv-x="753" 
d="M516 319v1041h180v-1028q0 -167 -81 -255.5t-238 -88.5q-156 0 -239 86t-83 254v1032h181v-1043q0 -159 139 -159q141 0 141 161zM379 1464q46 0 71 29.5t25 83.5q0 56 -25 86.5t-71 30.5q-47 0 -71.5 -30.5t-24.5 -86.5q0 -54 24.5 -83.5t71.5 -29.5zM379 1386
q-88 0 -132 50t-44 141q0 92 44 142t132 50q86 0 130 -50t44 -142q0 -91 -44 -141t-130 -50z" />
    <glyph glyph-name="uring" unicode="&#x16f;" horiz-adv-x="743" 
d="M59 983h179v-688q0 -82 30 -117t97 -35q65 0 94.5 34.5t48.5 125.5v680h176v-983h-166l-4 141h-8q-33 -83 -84 -118t-133 -35q-123 0 -176.5 76.5t-53.5 232.5v686zM375 1110q46 0 71 29.5t25 83.5q0 55 -25 85.5t-71 30.5q-47 0 -71.5 -30t-24.5 -86q0 -54 24.5 -83.5
t71.5 -29.5zM375 1032q-88 0 -132 50t-44 141q0 92 44 142t132 50q86 0 130 -50t44 -142q0 -91 -44 -141t-130 -50z" />
    <glyph glyph-name="Uhungarumlaut" unicode="&#x170;" horiz-adv-x="753" 
d="M516 319v1041h180v-1028q0 -167 -81 -255.5t-238 -88.5q-156 0 -239 86t-83 254v1032h181v-1043q0 -159 139 -159q141 0 141 161zM225 1386l-82 41l191 365l115 -66zM467 1386l-82 41l190 365l115 -66z" />
    <glyph glyph-name="uhungarumlaut" unicode="&#x171;" horiz-adv-x="743" 
d="M59 983h179v-688q0 -82 30 -117t97 -35q65 0 94.5 34.5t48.5 125.5v680h176v-983h-166l-4 141h-8q-33 -83 -84 -118t-133 -35q-123 0 -176.5 76.5t-53.5 232.5v686zM221 1032l-82 41l191 365l114 -66zM463 1032l-82 41l190 365l115 -66z" />
    <glyph glyph-name="Uogonek" unicode="&#x172;" horiz-adv-x="753" 
d="M469 -287v-145q-50 -27 -133 -27q-97 0 -144 39t-47 121v55q0 152 179 221v13q-269 28 -269 338v1032h181v-1043q0 -159 139 -159q141 0 141 161v1041h180v-1028q0 -144 -60 -230t-177 -106q-91 -33 -141 -83t-50 -103v-46q0 -67 103 -67q62 0 98 16z" />
    <glyph glyph-name="uogonek" unicode="&#x173;" horiz-adv-x="743" 
d="M680 -287v-145q-52 -27 -133 -27q-193 0 -193 160v55q0 165 217 232v12h-53l-4 141h-8q-33 -83 -84 -118t-133 -35q-123 0 -176.5 76.5t-53.5 232.5v686h179v-688q0 -82 30 -117t97 -35q65 0 94.5 34.5t48.5 125.5v680h176v-983q-98 -35 -151.5 -85t-53.5 -105v-46
q0 -35 24.5 -51t78.5 -16q62 0 98 16z" />
    <glyph glyph-name="Wcircumflex" unicode="&#x174;" horiz-adv-x="1116" 
d="M420 0h-232l-163 1360h176l118 -1034h9l127 1034h207l131 -1034h8l117 1034h174l-164 -1360h-232l-135 1053h-8zM827 1450l-77 -61l-193 221l-192 -221l-78 61l188 264h162z" />
    <glyph glyph-name="wcircumflex" unicode="&#x175;" horiz-adv-x="1019" 
d="M383 0h-215l-148 983h164l107 -737h8l115 737h192l119 -737h8l105 737h161l-147 -983h-215l-123 752h-8zM780 1096l-78 -62l-192 221l-193 -221l-77 62l188 264h162z" />
    <glyph glyph-name="Ycircumflex" unicode="&#x176;" horiz-adv-x="755" 
d="M473 0h-184v575l-269 785h179l180 -541h8l172 541h174l-260 -787v-573zM657 1450l-77 -61l-193 221l-192 -221l-78 61l188 264h162z" />
    <glyph glyph-name="ycircumflex" unicode="&#x177;" 
d="M238 983v-674q0 -147 129 -147q59 0 92 34.5t53 120.5v666h170v-1153q0 -155 -77 -231t-234 -76q-156 0 -230.5 75.5t-74.5 231.5v109h167v-109q0 -147 136 -147q137 0 137 147v305h-8q-31 -73 -82 -104t-127 -31q-123 0 -176.5 67.5t-53.5 190.5v725h179zM653 1096
l-78 -62l-192 221l-193 -221l-77 62l188 264h162z" />
    <glyph glyph-name="Ydieresis" unicode="&#x178;" horiz-adv-x="755" 
d="M473 0h-184v575l-269 785h179l180 -541h8l172 541h174l-260 -787v-573zM309 1434h-164v221h164v-221zM618 1434h-163v221h163v-221z" />
    <glyph glyph-name="Ydieresis" unicode="&#x3ab;" horiz-adv-x="755" 
d="M473 0h-184v575l-269 785h179l180 -541h8l172 541h174l-260 -787v-573zM309 1434h-164v221h164v-221zM618 1434h-163v221h163v-221z" />
    <glyph glyph-name="Zacute" unicode="&#x179;" horiz-adv-x="690" 
d="M651 0h-612v170l416 1024h-412v166h598v-168l-412 -1026h422v-166zM588 1686l-330 -300l-70 72l306 334z" />
    <glyph glyph-name="zacute" unicode="&#x17a;" horiz-adv-x="628" 
d="M588 0h-545v166l350 659h-348v158h535v-160l-351 -661h359v-162zM557 1331l-330 -299l-69 72l305 334z" />
    <glyph glyph-name="Zdotaccent" unicode="&#x17b;" horiz-adv-x="690" 
d="M651 0h-612v170l416 1024h-412v166h598v-168l-412 -1026h422v-166zM424 1458h-176v221h176v-221z" />
    <glyph glyph-name="zdotaccent" unicode="&#x17c;" horiz-adv-x="628" 
d="M588 0h-545v166l350 659h-348v158h535v-160l-351 -661h359v-162zM391 1104h-176v221h176v-221z" />
    <glyph glyph-name="Zcaron" unicode="&#x17d;" horiz-adv-x="690" 
d="M651 0h-612v170l416 1024h-412v166h598v-168l-412 -1026h422v-166zM430 1409h-162l-190 266l78 62l192 -221l193 221l77 -62z" />
    <glyph glyph-name="zcaron" unicode="&#x17e;" horiz-adv-x="628" 
d="M588 0h-545v166l350 659h-348v158h535v-160l-351 -661h359v-162zM397 1069h-161l-191 266l78 62l192 -221l193 221l78 -62z" />
    <glyph glyph-name="uni018E" unicode="&#x18e;" horiz-adv-x="598" 
d="M33 1360h508v-1360h-492v166h311v397h-284v168h284v463h-327v166z" />
    <glyph glyph-name="uni018F" unicode="&#x18f;" 
d="M47 985v47q0 164 81.5 252t244.5 88q319 0 319 -340v-723q0 -163 -78.5 -242t-242.5 -79t-244 79t-80 242v494h465v233q0 78 -35.5 121t-103.5 43q-71 0 -107.5 -43t-36.5 -121v-51h-182zM229 639v-334q0 -153 142 -153q141 0 141 153v334h-283z" />
    <glyph glyph-name="uni018F" unicode="&#x4d8;" 
d="M47 985v47q0 164 81.5 252t244.5 88q319 0 319 -340v-723q0 -163 -78.5 -242t-242.5 -79t-244 79t-80 242v494h465v233q0 78 -35.5 121t-103.5 43q-71 0 -107.5 -43t-36.5 -121v-51h-182zM229 639v-334q0 -153 142 -153q141 0 141 153v334h-283z" />
    <glyph glyph-name="florin" unicode="&#x192;" horiz-adv-x="641" 
d="M606 809h-174l-121 -952q-15 -120 -66.5 -165.5t-164.5 -45.5h-66v161h35q43 0 64.5 18.5t25.5 59.5l117 924h-137v115h151l33 241q15 119 66.5 165t162.5 46h74v-162h-43q-43 0 -63.5 -18t-26.5 -59l-27 -213h160v-115z" />
    <glyph glyph-name="uni0194" unicode="&#x194;" horiz-adv-x="843" 
d="M422 -477q-117 0 -169 63t-52 187q0 70 25.5 188.5t109.5 417.5l-289 981h184l177 -651h24l178 651h185l-289 -981q84 -300 109.5 -416t25.5 -188q0 -126 -51.5 -189t-167.5 -63zM432 68h-24q-36 -111 -50 -175.5t-14 -123.5q0 -68 18 -95.5t60 -27.5t59 27.5t17 90.5
q0 106 -66 304z" />
    <glyph glyph-name="uni019D" unicode="&#x19d;" horiz-adv-x="802" 
d="M745 0h-215l-311 1053h-8q6 -150 6 -287v-936q0 -152 -67.5 -229.5t-186.5 -77.5q-39 0 -67 8v158q12 -6 49 -6q56 0 83 35.5t27 111.5v1530h242l285 -977h8q-6 194 -6 330v647h161v-1360z" />
    <glyph glyph-name="Ohorn" unicode="&#x1a0;" horiz-adv-x="860" 
d="M692 1018v-690q0 -170 -81.5 -255t-237.5 -85q-159 0 -242.5 89t-83.5 255v690q0 167 84.5 258.5t235.5 91.5q43 0 131 -11t131 -11q62 0 85 19t23 73q0 67 -10 98h100q17 -33 17 -113q0 -100 -30.5 -143t-102.5 -43q-41 0 -88 8q69 -84 69 -231zM512 317v717
q0 79 -36.5 122.5t-104.5 43.5t-105 -42.5t-37 -121.5v-717q0 -79 36.5 -120t105.5 -41q141 0 141 159z" />
    <glyph glyph-name="ohorn" unicode="&#x1a1;" horiz-adv-x="827" 
d="M674 688v-393q0 -158 -75 -232.5t-232 -74.5t-232.5 74.5t-75.5 232.5v393q0 307 297 307q49 0 128.5 -11t117.5 -11q60 0 81.5 19.5t21.5 72.5q0 64 -11 98h101q18 -35 18 -112q0 -99 -31 -143t-100 -44q-35 0 -55 2q47 -68 47 -178zM502 295v393q0 148 -135 148
q-136 0 -136 -148v-393q0 -148 136 -148q135 0 135 148z" />
    <glyph glyph-name="Uhorn" unicode="&#x1af;" horiz-adv-x="931" 
d="M516 319v1041h209q45 0 64.5 19t19.5 67q0 60 -10 94h100q19 -36 19 -113q0 -98 -31 -139t-101 -41q-49 0 -90 10v-925q0 -170 -80 -257t-239 -87q-157 0 -239.5 85t-82.5 255v1032h181v-1043q0 -159 139 -159q141 0 141 161z" />
    <glyph glyph-name="uhorn" unicode="&#x1b0;" horiz-adv-x="909" 
d="M59 983h179v-700q0 -140 124 -140q58 0 91 33t55 111v696h201q43 0 61 18.5t18 67.5t-10 94h101q16 -31 16 -112q0 -99 -29.5 -140t-101.5 -41q-43 0 -80 11v-881h-164l-6 141h-8q-64 -153 -211 -153q-127 0 -181.5 82.5t-54.5 230.5v682z" />
    <glyph glyph-name="uni04D9" unicode="&#x1dd;" horiz-adv-x="735" 
d="M59 643v45q0 307 312 307q155 0 230 -75t75 -232v-393q0 -156 -75.5 -231.5t-231.5 -75.5q-157 0 -233.5 76t-76.5 231v244h445v153q0 148 -133 148q-138 0 -138 -148v-49h-174zM233 408v-117q0 -148 136 -148q135 0 135 148v117h-271z" />
    <glyph glyph-name="uni04D9" unicode="&#x4d9;" horiz-adv-x="735" 
d="M59 643v45q0 307 312 307q155 0 230 -75t75 -232v-393q0 -156 -75.5 -231.5t-231.5 -75.5q-157 0 -233.5 76t-76.5 231v244h445v153q0 148 -133 148q-138 0 -138 -148v-49h-174zM233 408v-117q0 -148 136 -148q135 0 135 148v117h-271z" />
    <glyph glyph-name="uni04D9" unicode="&#x259;" horiz-adv-x="735" 
d="M59 643v45q0 307 312 307q155 0 230 -75t75 -232v-393q0 -156 -75.5 -231.5t-231.5 -75.5q-157 0 -233.5 76t-76.5 231v244h445v153q0 148 -133 148q-138 0 -138 -148v-49h-174zM233 408v-117q0 -148 136 -148q135 0 135 148v117h-271z" />
    <glyph glyph-name="Gcaron" unicode="&#x1e6;" horiz-adv-x="743" 
d="M688 0h-121l-8 104h-8q-29 -56 -76 -86t-129 -30q-139 0 -215 89.5t-76 254.5v690q0 167 81.5 258.5t234.5 91.5q154 0 235.5 -93t81.5 -261v-78h-174v94q0 80 -35.5 123t-103.5 43q-67 0 -102 -42t-35 -122v-717q0 -79 34 -120t99 -41q120 0 143 137v268h-154v164h328
v-727zM463 1423h-162l-190 267l77 61l193 -221l192 221l78 -61z" />
    <glyph glyph-name="gcaron" unicode="&#x1e7;" 
d="M238 692v-344q0 -97 27.5 -141.5t92.5 -44.5q56 0 91 33t63 110v379q-16 86 -45.5 121t-97.5 35q-67 0 -99 -34t-32 -114zM682 -170q0 -307 -313 -307q-155 0 -229 76t-74 231v109h167v-109q0 -147 136 -147q137 0 137 147v305h-8q-52 -135 -209 -135q-121 0 -175.5 78
t-54.5 237v418q0 121 59 191.5t173 70.5q76 0 129.5 -36.5t89.5 -116.5h8l6 141h158v-1153zM455 1069h-162l-191 266l78 62l193 -221l192 221l78 -62z" />
    <glyph glyph-name="uni01F4" unicode="&#x1f4;" horiz-adv-x="743" 
d="M688 0h-121l-8 104h-8q-29 -56 -76 -86t-129 -30q-139 0 -215 89.5t-76 254.5v690q0 167 81.5 258.5t234.5 91.5q154 0 235.5 -93t81.5 -261v-78h-174v94q0 80 -35.5 123t-103.5 43q-67 0 -102 -42t-35 -122v-717q0 -79 34 -120t99 -41q120 0 143 137v268h-154v164h328
v-727zM618 1686l-329 -300l-70 72l305 334z" />
    <glyph glyph-name="uni01F5" unicode="&#x1f5;" 
d="M238 692v-344q0 -97 27.5 -141.5t92.5 -44.5q56 0 91 33t63 110v379q-16 86 -45.5 121t-97.5 35q-67 0 -99 -34t-32 -114zM682 -170q0 -307 -313 -307q-155 0 -229 76t-74 231v109h167v-109q0 -147 136 -147q137 0 137 147v305h-8q-52 -135 -209 -135q-121 0 -175.5 78
t-54.5 237v418q0 121 59 191.5t173 70.5q76 0 129.5 -36.5t89.5 -116.5h8l6 141h158v-1153zM618 1331l-329 -299l-70 72l305 334z" />
    <glyph glyph-name="uni01F8" unicode="&#x1f8;" horiz-adv-x="802" 
d="M745 0h-215l-311 1053h-8q6 -150 6 -287v-766h-162v1360h242l285 -977h8q-6 194 -6 330v647h161v-1360zM500 1386l-330 300l94 106l305 -334z" />
    <glyph glyph-name="uni01F9" unicode="&#x1f9;" horiz-adv-x="747" 
d="M688 0h-178v700q0 140 -127 140q-60 0 -91.5 -32.5t-55.5 -111.5v-696h-177v983h164l6 -141h9q32 79 84.5 116t130.5 37q107 0 171 -68.5t64 -193.5v-733zM469 1032l-330 299l94 107l306 -334z" />
    <glyph glyph-name="uni0237" unicode="&#x237;" horiz-adv-x="342" 
d="M-334 -170v115h168v-115q0 -75 33 -111t102 -36q137 0 137 147v1153h177v-1153q0 -307 -312 -307q-156 0 -230.5 75.5t-74.5 231.5z" />
    <glyph glyph-name="uni0241" unicode="&#x241;" horiz-adv-x="702" 
d="M438 0h-184v375q0 148 43 235q22 46 81.5 127.5t80.5 124.5q22 45 22 129v58q0 82 -28 116.5t-103 34.5q-87 0 -114 -43t-27 -147v-45h-172v34q0 82 5.5 134.5t23.5 102t52 77t90.5 43.5t139.5 16q77 0 131.5 -14t89 -38.5t53.5 -67t26 -91.5t7 -119v-59q0 -102 -34 -166
q-18 -36 -78.5 -116.5t-81.5 -127.5q-14 -32 -18.5 -68t-4.5 -124v-381z" />
    <glyph glyph-name="uni0242" unicode="&#x242;" horiz-adv-x="733" 
d="M453 0h-177v150q0 71 35 143q24 50 83 120.5t77 102.5q31 57 31 107v88q0 80 -28.5 114.5t-102.5 34.5q-80 0 -110 -39t-30 -127v-78h-170v54q0 187 68 268.5t238 81.5q165 0 236 -74.5t71 -238.5v-86q0 -58 -29 -125q-21 -44 -86 -120.5t-84 -121.5q-22 -55 -22 -107
v-147z" />
    <glyph glyph-name="uni024C" unicode="&#x24c;" horiz-adv-x="815" 
d="M309 0h-180v592h-117v153h117v615h377q137 0 197.5 -69t60.5 -204v-186q0 -185 -137 -221v-8q143 -27 143 -219v-453h-180v467q0 67 -26 96t-91 29h-164v-592zM588 885v182q0 64 -29 95.5t-92 31.5h-158v-449h160q119 0 119 140z" />
    <glyph glyph-name="uni024D" unicode="&#x24d;" horiz-adv-x="608" 
d="M279 0h-177v377h-88v115h88v491h162l6 -168h9q61 180 213 180q42 0 81 -20v-162q-31 21 -92 21q-82 0 -130 -51.5t-72 -178.5v-112h215v-115h-215v-377z" />
    <glyph glyph-name="uni0263" unicode="&#x263;" horiz-adv-x="724" 
d="M705 983l-267 -756q78 -252 99.5 -336.5t21.5 -142.5q0 -225 -197 -225q-194 0 -194 229q0 57 22 147.5t97 327.5l-267 756h181l153 -500h17l155 500h179zM371 0h-19q-57 -166 -57 -262q0 -51 15 -72.5t52 -21.5q36 0 53 21t17 69q0 95 -61 266z" />
    <glyph glyph-name="uni0272" unicode="&#x272;" horiz-adv-x="747" 
d="M688 0h-178v700q0 140 -127 140q-60 0 -91.5 -32.5t-55.5 -111.5v-866q0 -152 -72.5 -229.5t-204.5 -77.5q-42 0 -74 8v158q14 -6 52 -6q63 0 92.5 35.5t29.5 111.5v1153h164l6 -141h9q32 79 84.5 116t130.5 37q107 0 171 -68.5t64 -193.5v-733z" />
    <glyph glyph-name="circumflex" unicode="&#x2c6;" horiz-adv-x="667" 
d="M604 1096l-78 -62l-192 221l-193 -221l-78 62l189 264h162z" />
    <glyph glyph-name="caron" unicode="&#x2c7;" horiz-adv-x="663" 
d="M416 1069h-162l-191 266l78 62l193 -221l192 221l78 -62z" />
    <glyph glyph-name="uni02C9" unicode="&#x2c9;" horiz-adv-x="0" 
d="M-133 1151h-479v113h479v-113z" />
    <glyph glyph-name="breve" unicode="&#x2d8;" horiz-adv-x="677" 
d="M338 1032q-127 0 -202 84t-75 242h129q6 -209 148 -209t145 209h133q0 -160 -75.5 -243t-202.5 -83z" />
    <glyph glyph-name="dotaccent" unicode="&#x2d9;" horiz-adv-x="288" 
d="M231 1104h-176v221h176v-221z" />
    <glyph glyph-name="ring" unicode="&#x2da;" horiz-adv-x="464" 
d="M231 1110q46 0 71.5 29.5t25.5 83.5q0 55 -25.5 85.5t-71.5 30.5q-47 0 -71.5 -30t-24.5 -86q0 -54 24.5 -83.5t71.5 -29.5zM231 1032q-88 0 -132 50t-44 141q0 92 44 142t132 50q87 0 131 -50t44 -142q0 -91 -44.5 -141t-130.5 -50z" />
    <glyph glyph-name="ogonek" unicode="&#x2db;" horiz-adv-x="423" 
d="M365 -287v-145q-50 -27 -134 -27q-97 0 -143.5 39t-46.5 121v55q0 92 69 153.5t191 90.5h68q-97 -35 -151 -85.5t-54 -104.5v-46q0 -35 24.5 -51t77.5 -16q63 0 99 16z" />
    <glyph glyph-name="tilde" unicode="&#x2dc;" horiz-adv-x="667" 
d="M530 1251l80 -47q-33 -121 -149 -121q-45 0 -122.5 34t-121.5 34q-30 0 -49.5 -13t-32.5 -46l-80 47q36 121 150 121q46 0 124 -34t120 -34q61 0 81 59z" />
    <glyph glyph-name="hungarumlaut" unicode="&#x2dd;" horiz-adv-x="661" 
d="M139 1032l-82 41l191 365l114 -66zM381 1032l-82 41l190 365l115 -66z" />
    <glyph glyph-name="gravecomb" unicode="&#x300;" horiz-adv-x="0" 
d="M-283 1032l-329 299l94 107l305 -334z" />
    <glyph glyph-name="acutecomb" unicode="&#x301;" horiz-adv-x="0" 
d="M-158 1331l-329 -299l-70 72l305 334z" />
    <glyph glyph-name="uni0302" unicode="&#x302;" horiz-adv-x="0" 
d="M-102 1096l-78 -62l-193 221l-192 -221l-78 62l188 264h162z" />
    <glyph glyph-name="tildecomb" unicode="&#x303;" horiz-adv-x="0" 
d="M-174 1251l80 -47q-33 -121 -150 -121q-45 0 -122 34t-121 34q-30 0 -49.5 -13t-32.5 -46l-80 47q36 121 149 121q46 0 124 -34t120 -34q62 0 82 59z" />
    <glyph glyph-name="uni0304" unicode="&#x304;" horiz-adv-x="0" 
d="M-133 1151h-479v113h479v-113z" />
    <glyph glyph-name="uni0306" unicode="&#x306;" horiz-adv-x="0" 
d="M-373 1032q-127 0 -201.5 83.5t-74.5 242.5h129q6 -209 147 -209q143 0 146 209h133q0 -159 -76 -242.5t-203 -83.5z" />
    <glyph glyph-name="uni0307" unicode="&#x307;" horiz-adv-x="0" 
d="M-283 1104h-176v221h176v-221z" />
    <glyph glyph-name="uni0308" unicode="&#x308;" horiz-adv-x="0" 
d="M-446 1104h-164v221h164v-221zM-137 1104h-164v221h164v-221z" />
    <glyph glyph-name="hookabovecomb" unicode="&#x309;" horiz-adv-x="0" 
d="M-352 1059h-88q0 32 12.5 55.5t31 37.5t36.5 26.5t30.5 29.5t12.5 39q0 26 -17 42t-51 16q-54 0 -113 -43l-30 96q29 26 74 40.5t85 14.5q67 0 110.5 -41t43.5 -108q0 -36 -14 -63.5t-34 -44t-40.5 -30t-34.5 -30t-14 -37.5z" />
    <glyph glyph-name="uni030A" unicode="&#x30a;" horiz-adv-x="0" 
d="M-371 1110q46 0 71.5 29.5t25.5 83.5q0 55 -25.5 85.5t-71.5 30.5q-47 0 -71.5 -30t-24.5 -86q0 -54 24.5 -83.5t71.5 -29.5zM-371 1032q-88 0 -132 50t-44 141q0 92 44 142t132 50q86 0 130 -50t44 -142q0 -91 -44 -141t-130 -50z" />
    <glyph glyph-name="uni030B" unicode="&#x30b;" horiz-adv-x="0" 
d="M-547 1032l-82 41l191 365l114 -66zM-305 1032l-82 41l190 365l115 -66z" />
    <glyph glyph-name="uni030C" unicode="&#x30c;" horiz-adv-x="0" 
d="M-289 1069h-162l-190 266l78 62l192 -221l193 221l78 -62z" />
    <glyph glyph-name="uni0313" unicode="&#x313;" horiz-adv-x="0" 
d="M-295 1493v-86q-40 -13 -59 -37t-19 -72v-30h78v-197h-158v184q0 111 37.5 168t120.5 70z" />
    <glyph glyph-name="uni031B" unicode="&#x31b;" horiz-adv-x="139" 
d="M-225 918v65q98 -10 151 -10q56 0 74 17t18 69q0 59 -10 104h101q16 -37 16 -116q0 -96 -32 -139.5t-101 -43.5q-83 0 -217 54z" />
    <glyph glyph-name="dotbelowcomb" unicode="&#x323;" horiz-adv-x="0" 
d="M-283 -340h-176v219h176v-219z" />
    <glyph glyph-name="uni0326" unicode="&#x326;" horiz-adv-x="0" 
d="M-451 -459v86q40 13 59 37t19 72v31h-78v196h158v-184q0 -111 -37.5 -168t-120.5 -70z" />
    <glyph glyph-name="uni0328" unicode="&#x328;" horiz-adv-x="0" 
d="M-213 -287v-145q-50 -27 -133 -27q-97 0 -144 39t-47 121v55q0 92 69.5 153.5t191.5 90.5h67q-97 -35 -151 -85.5t-54 -104.5v-46q0 -67 103 -67q62 0 98 16z" />
    <glyph glyph-name="uni032D" unicode="&#x32d;" horiz-adv-x="0" 
d="M-102 -379l-78 -61l-193 221l-192 -221l-78 61l188 264h162z" />
    <glyph glyph-name="tonos" unicode="&#x384;" horiz-adv-x="196" 
d="M147 1079h-110v412h145z" />
    <glyph glyph-name="dieresistonos" unicode="&#x385;" horiz-adv-x="0" 
d="M-315 1079h-111v412h145zM-496 1104h-176v221h176v-221zM-59 1104h-177v221h177v-221z" />
    <glyph glyph-name="Alphatonos" unicode="&#x386;" horiz-adv-x="821" 
d="M795 0h-181l-53 319h-250l-49 -319h-178l231 1360h248zM432 1073l-96 -596h201l-97 596h-8zM147 1079h-110v412h145z" />
    <glyph glyph-name="anoteleia" unicode="&#x387;" horiz-adv-x="290" 
d="M236 668h-181v245h181v-245z" />
    <glyph glyph-name="Epsilontonos" unicode="&#x388;" horiz-adv-x="763" 
d="M729 0h-508v1360h492v-166h-312v-397h285v-168h-285v-463h328v-166zM147 1079h-110v412h145z" />
    <glyph glyph-name="Etatonos" unicode="&#x389;" horiz-adv-x="927" 
d="M870 0h-182v639h-287v-639h-184v1360h184v-557h287v557h182v-1360zM147 1079h-110v412h145z" />
    <glyph glyph-name="Iotatonos" unicode="&#x38a;" horiz-adv-x="456" 
d="M401 0h-184v1360h184v-1360zM147 1079h-110v412h145z" />
    <glyph glyph-name="Omicrontonos" unicode="&#x38c;" horiz-adv-x="892" 
d="M844 1018v-690q0 -169 -82.5 -254.5t-237.5 -85.5q-158 0 -241.5 89t-83.5 255v690q0 166 84.5 258t238.5 92q153 0 237.5 -93.5t84.5 -260.5zM664 317v717q0 80 -37.5 123t-106.5 43q-66 0 -102.5 -42.5t-36.5 -121.5v-717q0 -161 141 -161q142 0 142 159zM147 1079
h-110v412h145z" />
    <glyph glyph-name="Upsilontonos" unicode="&#x38e;" horiz-adv-x="946" 
d="M666 0h-185v575l-268 785h178l180 -541h9l172 541h174l-260 -787v-573zM147 1079h-110v412h145z" />
    <glyph glyph-name="Omegatonos" unicode="&#x38f;" horiz-adv-x="948" 
d="M913 0h-313v150q107 41 107 313v588q0 149 -154 149q-156 0 -156 -149v-588q0 -273 107 -313v-150h-314v160h146v8q-125 91 -125 297v606q0 146 89 223.5t251 77.5t251 -77.5t89 -223.5v-606q0 -205 -123 -297v-8h145v-160zM147 1079h-110v412h145z" />
    <glyph glyph-name="iotadieresistonos" unicode="&#x390;" horiz-adv-x="583" 
d="M459 0h-35q-229 0 -229 238v745h176v-745q0 -80 55 -80h33v-158zM342 1079h-111v412h146zM160 1104h-176v221h176v-221zM596 1104h-176v221h176v-221z" />
    <glyph glyph-name="Gamma" unicode="&#x393;" horiz-adv-x="612" 
d="M240 0h-185v1360h520v-168h-335v-1192z" />
    <glyph glyph-name="Gamma" unicode="&#x413;" horiz-adv-x="612" 
d="M240 0h-185v1360h520v-168h-335v-1192z" />
    <glyph glyph-name="uni0394" unicode="&#x394;" horiz-adv-x="761" 
d="M735 0h-710l231 1360h248zM535 168l-154 905h-8l-152 -905h314z" />
    <glyph glyph-name="Theta" unicode="&#x398;" 
d="M692 1018v-690q0 -170 -81.5 -255t-237.5 -85q-159 0 -242.5 89t-83.5 255v690q0 166 85 258t239 92q153 0 237 -93.5t84 -260.5zM479 629h-217v168h217v-168zM524 317v717q0 80 -40 123t-115 43q-74 0 -113 -42.5t-39 -121.5v-717q0 -79 39.5 -120t114.5 -41
q153 0 153 159z" />
    <glyph glyph-name="Lambda" unicode="&#x39b;" horiz-adv-x="761" 
d="M256 1360h248l231 -1360h-180l-174 1073h-8l-170 -1073h-178z" />
    <glyph glyph-name="Xi" unicode="&#x39e;" horiz-adv-x="598" 
d="M563 0h-528v166h528v-166zM520 629h-442v168h442v-168zM547 1194h-498v166h498v-166z" />
    <glyph glyph-name="Pi" unicode="&#x3a0;" horiz-adv-x="765" 
d="M709 0h-183v1194h-286v-1194h-185v1360h654v-1360z" />
    <glyph glyph-name="Pi" unicode="&#x41f;" horiz-adv-x="765" 
d="M709 0h-183v1194h-286v-1194h-185v1360h654v-1360z" />
    <glyph glyph-name="Sigma" unicode="&#x3a3;" horiz-adv-x="598" 
d="M561 0h-522v166l209 520l-211 516v158h510v-166h-328l205 -506l-207 -522h344v-166z" />
    <glyph glyph-name="Phi" unicode="&#x3a6;" horiz-adv-x="1046" 
d="M612 0h-178v274h-135q-136 0 -196 69t-60 204v338q0 134 60 203t196 69h135v203h178v-203h133q137 0 198 -69t61 -203v-338q0 -134 -61.5 -203.5t-197.5 -69.5h-133v-274zM842 575v281q0 141 -121 141h-109v-563h109q121 0 121 141zM434 434v563h-108q-121 0 -121 -141
v-281q0 -141 121 -141h108z" />
    <glyph glyph-name="Phi" unicode="&#x424;" horiz-adv-x="1046" 
d="M612 0h-178v274h-135q-136 0 -196 69t-60 204v338q0 134 60 203t196 69h135v203h178v-203h133q137 0 198 -69t61 -203v-338q0 -134 -61.5 -203.5t-197.5 -69.5h-133v-274zM842 575v281q0 141 -121 141h-109v-563h109q121 0 121 141zM434 434v563h-108q-121 0 -121 -141
v-281q0 -141 121 -141h108z" />
    <glyph glyph-name="Psi" unicode="&#x3a8;" horiz-adv-x="1060" 
d="M618 0h-176v303h-135q-136 0 -197 69t-61 203v785h164v-758q0 -139 121 -139h108v897h176v-897h109q121 0 121 139v758h164v-785q0 -134 -61 -203t-197 -69h-136v-303z" />
    <glyph glyph-name="uni03A9" unicode="&#x3a9;" horiz-adv-x="792" 
d="M758 0h-314v150q107 41 107 313v588q0 149 -154 149q-155 0 -155 -149v-588q0 -273 106 -313v-150h-313v160h145v8q-125 91 -125 297v606q0 146 89 223.5t251 77.5t251 -77.5t89 -223.5v-606q0 -205 -123 -297v-8h146v-160z" />
    <glyph glyph-name="alphatonos" unicode="&#x3ac;" horiz-adv-x="796" 
d="M762 0h-33q-91 0 -138.5 33t-60.5 108h-8q-64 -153 -229 -153q-122 0 -178 76.5t-56 224.5v444q0 126 62.5 194t173.5 68q79 0 131 -36.5t84 -116.5h8l6 141h158v-741q0 -44 11.5 -64t37.5 -20h31v-158zM238 692v-401q0 -148 129 -148q61 0 91.5 35t53.5 121v385
q-22 88 -53 122t-92 34q-129 0 -129 -148zM418 1079h-111v412h146z" />
    <glyph glyph-name="epsilontonos" unicode="&#x3ad;" horiz-adv-x="720" 
d="M414 1079h-111v412h146zM664 354v-98q0 -136 -75 -202t-229 -66q-155 0 -230 65t-75 187v71q0 175 156 205v8q-135 26 -135 172v56q0 243 286 243q149 0 225.5 -67t76.5 -193v-57h-166v43q0 121 -133 121q-67 0 -97 -30t-30 -93v-37q0 -54 30 -79t103 -25h78v-119h-74
q-73 0 -110.5 -33t-37.5 -94v-72q0 -119 131 -119q72 0 105 35t33 109v69h168z" />
    <glyph glyph-name="etatonos" unicode="&#x3ae;" horiz-adv-x="747" 
d="M688 -477h-178v1177q0 140 -127 140q-60 0 -91.5 -32.5t-55.5 -111.5v-696h-177v983h164l6 -141h9q32 79 84.5 116t130.5 37q107 0 171 -68.5t64 -193.5v-1210zM424 1079h-111v412h146z" />
    <glyph glyph-name="iotatonos" unicode="&#x3af;" horiz-adv-x="356" 
d="M324 0h-35q-230 0 -230 238v745h177v-745q0 -80 55 -80h33v-158zM207 1079h-111v412h146z" />
    <glyph glyph-name="upsilondieresistonos" unicode="&#x3b0;" horiz-adv-x="724" 
d="M410 1079h-111v412h145zM500 295v688h166v-688q0 -158 -73.5 -232.5t-230.5 -74.5t-230 74.5t-73 232.5v688h172v-688q0 -148 134 -148q135 0 135 148zM227 1104h-176v221h176v-221zM664 1104h-177v221h177v-221z" />
    <glyph glyph-name="alpha" unicode="&#x3b1;" horiz-adv-x="796" 
d="M762 0h-33q-91 0 -138.5 33t-60.5 108h-8q-64 -153 -229 -153q-122 0 -178 76.5t-56 224.5v444q0 126 62.5 194t173.5 68q79 0 131 -36.5t84 -116.5h8l6 141h158v-741q0 -44 11.5 -64t37.5 -20h31v-158zM238 692v-401q0 -148 129 -148q61 0 91.5 35t53.5 121v385
q-22 88 -53 122t-92 34q-129 0 -129 -148z" />
    <glyph glyph-name="beta" unicode="&#x3b2;" horiz-adv-x="743" 
d="M233 -477h-174v1616q0 133 71.5 191.5t240.5 58.5q161 0 231 -56t70 -192v-197q0 -158 -142 -194v-9q154 -42 154 -237v-209q0 -86 -21.5 -148t-59.5 -95.5t-82.5 -48.5t-98.5 -15q-64 0 -106.5 19.5t-82.5 55.5v-540zM508 289v213q0 88 -27 127t-112 39h-35v139h35
q46 0 75 11t41 35t15.5 45.5t3.5 59.5v121q0 81 -28.5 115.5t-104.5 34.5q-81 0 -109.5 -35.5t-28.5 -114.5v-852q36 -42 70 -63t82 -21q123 0 123 146z" />
    <glyph glyph-name="gamma" unicode="&#x3b3;" horiz-adv-x="698" 
d="M440 -477h-174v426l-243 1034h178l151 -754h8l146 754h170l-236 -1034v-426z" />
    <glyph glyph-name="gamma" unicode="&#x4af;" horiz-adv-x="698" 
d="M440 -477h-174v426l-243 1034h178l151 -754h8l146 754h170l-236 -1034v-426z" />
    <glyph glyph-name="delta" unicode="&#x3b4;" horiz-adv-x="733" 
d="M59 641q0 75 36.5 136.5t94.5 99.5v16q-45 32 -66.5 73t-21.5 103v61q0 259 326 259q88 0 168 -13v-157q-71 18 -160 18q-166 0 -166 -109v-51q0 -62 74 -108q15 -9 100.5 -51t126.5 -74q54 -40 78.5 -102.5t24.5 -176.5v-270q0 -158 -74.5 -232.5t-232.5 -74.5
t-233 74.5t-75 232.5v346zM502 295v280q0 27 -2 48.5t-8 40t-11 31.5t-17 26t-20 21t-25.5 19t-28.5 17t-34 18.5t-37 20.5q-88 -56 -88 -178v-344q0 -75 33 -111.5t103 -36.5t102.5 36t32.5 112z" />
    <glyph glyph-name="epsilon" unicode="&#x3b5;" horiz-adv-x="720" 
d="M664 354v-98q0 -136 -75 -202t-229 -66q-155 0 -230 65t-75 187v71q0 175 156 205v8q-135 26 -135 172v56q0 243 286 243q149 0 225.5 -67t76.5 -193v-57h-166v43q0 121 -133 121q-67 0 -97 -30t-30 -93v-37q0 -54 30 -79t103 -25h78v-119h-74q-73 0 -110.5 -33
t-37.5 -94v-72q0 -119 131 -119q72 0 105 35t33 109v69h168z" />
    <glyph glyph-name="zeta" unicode="&#x3b6;" horiz-adv-x="665" 
d="M604 -391h-176v354q0 37 -33 37h-149q-187 0 -187 199v266q0 100 16.5 160.5t61.5 128.5l314 465h-367v157h543v-157l-348 -539q-27 -41 -35 -80t-8 -115v-245q0 -82 75 -82h168q125 0 125 -144v-405z" />
    <glyph glyph-name="eta" unicode="&#x3b7;" horiz-adv-x="747" 
d="M688 -477h-178v1177q0 140 -127 140q-60 0 -91.5 -32.5t-55.5 -111.5v-696h-177v983h164l6 -141h9q32 79 84.5 116t130.5 37q107 0 171 -68.5t64 -193.5v-1210z" />
    <glyph glyph-name="theta" unicode="&#x3b8;" horiz-adv-x="733" 
d="M59 295v784q0 158 75.5 232.5t232.5 74.5t232 -74.5t75 -232.5v-784q0 -158 -75 -232.5t-232 -74.5t-232.5 74.5t-75.5 232.5zM502 295v348h-271v-348q0 -148 136 -148q135 0 135 148zM502 778v301q0 150 -135 150q-136 0 -136 -150v-301h271z" />
    <glyph glyph-name="iota" unicode="&#x3b9;" horiz-adv-x="356" 
d="M324 0h-35q-230 0 -230 238v745h177v-745q0 -80 55 -80h33v-158z" />
    <glyph glyph-name="kappa" unicode="&#x3ba;" horiz-adv-x="739" 
d="M713 0h-187l-186 422h-6l-98 -137v-285h-177v983h177v-418h8l280 418h193l-250 -389z" />
    <glyph glyph-name="kappa" unicode="&#x43a;" horiz-adv-x="739" 
d="M713 0h-187l-186 422h-6l-98 -137v-285h-177v983h177v-418h8l280 418h193l-250 -389z" />
    <glyph glyph-name="lambda" unicode="&#x3bb;" horiz-adv-x="729" 
d="M694 156v-156h-65q-73 0 -107 30t-47 91l-115 518h-8l-155 -639h-177l261 991l-37 174q-11 56 -66 56h-43v155h94q83 0 122 -30t57 -115l213 -1030q5 -24 16.5 -34.5t34.5 -10.5h22z" />
    <glyph glyph-name="uni03BC" unicode="&#x3bc;" horiz-adv-x="743" 
d="M240 -477h-181v1460h179v-700q0 -140 124 -140q59 0 90.5 32.5t55.5 111.5v696h176v-983h-164l-6 141h-8q-28 -71 -69.5 -107t-102.5 -42q-76 0 -109 33h-10z" />
    <glyph glyph-name="xi" unicode="&#x3be;" horiz-adv-x="706" 
d="M631 -391h-176v354q0 37 -33 37h-176q-187 0 -187 199v379q0 177 156 204v9q-135 29 -135 172v182q0 244 285 244q150 0 225.5 -67.5t75.5 -193.5v-86h-166v72q0 121 -131 121q-127 0 -127 -123v-164q0 -53 30 -78.5t103 -25.5h76v-119h-70q-71 0 -108 -33t-37 -94v-358
q0 -82 75 -82h193q127 0 127 -144v-405z" />
    <glyph glyph-name="pi" unicode="&#x3c0;" horiz-adv-x="909" 
d="M829 0h-32q-230 0 -230 238v587h-233v-825h-176v825h-123v158h842v-158h-134v-587q0 -80 56 -80h30v-158z" />
    <glyph glyph-name="rho" unicode="&#x3c1;" horiz-adv-x="733" 
d="M500 291v397q0 148 -135 148q-136 0 -136 -148v-401q22 -79 53 -111.5t91 -32.5q127 0 127 148zM233 -477h-174v1165q0 158 75.5 232.5t232.5 74.5t232 -74.5t75 -232.5v-438q0 -127 -59.5 -194.5t-168.5 -67.5q-148 0 -204 135h-9v-600z" />
    <glyph glyph-name="uni03C2" unicode="&#x3c2;" horiz-adv-x="724" 
d="M666 -391h-177v354q0 37 -32 37h-211q-187 0 -187 199v489q0 156 75.5 231.5t232.5 75.5q155 0 227 -75t72 -232v-65h-166v65q0 148 -133 148q-136 0 -136 -148v-448q0 -82 76 -82h234q125 0 125 -144v-405z" />
    <glyph glyph-name="sigma" unicode="&#x3c3;" horiz-adv-x="774" 
d="M739 983v-158h-100q25 -58 25 -139v-391q0 -158 -70 -232.5t-227 -74.5q-159 0 -233.5 75.5t-74.5 231.5v381q0 158 75 232.5t233 74.5h372zM498 686q0 88 -31 139h-43q-47 0 -78 -5t-59.5 -19.5t-42 -45t-13.5 -77.5v-383q0 -148 136 -148q69 0 100 37t31 111v391z" />
    <glyph glyph-name="tau" unicode="&#x3c4;" horiz-adv-x="585" 
d="M469 0h-33q-229 0 -229 238v587h-172v158h516v-158h-170v-587q0 -80 57 -80h31v-158z" />
    <glyph glyph-name="upsilon" unicode="&#x3c5;" horiz-adv-x="724" 
d="M500 295v688h166v-688q0 -158 -73.5 -232.5t-230.5 -74.5t-230 74.5t-73 232.5v688h172v-688q0 -148 134 -148q135 0 135 148z" />
    <glyph glyph-name="phi" unicode="&#x3c6;" horiz-adv-x="1038" 
d="M602 -477h-168v477h-172q-91 0 -147 63t-56 168v521q0 105 56 168t147 63h172v393h168v-393h174q91 0 147 -63t56 -168v-521q0 -105 -56 -168t-147 -63h-174v-477zM434 147v689h-115q-45 0 -70.5 -31.5t-25.5 -87.5v-451q0 -56 25.5 -87.5t70.5 -31.5h115zM815 266v410
q0 81 -21.5 120.5t-76.5 39.5h-115v-689h115q46 0 72 31t26 88z" />
    <glyph glyph-name="phi" unicode="&#x444;" horiz-adv-x="1038" 
d="M602 -477h-168v477h-172q-91 0 -147 63t-56 168v521q0 105 56 168t147 63h172v393h168v-393h174q91 0 147 -63t56 -168v-521q0 -105 -56 -168t-147 -63h-174v-477zM434 147v689h-115q-45 0 -70.5 -31.5t-25.5 -87.5v-451q0 -56 25.5 -87.5t70.5 -31.5h115zM815 266v410
q0 81 -21.5 120.5t-76.5 39.5h-115v-689h115q46 0 72 31t26 88z" />
    <glyph glyph-name="chi" unicode="&#x3c7;" horiz-adv-x="731" 
d="M711 -477h-187l-157 524h-9l-153 -524h-185l238 739l-229 721h182l156 -498h8l149 498h178l-227 -702z" />
    <glyph glyph-name="psi" unicode="&#x3c8;" horiz-adv-x="1038" 
d="M602 -477h-166v477h-174q-91 0 -147 63t-56 168v752h164v-717q0 -56 25.5 -87.5t70.5 -31.5h117v1229h166v-1229h115q46 0 72 31t26 88v717h164v-752q0 -105 -56 -168t-147 -63h-174v-477z" />
    <glyph glyph-name="omega" unicode="&#x3c9;" horiz-adv-x="1067" 
d="M838 299v449q0 147 -52 235h170q52 -73 52 -233v-447q0 -164 -58.5 -239.5t-179.5 -75.5q-148 0 -231 121h-9q-83 -121 -231 -121q-122 0 -181 75.5t-59 239.5v447q0 156 52 233h170q-50 -89 -50 -235v-449q0 -152 111 -152q117 0 117 150v393h151v-393q0 -150 115 -150
q113 0 113 152z" />
    <glyph glyph-name="iotadieresis" unicode="&#x3ca;" horiz-adv-x="466" 
d="M399 0h-34q-230 0 -230 238v745h176v-745q0 -80 56 -80h32v-158zM154 1104h-164v221h164v-221zM463 1104h-164v221h164v-221z" />
    <glyph glyph-name="upsilondieresis" unicode="&#x3cb;" horiz-adv-x="724" 
d="M500 295v688h166v-688q0 -158 -73.5 -232.5t-230.5 -74.5t-230 74.5t-73 232.5v688h172v-688q0 -148 134 -148q135 0 135 148zM291 1104h-164v221h164v-221zM600 1104h-164v221h164v-221z" />
    <glyph glyph-name="omicrontonos" unicode="&#x3cc;" horiz-adv-x="733" 
d="M674 688v-393q0 -158 -75 -232.5t-232 -74.5t-232.5 74.5t-75.5 232.5v393q0 158 75.5 232.5t232.5 74.5t232 -74.5t75 -232.5zM502 295v393q0 148 -135 148q-136 0 -136 -148v-393q0 -148 136 -148q135 0 135 148zM416 1079h-111v412h146z" />
    <glyph glyph-name="upsilontonos" unicode="&#x3cd;" horiz-adv-x="724" 
d="M410 1079h-111v412h145zM500 295v688h166v-688q0 -158 -73.5 -232.5t-230.5 -74.5t-230 74.5t-73 232.5v688h172v-688q0 -148 134 -148q135 0 135 148z" />
    <glyph glyph-name="omegatonos" unicode="&#x3ce;" horiz-adv-x="1067" 
d="M838 299v449q0 147 -52 235h170q52 -73 52 -233v-447q0 -164 -58.5 -239.5t-179.5 -75.5q-148 0 -231 121h-9q-83 -121 -231 -121q-122 0 -181 75.5t-59 239.5v447q0 156 52 233h170q-50 -89 -50 -235v-449q0 -152 111 -152q117 0 117 150v393h151v-393q0 -150 115 -150
q113 0 113 152zM573 1079h-110v412h145z" />
    <glyph glyph-name="uni0402" unicode="&#x402;" horiz-adv-x="888" 
d="M219 0v1194h-180v166h557v-166h-195v-395h9q40 69 89 99t124 30q106 0 157 -60.5t51 -189.5v-848q0 -307 -307 -307q-305 0 -305 307v88h182v-88q0 -75 30 -111t93 -36t93 36t30 111v799q0 135 -115 135q-56 0 -83 -34t-48 -122v-608h-182z" />
    <glyph glyph-name="uni0403" unicode="&#x403;" horiz-adv-x="612" 
d="M553 1686l-330 -300l-69 72l305 334zM240 0h-185v1360h520v-168h-335v-1192z" />
    <glyph glyph-name="uni0404" unicode="&#x404;" horiz-adv-x="743" 
d="M688 395v-67q0 -340 -313 -340q-157 0 -238.5 88.5t-81.5 255.5v690q0 166 82 258t234 92q154 0 235.5 -93t81.5 -261v-43h-174v59q0 80 -35.5 123t-103.5 43q-67 0 -102 -42t-35 -122v-245h239v-154h-239v-318q0 -161 139 -161q137 0 137 159v78h174z" />
    <glyph glyph-name="uni0409" unicode="&#x409;" horiz-adv-x="1284" 
d="M791 1360v-561h194q142 0 200 -63t58 -206v-258q0 -131 -60 -201.5t-198 -70.5h-377v1194h-246l-14 -408q-20 -525 -88 -673q-30 -67 -75 -90t-117 -23h-29v168h18q31 0 49 10.5t31 44.5q42 116 58 563l20 574h576zM791 166h159q70 0 95.5 34t25.5 105v187
q0 85 -24.5 116t-96.5 31h-159v-473z" />
    <glyph glyph-name="uni040A" unicode="&#x40a;" horiz-adv-x="1202" 
d="M709 1360v-561h194q142 0 200 -63t58 -206v-258q0 -131 -60 -201.5t-198 -70.5h-377v639h-286v-639h-185v1360h185v-561h286v561h183zM709 166h159q70 0 95.5 34t25.5 105v187q0 85 -24.5 116t-96.5 31h-159v-473z" />
    <glyph glyph-name="uni040B" unicode="&#x40b;" horiz-adv-x="888" 
d="M219 0v1194h-180v166h557v-166h-195v-395h9q40 69 89 99t124 30q106 0 157 -60.5t51 -189.5v-678h-184v629q0 135 -112 135q-53 0 -81.5 -31.5t-52.5 -111.5v-621h-182z" />
    <glyph glyph-name="uni040C" unicode="&#x40c;" horiz-adv-x="753" 
d="M729 0h-186l-195 588h-8l-98 -193v-395h-187v1360h187v-610h8l295 610h186l-256 -539zM600 1686l-330 -300l-69 72l305 334z" />
    <glyph glyph-name="uni040D" unicode="&#x40d;" horiz-adv-x="802" 
d="M500 1386l-330 300l94 106l305 -334zM745 0h-176v981h-8l-315 -981h-191v1360h178v-918h9l307 918h196v-1360z" />
    <glyph glyph-name="uni040E" unicode="&#x40e;" horiz-adv-x="753" 
d="M375 1386q-127 0 -202 84t-75 242h129q6 -209 148 -209t145 209h133q0 -160 -75.5 -243t-202.5 -83zM516 319v320h-8q-28 -57 -86 -90t-133 -33q-234 0 -234 340v504h181v-514q0 -81 29 -121.5t95 -40.5q125 0 156 141v535h180v-1028q0 -167 -80.5 -255.5t-238.5 -88.5
q-156 0 -239 85.5t-83 254.5v125h181v-136q0 -159 139 -159q141 0 141 161z" />
    <glyph glyph-name="uni040F" unicode="&#x40f;" horiz-adv-x="765" 
d="M453 -342h-140v342h-258v1360h185v-1192h286v1192h183v-1360h-256v-342z" />
    <glyph glyph-name="uni0411" unicode="&#x411;" horiz-adv-x="733" 
d="M575 1192h-335v-393h194q140 0 199 -67.5t59 -209.5v-250q0 -131 -60 -201.5t-198 -70.5h-379v1360h520v-168zM240 166h157q70 0 95.5 34t25.5 105v187q0 85 -24 116t-97 31h-157v-473z" />
    <glyph glyph-name="uni0414" unicode="&#x414;" horiz-adv-x="911" 
d="M879 -342h-140v342h-565v-342h-139v510h24q35 0 50 10q27 21 43 72t27.5 177.5t19.5 358.5l20 574h576v-1192h84v-510zM612 168v1026h-245l-15 -408q-18 -496 -71 -618h331z" />
    <glyph glyph-name="uni0416" unicode="&#x416;" horiz-adv-x="1187" 
d="M213 0h-193l342 692l-329 668h188l275 -537h8v537h178v-537h8l277 537h188l-332 -668l344 -692h-192l-285 584h-8v-584h-178v584h-8z" />
    <glyph glyph-name="uni0418" unicode="&#x418;" horiz-adv-x="802" 
d="M745 0h-176v981h-8l-315 -981h-191v1360h178v-918h9l307 918h196v-1360z" />
    <glyph glyph-name="uni0419" unicode="&#x419;" horiz-adv-x="802" 
d="M406 1386q-127 0 -202 84t-75 242h129q6 -209 148 -209t145 209h133q0 -160 -75.5 -243t-202.5 -83zM745 0h-176v981h-8l-315 -981h-191v1360h178v-918h9l307 918h196v-1360z" />
    <glyph glyph-name="uni041B" unicode="&#x41b;" horiz-adv-x="847" 
d="M791 0h-183v1194h-246l-14 -408q-18 -515 -88 -673q-30 -67 -75 -90t-117 -23h-29v168h18q31 0 49 10.5t31 44.5q42 112 58 563l20 574h576v-1360z" />
    <glyph glyph-name="uni0423" unicode="&#x423;" horiz-adv-x="753" 
d="M516 319v320h-8q-28 -57 -86 -90t-133 -33q-234 0 -234 340v504h181v-514q0 -81 29 -121.5t95 -40.5q125 0 156 141v535h180v-1028q0 -167 -80.5 -255.5t-238.5 -88.5q-156 0 -239 85.5t-83 254.5v125h181v-136q0 -159 139 -159q141 0 141 161z" />
    <glyph glyph-name="uni0426" unicode="&#x426;" horiz-adv-x="825" 
d="M791 -342h-140v342h-596v1360h185v-1192h286v1192h183v-1192h82v-510z" />
    <glyph glyph-name="uni0427" unicode="&#x427;" horiz-adv-x="753" 
d="M696 0h-180v602h-8q-88 -57 -211 -57q-131 0 -186.5 71t-55.5 236v508h181v-498q0 -80 28 -113.5t96 -33.5q107 0 156 57v588h180v-1360z" />
    <glyph glyph-name="uni0428" unicode="&#x428;" horiz-adv-x="1130" 
d="M1075 0h-1020v1360h185v-1192h239v1192h172v-1192h240v1192h184v-1360z" />
    <glyph glyph-name="uni0429" unicode="&#x429;" horiz-adv-x="1191" 
d="M1157 -342h-139v342h-963v1360h185v-1192h239v1192h172v-1192h240v1192h184v-1192h82v-510z" />
    <glyph glyph-name="uni042A" unicode="&#x42a;" horiz-adv-x="966" 
d="M291 0v1192h-252v168h434v-561h195q77 0 128 -20t79.5 -62t39.5 -97.5t11 -136.5v-211q0 -131 -60 -201.5t-198 -70.5h-377zM473 166h160q69 0 95 31t26 104v207q0 70 -25.5 100.5t-95.5 30.5h-160v-473z" />
    <glyph glyph-name="uni042B" unicode="&#x42b;" horiz-adv-x="1013" 
d="M956 0h-184v1360h184v-1360zM240 1360v-561h194q142 0 200 -63t58 -206v-258q0 -131 -60 -201.5t-198 -70.5h-379v1360h185zM240 166h157q70 0 95.5 34t25.5 105v187q0 85 -24 116t-97 31h-157v-473z" />
    <glyph glyph-name="uni042C" unicode="&#x42c;" horiz-adv-x="733" 
d="M240 1360v-561h194q142 0 200 -63t58 -206v-258q0 -131 -60 -201.5t-198 -70.5h-379v1360h185zM240 166h157q70 0 95.5 34t25.5 105v187q0 85 -24 116t-97 31h-157v-473z" />
    <glyph glyph-name="uni042D" unicode="&#x42d;" horiz-adv-x="743" 
d="M55 328v67h174v-78q0 -159 138 -159q139 0 139 161v318h-240v154h240v245q0 80 -35 122t-102 42q-69 0 -104.5 -43t-35.5 -123v-59h-174v43q0 167 82 260.5t236 93.5q152 0 233.5 -91.5t81.5 -258.5v-690q0 -167 -81 -255.5t-238 -88.5q-155 0 -234.5 85.5t-79.5 254.5z
" />
    <glyph glyph-name="uni042E" unicode="&#x42e;" horiz-adv-x="1103" 
d="M240 0h-185v1360h185v-557h163v219q0 166 84.5 258t237.5 92t237.5 -93.5t84.5 -260.5v-690q0 -169 -82.5 -254.5t-237.5 -85.5q-158 0 -241 89t-83 255v307h-163v-639zM866 317v717q0 79 -36.5 122.5t-104.5 43.5t-104.5 -42.5t-36.5 -121.5v-717q0 -161 143 -161
q139 0 139 159z" />
    <glyph glyph-name="uni042F" unicode="&#x42f;" horiz-adv-x="733" 
d="M207 0h-187l160 573q-43 14 -71 41t-42 67.5t-19 83.5t-5 103v164q0 66 5.5 112t21 89.5t43.5 69.5t74.5 41.5t111.5 15.5h379v-1360h-184v557h-142zM215 850q0 -76 30.5 -107.5t90.5 -31.5h158v483h-158q-67 0 -94 -40t-27 -122v-182z" />
    <glyph glyph-name="uni0431" unicode="&#x431;" horiz-adv-x="739" 
d="M502 291v401q0 148 -127 148q-61 0 -92 -33t-52 -111v-405q0 -148 136 -148q135 0 135 148zM680 733v-485q0 -126 -77 -193t-232 -67q-160 0 -236 74.5t-76 232.5v711q0 200 48 285t178 85h149q88 0 103 101h108q-3 -258 -149 -258h-146q-67 0 -95 -51t-28 -162v-146h9
q62 135 210 135q111 0 172.5 -67t61.5 -195z" />
    <glyph glyph-name="uni0432" unicode="&#x432;" horiz-adv-x="729" 
d="M662 700q0 -71 -35 -116.5t-101 -57.5v-8q156 -25 156 -196v-76q0 -246 -297 -246h-326v983h330q273 0 273 -211v-72zM379 459h-143v-314h151q123 0 123 123v70q0 58 -33 89.5t-98 31.5zM500 668v77q0 91 -115 91h-149v-258h147q60 0 88.5 21.5t28.5 68.5z" />
    <glyph glyph-name="uni0433" unicode="&#x433;" horiz-adv-x="501" 
d="M236 0h-177v983h408v-158h-231v-825z" />
    <glyph glyph-name="uni0434" unicode="&#x434;" horiz-adv-x="862" 
d="M827 -307h-139v307h-514v-307h-139v465h28q63 0 89.5 88.5t35.5 302.5l19 434h536v-825h84v-465zM567 158v667h-225l-14 -213q-11 -193 -23 -297t-37 -157h299z" />
    <glyph glyph-name="uni0436" unicode="&#x436;" horiz-adv-x="1095" 
d="M1075 0h-186l-248 424h-8v-424h-170v424h-8l-248 -424h-187l304 506l-291 477h182l240 -379h8v379h170v-379h8l240 379h182l-293 -477z" />
    <glyph glyph-name="uni0437" unicode="&#x437;" horiz-adv-x="720" 
d="M666 311v-71q0 -252 -306 -252q-154 0 -227.5 65.5t-73.5 202.5v98h166v-69q0 -74 33 -109t104 -35q132 0 132 119v72q0 61 -37.5 94t-108.5 33h-76v119h78q73 0 104 25t31 79v37q0 62 -31 92.5t-98 30.5q-131 0 -131 -121v-43h-166v57q0 126 75.5 193t225.5 67
q285 0 285 -243v-56q0 -146 -135 -172v-8q156 -30 156 -205z" />
    <glyph glyph-name="uni0438" unicode="&#x438;" horiz-adv-x="772" 
d="M713 0h-176v676h-9l-284 -676h-185v983h177v-676h8l282 676h187v-983z" />
    <glyph glyph-name="uni0439" unicode="&#x439;" horiz-adv-x="772" 
d="M387 1032q-127 0 -201.5 83.5t-74.5 242.5h129q6 -209 147 -209q142 0 145 209h134q0 -159 -76 -242.5t-203 -83.5zM713 0h-176v676h-9l-284 -676h-185v983h177v-676h8l282 676h187v-983z" />
    <glyph glyph-name="uni043B" unicode="&#x43b;" horiz-adv-x="792" 
d="M731 0h-176v825h-225l-15 -213q-16 -237 -35 -357t-53 -177q-25 -43 -65 -60.5t-101 -17.5h-26v158h16q46 0 70 41q25 41 37 132t20 281l17 371h536v-983z" />
    <glyph glyph-name="uni043C" unicode="&#x43c;" horiz-adv-x="970" 
d="M911 0h-155v535q0 104 8 213h-8l-193 -748h-155l-193 748h-8q6 -123 6 -213v-535h-154v983h260l166 -711h7l165 711h254v-983z" />
    <glyph glyph-name="uni043D" unicode="&#x43d;" horiz-adv-x="749" 
d="M690 0h-176v436h-278v-436h-177v983h177v-389h278v389h176v-983z" />
    <glyph glyph-name="uni043F" unicode="&#x43f;" horiz-adv-x="749" 
d="M690 0h-176v825h-278v-825h-177v983h631v-983z" />
    <glyph glyph-name="uni0442" unicode="&#x442;" horiz-adv-x="628" 
d="M403 0h-176v825h-188v158h553v-158h-189v-825z" />
    <glyph glyph-name="uni0446" unicode="&#x446;" horiz-adv-x="804" 
d="M772 -303h-139v303h-574v983h177v-825h278v825h176v-825h82v-461z" />
    <glyph glyph-name="uni0447" unicode="&#x447;" horiz-adv-x="745" 
d="M686 0h-176v414h-8q-74 -43 -207 -43q-129 0 -184.5 47.5t-55.5 156.5v408h176v-367q0 -51 29.5 -72.5t104.5 -21.5q95 0 145 31v430h176v-983z" />
    <glyph glyph-name="uni0448" unicode="&#x448;" horiz-adv-x="1093" 
d="M1032 0h-973v983h177v-825h229v825h160v-825h231v825h176v-983z" />
    <glyph glyph-name="uni0449" unicode="&#x449;" horiz-adv-x="1150" 
d="M1116 -303h-139v303h-918v983h177v-825h229v825h160v-825h231v825h176v-825h84v-461z" />
    <glyph glyph-name="uni044A" unicode="&#x44a;" horiz-adv-x="894" 
d="M416 983v-352h184q133 0 191.5 -53.5t58.5 -159.5v-215q0 -100 -59 -151.5t-191 -51.5h-360v825h-217v158h393zM416 154h151q66 0 90.5 25t24.5 81v123q0 51 -27.5 75.5t-87.5 24.5h-151v-329z" />
    <glyph glyph-name="uni044B" unicode="&#x44b;" horiz-adv-x="983" 
d="M236 983v-352h186q132 0 190 -55t58 -162v-211q0 -100 -58.5 -151.5t-189.5 -51.5h-363v983h177zM236 154h151q117 0 117 100v129q0 100 -117 100h-151v-329zM924 0h-176v983h176v-983z" />
    <glyph glyph-name="uni044C" unicode="&#x44c;" horiz-adv-x="714" 
d="M236 983v-352h186q132 0 190 -55t58 -162v-211q0 -100 -58.5 -151.5t-189.5 -51.5h-363v983h177zM236 154h151q117 0 117 100v129q0 100 -117 100h-151v-329z" />
    <glyph glyph-name="uni044D" unicode="&#x44d;" horiz-adv-x="724" 
d="M494 453h-228v129h228v112q0 148 -136 148q-65 0 -96 -33.5t-31 -91.5v-31h-168v35q0 274 295 274q308 0 308 -307v-393q0 -155 -75.5 -231t-230.5 -76q-156 0 -228.5 75t-72.5 228v55h168v-61q0 -144 133 -144q134 0 134 148v164z" />
    <glyph glyph-name="uni044E" unicode="&#x44e;" horiz-adv-x="1067" 
d="M1006 688v-393q0 -158 -74.5 -232.5t-231.5 -74.5q-156 0 -228.5 74t-72.5 233v141h-168v-436h-172v983h172v-389h168v94q0 159 72.5 233t228.5 74q157 0 231.5 -74.5t74.5 -232.5zM836 295v393q0 148 -136 148q-135 0 -135 -148v-393q0 -148 135 -148q136 0 136 148z
" />
    <glyph glyph-name="uni044F" unicode="&#x44f;" horiz-adv-x="729" 
d="M205 0h-185l173 379q-79 20 -106.5 75t-27.5 150v176q0 100 58.5 151.5t189.5 51.5h363v-983h-176v367h-134zM227 608q0 -57 28 -78.5t87 -21.5h152v321h-152q-67 0 -91 -26.5t-24 -85.5v-109z" />
    <glyph glyph-name="uni0452" unicode="&#x452;" horiz-adv-x="747" 
d="M479 1151h-243v-291h8q54 135 211 135q121 0 177 -76.5t56 -191.5v-897q0 -307 -315 -307q-156 0 -230.5 75.5t-74.5 231.5v115h170v-115q0 -75 33 -111t102 -36q137 0 137 147v870q0 140 -125 140q-143 0 -149 -203v-637h-177v1151h-59v113h59v112h177v-112h243v-113z
" />
    <glyph glyph-name="uni0453" unicode="&#x453;" horiz-adv-x="501" 
d="M492 1331l-330 -299l-70 72l305 334zM236 0h-177v983h408v-158h-231v-825z" />
    <glyph glyph-name="uni0454" unicode="&#x454;" horiz-adv-x="724" 
d="M459 453h-228v-164q0 -148 134 -148q133 0 133 144v61h168v-55q0 -153 -72.5 -228t-228.5 -75q-306 0 -306 307v393q0 307 308 307q295 0 295 -274v-35h-166v31q0 58 -32 91.5t-97 33.5q-136 0 -136 -148v-112h228v-129z" />
    <glyph glyph-name="uni0459" unicode="&#x459;" horiz-adv-x="1210" 
d="M731 983v-352h187q132 0 189.5 -55t57.5 -162v-211q0 -100 -58 -151.5t-189 -51.5h-363v825h-225l-15 -213q-16 -237 -35 -357t-53 -177q-25 -43 -65 -60.5t-101 -17.5h-26v158h16q46 0 70 41q25 41 37 132t20 281l17 371h536zM731 154h152q60 0 88 25t28 75v129
q0 50 -28 75t-88 25h-152v-329z" />
    <glyph glyph-name="uni045A" unicode="&#x45a;" horiz-adv-x="1169" 
d="M690 983v-352h184q132 0 190 -55t58 -162v-211q0 -100 -58.5 -151.5t-189.5 -51.5h-360v483h-278v-483h-177v983h177v-352h278v352h176zM690 154h150q62 0 89 24.5t27 75.5v129q0 51 -27 75.5t-89 24.5h-150v-329z" />
    <glyph glyph-name="uni045C" unicode="&#x45c;" horiz-adv-x="739" 
d="M621 1331l-330 -299l-70 72l305 334zM713 0h-187l-186 422h-6l-98 -137v-285h-177v983h177v-418h8l280 418h193l-250 -389z" />
    <glyph glyph-name="uni045D" unicode="&#x45d;" horiz-adv-x="772" 
d="M481 1032l-329 299l94 107l305 -334zM713 0h-176v676h-9l-284 -676h-185v983h177v-676h8l282 676h187v-983z" />
    <glyph glyph-name="uni045E" unicode="&#x45e;" 
d="M238 983v-674q0 -147 129 -147q59 0 92 34.5t53 120.5v666h170v-1153q0 -155 -77 -231t-234 -76q-156 0 -230.5 75.5t-74.5 231.5v109h167v-109q0 -147 136 -147q137 0 137 147v305h-8q-31 -73 -82 -104t-127 -31q-123 0 -176.5 67.5t-53.5 190.5v725h179zM377 1032
q-127 0 -202 84t-75 242h129q6 -209 148 -209t145 209h133q0 -160 -75.5 -243t-202.5 -83z" />
    <glyph glyph-name="uni045F" unicode="&#x45f;" horiz-adv-x="749" 
d="M442 -303h-139v303h-244v983h177v-825h278v825h176v-983h-248v-303z" />
    <glyph glyph-name="uni0490" unicode="&#x490;" horiz-adv-x="608" 
d="M240 0h-185v1360h381v338h139v-506h-335v-1192z" />
    <glyph glyph-name="uni0491" unicode="&#x491;" horiz-adv-x="501" 
d="M236 0h-177v983h269v299h139v-457h-231v-825z" />
    <glyph glyph-name="uni0492" unicode="&#x492;" horiz-adv-x="647" 
d="M272 0h-182v588h-76v143h76v629h518v-168h-336v-461h224v-143h-224v-588z" />
    <glyph glyph-name="uni0493" unicode="&#x493;" horiz-adv-x="530" 
d="M264 0h-176v385h-74v115h74v483h408v-158h-232v-325h232v-115h-232v-385z" />
    <glyph glyph-name="uni0496" unicode="&#x496;" horiz-adv-x="1284" 
d="M213 0h-193l342 692l-329 668h188l275 -537h8v537h178v-537h8l277 537h188l-332 -668l260 -524h166v-502h-139v334h-135l-285 584h-8v-584h-178v584h-8z" />
    <glyph glyph-name="uni0497" unicode="&#x497;" horiz-adv-x="1202" 
d="M1167 -334h-139v334h-139l-248 424h-8v-424h-170v424h-8l-248 -424h-187l304 506l-291 477h182l240 -379h8v379h170v-379h8l240 379h182l-293 -477l203 -338h194v-502z" />
    <glyph glyph-name="uni0498" unicode="&#x498;" horiz-adv-x="731" 
d="M215 -432v145q36 -16 98 -16q103 0 103 67v46q0 46 -24 94.5t-73 85.5q-264 25 -264 338v67h174v-78q0 -159 136 -159q143 0 143 161v181q0 71 -35.5 106t-118.5 35h-86v154h92q79 0 109.5 34.5t30.5 100.5v127q0 64 -34 103.5t-101 39.5q-64 0 -100 -39.5t-36 -105.5
v-80h-174v63q0 154 83 244t229 90q77 0 137 -25.5t95 -69t53 -95t18 -107.5v-127q0 -94 -37.5 -150.5t-106.5 -68.5v-8q72 -13 118 -70.5t46 -163.5v-155q0 -147 -63 -233t-185 -105v-29q97 -82 97 -209v-55q0 -82 -47 -121t-144 -39q-84 0 -133 27z" />
    <glyph glyph-name="uni0499" unicode="&#x499;" horiz-adv-x="720" 
d="M666 311v-71q0 -233 -258 -250v-21q124 -76 124 -213v-55q0 -82 -47 -121t-145 -39q-82 0 -131 27v145q33 -16 96 -16q54 0 79.5 16t25.5 51v46q0 50 -37 100.5t-107 85.5q-105 17 -156 81.5t-51 178.5v98h166v-69q0 -74 33 -109t104 -35q132 0 132 119v72q0 61 -37.5 94
t-108.5 33h-76v119h78q73 0 104 25t31 79v37q0 62 -31 92.5t-98 30.5q-131 0 -131 -121v-43h-166v57q0 126 75.5 193t225.5 67q285 0 285 -243v-56q0 -146 -135 -172v-8q156 -30 156 -205z" />
    <glyph glyph-name="uni049A" unicode="&#x49a;" horiz-adv-x="878" 
d="M844 -334h-139v334h-162l-195 588h-8l-98 -193v-395h-187v1360h187v-610h8l295 610h186l-256 -539l201 -653h168v-502z" />
    <glyph glyph-name="uni049B" unicode="&#x49b;" horiz-adv-x="831" 
d="M797 -334h-140v334h-131l-186 422h-6l-98 -137v-285h-177v983h177v-418h8l280 418h193l-250 -389l176 -426h154v-502z" />
    <glyph glyph-name="uni04A0" unicode="&#x4a0;" horiz-adv-x="1071" 
d="M1047 0h-187l-194 588h-9l-98 -193v-395h-186v1192h-334v168h520v-610h8l295 610h187l-256 -539z" />
    <glyph glyph-name="uni04A1" unicode="&#x4a1;" horiz-adv-x="948" 
d="M922 0h-187l-186 422h-6l-99 -137v-285h-176v825h-229v158h405v-418h9l280 418h193l-250 -389z" />
    <glyph glyph-name="uni04A2" unicode="&#x4a2;" horiz-adv-x="825" 
d="M791 -334h-140v334h-125v639h-286v-639h-185v1360h185v-557h286v557h183v-1192h82v-502z" />
    <glyph glyph-name="uni04A3" unicode="&#x4a3;" horiz-adv-x="831" 
d="M797 -334h-140v334h-143v436h-278v-436h-177v983h177v-389h278v389h176v-815h107v-502z" />
    <glyph glyph-name="uni04AA" unicode="&#x4aa;" horiz-adv-x="743" 
d="M227 -432v145q33 -16 97 -16q54 0 79 16t25 51v46q0 50 -37.5 101.5t-109.5 86.5q-112 23 -169 108.5t-57 225.5v700q0 169 79.5 254.5t234.5 85.5q156 0 237.5 -85t81.5 -253v-162h-174v162q0 80 -35.5 123t-103.5 43q-67 0 -102 -42t-35 -122v-719q0 -159 137 -159
q139 0 139 159v238h174v-227q0 -317 -272 -338v-17q65 -35 100 -91.5t35 -125.5v-55q0 -160 -193 -160q-82 0 -131 27z" />
    <glyph glyph-name="uni04AB" unicode="&#x4ab;" horiz-adv-x="724" 
d="M203 -432v145q36 -16 98 -16q54 0 78 16t24 51v46q0 53 -38 104t-113 86q-193 46 -193 295v393q0 156 75.5 231.5t232.5 75.5q155 0 227 -75t72 -232v-65h-166v65q0 148 -133 148q-136 0 -136 -148v-393q0 -148 134 -148q69 0 101 36.5t32 111.5v70h168v-70
q0 -149 -67 -224t-210 -81v-15q66 -35 102.5 -92t36.5 -127v-55q0 -160 -192 -160q-81 0 -133 27z" />
    <glyph glyph-name="uni04B2" unicode="&#x4b2;" horiz-adv-x="888" 
d="M584 1360h180l-252 -653l199 -539h143v-502h-139v334h-131l-183 504h-8l-184 -504h-184l260 688l-252 672h184l178 -479h8z" />
    <glyph glyph-name="uni04B3" unicode="&#x4b3;" horiz-adv-x="829" 
d="M526 983h176l-229 -473l160 -342h162v-502h-140v334h-129l-159 340h-9l-155 -340h-183l240 500l-231 483h180l158 -324h8z" />
    <glyph glyph-name="uni04B6" unicode="&#x4b6;" horiz-adv-x="825" 
d="M791 -334h-140v334h-135v602h-8q-88 -57 -211 -57q-131 0 -186.5 71t-55.5 236v508h181v-498q0 -80 28 -113.5t96 -33.5q107 0 156 57v588h180v-1192h95v-502z" />
    <glyph glyph-name="uni04B7" unicode="&#x4b7;" horiz-adv-x="813" 
d="M780 -334h-139v334h-131v414h-8q-74 -43 -207 -43q-129 0 -184.5 47.5t-55.5 156.5v408h176v-367q0 -51 29.5 -72.5t104.5 -21.5q95 0 145 31v430h176v-815h94v-502z" />
    <glyph glyph-name="uni04BA" unicode="&#x4ba;" horiz-adv-x="753" 
d="M57 1360h183v-602h8q88 57 211 57q130 0 184.5 -71t54.5 -236v-508h-178v498q0 80 -28 113.5t-97 33.5q-109 0 -155 -57v-588h-183v1360z" />
    <glyph glyph-name="uni04C3" unicode="&#x4c3;" horiz-adv-x="753" 
d="M416 -477v160q67 0 99 36t32 111v170l-199 588h-8l-98 -193v-395h-187v1360h187v-610h8l295 610h186l-256 -539l254 -821v-170q0 -307 -313 -307z" />
    <glyph glyph-name="uni04C4" unicode="&#x4c4;" horiz-adv-x="739" 
d="M401 -477l-2 160q138 0 138 147v131l-197 461h-6l-98 -137v-285h-177v983h177v-418h8l280 418h193l-250 -389l246 -594v-170q0 -307 -312 -307z" />
    <glyph glyph-name="uni04C7" unicode="&#x4c7;" horiz-adv-x="765" 
d="M387 -477v160q139 0 139 147v809h-286v-639h-185v1360h185v-557h286v557h183v-1530q0 -307 -322 -307z" />
    <glyph glyph-name="uni04C8" unicode="&#x4c8;" horiz-adv-x="749" 
d="M377 -477l-2 160q139 0 139 147v606h-278v-436h-177v983h177v-389h278v389h176v-1153q0 -307 -313 -307z" />
    <glyph glyph-name="uni04E8" unicode="&#x4e8;" 
d="M692 1018v-690q0 -169 -82 -254.5t-237 -85.5q-158 0 -242 89t-84 255v690q0 166 85 258t239 92q153 0 237 -93.5t84 -260.5zM512 317v295h-283v-293q0 -79 36.5 -120t105.5 -41q141 0 141 159zM229 1036v-262h283v260q0 80 -37 123t-106 43q-66 0 -103 -42.5t-37 -121.5
z" />
    <glyph glyph-name="uni04E9" unicode="&#x4e9;" horiz-adv-x="733" 
d="M674 688v-393q0 -158 -75 -232.5t-232 -74.5t-232.5 74.5t-75.5 232.5v393q0 158 75.5 232.5t232.5 74.5t232 -74.5t75 -232.5zM502 295v147h-271v-147q0 -148 136 -148q135 0 135 148zM231 688v-131h271v131q0 148 -135 148q-136 0 -136 -148z" />
    <glyph glyph-name="uni04EE" unicode="&#x4ee;" horiz-adv-x="753" 
d="M616 1505h-479v113h479v-113zM516 319v320h-8q-28 -57 -86 -90t-133 -33q-234 0 -234 340v504h181v-514q0 -81 29 -121.5t95 -40.5q125 0 156 141v535h180v-1028q0 -167 -80.5 -255.5t-238.5 -88.5q-156 0 -239 85.5t-83 254.5v125h181v-136q0 -159 139 -159
q141 0 141 161z" />
    <glyph glyph-name="uni04EF" unicode="&#x4ef;" 
d="M238 983v-674q0 -147 129 -147q59 0 92 34.5t53 120.5v666h170v-1153q0 -155 -77 -231t-234 -76q-156 0 -230.5 75.5t-74.5 231.5v109h167v-109q0 -147 136 -147q137 0 137 147v305h-8q-31 -73 -82 -104t-127 -31q-123 0 -176.5 67.5t-53.5 190.5v725h179zM616 1151h-479
v113h479v-113z" />
    <glyph glyph-name="uni0512" unicode="&#x512;" horiz-adv-x="847" 
d="M469 -477v160q139 0 139 147v1364h-246l-14 -408q-20 -525 -88 -673q-30 -67 -75 -90t-117 -23h-29v168h18q31 0 49 10.5t31 44.5q42 116 58 563l20 574h576v-1530q0 -153 -82.5 -230t-239.5 -77z" />
    <glyph glyph-name="uni0513" unicode="&#x513;" horiz-adv-x="792" 
d="M418 -477v160q137 0 137 147v995h-225l-15 -213q-15 -237 -34.5 -356t-53.5 -178q-25 -43 -65 -60.5t-101 -17.5h-26v158h16q47 0 70 41q25 40 37 131.5t20 281.5l17 371h536v-1153q0 -307 -313 -307z" />
    <glyph glyph-name="uni058F" unicode="&#x58f;" horiz-adv-x="800" 
d="M672 0h-180v307h-320v115h320v168h-320v115h320v335q0 79 -36.5 120.5t-105.5 41.5q-137 0 -137 -160v-196h-172v186q0 340 311 340q157 0 238.5 -88.5t81.5 -255.5v-323h92v-115h-92v-168h92v-115h-92v-307z" />
    <glyph glyph-name="uni1E0C" unicode="&#x1e0c;" horiz-adv-x="757" 
d="M391 0h-336v1360h336q153 0 231 -79t78 -234v-715q0 -332 -309 -332zM236 166h143q79 0 109 54t30 163v598q0 107 -32 160t-117 53h-133v-1028zM446 -340h-176v219h176v-219z" />
    <glyph glyph-name="uni1E0D" unicode="&#x1e0d;" 
d="M238 692v-401q0 -148 129 -148q62 0 93 36t52 128v371q-19 92 -49 127t-94 35t-97.5 -34.5t-33.5 -113.5zM682 0h-158l-6 141h-8q-32 -80 -84 -116.5t-131 -36.5q-111 0 -173.5 68t-62.5 194v483q0 126 62 194t172 68q151 0 207 -135h8v516h174v-1376zM465 -340h-176v219
h176v-219z" />
    <glyph glyph-name="uni1E12" unicode="&#x1e12;" horiz-adv-x="757" 
d="M391 0h-336v1360h336q153 0 231 -79t78 -234v-715q0 -332 -309 -332zM236 166h143q79 0 109 54t30 163v598q0 107 -32 160t-117 53h-133v-1028zM596 -379l-78 -61l-192 221l-193 -221l-78 61l189 264h162z" />
    <glyph glyph-name="uni1E13" unicode="&#x1e13;" 
d="M238 692v-401q0 -148 129 -148q62 0 93 36t52 128v371q-19 92 -49 127t-94 35t-97.5 -34.5t-33.5 -113.5zM682 0h-158l-6 141h-8q-32 -80 -84 -116.5t-131 -36.5q-111 0 -173.5 68t-62.5 194v483q0 126 62 194t172 68q151 0 207 -135h8v516h174v-1376zM633 -379l-78 -61
l-193 221l-192 -221l-78 61l189 264h161z" />
    <glyph glyph-name="uni1E24" unicode="&#x1e24;" horiz-adv-x="765" 
d="M709 0h-183v639h-286v-639h-185v1360h185v-557h286v557h183v-1360zM471 -340h-176v219h176v-219z" />
    <glyph glyph-name="uni1E25" unicode="&#x1e25;" horiz-adv-x="747" 
d="M688 0h-178v700q0 140 -125 140q-143 0 -149 -203v-637h-177v1376h177v-516h8q54 135 211 135q121 0 177 -76.5t56 -191.5v-727zM459 -340h-176v219h176v-219z" />
    <glyph glyph-name="uni1E3C" unicode="&#x1e3c;" horiz-adv-x="612" 
d="M575 0h-520v1360h185v-1192h335v-168zM586 -379l-78 -61l-193 221l-192 -221l-78 61l188 264h162z" />
    <glyph glyph-name="uni1E3D" unicode="&#x1e3d;" horiz-adv-x="299" 
d="M236 0h-177v1376h177v-1376zM414 -379l-78 -61l-193 221l-192 -221l-78 61l188 264h162z" />
    <glyph glyph-name="uni1E44" unicode="&#x1e44;" horiz-adv-x="802" 
d="M745 0h-215l-311 1053h-8q6 -150 6 -287v-766h-162v1360h242l285 -977h8q-6 194 -6 330v647h161v-1360zM481 1434h-176v221h176v-221z" />
    <glyph glyph-name="uni1E45" unicode="&#x1e45;" horiz-adv-x="747" 
d="M688 0h-178v700q0 140 -127 140q-60 0 -91.5 -32.5t-55.5 -111.5v-696h-177v983h164l6 -141h9q32 79 84.5 116t130.5 37q107 0 171 -68.5t64 -193.5v-733zM457 1104h-176v221h176v-221z" />
    <glyph glyph-name="uni1E4A" unicode="&#x1e4a;" horiz-adv-x="802" 
d="M745 0h-215l-311 1053h-8q6 -150 6 -287v-766h-162v1360h242l285 -977h8q-6 194 -6 330v647h161v-1360zM657 -379l-77 -61l-193 221l-192 -221l-78 61l188 264h162z" />
    <glyph glyph-name="uni1E4B" unicode="&#x1e4b;" horiz-adv-x="747" 
d="M688 0h-178v700q0 140 -127 140q-60 0 -91.5 -32.5t-55.5 -111.5v-696h-177v983h164l6 -141h9q32 79 84.5 116t130.5 37q107 0 171 -68.5t64 -193.5v-733zM641 -379l-78 -61l-192 221l-193 -221l-78 61l189 264h162z" />
    <glyph glyph-name="uni1E5A" unicode="&#x1e5a;" horiz-adv-x="743" 
d="M236 0h-181v1360h379q137 0 197.5 -69t60.5 -204v-186q0 -185 -139 -221v-8q73 -14 108 -66.5t35 -152.5v-453h-180v467q0 68 -25 96.5t-90 28.5h-165v-592zM514 885v182q0 64 -29 95.5t-92 31.5h-157v-449h159q58 0 88.5 32.5t30.5 107.5zM457 -340h-176v219h176v-219z
" />
    <glyph glyph-name="uni1E5B" unicode="&#x1e5b;" horiz-adv-x="567" 
d="M236 0h-177v983h164l6 -168h9q61 180 213 180q42 0 81 -20v-162q-32 21 -92 21q-84 0 -132 -51.5t-72 -178.5v-604zM229 -340h-176v219h176v-219z" />
    <glyph glyph-name="uni1E62" unicode="&#x1e62;" horiz-adv-x="768" 
d="M696 958h-172v78q0 164 -145 164q-71 0 -107 -39t-36 -102v-53q0 -46 16.5 -77.5t62.5 -68.5q41 -32 154 -104t154 -109q50 -44 74 -100t24 -146v-84q0 -163 -81.5 -246t-256.5 -83t-255.5 85.5t-80.5 256.5v78h174v-80q0 -85 38 -127.5t120 -42.5q149 0 149 155v62
q0 62 -18 97t-70 75q-38 32 -136.5 99t-145.5 112q-54 55 -79.5 113t-25.5 137v59q0 141 80.5 223t243.5 82q90 0 154 -26t99 -75t50.5 -110.5t15.5 -142.5v-60zM467 -340h-176v219h176v-219z" />
    <glyph glyph-name="uni1E63" unicode="&#x1e63;" horiz-adv-x="722" 
d="M662 680h-166v57q0 111 -131 111q-66 0 -101 -25t-35 -71v-31q0 -31 14 -51t58 -47q45 -28 134 -69.5t130 -68.5q55 -36 81 -80.5t26 -115.5v-45q0 -130 -73.5 -193t-229.5 -63q-164 0 -241 67.5t-77 200.5v59h168v-65q0 -60 33 -88.5t108 -28.5q72 0 105 26.5t33 82.5
v39q0 34 -17 59.5t-69 54.5q-39 20 -132 71t-130 79q-89 66 -89 174v49q0 103 78.5 165t218.5 62q149 0 226.5 -70t77.5 -196v-49zM457 -340h-176v219h176v-219z" />
    <glyph glyph-name="uni1E6C" unicode="&#x1e6c;" horiz-adv-x="716" 
d="M449 0h-183v1194h-227v166h641v-166h-231v-1194zM446 -340h-176v219h176v-219z" />
    <glyph glyph-name="uni1E6D" unicode="&#x1e6d;" horiz-adv-x="702" 
d="M489 295v266h152v-266q0 -160 -61.5 -233.5t-212.5 -73.5q-158 0 -233 75.5t-75 231.5v960h174v-272h408v-158h-408v-530q0 -148 136 -148q65 0 92.5 35.5t27.5 112.5zM453 -340h-177v219h177v-219z" />
    <glyph glyph-name="Wgrave" unicode="&#x1e80;" horiz-adv-x="1116" 
d="M420 0h-232l-163 1360h176l118 -1034h9l127 1034h207l131 -1034h8l117 1034h174l-164 -1360h-232l-135 1053h-8zM651 1386l-329 300l94 106l305 -334z" />
    <glyph glyph-name="wgrave" unicode="&#x1e81;" horiz-adv-x="1019" 
d="M383 0h-215l-148 983h164l107 -737h8l115 737h192l119 -737h8l105 737h161l-147 -983h-215l-123 752h-8zM606 1032l-330 299l95 107l305 -334z" />
    <glyph glyph-name="Wacute" unicode="&#x1e82;" horiz-adv-x="1116" 
d="M420 0h-232l-163 1360h176l118 -1034h9l127 1034h207l131 -1034h8l117 1034h174l-164 -1360h-232l-135 1053h-8zM803 1686l-330 -300l-70 72l306 334z" />
    <glyph glyph-name="wacute" unicode="&#x1e83;" horiz-adv-x="1019" 
d="M383 0h-215l-148 983h164l107 -737h8l115 737h192l119 -737h8l105 737h161l-147 -983h-215l-123 752h-8zM750 1331l-330 -299l-70 72l305 334z" />
    <glyph glyph-name="Wdieresis" unicode="&#x1e84;" horiz-adv-x="1116" 
d="M420 0h-232l-163 1360h176l118 -1034h9l127 1034h207l131 -1034h8l117 1034h174l-164 -1360h-232l-135 1053h-8zM483 1458h-164v221h164v-221zM793 1458h-164v221h164v-221z" />
    <glyph glyph-name="wdieresis" unicode="&#x1e85;" horiz-adv-x="1019" 
d="M383 0h-215l-148 983h164l107 -737h8l115 737h192l119 -737h8l105 737h161l-147 -983h-215l-123 752h-8zM436 1104h-164v221h164v-221zM745 1104h-163v221h163v-221z" />
    <glyph glyph-name="uni1E92" unicode="&#x1e92;" horiz-adv-x="690" 
d="M651 0h-612v170l416 1024h-412v166h598v-168l-412 -1026h422v-166zM432 -340h-176v219h176v-219z" />
    <glyph glyph-name="uni1E93" unicode="&#x1e93;" horiz-adv-x="628" 
d="M588 0h-545v166l350 659h-348v158h535v-160l-351 -661h359v-162zM403 -340h-176v219h176v-219z" />
    <glyph glyph-name="Germandbls" unicode="&#x1e9e;" horiz-adv-x="839" 
d="M330 10v162q54 -22 129 -22q76 0 110.5 32.5t34.5 116.5v299q0 58 -31.5 86.5t-83.5 28.5q-43 0 -104 -25v162l180 344h-162q-163 0 -163 -174v-1020h-185v1022q0 164 83 251t241 87h362v-156l-186 -352q105 0 167 -58t62 -184v-305q0 -171 -69 -244t-215 -73
q-102 0 -170 22z" />
    <glyph glyph-name="uni1EA0" unicode="&#x1ea0;" horiz-adv-x="761" 
d="M735 0h-180l-53 319h-250l-49 -319h-178l231 1360h248zM373 1073l-97 -596h201l-96 596h-8zM465 -340h-176v219h176v-219z" />
    <glyph glyph-name="uni1EA1" unicode="&#x1ea1;" horiz-adv-x="727" 
d="M496 260v281q-12 -9 -22.5 -15t-24.5 -11.5t-23.5 -8.5t-32.5 -9.5t-39 -11.5q-82 -25 -108.5 -57t-26.5 -92v-88q0 -105 117 -105q60 0 98 28.5t62 88.5zM670 0h-162l-6 125h-8q-37 -65 -91 -101t-143 -36q-215 0 -215 219v98q0 126 56.5 185.5t205.5 101.5l38.5 11
l38.5 11t34 11t31.5 13.5t23 15.5t16.5 20.5t5 25.5v41q0 101 -127 101q-140 0 -140 -111v-63h-166v84q0 121 82 182t234 61q293 0 293 -229v-766zM451 -340h-177v219h177v-219z" />
    <glyph glyph-name="uni1EA2" unicode="&#x1ea2;" horiz-adv-x="761" 
d="M735 0h-180l-53 319h-250l-49 -319h-178l231 1360h248zM373 1073l-97 -596h201l-96 596h-8zM418 1413h-88q0 32 12.5 55.5t31 38t36.5 27t30.5 29.5t12.5 39q0 26 -17 41.5t-51 15.5q-54 0 -113 -43l-30 96q29 26 74 40.5t85 14.5q67 0 110.5 -41t43.5 -108
q0 -36 -14 -63.5t-34 -44t-40.5 -30t-34.5 -30t-14 -37.5z" />
    <glyph glyph-name="uni1EA3" unicode="&#x1ea3;" horiz-adv-x="727" 
d="M496 260v281q-12 -9 -22.5 -15t-24.5 -11.5t-23.5 -8.5t-32.5 -9.5t-39 -11.5q-82 -25 -108.5 -57t-26.5 -92v-88q0 -105 117 -105q60 0 98 28.5t62 88.5zM670 0h-162l-6 125h-8q-37 -65 -91 -101t-143 -36q-215 0 -215 219v98q0 126 56.5 185.5t205.5 101.5l38.5 11
l38.5 11t34 11t31.5 13.5t23 15.5t16.5 20.5t5 25.5v41q0 101 -127 101q-140 0 -140 -111v-63h-166v84q0 121 82 182t234 61q293 0 293 -229v-766zM395 1059h-88q0 32 12.5 55.5t30.5 37.5t36.5 26.5t31 29.5t12.5 39q0 26 -17 42t-51 16q-53 0 -112 -43l-31 96
q29 26 74.5 40.5t85.5 14.5q67 0 110 -41t43 -108q0 -36 -14 -63.5t-34 -44t-40.5 -30t-34.5 -30t-14 -37.5z" />
    <glyph glyph-name="uni1EA4" unicode="&#x1ea4;" horiz-adv-x="761" 
d="M735 0h-180l-53 319h-250l-49 -319h-178l231 1360h248zM373 1073l-97 -596h201l-96 596h-8zM647 1448l-78 -62l-192 220l-193 -220l-78 62l189 262h162zM883 1853l-277 -241l-67 69l252 277z" />
    <glyph glyph-name="uni1EA5" unicode="&#x1ea5;" horiz-adv-x="727" 
d="M496 260v281q-12 -9 -22.5 -15t-24.5 -11.5t-23.5 -8.5t-32.5 -9.5t-39 -11.5q-82 -25 -108.5 -57t-26.5 -92v-88q0 -105 117 -105q60 0 98 28.5t62 88.5zM670 0h-162l-6 125h-8q-37 -65 -91 -101t-143 -36q-215 0 -215 219v98q0 126 56.5 185.5t205.5 101.5l38.5 11
l38.5 11t34 11t31.5 13.5t23 15.5t16.5 20.5t5 25.5v41q0 101 -127 101q-140 0 -140 -111v-63h-166v84q0 121 82 182t234 61q293 0 293 -229v-766zM643 1094l-78 -62l-192 219l-193 -219l-78 62l189 262h162zM879 1499l-277 -242l-67 70l251 277z" />
    <glyph glyph-name="uni1EA6" unicode="&#x1ea6;" horiz-adv-x="761" 
d="M735 0h-180l-53 319h-250l-49 -319h-178l231 1360h248zM373 1073l-97 -596h201l-96 596h-8zM643 1448l-78 -62l-192 220l-193 -220l-78 62l189 262h162zM711 1612l-279 241l94 105l252 -277z" />
    <glyph glyph-name="uni1EA7" unicode="&#x1ea7;" horiz-adv-x="727" 
d="M496 260v281q-12 -9 -22.5 -15t-24.5 -11.5t-23.5 -8.5t-32.5 -9.5t-39 -11.5q-82 -25 -108.5 -57t-26.5 -92v-88q0 -105 117 -105q60 0 98 28.5t62 88.5zM670 0h-162l-6 125h-8q-37 -65 -91 -101t-143 -36q-215 0 -215 219v98q0 126 56.5 185.5t205.5 101.5l38.5 11
l38.5 11t34 11t31.5 13.5t23 15.5t16.5 20.5t5 25.5v41q0 101 -127 101q-140 0 -140 -111v-63h-166v84q0 121 82 182t234 61q293 0 293 -229v-766zM629 1094l-78 -62l-193 219l-192 -219l-78 62l188 262h162zM696 1257l-278 242l94 105l252 -277z" />
    <glyph glyph-name="uni1EA8" unicode="&#x1ea8;" horiz-adv-x="761" 
d="M735 0h-180l-53 319h-250l-49 -319h-178l231 1360h248zM373 1073l-97 -596h201l-96 596h-8zM653 1448l-78 -62l-192 220l-193 -220l-77 62l188 262h162zM705 1604h-89q0 32 12.5 55.5t31 37.5t36.5 26.5t30.5 29.5t12.5 39q0 57 -67 57q-55 0 -111 -43l-31 97
q29 26 74 40.5t84 14.5q68 0 111 -41.5t43 -108.5q0 -36 -14 -63.5t-34 -43.5t-40.5 -29.5t-34.5 -30t-14 -37.5z" />
    <glyph glyph-name="uni1EA9" unicode="&#x1ea9;" horiz-adv-x="727" 
d="M496 260v281q-12 -9 -22.5 -15t-24.5 -11.5t-23.5 -8.5t-32.5 -9.5t-39 -11.5q-82 -25 -108.5 -57t-26.5 -92v-88q0 -105 117 -105q60 0 98 28.5t62 88.5zM670 0h-162l-6 125h-8q-37 -65 -91 -101t-143 -36q-215 0 -215 219v98q0 126 56.5 185.5t205.5 101.5l38.5 11
l38.5 11t34 11t31.5 13.5t23 15.5t16.5 20.5t5 25.5v41q0 101 -127 101q-140 0 -140 -111v-63h-166v84q0 121 82 182t234 61q293 0 293 -229v-766zM618 1094l-77 -62l-193 219l-192 -219l-78 62l188 262h162zM670 1249h-88q0 32 12.5 55.5t31 38t36.5 27t30.5 29.5t12.5 39
q0 57 -68 57q-55 0 -111 -43l-30 96q29 26 74 41t83 15q68 0 111 -41.5t43 -108.5q0 -36 -14 -63.5t-34.5 -44t-40.5 -30t-34 -30t-14 -37.5z" />
    <glyph glyph-name="uni1EAA" unicode="&#x1eaa;" horiz-adv-x="761" 
d="M735 0h-180l-53 319h-250l-49 -319h-178l231 1360h248zM373 1073l-97 -596h201l-96 596h-8zM645 1448l-78 -62l-192 220l-193 -220l-78 62l189 262h162zM578 1931l79 -45q-36 -123 -149 -123q-46 0 -124 35t-120 35q-32 0 -51.5 -13t-30.5 -48l-80 47q17 61 56 92t92 31
q46 0 124 -35t122 -35q30 0 49.5 13t32.5 46z" />
    <glyph glyph-name="uni1EAB" unicode="&#x1eab;" horiz-adv-x="727" 
d="M496 260v281q-12 -9 -22.5 -15t-24.5 -11.5t-23.5 -8.5t-32.5 -9.5t-39 -11.5q-82 -25 -108.5 -57t-26.5 -92v-88q0 -105 117 -105q60 0 98 28.5t62 88.5zM670 0h-162l-6 125h-8q-37 -65 -91 -101t-143 -36q-215 0 -215 219v98q0 126 56.5 185.5t205.5 101.5l38.5 11
l38.5 11t34 11t31.5 13.5t23 15.5t16.5 20.5t5 25.5v41q0 101 -127 101q-140 0 -140 -111v-63h-166v84q0 121 82 182t234 61q293 0 293 -229v-766zM627 1094l-78 -62l-193 219l-192 -219l-78 62l188 262h162zM559 1577l80 -45q-36 -123 -150 -123q-45 0 -123 35t-120 35
q-31 0 -51 -13.5t-31 -48.5l-80 47q17 61 55.5 92t91.5 31q47 0 125 -34.5t121 -34.5q30 0 49.5 13t32.5 46z" />
    <glyph glyph-name="uni1EAC" unicode="&#x1eac;" horiz-adv-x="761" 
d="M735 0h-180l-53 319h-250l-49 -319h-178l231 1360h248zM373 1073l-97 -596h201l-96 596h-8zM647 1450l-78 -61l-192 221l-193 -221l-78 61l189 264h162zM469 -340h-176v219h176v-219z" />
    <glyph glyph-name="uni1EAD" unicode="&#x1ead;" horiz-adv-x="727" 
d="M496 260v281q-12 -9 -22.5 -15t-24.5 -11.5t-23.5 -8.5t-32.5 -9.5t-39 -11.5q-82 -25 -108.5 -57t-26.5 -92v-88q0 -105 117 -105q60 0 98 28.5t62 88.5zM670 0h-162l-6 125h-8q-37 -65 -91 -101t-143 -36q-215 0 -215 219v98q0 126 56.5 185.5t205.5 101.5l38.5 11
l38.5 11t34 11t31.5 13.5t23 15.5t16.5 20.5t5 25.5v41q0 101 -127 101q-140 0 -140 -111v-63h-166v84q0 121 82 182t234 61q293 0 293 -229v-766zM631 1096l-78 -62l-193 221l-192 -221l-78 62l189 264h161zM449 -340h-177v219h177v-219z" />
    <glyph glyph-name="uni1EAE" unicode="&#x1eae;" horiz-adv-x="761" 
d="M735 0h-180l-53 319h-250l-49 -319h-178l231 1360h248zM373 1073l-97 -596h201l-96 596h-8zM383 1380q-127 0 -200.5 74t-73.5 223h129q6 -196 145 -196q71 0 106.5 47.5t38.5 148.5h131q0 -150 -74 -223.5t-202 -73.5zM639 1853l-299 -264l-68 70l273 299z" />
    <glyph glyph-name="uni1EAF" unicode="&#x1eaf;" horiz-adv-x="727" 
d="M496 260v281q-12 -9 -22.5 -15t-24.5 -11.5t-23.5 -8.5t-32.5 -9.5t-39 -11.5q-82 -25 -108.5 -57t-26.5 -92v-88q0 -105 117 -105q60 0 98 28.5t62 88.5zM670 0h-162l-6 125h-8q-37 -65 -91 -101t-143 -36q-215 0 -215 219v98q0 126 56.5 185.5t205.5 101.5l38.5 11
l38.5 11t34 11t31.5 13.5t23 15.5t16.5 20.5t5 25.5v41q0 101 -127 101q-140 0 -140 -111v-63h-166v84q0 121 82 182t234 61q293 0 293 -229v-766zM369 1026q-127 0 -201 74.5t-74 222.5h129q6 -197 146 -197q71 0 106.5 48t38.5 149h131q0 -150 -74 -223.5t-202 -73.5z
M625 1499l-299 -264l-68 70l272 299z" />
    <glyph glyph-name="uni1EB0" unicode="&#x1eb0;" horiz-adv-x="761" 
d="M735 0h-180l-53 319h-250l-49 -319h-178l231 1360h248zM373 1073l-97 -596h201l-96 596h-8zM387 1380q-128 0 -202 73.5t-74 223.5h131q3 -101 38.5 -148.5t106.5 -47.5q139 0 145 196h130q0 -148 -74 -222.5t-201 -74.5zM432 1589l-299 264l94 105l273 -299z" />
    <glyph glyph-name="uni1EB1" unicode="&#x1eb1;" horiz-adv-x="727" 
d="M496 260v281q-12 -9 -22.5 -15t-24.5 -11.5t-23.5 -8.5t-32.5 -9.5t-39 -11.5q-82 -25 -108.5 -57t-26.5 -92v-88q0 -105 117 -105q60 0 98 28.5t62 88.5zM670 0h-162l-6 125h-8q-37 -65 -91 -101t-143 -36q-215 0 -215 219v98q0 126 56.5 185.5t205.5 101.5l38.5 11
l38.5 11t34 11t31.5 13.5t23 15.5t16.5 20.5t5 25.5v41q0 101 -127 101q-140 0 -140 -111v-63h-166v84q0 121 82 182t234 61q293 0 293 -229v-766zM365 1026q-129 0 -203 73.5t-74 223.5h131q6 -197 146 -197q139 0 145 197h129q0 -149 -73.5 -223t-200.5 -74zM410 1235
l-299 264l94 105l272 -299z" />
    <glyph glyph-name="uni1EB2" unicode="&#x1eb2;" horiz-adv-x="761" 
d="M735 0h-180l-53 319h-250l-49 -319h-178l231 1360h248zM373 1073l-97 -596h201l-96 596h-8zM379 1380q-128 0 -201.5 74t-73.5 223h129q3 -196 146 -196q139 0 145 196h131q0 -149 -74.5 -223t-201.5 -74zM401 1616h-90q0 31 12.5 53.5t30.5 36.5t36.5 26t31 28.5
t12.5 37.5q0 55 -67 55q-58 0 -111 -41l-31 93q29 25 74.5 39t85.5 14q67 0 109.5 -40.5t42.5 -105.5q0 -42 -21.5 -72.5t-46.5 -44.5t-46.5 -34.5t-21.5 -44.5z" />
    <glyph glyph-name="uni1EB3" unicode="&#x1eb3;" horiz-adv-x="727" 
d="M496 260v281q-12 -9 -22.5 -15t-24.5 -11.5t-23.5 -8.5t-32.5 -9.5t-39 -11.5q-82 -25 -108.5 -57t-26.5 -92v-88q0 -105 117 -105q60 0 98 28.5t62 88.5zM670 0h-162l-6 125h-8q-37 -65 -91 -101t-143 -36q-215 0 -215 219v98q0 126 56.5 185.5t205.5 101.5l38.5 11
l38.5 11t34 11t31.5 13.5t23 15.5t16.5 20.5t5 25.5v41q0 101 -127 101q-140 0 -140 -111v-63h-166v84q0 121 82 182t234 61q293 0 293 -229v-766zM365 1026q-128 0 -201.5 74t-73.5 223h129q3 -197 146 -197q139 0 145 197h131q0 -149 -74.5 -223t-201.5 -74zM387 1262h-90
q0 31 12.5 53.5t30.5 36.5t36.5 26t31 28.5t12.5 37.5q0 55 -68 55q-57 0 -110 -41l-31 92q29 25 75 39.5t85 14.5q67 0 109 -40.5t42 -105.5q0 -35 -14 -61t-33.5 -41.5t-39.5 -28.5t-34 -29t-14 -36z" />
    <glyph glyph-name="uni1EB4" unicode="&#x1eb4;" horiz-adv-x="761" 
d="M735 0h-180l-53 319h-250l-49 -319h-178l231 1360h248zM373 1073l-97 -596h201l-96 596h-8zM377 1380q-128 0 -201.5 74t-73.5 223h129q3 -196 146 -196q139 0 145 196h131q0 -149 -74.5 -223t-201.5 -74zM575 1903l80 -48q-36 -120 -149 -120q-46 0 -124 33.5t-120 33.5
q-31 0 -51 -13t-31 -46l-80 47q17 61 56 91t92 30q46 0 124 -34t122 -34q58 0 81 60z" />
    <glyph glyph-name="uni1EB5" unicode="&#x1eb5;" horiz-adv-x="727" 
d="M496 260v281q-12 -9 -22.5 -15t-24.5 -11.5t-23.5 -8.5t-32.5 -9.5t-39 -11.5q-82 -25 -108.5 -57t-26.5 -92v-88q0 -105 117 -105q60 0 98 28.5t62 88.5zM670 0h-162l-6 125h-8q-37 -65 -91 -101t-143 -36q-215 0 -215 219v98q0 126 56.5 185.5t205.5 101.5l38.5 11
l38.5 11t34 11t31.5 13.5t23 15.5t16.5 20.5t5 25.5v41q0 101 -127 101q-140 0 -140 -111v-63h-166v84q0 121 82 182t234 61q293 0 293 -229v-766zM356 1026q-128 0 -201 74t-73 223h129q3 -197 145 -197q140 0 146 197h131q0 -149 -75 -223t-202 -74zM555 1548l80 -47
q-36 -121 -150 -121q-45 0 -123 34t-120 34q-31 0 -51 -13t-31 -46l-80 47q33 120 147 120q47 0 125 -33.5t121 -33.5q30 0 49.5 13t32.5 46z" />
    <glyph glyph-name="uni1EB6" unicode="&#x1eb6;" horiz-adv-x="761" 
d="M735 0h-180l-53 319h-250l-49 -319h-178l231 1360h248zM373 1073l-97 -596h201l-96 596h-8zM379 1386q-127 0 -202 84t-75 242h129q6 -209 148 -209t145 209h133q0 -160 -75.5 -243t-202.5 -83zM465 -340h-176v219h176v-219z" />
    <glyph glyph-name="uni1EB7" unicode="&#x1eb7;" horiz-adv-x="727" 
d="M496 260v281q-12 -9 -22.5 -15t-24.5 -11.5t-23.5 -8.5t-32.5 -9.5t-39 -11.5q-82 -25 -108.5 -57t-26.5 -92v-88q0 -105 117 -105q60 0 98 28.5t62 88.5zM670 0h-162l-6 125h-8q-37 -65 -91 -101t-143 -36q-215 0 -215 219v98q0 126 56.5 185.5t205.5 101.5l38.5 11
l38.5 11t34 11t31.5 13.5t23 15.5t16.5 20.5t5 25.5v41q0 101 -127 101q-140 0 -140 -111v-63h-166v84q0 121 82 182t234 61q293 0 293 -229v-766zM354 1032q-127 0 -201.5 83.5t-74.5 242.5h129q6 -209 147 -209q143 0 146 209h133q0 -159 -76 -242.5t-203 -83.5zM442 -340
h-176v219h176v-219z" />
    <glyph glyph-name="uni1EB8" unicode="&#x1eb8;" horiz-adv-x="598" 
d="M563 0h-508v1360h492v-166h-311v-397h284v-168h-284v-463h327v-166zM393 -340h-176v219h176v-219z" />
    <glyph glyph-name="uni1EB9" unicode="&#x1eb9;" horiz-adv-x="735" 
d="M676 340v-45q0 -154 -76.5 -230.5t-234.5 -76.5q-155 0 -230.5 75t-75.5 232v393q0 156 75.5 231.5t232.5 75.5t233 -76t76 -231v-244h-445v-153q0 -148 134 -148q137 0 137 148v49h174zM502 575v117q0 148 -135 148q-136 0 -136 -148v-117h271zM455 -340h-176v219h176
v-219z" />
    <glyph glyph-name="uni1EBA" unicode="&#x1eba;" horiz-adv-x="598" 
d="M563 0h-508v1360h492v-166h-311v-397h284v-168h-284v-463h327v-166zM354 1413h-88q0 32 12.5 55.5t31 38t36.5 27t30.5 29.5t12.5 39q0 57 -67 57q-54 0 -113 -43l-31 96q29 26 74.5 40.5t85.5 14.5q67 0 110.5 -41t43.5 -108q0 -36 -14 -63.5t-34.5 -44t-41 -30
t-34.5 -30t-14 -37.5z" />
    <glyph glyph-name="uni1EBB" unicode="&#x1ebb;" horiz-adv-x="735" 
d="M676 340v-45q0 -154 -76.5 -230.5t-234.5 -76.5q-155 0 -230.5 75t-75.5 232v393q0 156 75.5 231.5t232.5 75.5t233 -76t76 -231v-244h-445v-153q0 -148 134 -148q137 0 137 148v49h174zM502 575v117q0 148 -135 148q-136 0 -136 -148v-117h271zM401 1059h-88
q0 32 12.5 55.5t30.5 37.5t36.5 26.5t31 29.5t12.5 39q0 26 -16.5 42t-50.5 16q-54 0 -113 -43l-31 96q29 26 74.5 40.5t85.5 14.5q67 0 110.5 -41t43.5 -108q0 -36 -14 -63.5t-34.5 -44t-41 -30t-34.5 -30t-14 -37.5z" />
    <glyph glyph-name="uni1EBC" unicode="&#x1ebc;" horiz-adv-x="598" 
d="M563 0h-508v1360h492v-166h-311v-397h284v-168h-284v-463h327v-166zM502 1606l80 -47q-33 -121 -150 -121q-45 0 -122.5 33.5t-121.5 33.5q-30 0 -49.5 -13t-32.5 -46l-79 47q36 121 149 121q45 0 123.5 -34t120.5 -34q62 0 82 60z" />
    <glyph glyph-name="uni1EBD" unicode="&#x1ebd;" horiz-adv-x="735" 
d="M676 340v-45q0 -154 -76.5 -230.5t-234.5 -76.5q-155 0 -230.5 75t-75.5 232v393q0 156 75.5 231.5t232.5 75.5t233 -76t76 -231v-244h-445v-153q0 -148 134 -148q137 0 137 148v49h174zM502 575v117q0 148 -135 148q-136 0 -136 -148v-117h271zM563 1251l80 -47
q-33 -121 -149 -121q-45 0 -122.5 34t-121.5 34q-30 0 -49.5 -13t-32.5 -46l-80 47q36 121 150 121q46 0 123 -34t120 -34q62 0 82 59z" />
    <glyph glyph-name="uni1EBE" unicode="&#x1ebe;" horiz-adv-x="598" 
d="M563 0h-508v1360h492v-166h-311v-397h284v-168h-284v-463h327v-166zM582 1448l-78 -62l-193 220l-192 -220l-78 62l188 262h162zM817 1853l-276 -241l-68 69l252 277z" />
    <glyph glyph-name="uni1EBF" unicode="&#x1ebf;" horiz-adv-x="735" 
d="M676 340v-45q0 -154 -76.5 -230.5t-234.5 -76.5q-155 0 -230.5 75t-75.5 232v393q0 156 75.5 231.5t232.5 75.5t233 -76t76 -231v-244h-445v-153q0 -148 134 -148q137 0 137 148v49h174zM502 575v117q0 148 -135 148q-136 0 -136 -148v-117h271zM641 1094l-78 -62
l-192 219l-193 -219l-78 62l189 262h162zM877 1499l-277 -242l-68 70l252 277z" />
    <glyph glyph-name="uni1EC0" unicode="&#x1ec0;" horiz-adv-x="598" 
d="M563 0h-508v1360h492v-166h-311v-397h284v-168h-284v-463h327v-166zM575 1448l-77 -62l-193 220l-192 -220l-78 62l188 262h162zM643 1612l-278 241l94 105l252 -277z" />
    <glyph glyph-name="uni1EC1" unicode="&#x1ec1;" horiz-adv-x="735" 
d="M676 340v-45q0 -154 -76.5 -230.5t-234.5 -76.5q-155 0 -230.5 75t-75.5 232v393q0 156 75.5 231.5t232.5 75.5t233 -76t76 -231v-244h-445v-153q0 -148 134 -148q137 0 137 148v49h174zM502 575v117q0 148 -135 148q-136 0 -136 -148v-117h271zM627 1094l-78 -62
l-193 219l-192 -219l-78 62l188 262h162zM694 1257l-278 242l94 105l252 -277z" />
    <glyph glyph-name="uni1EC2" unicode="&#x1ec2;" horiz-adv-x="598" 
d="M563 0h-508v1360h492v-166h-311v-397h284v-168h-284v-463h327v-166zM578 1448l-78 -62l-193 220l-192 -220l-78 62l188 262h162zM629 1604h-88q0 32 12.5 55.5t30.5 37.5t36.5 26.5t31 29.5t12.5 39q0 57 -68 57q-55 0 -111 -43l-30 97q29 26 73.5 40.5t83.5 14.5
q68 0 111 -41.5t43 -108.5q0 -36 -14 -63.5t-34 -43.5t-40.5 -29.5t-34.5 -30t-14 -37.5z" />
    <glyph glyph-name="uni1EC3" unicode="&#x1ec3;" horiz-adv-x="735" 
d="M676 340v-45q0 -154 -76.5 -230.5t-234.5 -76.5q-155 0 -230.5 75t-75.5 232v393q0 156 75.5 231.5t232.5 75.5t233 -76t76 -231v-244h-445v-153q0 -148 134 -148q137 0 137 148v49h174zM502 575v117q0 148 -135 148q-136 0 -136 -148v-117h271zM627 1094l-78 -62
l-193 219l-192 -219l-78 62l188 262h162zM678 1249h-88q0 32 12.5 55.5t31 38t36.5 27t30.5 29.5t12.5 39q0 57 -68 57q-54 0 -110 -43l-31 96q29 26 74.5 41t83.5 15q68 0 110.5 -41.5t42.5 -108.5q0 -36 -14 -63.5t-34.5 -44t-40.5 -30t-34 -30t-14 -37.5z" />
    <glyph glyph-name="uni1EC4" unicode="&#x1ec4;" horiz-adv-x="598" 
d="M563 0h-508v1360h492v-166h-311v-397h284v-168h-284v-463h327v-166zM584 1448l-78 -62l-193 220l-192 -220l-78 62l188 262h162zM516 1931l80 -45q-36 -123 -150 -123q-46 0 -123 35t-120 35q-32 0 -51.5 -13t-30.5 -48l-80 47q17 61 55.5 92t91.5 31q46 0 124 -35
t122 -35q30 0 49.5 13t32.5 46z" />
    <glyph glyph-name="uni1EC5" unicode="&#x1ec5;" horiz-adv-x="735" 
d="M676 340v-45q0 -154 -76.5 -230.5t-234.5 -76.5q-155 0 -230.5 75t-75.5 232v393q0 156 75.5 231.5t232.5 75.5t233 -76t76 -231v-244h-445v-153q0 -148 134 -148q137 0 137 148v49h174zM502 575v117q0 148 -135 148q-136 0 -136 -148v-117h271zM637 1094l-78 -62
l-192 219l-193 -219l-78 62l189 262h161zM569 1577l80 -45q-36 -123 -149 -123q-46 0 -124 35t-120 35q-31 0 -51 -13.5t-31 -48.5l-80 47q17 61 56 92t92 31q46 0 124 -34.5t121 -34.5q30 0 49.5 13t32.5 46z" />
    <glyph glyph-name="uni1EC6" unicode="&#x1ec6;" horiz-adv-x="598" 
d="M563 0h-508v1360h492v-166h-311v-397h284v-168h-284v-463h327v-166zM588 1450l-78 -61l-193 221l-192 -221l-78 61l189 264h161zM406 -340h-177v219h177v-219z" />
    <glyph glyph-name="uni1EC7" unicode="&#x1ec7;" horiz-adv-x="735" 
d="M676 340v-45q0 -154 -76.5 -230.5t-234.5 -76.5q-155 0 -230.5 75t-75.5 232v393q0 156 75.5 231.5t232.5 75.5t233 -76t76 -231v-244h-445v-153q0 -148 134 -148q137 0 137 148v49h174zM502 575v117q0 148 -135 148q-136 0 -136 -148v-117h271zM635 1096l-78 -62
l-192 221l-193 -221l-78 62l189 264h161zM453 -340h-177v219h177v-219z" />
    <glyph glyph-name="uni1EC8" unicode="&#x1ec8;" horiz-adv-x="323" 
d="M240 0h-185v1360h185v-1360zM186 1413h-88q0 32 12.5 55.5t31 38t36.5 27t30.5 29.5t12.5 39q0 57 -67 57q-54 0 -113 -43l-31 96q29 26 74.5 40.5t85.5 14.5q67 0 110.5 -41t43.5 -108q0 -36 -14 -63.5t-34.5 -44t-41 -30t-34.5 -30t-14 -37.5z" />
    <glyph glyph-name="uni1EC9" unicode="&#x1ec9;" horiz-adv-x="321" 
d="M236 0h-177v983h177v-983zM186 1059h-88q0 32 12.5 55.5t31 37.5t36.5 26.5t30.5 29.5t12.5 39q0 26 -16.5 42t-50.5 16q-54 0 -113 -43l-31 96q29 26 74.5 40.5t85.5 14.5q67 0 110.5 -41t43.5 -108q0 -36 -14 -63.5t-34.5 -44t-41 -30t-34.5 -30t-14 -37.5z" />
    <glyph glyph-name="uni1ECA" unicode="&#x1eca;" horiz-adv-x="294" 
d="M240 0h-185v1360h185v-1360zM238 -340h-177v219h177v-219z" />
    <glyph glyph-name="uni1ECB" unicode="&#x1ecb;" horiz-adv-x="296" 
d="M236 0h-177v983h177v-983zM236 1104h-177v221h177v-221zM233 -340h-176v219h176v-219z" />
    <glyph glyph-name="uni1ECC" unicode="&#x1ecc;" 
d="M692 1018v-690q0 -169 -82 -254.5t-237 -85.5q-158 0 -242 89t-84 255v690q0 166 85 258t239 92q153 0 237 -93.5t84 -260.5zM512 317v717q0 80 -37 123t-106 43q-66 0 -103 -42.5t-37 -121.5v-717q0 -79 36.5 -120t105.5 -41q141 0 141 159zM459 -340h-176v219h176v-219
z" />
    <glyph glyph-name="uni1ECD" unicode="&#x1ecd;" horiz-adv-x="733" 
d="M674 688v-393q0 -158 -75 -232.5t-232 -74.5t-232.5 74.5t-75.5 232.5v393q0 158 75.5 232.5t232.5 74.5t232 -74.5t75 -232.5zM502 295v393q0 148 -135 148q-136 0 -136 -148v-393q0 -148 136 -148q135 0 135 148zM457 -340h-176v219h176v-219z" />
    <glyph glyph-name="uni1ECE" unicode="&#x1ece;" 
d="M692 1018v-690q0 -169 -82 -254.5t-237 -85.5q-158 0 -242 89t-84 255v690q0 166 85 258t239 92q153 0 237 -93.5t84 -260.5zM512 317v717q0 80 -37 123t-106 43q-66 0 -103 -42.5t-37 -121.5v-717q0 -79 36.5 -120t105.5 -41q141 0 141 159zM406 1413h-89
q0 32 12.5 55.5t30.5 38t36.5 27t31 29.5t12.5 39q0 57 -67 57q-54 0 -113 -43l-31 96q29 26 74.5 40.5t85.5 14.5q67 0 110.5 -41t43.5 -108q0 -36 -14 -63.5t-34 -44t-40.5 -30t-34.5 -30t-14 -37.5z" />
    <glyph glyph-name="uni1ECF" unicode="&#x1ecf;" horiz-adv-x="733" 
d="M674 688v-393q0 -158 -75 -232.5t-232 -74.5t-232.5 74.5t-75.5 232.5v393q0 158 75.5 232.5t232.5 74.5t232 -74.5t75 -232.5zM502 295v393q0 148 -135 148q-136 0 -136 -148v-393q0 -148 136 -148q135 0 135 148zM399 1059h-88q0 32 12.5 55.5t30.5 37.5t36.5 26.5
t31 29.5t12.5 39q0 26 -16.5 42t-50.5 16q-54 0 -113 -43l-31 96q29 26 74.5 40.5t85.5 14.5q67 0 110.5 -41t43.5 -108q0 -36 -14 -63.5t-34.5 -44t-41 -30t-34.5 -30t-14 -37.5z" />
    <glyph glyph-name="uni1ED0" unicode="&#x1ed0;" 
d="M692 1018v-690q0 -169 -82 -254.5t-237 -85.5q-158 0 -242 89t-84 255v690q0 166 85 258t239 92q153 0 237 -93.5t84 -260.5zM512 317v717q0 80 -37 123t-106 43q-66 0 -103 -42.5t-37 -121.5v-717q0 -79 36.5 -120t105.5 -41q141 0 141 159zM649 1448l-78 -62l-192 220
l-193 -220l-77 62l188 262h162zM885 1853l-277 -241l-67 69l252 277z" />
    <glyph glyph-name="uni1ED1" unicode="&#x1ed1;" horiz-adv-x="733" 
d="M674 688v-393q0 -158 -75 -232.5t-232 -74.5t-232.5 74.5t-75.5 232.5v393q0 158 75.5 232.5t232.5 74.5t232 -74.5t75 -232.5zM502 295v393q0 148 -135 148q-136 0 -136 -148v-393q0 -148 136 -148q135 0 135 148zM635 1094l-78 -62l-192 219l-193 -219l-78 62l189 262
h161zM870 1499l-276 -242l-68 70l252 277z" />
    <glyph glyph-name="uni1ED2" unicode="&#x1ed2;" 
d="M692 1018v-690q0 -169 -82 -254.5t-237 -85.5q-158 0 -242 89t-84 255v690q0 166 85 258t239 92q153 0 237 -93.5t84 -260.5zM512 317v717q0 80 -37 123t-106 43q-66 0 -103 -42.5t-37 -121.5v-717q0 -79 36.5 -120t105.5 -41q141 0 141 159zM645 1448l-78 -62l-192 220
l-193 -220l-78 62l189 262h162zM713 1612l-279 241l94 105l252 -277z" />
    <glyph glyph-name="uni1ED3" unicode="&#x1ed3;" horiz-adv-x="733" 
d="M674 688v-393q0 -158 -75 -232.5t-232 -74.5t-232.5 74.5t-75.5 232.5v393q0 158 75.5 232.5t232.5 74.5t232 -74.5t75 -232.5zM502 295v393q0 148 -135 148q-136 0 -136 -148v-393q0 -148 136 -148q135 0 135 148zM631 1094l-78 -62l-193 219l-192 -219l-78 62l189 262
h161zM698 1257l-278 242l94 105l252 -277z" />
    <glyph glyph-name="uni1ED4" unicode="&#x1ed4;" 
d="M692 1018v-690q0 -169 -82 -254.5t-237 -85.5q-158 0 -242 89t-84 255v690q0 166 85 258t239 92q153 0 237 -93.5t84 -260.5zM512 317v717q0 80 -37 123t-106 43q-66 0 -103 -42.5t-37 -121.5v-717q0 -79 36.5 -120t105.5 -41q141 0 141 159zM641 1448l-78 -62l-192 220
l-193 -220l-78 62l189 262h162zM692 1604h-88q0 32 12.5 55.5t31 37.5t36.5 26.5t30.5 29.5t12.5 39q0 57 -68 57q-54 0 -110 -43l-31 97q29 26 74 40.5t84 14.5q68 0 110.5 -41.5t42.5 -108.5q0 -36 -14 -63.5t-34.5 -43.5t-40.5 -29.5t-34 -30t-14 -37.5z" />
    <glyph glyph-name="uni1ED5" unicode="&#x1ed5;" horiz-adv-x="733" 
d="M674 688v-393q0 -158 -75 -232.5t-232 -74.5t-232.5 74.5t-75.5 232.5v393q0 158 75.5 232.5t232.5 74.5t232 -74.5t75 -232.5zM502 295v393q0 148 -135 148q-136 0 -136 -148v-393q0 -148 136 -148q135 0 135 148zM635 1094l-78 -62l-192 219l-193 -219l-78 62l189 262
h161zM686 1249h-88q0 32 12.5 55.5t31 38t36.5 27t30.5 29.5t12.5 39q0 57 -68 57q-54 0 -110 -43l-31 96q29 26 74.5 41t83.5 15q68 0 110.5 -41.5t42.5 -108.5q0 -36 -14 -63.5t-34.5 -44t-40.5 -30t-34 -30t-14 -37.5z" />
    <glyph glyph-name="uni1ED6" unicode="&#x1ed6;" 
d="M692 1018v-690q0 -169 -82 -254.5t-237 -85.5q-158 0 -242 89t-84 255v690q0 166 85 258t239 92q153 0 237 -93.5t84 -260.5zM512 317v717q0 80 -37 123t-106 43q-66 0 -103 -42.5t-37 -121.5v-717q0 -79 36.5 -120t105.5 -41q141 0 141 159zM643 1448l-78 -62l-192 220
l-193 -220l-78 62l189 262h162zM575 1931l80 -45q-36 -123 -149 -123q-46 0 -124 35t-120 35q-32 0 -51.5 -13t-30.5 -48l-80 47q17 61 56 92t92 31q46 0 124 -35t122 -35q30 0 49 13t32 46z" />
    <glyph glyph-name="uni1ED7" unicode="&#x1ed7;" horiz-adv-x="733" 
d="M674 688v-393q0 -158 -75 -232.5t-232 -74.5t-232.5 74.5t-75.5 232.5v393q0 158 75.5 232.5t232.5 74.5t232 -74.5t75 -232.5zM502 295v393q0 148 -135 148q-136 0 -136 -148v-393q0 -148 136 -148q135 0 135 148zM641 1094l-78 -62l-192 219l-193 -219l-78 62l189 262
h162zM573 1577l80 -45q-36 -123 -149 -123q-46 0 -124 35t-120 35q-31 0 -51 -13.5t-31 -48.5l-80 47q17 61 56 92t92 31q46 0 124 -34.5t122 -34.5q30 0 49 13t32 46z" />
    <glyph glyph-name="uni1ED8" unicode="&#x1ed8;" 
d="M692 1018v-690q0 -169 -82 -254.5t-237 -85.5q-158 0 -242 89t-84 255v690q0 166 85 258t239 92q153 0 237 -93.5t84 -260.5zM512 317v717q0 80 -37 123t-106 43q-66 0 -103 -42.5t-37 -121.5v-717q0 -79 36.5 -120t105.5 -41q141 0 141 159zM641 1450l-78 -61l-192 221
l-193 -221l-78 61l189 264h162zM461 -340h-176v219h176v-219z" />
    <glyph glyph-name="uni1ED9" unicode="&#x1ed9;" horiz-adv-x="733" 
d="M674 688v-393q0 -158 -75 -232.5t-232 -74.5t-232.5 74.5t-75.5 232.5v393q0 158 75.5 232.5t232.5 74.5t232 -74.5t75 -232.5zM502 295v393q0 148 -135 148q-136 0 -136 -148v-393q0 -148 136 -148q135 0 135 148zM639 1096l-78 -62l-192 221l-193 -221l-78 62l189 264
h162zM455 -340h-176v219h176v-219z" />
    <glyph glyph-name="uni1EDA" unicode="&#x1eda;" horiz-adv-x="860" 
d="M692 1018v-690q0 -170 -81.5 -255t-237.5 -85q-159 0 -242.5 89t-83.5 255v690q0 167 84.5 258.5t235.5 91.5q43 0 131 -11t131 -11q62 0 85 19t23 73q0 67 -10 98h100q17 -33 17 -113q0 -100 -30.5 -143t-102.5 -43q-41 0 -88 8q69 -84 69 -231zM512 317v717
q0 79 -36.5 122.5t-104.5 43.5t-105 -42.5t-37 -121.5v-717q0 -79 36.5 -120t105.5 -41q141 0 141 159zM596 1686l-330 -300l-69 72l305 334z" />
    <glyph glyph-name="uni1EDB" unicode="&#x1edb;" horiz-adv-x="827" 
d="M606 1331l-330 -299l-69 72l305 334zM674 688v-393q0 -158 -75 -232.5t-232 -74.5t-232.5 74.5t-75.5 232.5v393q0 307 297 307q49 0 128.5 -11t117.5 -11q60 0 81.5 19.5t21.5 72.5q0 64 -11 98h101q18 -35 18 -112q0 -99 -31 -143t-100 -44q-35 0 -55 2q47 -68 47 -178
zM502 295v393q0 148 -135 148q-136 0 -136 -148v-393q0 -148 136 -148q135 0 135 148z" />
    <glyph glyph-name="uni1EDC" unicode="&#x1edc;" horiz-adv-x="860" 
d="M692 1018v-690q0 -170 -81.5 -255t-237.5 -85q-159 0 -242.5 89t-83.5 255v690q0 167 84.5 258.5t235.5 91.5q43 0 131 -11t131 -11q62 0 85 19t23 73q0 67 -10 98h100q17 -33 17 -113q0 -100 -30.5 -143t-102.5 -43q-41 0 -88 8q69 -84 69 -231zM512 317v717
q0 79 -36.5 122.5t-104.5 43.5t-105 -42.5t-37 -121.5v-717q0 -79 36.5 -120t105.5 -41q141 0 141 159zM465 1386l-330 300l94 106l306 -334z" />
    <glyph glyph-name="uni1EDD" unicode="&#x1edd;" horiz-adv-x="827" 
d="M463 1032l-330 299l94 107l305 -334zM674 688v-393q0 -158 -75 -232.5t-232 -74.5t-232.5 74.5t-75.5 232.5v393q0 307 297 307q49 0 128.5 -11t117.5 -11q60 0 81.5 19.5t21.5 72.5q0 64 -11 98h101q18 -35 18 -112q0 -99 -31 -143t-100 -44q-35 0 -55 2q47 -68 47 -178
zM502 295v393q0 148 -135 148q-136 0 -136 -148v-393q0 -148 136 -148q135 0 135 148z" />
    <glyph glyph-name="uni1EDE" unicode="&#x1ede;" horiz-adv-x="860" 
d="M692 1018v-690q0 -170 -81.5 -255t-237.5 -85q-159 0 -242.5 89t-83.5 255v690q0 167 84.5 258.5t235.5 91.5q43 0 131 -11t131 -11q62 0 85 19t23 73q0 67 -10 98h100q17 -33 17 -113q0 -100 -30.5 -143t-102.5 -43q-41 0 -88 8q69 -84 69 -231zM512 317v717
q0 79 -36.5 122.5t-104.5 43.5t-105 -42.5t-37 -121.5v-717q0 -79 36.5 -120t105.5 -41q141 0 141 159zM406 1413h-89q0 32 12.5 55.5t30.5 38t36.5 27t31 29.5t12.5 39q0 57 -67 57q-54 0 -113 -43l-31 96q29 26 74.5 40.5t85.5 14.5q67 0 110.5 -41t43.5 -108
q0 -36 -14 -63.5t-34 -44t-40.5 -30t-34.5 -30t-14 -37.5z" />
    <glyph glyph-name="uni1EDF" unicode="&#x1edf;" horiz-adv-x="827" 
d="M674 688v-393q0 -158 -75 -232.5t-232 -74.5t-232.5 74.5t-75.5 232.5v393q0 307 297 307q49 0 128.5 -11t117.5 -11q60 0 81.5 19.5t21.5 72.5q0 64 -11 98h101q18 -35 18 -112q0 -99 -31 -143t-100 -44q-35 0 -55 2q47 -68 47 -178zM502 295v393q0 148 -135 148
q-136 0 -136 -148v-393q0 -148 136 -148q135 0 135 148zM408 1059h-89q0 32 12.5 55.5t30.5 37.5t36.5 26.5t31 29.5t12.5 39q0 26 -16.5 42t-50.5 16q-54 0 -113 -43l-31 96q29 26 74.5 40.5t85.5 14.5q67 0 110.5 -41t43.5 -108q0 -36 -14 -63.5t-34 -44t-40.5 -30
t-34.5 -30t-14 -37.5z" />
    <glyph glyph-name="uni1EE0" unicode="&#x1ee0;" horiz-adv-x="860" 
d="M692 1018v-690q0 -170 -81.5 -255t-237.5 -85q-159 0 -242.5 89t-83.5 255v690q0 167 84.5 258.5t235.5 91.5q43 0 131 -11t131 -11q62 0 85 19t23 73q0 67 -10 98h100q17 -33 17 -113q0 -100 -30.5 -143t-102.5 -43q-41 0 -88 8q69 -84 69 -231zM512 317v717
q0 79 -36.5 122.5t-104.5 43.5t-105 -42.5t-37 -121.5v-717q0 -79 36.5 -120t105.5 -41q141 0 141 159zM571 1606l80 -47q-33 -121 -149 -121q-45 0 -122.5 33.5t-121.5 33.5q-30 0 -49.5 -13t-32.5 -46l-80 47q36 121 150 121q46 0 123 -34t120 -34q62 0 82 60z" />
    <glyph glyph-name="uni1EE1" unicode="&#x1ee1;" horiz-adv-x="827" 
d="M674 688v-393q0 -158 -75 -232.5t-232 -74.5t-232.5 74.5t-75.5 232.5v393q0 307 297 307q49 0 128.5 -11t117.5 -11q60 0 81.5 19.5t21.5 72.5q0 64 -11 98h101q18 -35 18 -112q0 -99 -31 -143t-100 -44q-35 0 -55 2q47 -68 47 -178zM502 295v393q0 148 -135 148
q-136 0 -136 -148v-393q0 -148 136 -148q135 0 135 148zM565 1251l80 -47q-33 -121 -149 -121q-45 0 -122.5 34t-121.5 34q-30 0 -49.5 -13t-32.5 -46l-80 47q36 121 150 121q46 0 123 -34t120 -34q62 0 82 59z" />
    <glyph glyph-name="uni1EE2" unicode="&#x1ee2;" horiz-adv-x="860" 
d="M692 1018v-690q0 -170 -81.5 -255t-237.5 -85q-159 0 -242.5 89t-83.5 255v690q0 167 84.5 258.5t235.5 91.5q43 0 131 -11t131 -11q62 0 85 19t23 73q0 67 -10 98h100q17 -33 17 -113q0 -100 -30.5 -143t-102.5 -43q-41 0 -88 8q69 -84 69 -231zM512 317v717
q0 79 -36.5 122.5t-104.5 43.5t-105 -42.5t-37 -121.5v-717q0 -79 36.5 -120t105.5 -41q141 0 141 159zM459 -340h-176v219h176v-219z" />
    <glyph glyph-name="uni1EE3" unicode="&#x1ee3;" horiz-adv-x="827" 
d="M674 688v-393q0 -158 -75 -232.5t-232 -74.5t-232.5 74.5t-75.5 232.5v393q0 307 297 307q49 0 128.5 -11t117.5 -11q60 0 81.5 19.5t21.5 72.5q0 64 -11 98h101q18 -35 18 -112q0 -99 -31 -143t-100 -44q-35 0 -55 2q47 -68 47 -178zM502 295v393q0 148 -135 148
q-136 0 -136 -148v-393q0 -148 136 -148q135 0 135 148zM457 -340h-176v219h176v-219z" />
    <glyph glyph-name="uni1EE4" unicode="&#x1ee4;" horiz-adv-x="753" 
d="M516 319v1041h180v-1028q0 -167 -81 -255.5t-238 -88.5q-156 0 -239 86t-83 254v1032h181v-1043q0 -159 139 -159q141 0 141 161zM461 -340h-176v219h176v-219z" />
    <glyph glyph-name="uni1EE5" unicode="&#x1ee5;" horiz-adv-x="743" 
d="M59 983h179v-688q0 -82 30 -117t97 -35q65 0 94.5 34.5t48.5 125.5v680h176v-983h-166l-4 141h-8q-33 -83 -84 -118t-133 -35q-123 0 -176.5 76.5t-53.5 232.5v686zM461 -340h-176v219h176v-219z" />
    <glyph glyph-name="uni1EE6" unicode="&#x1ee6;" horiz-adv-x="753" 
d="M516 319v1041h180v-1028q0 -167 -81 -255.5t-238 -88.5q-156 0 -239 86t-83 254v1032h181v-1043q0 -159 139 -159q141 0 141 161zM406 1413h-89q0 32 12.5 55.5t30.5 38t36.5 27t31 29.5t12.5 39q0 57 -67 57q-54 0 -113 -43l-31 96q29 26 74.5 40.5t85.5 14.5
q67 0 110.5 -41t43.5 -108q0 -36 -14 -63.5t-34 -44t-40.5 -30t-34.5 -30t-14 -37.5z" />
    <glyph glyph-name="uni1EE7" unicode="&#x1ee7;" horiz-adv-x="743" 
d="M59 983h179v-688q0 -82 30 -117t97 -35q65 0 94.5 34.5t48.5 125.5v680h176v-983h-166l-4 141h-8q-33 -83 -84 -118t-133 -35q-123 0 -176.5 76.5t-53.5 232.5v686zM410 1059h-88q0 39 19 66.5t42 40.5t42 34t19 47t-16.5 42t-50.5 16q-54 0 -113 -43l-31 96
q29 26 74.5 40.5t85.5 14.5q67 0 110.5 -41t43.5 -108q0 -36 -14 -63.5t-34 -44t-40.5 -30t-34.5 -30t-14 -37.5z" />
    <glyph glyph-name="uni1EE8" unicode="&#x1ee8;" horiz-adv-x="931" 
d="M516 319v1041h209q45 0 64.5 19t19.5 67q0 60 -10 94h100q19 -36 19 -113q0 -98 -31 -139t-101 -41q-49 0 -90 10v-925q0 -170 -80 -257t-239 -87q-157 0 -239.5 85t-82.5 255v1032h181v-1043q0 -159 139 -159q141 0 141 161zM608 1686l-329 -300l-70 72l305 334z" />
    <glyph glyph-name="uni1EE9" unicode="&#x1ee9;" horiz-adv-x="909" 
d="M612 1331l-329 -299l-70 72l305 334zM59 983h179v-700q0 -140 124 -140q58 0 91 33t55 111v696h201q43 0 61 18.5t18 67.5t-10 94h101q16 -31 16 -112q0 -99 -29.5 -140t-101.5 -41q-43 0 -80 11v-881h-164l-6 141h-8q-64 -153 -211 -153q-127 0 -181.5 82.5t-54.5 230.5
v682z" />
    <glyph glyph-name="uni1EEA" unicode="&#x1eea;" horiz-adv-x="931" 
d="M516 319v1041h209q45 0 64.5 19t19.5 67q0 60 -10 94h100q19 -36 19 -113q0 -98 -31 -139t-101 -41q-49 0 -90 10v-925q0 -170 -80 -257t-239 -87q-157 0 -239.5 85t-82.5 255v1032h181v-1043q0 -159 139 -159q141 0 141 161zM473 1386l-330 300l95 106l305 -334z" />
    <glyph glyph-name="uni1EEB" unicode="&#x1eeb;" horiz-adv-x="909" 
d="M469 1032l-330 299l94 107l306 -334zM59 983h179v-700q0 -140 124 -140q58 0 91 33t55 111v696h201q43 0 61 18.5t18 67.5t-10 94h101q16 -31 16 -112q0 -99 -29.5 -140t-101.5 -41q-43 0 -80 11v-881h-164l-6 141h-8q-64 -153 -211 -153q-127 0 -181.5 82.5t-54.5 230.5
v682z" />
    <glyph glyph-name="uni1EEC" unicode="&#x1eec;" horiz-adv-x="931" 
d="M516 319v1041h209q45 0 64.5 19t19.5 67q0 60 -10 94h100q19 -36 19 -113q0 -98 -31 -139t-101 -41q-49 0 -90 10v-925q0 -170 -80 -257t-239 -87q-157 0 -239.5 85t-82.5 255v1032h181v-1043q0 -159 139 -159q141 0 141 161zM414 1413h-88q0 32 12.5 55.5t31 38t36.5 27
t30.5 29.5t12.5 39q0 26 -17 41.5t-51 15.5q-54 0 -113 -43l-30 96q29 26 74 40.5t85 14.5q67 0 110.5 -41t43.5 -108q0 -36 -14 -63.5t-34 -44t-40.5 -30t-34.5 -30t-14 -37.5z" />
    <glyph glyph-name="uni1EED" unicode="&#x1eed;" horiz-adv-x="909" 
d="M59 983h179v-700q0 -140 124 -140q58 0 91 33t55 111v696h201q43 0 61 18.5t18 67.5t-10 94h101q16 -31 16 -112q0 -99 -29.5 -140t-101.5 -41q-43 0 -80 11v-881h-164l-6 141h-8q-64 -153 -211 -153q-127 0 -181.5 82.5t-54.5 230.5v682zM410 1059h-88q0 39 19 66.5
t42 40.5t42 34t19 47t-16.5 42t-50.5 16q-54 0 -113 -43l-31 96q29 26 74.5 40.5t85.5 14.5q67 0 110.5 -41t43.5 -108q0 -36 -14 -63.5t-34 -44t-40.5 -30t-34.5 -30t-14 -37.5z" />
    <glyph glyph-name="uni1EEE" unicode="&#x1eee;" horiz-adv-x="931" 
d="M516 319v1041h209q45 0 64.5 19t19.5 67q0 60 -10 94h100q19 -36 19 -113q0 -98 -31 -139t-101 -41q-49 0 -90 10v-925q0 -170 -80 -257t-239 -87q-157 0 -239.5 85t-82.5 255v1032h181v-1043q0 -159 139 -159q141 0 141 161zM569 1581l80 -47q-33 -121 -149 -121
q-45 0 -122.5 34t-121.5 34q-59 0 -82 -60l-80 47q36 121 150 121q46 0 123 -33.5t120 -33.5q62 0 82 59z" />
    <glyph glyph-name="uni1EEF" unicode="&#x1eef;" horiz-adv-x="909" 
d="M569 1251l80 -47q-33 -121 -149 -121q-45 0 -122.5 34t-121.5 34q-30 0 -49.5 -13t-32.5 -46l-80 47q36 121 150 121q46 0 123 -34t120 -34q62 0 82 59zM59 983h179v-700q0 -140 124 -140q58 0 91 33t55 111v696h201q43 0 61 18.5t18 67.5t-10 94h101q16 -31 16 -112
q0 -99 -29.5 -140t-101.5 -41q-43 0 -80 11v-881h-164l-6 141h-8q-64 -153 -211 -153q-127 0 -181.5 82.5t-54.5 230.5v682z" />
    <glyph glyph-name="uni1EF0" unicode="&#x1ef0;" horiz-adv-x="931" 
d="M516 319v1041h209q45 0 64.5 19t19.5 67q0 60 -10 94h100q19 -36 19 -113q0 -98 -31 -139t-101 -41q-49 0 -90 10v-925q0 -170 -80 -257t-239 -87q-157 0 -239.5 85t-82.5 255v1032h181v-1043q0 -159 139 -159q141 0 141 161zM461 -340h-176v219h176v-219z" />
    <glyph glyph-name="uni1EF1" unicode="&#x1ef1;" horiz-adv-x="909" 
d="M59 983h179v-700q0 -140 124 -140q58 0 91 33t55 111v696h201q43 0 61 18.5t18 67.5t-10 94h101q16 -31 16 -112q0 -99 -29.5 -140t-101.5 -41q-43 0 -80 11v-881h-164l-6 141h-8q-64 -153 -211 -153q-127 0 -181.5 82.5t-54.5 230.5v682zM463 -340h-176v219h176v-219z
" />
    <glyph glyph-name="Ygrave" unicode="&#x1ef2;" horiz-adv-x="755" 
d="M473 0h-184v575l-269 785h179l180 -541h8l172 541h174l-260 -787v-573zM471 1386l-330 300l95 106l305 -334z" />
    <glyph glyph-name="ygrave" unicode="&#x1ef3;" 
d="M238 983v-674q0 -147 129 -147q59 0 92 34.5t53 120.5v666h170v-1153q0 -155 -77 -231t-234 -76q-156 0 -230.5 75.5t-74.5 231.5v109h167v-109q0 -147 136 -147q137 0 137 147v305h-8q-31 -73 -82 -104t-127 -31q-123 0 -176.5 67.5t-53.5 190.5v725h179zM469 1032
l-330 299l94 107l306 -334z" />
    <glyph glyph-name="uni1EF6" unicode="&#x1ef6;" horiz-adv-x="755" 
d="M473 0h-184v575l-269 785h179l180 -541h8l172 541h174l-260 -787v-573zM422 1413h-88q0 32 12.5 55.5t31 38t36.5 27t30.5 29.5t12.5 39q0 26 -17 41.5t-51 15.5q-54 0 -113 -43l-30 96q29 26 74.5 40.5t85.5 14.5q67 0 110 -41t43 -108q0 -36 -14 -63.5t-34 -44
t-40.5 -30t-34.5 -30t-14 -37.5z" />
    <glyph glyph-name="uni1EF7" unicode="&#x1ef7;" 
d="M238 983v-674q0 -147 129 -147q59 0 92 34.5t53 120.5v666h170v-1153q0 -155 -77 -231t-234 -76q-156 0 -230.5 75.5t-74.5 231.5v109h167v-109q0 -147 136 -147q137 0 137 147v305h-8q-31 -73 -82 -104t-127 -31q-123 0 -176.5 67.5t-53.5 190.5v725h179zM410 1059h-88
q0 39 19 66.5t42 40.5t42 34t19 47t-16.5 42t-50.5 16q-54 0 -113 -43l-31 96q29 26 74.5 40.5t85.5 14.5q67 0 110.5 -41t43.5 -108q0 -36 -14 -63.5t-34 -44t-40.5 -30t-34.5 -30t-14 -37.5z" />
    <glyph glyph-name="endash" unicode="&#x2013;" horiz-adv-x="516" 
d="M471 543h-426v153h426v-153z" />
    <glyph glyph-name="emdash" unicode="&#x2014;" horiz-adv-x="733" 
d="M688 543h-643v153h643v-153z" />
    <glyph glyph-name="quoteleft" unicode="&#x2018;" horiz-adv-x="290" 
d="M236 1458v-106q-41 -26 -60.5 -66.5t-19.5 -107.5v-58h80v-246h-181v283q0 251 181 301z" />
    <glyph glyph-name="quoteright" unicode="&#x2019;" horiz-adv-x="290" 
d="M55 793v106q41 25 60.5 65.5t19.5 106.5v59h-80v246h181v-282q0 -130 -45 -203t-136 -98z" />
    <glyph glyph-name="quotesinglbase" unicode="&#x201a;" horiz-adv-x="290" 
d="M55 -338v107q41 25 60.5 65.5t19.5 106.5v59h-80v246h181v-283q0 -130 -45 -203t-136 -98z" />
    <glyph glyph-name="quotedblleft" unicode="&#x201c;" horiz-adv-x="567" 
d="M236 1458v-106q-41 -26 -60.5 -66.5t-19.5 -107.5v-58h80v-246h-181v283q0 251 181 301zM512 1458v-106q-41 -26 -60.5 -66.5t-19.5 -107.5v-58h80v-246h-180v283q0 251 180 301z" />
    <glyph glyph-name="quotedblright" unicode="&#x201d;" horiz-adv-x="565" 
d="M55 793v106q41 25 60.5 65.5t19.5 106.5v59h-80v246h181v-282q0 -130 -45 -203t-136 -98zM330 793v106q41 25 60.5 65.5t19.5 106.5v59h-80v246h180v-282q0 -130 -44.5 -203t-135.5 -98z" />
    <glyph glyph-name="quotedblbase" unicode="&#x201e;" horiz-adv-x="565" 
d="M55 -338v107q41 25 60.5 65.5t19.5 106.5v59h-80v246h181v-283q0 -130 -45 -203t-136 -98zM330 -338v107q41 25 60.5 65.5t19.5 106.5v59h-80v246h180v-283q0 -130 -44.5 -203t-135.5 -98z" />
    <glyph glyph-name="dagger" unicode="&#x2020;" horiz-adv-x="624" 
d="M373 0h-111v977h-207v104h207v279h111v-279h196v-104h-196v-977z" />
    <glyph glyph-name="daggerdbl" unicode="&#x2021;" horiz-adv-x="620" 
d="M373 0h-113v276h-205v107h205v594h-205v104h205v279h113v-279h196v-104h-196v-594h196v-107h-196v-276z" />
    <glyph glyph-name="bullet" unicode="&#x2022;" horiz-adv-x="452" 
d="M227 498q-72 0 -122 52t-50 130q0 81 49.5 133.5t122.5 52.5q70 0 120 -53t50 -133q0 -77 -50 -129.5t-120 -52.5z" />
    <glyph glyph-name="ellipsis" unicode="&#x2026;" horiz-adv-x="878" 
d="M528 0h-178v246h178v-246zM823 0h-178v246h178v-246zM236 0h-181v246h181v-246z" />
    <glyph glyph-name="perthousand" unicode="&#x2030;" horiz-adv-x="1116" 
d="M205 -39h-113l461 1438h113zM752 461v-252q0 -107 -41 -161t-119 -54q-80 0 -122 56t-42 163v248q0 106 42 161.5t122 55.5q160 0 160 -217zM653 209v254q0 123 -63 123q-62 0 -62 -123v-254q0 -123 64 -123q61 0 61 123zM1102 461v-252q0 -107 -41 -161t-119 -54
q-80 0 -122 56t-42 163v248q0 106 42 161.5t122 55.5q160 0 160 -217zM1004 209v254q0 123 -64 123q-61 0 -61 -123v-254q0 -123 63 -123q62 0 62 123zM338 1149v-252q0 -107 -41 -161t-119 -54q-80 0 -122 56t-42 163v248q0 106 42 161.5t122 55.5q160 0 160 -217zM240 897
v254q0 123 -64 123q-61 0 -61 -123v-254q0 -123 63 -123q62 0 62 123z" />
    <glyph glyph-name="guilsinglleft" unicode="&#x2039;" horiz-adv-x="352" 
d="M256 377l-229 274l229 275l70 -76l-172 -199l172 -198z" />
    <glyph glyph-name="guilsinglright" unicode="&#x203a;" horiz-adv-x="352" 
d="M96 377l-69 76l172 200l-172 197l69 76l230 -273z" />
    <glyph glyph-name="fraction" unicode="&#x2044;" horiz-adv-x="165" 
d="M-88 -39h-113l461 1438h113z" />
    <glyph glyph-name="uni2070" unicode="&#x2070;" horiz-adv-x="432" 
d="M377 1149v-252q0 -107 -41 -161t-119 -54q-80 0 -122 56t-42 163v248q0 106 42 161.5t122 55.5q160 0 160 -217zM279 897v254q0 123 -64 123q-61 0 -61 -123v-254q0 -123 63 -123q62 0 62 123z" />
    <glyph glyph-name="uni2074" unicode="&#x2074;" horiz-adv-x="425" 
d="M236 913v304h-5l-114 -304h119zM332 688h-96v139h-191v84l168 449h119v-447h49v-86h-49v-139z" />
    <glyph glyph-name="uni2075" unicode="&#x2075;" horiz-adv-x="423" 
d="M371 977v-125q0 -83 -41 -126.5t-119 -43.5q-69 0 -113.5 37.5t-44.5 128.5v12h97v-16q0 -70 61 -70t61 72v121q0 61 -55 61q-41 0 -63 -33h-99l17 365h278v-92h-192l-11 -191q39 39 99 39q125 0 125 -139z" />
    <glyph glyph-name="uni2076" unicode="&#x2076;" horiz-adv-x="423" 
d="M371 999v-149q0 -168 -156 -168q-162 0 -162 170v340q0 85 41.5 129.5t120.5 44.5q74 0 115 -40.5t41 -115.5v-20h-95v16q0 31 -16 48.5t-45 17.5q-61 0 -61 -72v-141h4q32 59 104 59q50 0 79.5 -31.5t29.5 -87.5zM276 844v131q0 59 -53 59q-54 0 -69 -57v-133
q0 -70 61 -70t61 70z" />
    <glyph glyph-name="uni2077" unicode="&#x2077;" horiz-adv-x="362" 
d="M195 688h-99q4 118 47 294t88 288h-186v90h270v-82q-45 -125 -82.5 -297t-37.5 -293z" />
    <glyph glyph-name="uni2078" unicode="&#x2078;" horiz-adv-x="417" 
d="M211 1272q-33 0 -46 -15t-13 -47v-65q0 -33 12 -48.5t47 -15.5q33 0 44 15.5t11 48.5v65q0 32 -12 47t-43 15zM209 682q-79 0 -119.5 43t-40.5 123v47q0 70 18 102t58 41v9q-35 9 -50.5 36t-15.5 78v49q0 70 38.5 113t113.5 43q73 0 111 -43t38 -113v-49q0 -51 -15 -78
t-50 -36v-9q40 -9 58 -41t18 -102v-47q0 -80 -42 -123t-120 -43zM209 774q34 0 48.5 15t14.5 49v90q0 35 -14 52t-47 17q-64 0 -64 -69v-90q0 -34 14.5 -49t47.5 -15z" />
    <glyph glyph-name="uni2079" unicode="&#x2079;" horiz-adv-x="423" 
d="M53 1063v119q0 95 36 139.5t122 44.5q90 0 125 -49.5t35 -153.5v-282q0 -99 -36 -149t-124 -50q-77 0 -116.5 43t-39.5 123v20h95v-24q0 -68 61 -68q35 0 48 23.5t13 72.5v132h-8q-32 -60 -102 -60q-48 0 -78.5 31.5t-30.5 87.5zM150 1204v-117q0 -59 51 -59
q26 0 45.5 17.5t25.5 46.5v102q0 80 -63 80q-59 0 -59 -70z" />
    <glyph glyph-name="uni2080" unicode="&#x2080;" horiz-adv-x="432" 
d="M377 461v-252q0 -107 -41 -161t-119 -54q-80 0 -122 56t-42 163v248q0 106 42 161.5t122 55.5q160 0 160 -217zM279 209v254q0 123 -64 123q-61 0 -61 -123v-254q0 -123 63 -123q62 0 62 123z" />
    <glyph glyph-name="uni2081" unicode="&#x2081;" horiz-adv-x="284" 
d="M229 0h-96v512h-88v80q56 0 74.5 16.5t23.5 63.5h86v-672z" />
    <glyph glyph-name="uni2082" unicode="&#x2082;" horiz-adv-x="417" 
d="M369 0h-316v109q0 94 56 155q19 21 69.5 62.5t67.5 62.5q28 39 28 92v37q0 37 -13 52.5t-46 15.5q-36 0 -48.5 -16.5t-12.5 -59.5v-49h-97v43q0 94 30.5 134t127.5 40q90 0 122 -36t32 -122v-41q0 -89 -47 -139q-16 -18 -66.5 -60.5t-67.5 -60.5q-21 -22 -27.5 -41
t-6.5 -51v-39h215v-88z" />
    <glyph glyph-name="uni2083" unicode="&#x2083;" horiz-adv-x="417" 
d="M371 227v-67q0 -166 -158 -166q-160 0 -160 180v25h97v-29q0 -47 13 -65.5t48 -18.5q32 0 46.5 15.5t14.5 52.5v79q0 38 -16 57t-53 19h-43v84h47q36 0 48.5 17t12.5 55v49q0 38 -12.5 54t-44.5 16q-34 0 -47.5 -17.5t-13.5 -58.5v-29h-97v23q0 85 41 130.5t117 45.5
q73 0 111 -44t38 -112v-49q0 -99 -69 -117v-4q80 -20 80 -125z" />
    <glyph glyph-name="uni2084" unicode="&#x2084;" horiz-adv-x="425" 
d="M236 225v303h-5l-114 -303h119zM332 0h-96v139h-191v84l168 449h119v-447h49v-86h-49v-139z" />
    <glyph glyph-name="uni2085" unicode="&#x2085;" horiz-adv-x="423" 
d="M371 289v-125q0 -83 -41 -126.5t-119 -43.5q-69 0 -113.5 37.5t-44.5 128.5v12h97v-16q0 -70 61 -70t61 72v121q0 61 -55 61q-41 0 -63 -33h-99l17 365h278v-92h-192l-11 -191q39 39 99 39q125 0 125 -139z" />
    <glyph glyph-name="uni2086" unicode="&#x2086;" horiz-adv-x="423" 
d="M371 311v-149q0 -168 -156 -168q-162 0 -162 170v340q0 85 41.5 129.5t120.5 44.5q74 0 115 -40.5t41 -115.5v-20h-95v16q0 31 -16 48.5t-45 17.5q-61 0 -61 -72v-141h4q32 59 104 59q50 0 79.5 -31.5t29.5 -87.5zM276 156v131q0 59 -53 59q-54 0 -69 -57v-133
q0 -70 61 -70t61 70z" />
    <glyph glyph-name="uni2087" unicode="&#x2087;" horiz-adv-x="362" 
d="M195 0h-99q4 118 47 294t88 288h-186v90h270v-82q-45 -125 -82.5 -297t-37.5 -293z" />
    <glyph glyph-name="uni2088" unicode="&#x2088;" horiz-adv-x="417" 
d="M211 584q-33 0 -46 -15t-13 -47v-65q0 -33 12 -48.5t47 -15.5q33 0 44 15.5t11 48.5v65q0 32 -12 47t-43 15zM209 -6q-79 0 -119.5 43t-40.5 123v47q0 70 18 102t58 41v8q-35 9 -50.5 36.5t-15.5 78.5v49q0 70 38.5 113t113.5 43q73 0 111 -43t38 -113v-49q0 -52 -15 -79
t-50 -36v-8q40 -9 58 -41t18 -102v-47q0 -80 -42 -123t-120 -43zM209 86q34 0 48.5 15t14.5 49v90q0 35 -14 52t-47 17q-64 0 -64 -69v-90q0 -34 14.5 -49t47.5 -15z" />
    <glyph glyph-name="uni2089" unicode="&#x2089;" horiz-adv-x="423" 
d="M53 375v119q0 95 36 139.5t122 44.5q90 0 125 -49.5t35 -153.5v-282q0 -99 -36 -149t-124 -50q-77 0 -116.5 43t-39.5 123v20h95v-24q0 -68 61 -68q35 0 48 23.5t13 72.5v131h-8q-32 -59 -102 -59q-48 0 -78.5 31.5t-30.5 87.5zM150 516v-117q0 -59 51 -59q26 0 45.5 17
t25.5 46v103q0 80 -63 80q-59 0 -59 -70z" />
    <glyph glyph-name="uni20A9" unicode="&#x20a9;" horiz-adv-x="1110" 
d="M414 0h-203l-66 561h-127v90h117l-18 160h-99v90h88l-51 459h156l45 -459h152l53 459h190l51 -459h154l47 459h154l-53 -459h90v-90h-101l-18 -160h119v-90h-129l-64 -561h-205l-67 561h-150zM713 811l18 -160h100l17 160h-135zM266 811l15 -160h98l18 160h-131zM508 811
l-19 -160h129l-18 160h-92zM780 227h8l33 334h-80zM324 227h8l37 334h-78zM551 1163l-33 -262h72l-31 262h-8z" />
    <glyph glyph-name="uni20AA" unicode="&#x20aa;" horiz-adv-x="870" 
d="M602 252h-121v829q0 53 -21 77t-65 24h-219v-1182h-121v1360h385q85 0 123.5 -46t38.5 -161v-901zM268 1108h121v-829q0 -54 21 -78.5t65 -24.5h219v1184h119v-1360h-383q-85 0 -123.5 46t-38.5 161v901z" />
    <glyph glyph-name="dong" unicode="&#x20ab;" horiz-adv-x="626" 
d="M539 258h-115l-4 90h-8q-48 -98 -179 -98q-78 0 -126 43.5t-48 130.5v401q0 86 47.5 129t124.5 43q63 0 107.5 -23.5t62.5 -60.5h9v261h-287v98h287v104h129v-104h57v-98h-57v-916zM193 795v-332q0 -98 102 -98q45 0 73.5 22t43.5 72v329q-27 95 -119 95q-46 0 -73 -22.5
t-27 -65.5zM539 0h-496v100h496v-100z" />
    <glyph glyph-name="Euro" unicode="&#x20ac;" horiz-adv-x="706" 
d="M571 276l107 -110q-51 -91 -119.5 -134.5t-161.5 -43.5q-134 0 -209 89.5t-75 254.5v160h-68l16 114h52v172h-68l16 115h52v129q0 169 81.5 259.5t241.5 90.5q112 0 170 -49l-28 -176q-56 53 -132 53q-151 0 -151 -164v-143h246l-19 -115h-227v-172h199l-19 -114h-180
v-173q0 -161 125 -161q98 0 151 118z" />
    <glyph glyph-name="uni20AD" unicode="&#x20ad;" horiz-adv-x="845" 
d="M801 672h-305l288 -672h-190l-283 672h-14v-672h-186v672h-91v125h91v563h186v-563h12l289 563h188l-301 -563h316v-125z" />
    <glyph glyph-name="uni20AE" unicode="&#x20ae;" horiz-adv-x="716" 
d="M643 854l-194 -109v-221l194 109v-129l-194 -109v-395h-183v295l-192 -107v131l192 105v221l-192 -106v131l192 104v420h-227v166h641v-166h-231v-320l194 109v-129z" />
    <glyph glyph-name="uni20B1" unicode="&#x20b1;" horiz-adv-x="808" 
d="M809 803h-84q-3 -130 -63.5 -196t-194.5 -66h-195v-541h-182v803h-90v63h90v170h-90v66h90v258h377q132 0 193.5 -66t64.5 -192h84v-66h-84v-170h84v-63zM272 1036v-170h281v170h-281zM432 700q103 0 119 103h-279v-103h160zM272 1194v-92h279q-16 92 -119 92h-160z" />
    <glyph glyph-name="uni20B2" unicode="&#x20b2;" horiz-adv-x="743" 
d="M195 -39h-115l41 129q-66 87 -66 242v690q0 167 81.5 258.5t234.5 91.5q84 0 151 -31l19 58h114l-41 -129q74 -92 74 -252v-78h-180l-68 -213h248v-727h-121l-8 104h-8q-29 -56 -76 -86t-129 -30q-72 0 -135 26zM238 1036v-583h8l225 716q-36 31 -94 31q-139 0 -139 -164
zM514 563h-127l-117 -364q35 -41 101 -41q120 0 143 137v268z" />
    <glyph glyph-name="uni20B4" unicode="&#x20b4;" horiz-adv-x="768" 
d="M754 510h-465q-26 -27 -35.5 -57t-9.5 -78v-62q0 -155 149 -155q82 0 120 42.5t38 127.5v80h172v-78q0 -171 -79.5 -256.5t-254.5 -85.5t-256.5 83t-81.5 246v84q0 70 10 109h-47v90h90l269 201h-359v90h478q45 45 45 115v53q0 63 -37.5 102t-108.5 39q-143 0 -143 -164
v-78h-172v60q0 81 15.5 142.5t50.5 110.5t99 75t154 26q161 0 241.5 -82t80.5 -223v-59q0 -62 -19 -117h56v-90h-103l-250 -201h353v-90z" />
    <glyph glyph-name="uni20B8" unicode="&#x20b8;" horiz-adv-x="645" 
d="M399 0h-145v895h-211v158h563v-158h-207v-895zM606 1206h-563v154h563v-154z" />
    <glyph glyph-name="uni20B9" unicode="&#x20b9;" horiz-adv-x="630" 
d="M487 0h-184l-164 573v107h72q133 0 133 141v74h-299v125h299v74q0 137 -133 137h-166v129h543v-129h-133v-8q51 -39 51 -129v-74h82v-125h-82v-74q0 -210 -189 -248z" />
    <glyph glyph-name="uni20BA" unicode="&#x20ba;" horiz-adv-x="786" 
d="M608 709l-309 -170v-373h137q139 0 139 158v143h173v-135q0 -332 -312 -332h-317v438l-80 -43v129l80 43v221l-80 -43v129l80 44v442h180v-342l309 172v-131l-309 -170v-221l309 172v-131z" />
    <glyph glyph-name="uni20BC" unicode="&#x20bc;" horiz-adv-x="1060" 
d="M442 1360h176v-303h136q136 0 197 -69.5t61 -203.5v-784h-164v758q0 139 -121 139h-109v-897h-176v897h-108q-121 0 -121 -139v-758h-164v784q0 134 61 203.5t197 69.5h135v303z" />
    <glyph glyph-name="uni20BD" unicode="&#x20bd;" horiz-adv-x="808" 
d="M668 236h-353v-236h-182v236h-100v114h100v168h-100v115h100v727h377q136 0 197 -69.5t61 -203.5v-294q0 -136 -61 -205.5t-197 -69.5h-195v-168h353v-114zM596 774v293q0 127 -121 127h-160v-561h160q121 0 121 141z" />
    </font>
</defs>
</svg>
