<?xml version="1.0" standalone="no"?>
<!DOCTYPE svg PUBLIC "-//W3C//DTD SVG 1.1//EN" "http://www.w3.org/Graphics/SVG/1.1/DTD/svg11.dtd" >
<svg xmlns="http://www.w3.org/2000/svg" xmlns:xlink="http://www.w3.org/1999/xlink" version="1.1">
<metadata>
Created by FontForge 20201107 at Fri May  9 06:11:33 2025
 By 
(c) 1999-2024 Typodermic Fonts Inc.
</metadata>
<defs>
<font id="Coolvetica-HeavyComp" horiz-adv-x="555" >
  <font-face 
    font-family="Coolvetica Heavy Comp"
    font-weight="850"
    font-stretch="extra-condensed"
    units-per-em="2048"
    panose-1="2 11 9 8 3 6 2 2 0 4"
    ascent="1638"
    descent="-410"
    x-height="1008"
    cap-height="1360"
    bbox="-565 -479 995 1841"
    underline-thickness="40"
    underline-position="-292"
    unicode-range="U+0017-E006"
  />
<missing-glyph horiz-adv-x="454" 
d="M315 0h-180q-104 0 -104 94v1170q0 96 104 96h180q107 0 107 -96v-1170q0 -94 -107 -94zM350 94v1170q0 28 -35 28h-180q-35 0 -35 -28v-1170q0 -31 35 -31h180q35 0 35 31z" />
    <glyph glyph-name=".notdef" horiz-adv-x="454" 
d="M315 0h-180q-104 0 -104 94v1170q0 96 104 96h180q107 0 107 -96v-1170q0 -94 -107 -94zM350 94v1170q0 28 -35 28h-180q-35 0 -35 -28v-1170q0 -31 35 -31h180q35 0 35 31z" />
    <glyph glyph-name="uni0000" horiz-adv-x="0" 
 />
    <glyph glyph-name="uni0000" horiz-adv-x="0" 
 />
    <glyph glyph-name="nonmarkingreturn" horiz-adv-x="682" 
 />
    <glyph glyph-name="uni0017" horiz-adv-x="188" 
 />
    <glyph glyph-name="space" unicode=" " horiz-adv-x="188" 
 />
    <glyph glyph-name="exclam" unicode="!" horiz-adv-x="305" 
d="M252 0h-203v201h203v-201zM221 352h-139q-37 246 -37 420v588h213v-514q0 -263 -37 -494z" />
    <glyph glyph-name="quotedbl" unicode="&#x22;" horiz-adv-x="438" 
d="M186 936h-155v440h155v-440zM406 936h-156v440h156v-440z" />
    <glyph glyph-name="numbersign" unicode="#" horiz-adv-x="604" 
d="M221 0h-141l26 416h-71l12 135h68l18 270h-74l13 137h69l27 402h139l-26 -402h75l27 402h139l-26 -402h75l-12 -137h-72l-16 -270h76l-12 -135h-72l-27 -416h-141l27 416h-74zM272 821l-16 -270h74l18 270h-76z" />
    <glyph glyph-name="dollar" unicode="$" horiz-adv-x="589" 
d="M369 -123h-154v141q-95 17 -139.5 81.5t-44.5 183.5v125h196v-156q0 -59 58 -59q22 0 34 11t15 24t4 36v189q0 37 -39 79q-16 17 -81.5 71t-98.5 93q-84 98 -84 203v199q0 108 43 168t137 75v154h154v-156q93 -21 131.5 -87.5t38.5 -180.5v-113h-195v146q0 59 -51 59
t-51 -53v-168q0 -43 8 -60.5t39 -45.5q38 -34 108.5 -86t94.5 -80q65 -74 65 -205v-191q0 -227 -188 -256v-141z" />
    <glyph glyph-name="percent" unicode="%" horiz-adv-x="614" 
d="M178 -33h-110l364 1426h111zM264 1206v-329q0 -156 -125 -156q-62 0 -94.5 43t-32.5 117v325q0 158 127 158q125 0 125 -158zM160 877v331q0 60 -23 60q-22 0 -22 -60v-331q0 -60 22 -60q23 0 23 60zM602 479v-329q0 -156 -125 -156q-62 0 -94.5 43t-32.5 117v325
q0 158 127 158q125 0 125 -158zM498 150v331q0 60 -23 60q-22 0 -22 -60v-331q0 -60 22 -60q23 0 23 60z" />
    <glyph glyph-name="ampersand" unicode="&#x26;" horiz-adv-x="552" 
d="M31 258v289q0 149 123 174v8q-107 18 -107 162v235q0 96 60 165t176 69h63v-195h-61q-45 0 -45 -61v-236q0 -42 11 -54.5t38 -12.5h18v-170h-24q-43 0 -43 -70v-319q0 -62 53 -62t53 62v559h180v-545q0 -266 -243 -266q-124 0 -188 69t-64 199z" />
    <glyph glyph-name="quotesingle" unicode="'" horiz-adv-x="219" 
d="M186 936h-155v440h155v-440z" />
    <glyph glyph-name="parenleft" unicode="(" horiz-adv-x="344" 
d="M326 -293h-140q-125 390 -125 907q0 508 125 877h140q-88 -431 -88 -881q0 -460 88 -903z" />
    <glyph glyph-name="parenright" unicode=")" horiz-adv-x="344" 
d="M158 -293h-140q88 443 88 905q0 448 -88 879h140q125 -366 125 -875q0 -519 -125 -909z" />
    <glyph glyph-name="asterisk" unicode="*" horiz-adv-x="497" 
d="M430 977l-86 -62l-98 127l-92 -127l-91 62l97 135l-146 45l33 98l139 -45v166h119v-166l139 45l37 -98l-145 -45z" />
    <glyph glyph-name="plus" unicode="+" horiz-adv-x="526" 
d="M338 451h-154v155h-153v154h153v153h154v-153h156v-154h-156v-155z" />
    <glyph glyph-name="comma" unicode="," horiz-adv-x="266" 
d="M31 -305v112q88 49 88 146v47h-88v201h202v-219q0 -248 -202 -287z" />
    <glyph glyph-name="hyphen" unicode="-" horiz-adv-x="258" 
d="M233 543h-208v170h208v-170z" />
    <glyph glyph-name="hyphen" unicode="&#xad;" horiz-adv-x="258" 
d="M233 543h-208v170h208v-170z" />
    <glyph glyph-name="period" unicode="." horiz-adv-x="266" 
d="M233 0h-202v201h202v-201z" />
    <glyph glyph-name="slash" unicode="/" horiz-adv-x="321" 
d="M160 0h-160l160 1360h162z" />
    <glyph glyph-name="zero" unicode="0" horiz-adv-x="567" 
d="M535 1032v-706q0 -336 -248 -336q-124 0 -190 88t-66 254v696q0 166 65.5 253t190.5 87q248 0 248 -336zM330 326v708q0 144 -47 144q-45 0 -45 -144v-708q0 -146 45 -146q47 0 47 146z" />
    <glyph glyph-name="one" unicode="1" horiz-adv-x="356" 
d="M324 0h-201v1108h-105v162q114 0 129 90h177v-1360z" />
    <glyph glyph-name="two" unicode="2" horiz-adv-x="546" 
d="M522 0h-491v299q0 147 80 256q26 35 90.5 103t89.5 104q21 28 28 53t7 70v229q0 62 -47 62q-46 0 -46 -64v-172h-196v152q0 75 8.5 121t33.5 84t74 54.5t128 16.5q140 0 190.5 -57.5t50.5 -190.5v-239q0 -69 -16 -117t-51 -94q-21 -28 -82 -94.5t-84 -98.5
q-49 -63 -49 -133v-162h282v-182z" />
    <glyph glyph-name="three" unicode="3" horiz-adv-x="546" 
d="M526 547v-289q0 -130 -64 -199t-186 -69q-245 0 -245 266v139h196v-153q0 -62 45 -62q47 0 47 62v319q0 70 -59 70h-63v170h71q51 0 51 67v246q0 62 -47 62q-45 0 -45 -62v-139h-196v117q0 132 63.5 204t179.5 72t176 -68.5t60 -162.5v-246q0 -147 -104 -164v-8
q55 -10 87.5 -52t32.5 -120z" />
    <glyph glyph-name="three" unicode="&#x417;" horiz-adv-x="546" 
d="M526 547v-289q0 -130 -64 -199t-186 -69q-245 0 -245 266v139h196v-153q0 -62 45 -62q47 0 47 62v319q0 70 -59 70h-63v170h71q51 0 51 67v246q0 62 -47 62q-45 0 -45 -62v-139h-196v117q0 132 63.5 204t179.5 72t176 -68.5t60 -162.5v-246q0 -147 -104 -164v-8
q55 -10 87.5 -52t32.5 -120z" />
    <glyph glyph-name="four" unicode="4" horiz-adv-x="559" 
d="M268 492v452h-8l-106 -452h114zM465 0h-201v319h-246v170l209 871h238v-868h76v-173h-76v-319z" />
    <glyph glyph-name="five" unicode="5" horiz-adv-x="557" 
d="M524 635v-377q0 -130 -63 -199t-185 -69q-50 0 -91 12t-77 40t-56.5 81.5t-20.5 128.5v98h196v-108q0 -62 45 -62q47 0 47 62v370q0 62 -47 62q-28 0 -49 -27h-192l24 713h439v-182h-261l-14 -375h8q41 47 121 47q176 0 176 -215z" />
    <glyph glyph-name="six" unicode="6" horiz-adv-x="557" 
d="M524 668v-412q0 -266 -243 -266q-123 0 -186.5 69t-63.5 199v838q0 131 64 201.5t188 70.5q116 0 178.5 -63t62.5 -181v-106h-194v96q0 62 -47 62q-45 0 -45 -62v-340h8q41 78 123 78q72 0 113.5 -49.5t41.5 -134.5zM330 242v376q0 62 -47 62q-39 0 -45 -47v-391
q0 -62 45 -62q47 0 47 62z" />
    <glyph glyph-name="seven" unicode="7" horiz-adv-x="458" 
d="M279 0h-203q7 254 63 602t121 572h-242v186h422v-172q-67 -227 -114 -573.5t-47 -614.5z" />
    <glyph glyph-name="eight" unicode="8" horiz-adv-x="546" 
d="M317 864v250q0 62 -45 62t-45 -62v-250q0 -67 45 -67t45 67zM319 242v323q0 60 -47 60q-45 0 -45 -60v-323q0 -62 45 -62q47 0 47 62zM524 543v-285q0 -130 -63.5 -199t-188.5 -69t-188.5 69t-63.5 199v285q0 76 33.5 119t87.5 53v8q-104 17 -104 164v250
q0 96 59.5 163.5t175.5 67.5q117 0 177.5 -68t60.5 -163v-250q0 -146 -107 -164v-8q54 -10 87.5 -53t33.5 -119z" />
    <glyph glyph-name="nine" unicode="9" horiz-adv-x="557" 
d="M319 246v379h-8q-44 -78 -125 -78q-71 0 -113 50t-42 134v371q0 266 245 266q124 0 186 -68t62 -200v-836q0 -133 -63 -203.5t-187 -70.5q-117 0 -178 62t-61 181v129h192v-118q0 -60 45 -60q47 0 47 62zM319 766v350q0 62 -47 62q-45 0 -45 -62v-336q0 -61 45 -61
q38 0 47 47z" />
    <glyph glyph-name="colon" unicode=":" horiz-adv-x="266" 
d="M233 61h-202v201h202v-201zM233 745h-202v201h202v-201z" />
    <glyph glyph-name="semicolon" unicode=";" horiz-adv-x="266" 
d="M233 745h-202v201h202v-201zM31 -244v113q88 49 88 145v47h-88v201h202v-219q0 -248 -202 -287z" />
    <glyph glyph-name="less" unicode="&#x3c;" horiz-adv-x="526" 
d="M494 393l-463 207v164l463 205v-174l-293 -111v-8l293 -113v-170z" />
    <glyph glyph-name="equal" unicode="=" horiz-adv-x="526" 
d="M494 768h-463v154h463v-154zM494 440h-463v154h463v-154z" />
    <glyph glyph-name="greater" unicode="&#x3e;" horiz-adv-x="526" 
d="M494 600l-463 -207v170l295 113v8l-295 111v174l463 -205v-164z" />
    <glyph glyph-name="question" unicode="?" horiz-adv-x="532" 
d="M365 0h-203v190h203v-190zM360 342h-192v147q0 100 29 166q15 32 49 91.5t47 91.5q14 35 14 102v166q0 70 -47 70q-28 0 -36.5 -18.5t-8.5 -63.5v-129h-197v88q0 69 4.5 113.5t19 86t41.5 65t72 37t111 13.5q75 0 122 -16t72.5 -54t34.5 -87.5t9 -129.5v-153
q0 -86 -21 -144q-14 -37 -52.5 -100.5t-51.5 -97.5q-19 -53 -19 -131v-113z" />
    <glyph glyph-name="at" unicode="@" horiz-adv-x="724" 
d="M578 -6l28 -123q-76 -43 -227 -43q-67 0 -118.5 9.5t-88.5 25.5t-62.5 45t-41 60.5t-24 79.5t-11 94t-2.5 112v594q0 65 3 112t11.5 95t24 80t40.5 61t60.5 46t85 26.5t113.5 9.5q72 0 124.5 -11t88 -36t57.5 -56.5t33.5 -83t15.5 -104t4 -129.5v-481q0 -95 -44 -144
t-126 -49q-73 0 -100 41h-8q-32 -41 -84 -41q-61 0 -85 44.5t-24 138.5v356q0 60 2.5 94t12.5 66t31 45.5t55 13.5q56 0 86 -43h6l8 35h86v-617q0 -28 31 -28q18 0 24 11.5t6 37.5v518q0 94 -6.5 146t-28 89.5t-59.5 50.5t-104 13q-48 0 -81.5 -5.5t-57.5 -21.5t-38 -36.5
t-21.5 -58.5t-10 -79t-2.5 -106v-592q0 -75 4 -118.5t16 -81.5t37 -56t63.5 -27.5t98.5 -9.5q117 0 199 31zM340 795v-443q0 -31 7.5 -42t23.5 -11t23 12t7 47v433q0 23 -6.5 31.5t-21.5 8.5q-18 0 -25.5 -8t-7.5 -28z" />
    <glyph glyph-name="A" unicode="A" horiz-adv-x="571" 
d="M563 0h-207l-22 309h-105l-20 -309h-203l133 1360h291zM279 1014l-37 -527h80l-35 527h-8z" />
    <glyph glyph-name="A" unicode="&#x410;" horiz-adv-x="571" 
d="M563 0h-207l-22 309h-105l-20 -309h-203l133 1360h291zM279 1014l-37 -527h80l-35 527h-8z" />
    <glyph glyph-name="A" unicode="&#x391;" horiz-adv-x="571" 
d="M563 0h-207l-22 309h-105l-20 -309h-203l133 1360h291zM279 1014l-37 -527h80l-35 527h-8z" />
    <glyph glyph-name="B" unicode="B" horiz-adv-x="559" 
d="M342 0h-311v1360h288q107 0 155 -55t48 -160v-258q0 -144 -106 -162v-8q58 -10 89.5 -48t31.5 -126v-361q0 -93 -45.5 -137.5t-149.5 -44.5zM330 252v305q0 70 -60 70h-34v-449h34q60 0 60 74zM328 864v244q0 40 -11 57t-41 17h-40v-385h40q52 0 52 67z" />
    <glyph glyph-name="B" unicode="&#x412;" horiz-adv-x="559" 
d="M342 0h-311v1360h288q107 0 155 -55t48 -160v-258q0 -144 -106 -162v-8q58 -10 89.5 -48t31.5 -126v-361q0 -93 -45.5 -137.5t-149.5 -44.5zM330 252v305q0 70 -60 70h-34v-449h34q60 0 60 74zM328 864v244q0 40 -11 57t-41 17h-40v-385h40q52 0 52 67z" />
    <glyph glyph-name="B" unicode="&#x392;" horiz-adv-x="559" 
d="M342 0h-311v1360h288q107 0 155 -55t48 -160v-258q0 -144 -106 -162v-8q58 -10 89.5 -48t31.5 -126v-361q0 -93 -45.5 -137.5t-149.5 -44.5zM330 252v305q0 70 -60 70h-34v-449h34q60 0 60 74zM328 864v244q0 40 -11 57t-41 17h-40v-385h40q52 0 52 67z" />
    <glyph glyph-name="C" unicode="C" horiz-adv-x="557" 
d="M330 242v313h194v-299q0 -266 -243 -266q-122 0 -186 69t-64 199v846q0 264 248 264q122 0 183.5 -63t61.5 -199v-234h-194v242q0 62 -47 62q-45 0 -45 -62v-872q0 -33 9.5 -47.5t33.5 -14.5q49 0 49 62z" />
    <glyph glyph-name="C" unicode="&#x421;" horiz-adv-x="557" 
d="M330 242v313h194v-299q0 -266 -243 -266q-122 0 -186 69t-64 199v846q0 264 248 264q122 0 183.5 -63t61.5 -199v-234h-194v242q0 62 -47 62q-45 0 -45 -62v-872q0 -33 9.5 -47.5t33.5 -14.5q49 0 49 62z" />
    <glyph glyph-name="D" unicode="D" horiz-adv-x="567" 
d="M293 0h-262v1360h262q242 0 242 -246v-856q0 -133 -60.5 -195.5t-181.5 -62.5zM236 186h43q47 0 47 117v764q0 107 -62 107h-28v-988z" />
    <glyph glyph-name="E" unicode="E" horiz-adv-x="442" 
d="M428 0h-397v1360h385v-186h-180v-367h157v-189h-157v-432h192v-186z" />
    <glyph glyph-name="E" unicode="&#x415;" horiz-adv-x="442" 
d="M428 0h-397v1360h385v-186h-180v-367h157v-189h-157v-432h192v-186z" />
    <glyph glyph-name="E" unicode="&#x395;" horiz-adv-x="442" 
d="M428 0h-397v1360h385v-186h-180v-367h157v-189h-157v-432h192v-186z" />
    <glyph glyph-name="F" unicode="F" horiz-adv-x="442" 
d="M240 0h-209v1360h393v-186h-184v-386h149v-186h-149v-602z" />
    <glyph glyph-name="G" unicode="G" horiz-adv-x="557" 
d="M524 0h-133l-8 53h-8q-37 -63 -125 -63q-103 0 -161 70.5t-58 197.5v838q0 130 63 201t182 71q120 0 184 -72t64 -204v-152h-194v174q0 62 -47 62q-45 0 -45 -62v-872q0 -62 45 -62q47 0 47 62v274h-60v184h254v-700z" />
    <glyph glyph-name="H" unicode="H" horiz-adv-x="573" 
d="M541 0h-209v633h-92v-633h-209v1360h209v-541h92v541h209v-1360z" />
    <glyph glyph-name="H" unicode="&#x41d;" horiz-adv-x="573" 
d="M541 0h-209v633h-92v-633h-209v1360h209v-541h92v541h209v-1360z" />
    <glyph glyph-name="H" unicode="&#x397;" horiz-adv-x="573" 
d="M541 0h-209v633h-92v-633h-209v1360h209v-541h92v541h209v-1360z" />
    <glyph glyph-name="I" unicode="I" horiz-adv-x="272" 
d="M240 0h-209v1360h209v-1360z" />
    <glyph glyph-name="I" unicode="&#x4cf;" horiz-adv-x="272" 
d="M240 0h-209v1360h209v-1360z" />
    <glyph glyph-name="I" unicode="&#x4c0;" horiz-adv-x="272" 
d="M240 0h-209v1360h209v-1360z" />
    <glyph glyph-name="I" unicode="&#x406;" horiz-adv-x="272" 
d="M240 0h-209v1360h209v-1360z" />
    <glyph glyph-name="I" unicode="&#x399;" horiz-adv-x="272" 
d="M240 0h-209v1360h209v-1360z" />
    <glyph glyph-name="J" unicode="J" horiz-adv-x="544" 
d="M307 242v1118h205v-1102q0 -130 -63 -199t-185 -69q-121 0 -183.5 66.5t-62.5 199.5v258h197v-272q0 -62 45 -62q47 0 47 62z" />
    <glyph glyph-name="J" unicode="&#x408;" horiz-adv-x="544" 
d="M307 242v1118h205v-1102q0 -130 -63 -199t-185 -69q-121 0 -183.5 66.5t-62.5 199.5v258h197v-272q0 -62 45 -62q47 0 47 62z" />
    <glyph glyph-name="K" unicode="K" horiz-adv-x="565" 
d="M557 0h-211l-63 514h-7l-32 -133v-381h-213v1360h213v-469h8q6 47 98 469h209l-129 -514z" />
    <glyph glyph-name="K" unicode="&#x41a;" horiz-adv-x="565" 
d="M557 0h-211l-63 514h-7l-32 -133v-381h-213v1360h213v-469h8q6 47 98 469h209l-129 -514z" />
    <glyph glyph-name="K" unicode="&#x39a;" horiz-adv-x="565" 
d="M557 0h-211l-63 514h-7l-32 -133v-381h-213v1360h213v-469h8q6 47 98 469h209l-129 -514z" />
    <glyph glyph-name="L" unicode="L" horiz-adv-x="454" 
d="M436 0h-405v1360h209v-1170h196v-190z" />
    <glyph glyph-name="M" unicode="M" horiz-adv-x="813" 
d="M780 0h-184v526q0 282 8 422h-8l-102 -948h-177l-102 948h-8q8 -91 8 -422v-526h-184v1360h313l62 -858h8l63 858h303v-1360z" />
    <glyph glyph-name="M" unicode="&#x41c;" horiz-adv-x="813" 
d="M780 0h-184v526q0 282 8 422h-8l-102 -948h-177l-102 948h-8q8 -91 8 -422v-526h-184v1360h313l62 -858h8l63 858h303v-1360z" />
    <glyph glyph-name="M" unicode="&#x39c;" horiz-adv-x="813" 
d="M780 0h-184v526q0 282 8 422h-8l-102 -948h-177l-102 948h-8q8 -91 8 -422v-526h-184v1360h313l62 -858h8l63 858h303v-1360z" />
    <glyph glyph-name="N" unicode="N" horiz-adv-x="602" 
d="M571 0h-243l-119 944h-8q8 -136 8 -508v-436h-178v1360h276l84 -875h8q-8 258 -8 572v303h180v-1360z" />
    <glyph glyph-name="N" unicode="&#x39d;" horiz-adv-x="602" 
d="M571 0h-243l-119 944h-8q8 -136 8 -508v-436h-178v1360h276l84 -875h8q-8 258 -8 572v303h180v-1360z" />
    <glyph glyph-name="O" unicode="O" 
d="M528 1092v-836q0 -132 -64 -199t-185 -67q-123 0 -188.5 69.5t-65.5 198.5v838q0 129 65.5 200.5t185.5 71.5t186 -72.5t66 -203.5zM324 242v872q0 62 -48 62q-45 0 -45 -62v-872q0 -62 45 -62q48 0 48 62z" />
    <glyph glyph-name="O" unicode="&#x41e;" 
d="M528 1092v-836q0 -132 -64 -199t-185 -67q-123 0 -188.5 69.5t-65.5 198.5v838q0 129 65.5 200.5t185.5 71.5t186 -72.5t66 -203.5zM324 242v872q0 62 -48 62q-45 0 -45 -62v-872q0 -62 45 -62q48 0 48 62z" />
    <glyph glyph-name="O" unicode="&#x39f;" 
d="M528 1092v-836q0 -132 -64 -199t-185 -67q-123 0 -188.5 69.5t-65.5 198.5v838q0 129 65.5 200.5t185.5 71.5t186 -72.5t66 -203.5zM324 242v872q0 62 -48 62q-45 0 -45 -62v-872q0 -62 45 -62q48 0 48 62z" />
    <glyph glyph-name="P" unicode="P" horiz-adv-x="548" 
d="M326 516h-86v-516h-209v1360h295q107 0 154.5 -55t47.5 -160v-416q0 -105 -47.5 -159t-154.5 -54zM240 1174v-480h43q49 0 49 68v358q0 54 -49 54h-43z" />
    <glyph glyph-name="P" unicode="&#x420;" horiz-adv-x="548" 
d="M326 516h-86v-516h-209v1360h295q107 0 154.5 -55t47.5 -160v-416q0 -105 -47.5 -159t-154.5 -54zM240 1174v-480h43q49 0 49 68v358q0 54 -49 54h-43z" />
    <glyph glyph-name="P" unicode="&#x3a1;" horiz-adv-x="548" 
d="M326 516h-86v-516h-209v1360h295q107 0 154.5 -55t47.5 -160v-416q0 -105 -47.5 -159t-154.5 -54zM240 1174v-480h43q49 0 49 68v358q0 54 -49 54h-43z" />
    <glyph glyph-name="Q" unicode="Q" horiz-adv-x="552" 
d="M528 1092v-834q0 -203 -161 -248v-264q0 -39 36 -39q35 0 35 39v225h185v-211q0 -237 -213 -237q-220 0 -220 237v250q-79 21 -122 84t-43 166v832q0 133 62.5 204.5t184.5 71.5q123 0 189.5 -72t66.5 -204zM324 252v858q0 30 -13 48t-37 18q-43 0 -43 -64v-860
q0 -33 10.5 -47.5t34.5 -14.5q48 0 48 62z" />
    <glyph glyph-name="R" unicode="R" horiz-adv-x="557" 
d="M236 0h-205v1360h297q106 0 153 -54.5t47 -160.5v-305q0 -67 -29.5 -111t-80.5 -53v-8q55 -8 84.5 -46t29.5 -118v-504h-204v522q0 58 -47 58h-45v-580zM328 817v303q0 54 -52 54h-40v-424h40q52 0 52 67z" />
    <glyph glyph-name="S" unicode="S" horiz-adv-x="577" 
d="M532 958h-194v158q0 60 -51 60q-25 0 -38 -15t-13 -39v-118q0 -57 7.5 -82t35.5 -56q33 -38 110.5 -107.5t104.5 -105.5q31 -42 44 -89.5t13 -127.5v-182q0 -131 -64 -197.5t-200 -66.5q-135 0 -198.5 66t-63.5 200v152h196v-168q0 -28 15 -44t43 -16q53 0 53 60v149
q0 71 -11.5 102.5t-44.5 67.5q-19 21 -63.5 65t-75 78.5t-51.5 71.5q-55 94 -55 240v114q0 116 64.5 178t187.5 62q132 0 190.5 -71.5t58.5 -204.5v-134z" />
    <glyph glyph-name="S" unicode="&#x405;" horiz-adv-x="577" 
d="M532 958h-194v158q0 60 -51 60q-25 0 -38 -15t-13 -39v-118q0 -57 7.5 -82t35.5 -56q33 -38 110.5 -107.5t104.5 -105.5q31 -42 44 -89.5t13 -127.5v-182q0 -131 -64 -197.5t-200 -66.5q-135 0 -198.5 66t-63.5 200v152h196v-168q0 -28 15 -44t43 -16q53 0 53 60v149
q0 71 -11.5 102.5t-44.5 67.5q-19 21 -63.5 65t-75 78.5t-51.5 71.5q-55 94 -55 240v114q0 116 64.5 178t187.5 62q132 0 190.5 -71.5t58.5 -204.5v-134z" />
    <glyph glyph-name="T" unicode="T" horiz-adv-x="536" 
d="M371 0h-207v1174h-146v186h500v-186h-147v-1174z" />
    <glyph glyph-name="T" unicode="&#x422;" horiz-adv-x="536" 
d="M371 0h-207v1174h-146v186h500v-186h-147v-1174z" />
    <glyph glyph-name="T" unicode="&#x3a4;" horiz-adv-x="536" 
d="M371 0h-207v1174h-146v186h500v-186h-147v-1174z" />
    <glyph glyph-name="U" unicode="U" horiz-adv-x="565" 
d="M326 242v1118h206v-1102q0 -130 -63.5 -199t-185.5 -69t-187 67t-65 199v1104h202v-1118q0 -62 48 -62q45 0 45 62z" />
    <glyph glyph-name="V" unicode="V" horiz-adv-x="571" 
d="M430 0h-291l-133 1360h207l72 -979h8l69 979h201z" />
    <glyph glyph-name="W" unicode="W" horiz-adv-x="847" 
d="M365 0h-265l-94 1360h201l43 -952h8l55 952h222l61 -952h8l41 952h197l-94 -1360h-265l-55 954h-8z" />
    <glyph glyph-name="X" unicode="X" horiz-adv-x="598" 
d="M381 1360h203l-150 -643l156 -717h-211l-78 461h-8l-78 -461h-209l160 688l-154 672h209l76 -428h8z" />
    <glyph glyph-name="X" unicode="&#x425;" horiz-adv-x="598" 
d="M381 1360h203l-150 -643l156 -717h-211l-78 461h-8l-78 -461h-209l160 688l-154 672h209l76 -428h8z" />
    <glyph glyph-name="X" unicode="&#x3a7;" horiz-adv-x="598" 
d="M381 1360h203l-150 -643l156 -717h-211l-78 461h-8l-78 -461h-209l160 688l-154 672h209l76 -428h8z" />
    <glyph glyph-name="Y" unicode="Y" horiz-adv-x="565" 
d="M391 0h-209v559l-178 801h205l76 -445h8l65 445h203l-170 -803v-557z" />
    <glyph glyph-name="Y" unicode="&#x4ae;" horiz-adv-x="565" 
d="M391 0h-209v559l-178 801h205l76 -445h8l65 445h203l-170 -803v-557z" />
    <glyph glyph-name="Y" unicode="&#x3a5;" horiz-adv-x="565" 
d="M391 0h-209v559l-178 801h205l76 -445h8l65 445h203l-170 -803v-557z" />
    <glyph glyph-name="Z" unicode="Z" horiz-adv-x="516" 
d="M498 0h-480v190l263 984h-261v186h469v-189l-258 -985h267v-186z" />
    <glyph glyph-name="Z" unicode="&#x396;" horiz-adv-x="516" 
d="M498 0h-480v190l263 984h-261v186h469v-189l-258 -985h267v-186z" />
    <glyph glyph-name="bracketleft" unicode="[" horiz-adv-x="344" 
d="M326 -266h-260v1739h260v-166h-107v-1409h107v-164z" />
    <glyph glyph-name="backslash" unicode="\" horiz-adv-x="321" 
d="M322 0h-162l-160 1360h162z" />
    <glyph glyph-name="bracketright" unicode="]" horiz-adv-x="344" 
d="M279 -266h-261v164h107v1409h-107v166h261v-1739z" />
    <glyph glyph-name="asciicircum" unicode="^" horiz-adv-x="526" 
d="M6 887l170 473h176l170 -473h-176l-80 291h-8l-80 -291h-172z" />
    <glyph glyph-name="underscore" unicode="_" horiz-adv-x="374" 
d="M379 -213h-379v127h379v-127z" />
    <glyph glyph-name="grave" unicode="`" horiz-adv-x="385" 
d="M276 1057l-245 207l102 118l219 -247z" />
    <glyph glyph-name="a" unicode="a" horiz-adv-x="544" 
d="M313 197v307q-14 -8 -51 -19q-43 -11 -43 -63v-213q0 -47 47 -47q38 0 47 35zM510 0h-184l-4 74h-9q-9 -17 -17 -28t-24 -26t-41.5 -22.5t-58.5 -7.5q-147 0 -147 166v229q0 96 41 142t143 73q60 15 81 28t21 44v133q0 41 -43 41q-47 0 -47 -47v-119h-184v143
q0 96 64 144.5t182 48.5q227 0 227 -180v-836z" />
    <glyph glyph-name="a" unicode="&#x430;" horiz-adv-x="544" 
d="M313 197v307q-14 -8 -51 -19q-43 -11 -43 -63v-213q0 -47 47 -47q38 0 47 35zM510 0h-184l-4 74h-9q-9 -17 -17 -28t-24 -26t-41.5 -22.5t-58.5 -7.5q-147 0 -147 166v229q0 96 41 142t143 73q60 15 81 28t21 44v133q0 41 -43 41q-47 0 -47 -47v-119h-184v143
q0 96 64 144.5t182 48.5q227 0 227 -180v-836z" />
    <glyph glyph-name="b" unicode="b" 
d="M215 0h-180v1376h196v-434h9q45 74 127 74q84 0 118.5 -60t34.5 -180v-559q0 -106 -41 -166.5t-117 -60.5q-92 0 -137 96h-8zM319 223v559q0 62 -47 62q-39 0 -45 -45v-590q6 -47 45 -47q47 0 47 61z" />
    <glyph glyph-name="c" unicode="c" horiz-adv-x="542" 
d="M319 229v136h189v-136q0 -121 -57 -180t-179 -59q-121 0 -179 58.5t-58 180.5v547q0 122 58.5 181t180.5 59q121 0 177.5 -59t56.5 -181v-129h-189v129q0 62 -45 62q-47 0 -47 -62v-547q0 -61 45 -61q47 0 47 61z" />
    <glyph glyph-name="c" unicode="&#x441;" horiz-adv-x="542" 
d="M319 229v136h189v-136q0 -121 -57 -180t-179 -59q-121 0 -179 58.5t-58 180.5v547q0 122 58.5 181t180.5 59q121 0 177.5 -59t56.5 -181v-129h-189v129q0 62 -45 62q-47 0 -47 -62v-547q0 -61 45 -61q47 0 47 61z" />
    <glyph glyph-name="d" unicode="d" 
d="M520 0h-180l-2 86h-8q-42 -96 -135 -96q-73 0 -116.5 49.5t-43.5 132.5v664q0 83 43.5 131.5t114.5 48.5q82 0 122 -74h9v434h196v-1376zM236 782v-559q0 -61 47 -61q39 0 45 47v590q-6 45 -45 45q-47 0 -47 -62z" />
    <glyph glyph-name="e" unicode="e" horiz-adv-x="550" 
d="M516 340v-111q0 -239 -244 -239q-121 0 -179 58.5t-58 180.5v547q0 122 58.5 181t180.5 59q242 0 242 -240v-330h-289v-221q0 -61 45 -61q47 0 47 61v115h197zM319 588v192q0 62 -45 62q-47 0 -47 -62v-192h92z" />
    <glyph glyph-name="e" unicode="&#x435;" horiz-adv-x="550" 
d="M516 340v-111q0 -239 -244 -239q-121 0 -179 58.5t-58 180.5v547q0 122 58.5 181t180.5 59q242 0 242 -240v-330h-289v-221q0 -61 45 -61q47 0 47 61v115h197zM319 588v192q0 62 -45 62q-47 0 -47 -62v-192h92z" />
    <glyph glyph-name="f" unicode="f" horiz-adv-x="434" 
d="M418 1008v-179h-121v-829h-199v829h-84v179h84v129q0 239 260 239h58v-178h-58q-61 0 -61 -61v-129h121z" />
    <glyph glyph-name="g" unicode="g" 
d="M520 -238q0 -239 -244 -239q-237 0 -237 239v177h190v-177q0 -61 47 -61q46 0 46 61v312h-9q-38 -74 -125 -74t-120 54t-33 169v608q0 86 43 135.5t115 49.5q87 0 137 -96h8l2 88h180v-1246zM236 782v-510q0 -51 8.5 -71.5t36.5 -20.5q47 0 47 80v500q0 84 -45 84
q-47 0 -47 -62z" />
    <glyph glyph-name="h" unicode="h" horiz-adv-x="559" 
d="M524 0h-200v793q0 51 -41 51q-44 0 -50 -62v-782h-198v1376h198v-442h9q37 82 131 82q80 0 115.5 -53t35.5 -140v-823z" />
    <glyph glyph-name="h" unicode="&#x4bb;" horiz-adv-x="559" 
d="M524 0h-200v793q0 51 -41 51q-44 0 -50 -62v-782h-198v1376h198v-442h9q37 82 131 82q80 0 115.5 -53t35.5 -140v-823z" />
    <glyph glyph-name="i" unicode="i" horiz-adv-x="270" 
d="M233 0h-198v1008h198v-1008zM233 1112h-198v182h198v-182z" />
    <glyph glyph-name="i" unicode="&#x456;" horiz-adv-x="270" 
d="M233 0h-198v1008h198v-1008zM233 1112h-198v182h198v-182z" />
    <glyph glyph-name="j" unicode="j" horiz-adv-x="270" 
d="M-248 -238v183h191v-183q0 -61 45 -61q47 0 47 61v1246h198v-1246q0 -121 -60 -180t-183 -59q-121 0 -179.5 58.5t-58.5 180.5zM233 1112h-198v182h198v-182z" />
    <glyph glyph-name="j" unicode="&#x458;" horiz-adv-x="270" 
d="M-248 -238v183h191v-183q0 -61 45 -61q47 0 47 61v1246h198v-1246q0 -121 -60 -180t-183 -59q-121 0 -179.5 58.5t-58.5 180.5zM233 1112h-198v182h198v-182z" />
    <glyph glyph-name="k" unicode="k" horiz-adv-x="552" 
d="M547 0h-209l-64 360h-8l-33 -102v-258h-198v1376h198v-723h9q11 63 94 355h213l-129 -414z" />
    <glyph glyph-name="l" unicode="l" horiz-adv-x="270" 
d="M233 0h-198v1376h198v-1376z" />
    <glyph glyph-name="m" unicode="m" horiz-adv-x="841" 
d="M805 0h-201v793q0 51 -41 51q-38 0 -47 -45v-799h-192v793q0 51 -41 51q-38 0 -50 -45v-799h-198v1008h186l4 -88h8q43 96 127 96q48 0 86.5 -28.5t55.5 -78.5q51 107 143 107q69 0 114.5 -50t45.5 -132v-834z" />
    <glyph glyph-name="n" unicode="n" horiz-adv-x="559" 
d="M524 0h-200v793q0 51 -41 51q-38 0 -50 -45v-799h-198v1008h186l4 -88h8q45 96 138 96q69 0 111 -48.5t42 -133.5v-834z" />
    <glyph glyph-name="o" unicode="o" horiz-adv-x="548" 
d="M514 776v-547q0 -122 -59 -180.5t-181 -58.5q-123 0 -181 58t-58 181v547q0 123 58 181.5t181 58.5q122 0 181 -58.5t59 -181.5zM319 229v547q0 62 -45 62q-47 0 -47 -62v-547q0 -61 47 -61q45 0 45 61z" />
    <glyph glyph-name="o" unicode="&#x43e;" horiz-adv-x="548" 
d="M514 776v-547q0 -122 -59 -180.5t-181 -58.5q-123 0 -181 58t-58 181v547q0 123 58 181.5t181 58.5q122 0 181 -58.5t59 -181.5zM319 229v547q0 62 -45 62q-47 0 -47 -62v-547q0 -61 47 -61q45 0 45 61z" />
    <glyph glyph-name="o" unicode="&#x3bf;" horiz-adv-x="548" 
d="M514 776v-547q0 -122 -59 -180.5t-181 -58.5q-123 0 -181 58t-58 181v547q0 123 58 181.5t181 58.5q122 0 181 -58.5t59 -181.5zM319 229v547q0 62 -45 62q-47 0 -47 -62v-547q0 -61 47 -61q45 0 45 61z" />
    <glyph glyph-name="p" unicode="p" 
d="M319 223v559q0 62 -47 62q-39 0 -45 -45v-590q6 -47 45 -47q47 0 47 61zM231 -477h-196v1485h180l2 -88h8q25 51 56.5 73.5t78.5 22.5q74 0 117 -48.5t43 -131.5v-664q0 -83 -43.5 -132.5t-114.5 -49.5q-83 0 -122 73h-9v-540z" />
    <glyph glyph-name="p" unicode="&#x440;" 
d="M319 223v559q0 62 -47 62q-39 0 -45 -45v-590q6 -47 45 -47q47 0 47 61zM231 -477h-196v1485h180l2 -88h8q25 51 56.5 73.5t78.5 22.5q74 0 117 -48.5t43 -131.5v-664q0 -83 -43.5 -132.5t-114.5 -49.5q-83 0 -122 73h-9v-540z" />
    <glyph glyph-name="q" unicode="q" 
d="M803 -55v-183q0 -122 -58.5 -180.5t-179.5 -58.5q-123 0 -182 58.5t-59 180.5v301h-9q-42 -73 -127 -73q-86 0 -119.5 59.5t-33.5 177.5v609q0 83 43 131.5t117 48.5q47 0 78.5 -22.5t56.5 -73.5h8l2 88h180v-1198q0 -64 8 -86.5t35 -22.5q49 0 49 61v183h191zM236 782
v-559q0 -61 45 -61q41 0 47 55v574q-8 53 -47 53q-45 0 -45 -62z" />
    <glyph glyph-name="r" unicode="r" horiz-adv-x="417" 
d="M233 0h-198v1008h186l4 -88h8q39 96 125 96q26 0 45 -8v-179q-24 9 -53 9q-63 0 -90 -31t-27 -94v-713z" />
    <glyph glyph-name="s" unicode="s" horiz-adv-x="540" 
d="M504 702h-187v109q0 43 -45 43q-47 0 -47 -39v-117q0 -26 7.5 -39.5t37.5 -35.5q21 -15 80.5 -49t87.5 -58q37 -31 55.5 -71.5t18.5 -112.5v-137q0 -103 -57.5 -154t-178.5 -51q-127 0 -187 53.5t-60 159.5v121h186v-127q0 -45 51 -45q47 0 47 38v136q0 26 -11.5 45
t-47.5 45q-12 9 -51 35t-67.5 48t-45.5 40q-53 58 -53 159v136q0 85 60.5 133.5t168.5 48.5q115 0 176.5 -56.5t61.5 -158.5v-99z" />
    <glyph glyph-name="s" unicode="&#x455;" horiz-adv-x="540" 
d="M504 702h-187v109q0 43 -45 43q-47 0 -47 -39v-117q0 -26 7.5 -39.5t37.5 -35.5q21 -15 80.5 -49t87.5 -58q37 -31 55.5 -71.5t18.5 -112.5v-137q0 -103 -57.5 -154t-178.5 -51q-127 0 -187 53.5t-60 159.5v121h186v-127q0 -45 51 -45q47 0 47 38v136q0 26 -11.5 45
t-47.5 45q-12 9 -51 35t-67.5 48t-45.5 40q-53 58 -53 159v136q0 85 60.5 133.5t168.5 48.5q115 0 176.5 -56.5t61.5 -158.5v-99z" />
    <glyph glyph-name="t" unicode="t" horiz-adv-x="524" 
d="M319 229v332h170v-332q0 -125 -48.5 -182t-166.5 -57q-123 0 -181 58.5t-58 180.5v1051h196v-272h258v-179h-258v-600q0 -61 45 -61q43 0 43 61z" />
    <glyph glyph-name="u" unicode="u" horiz-adv-x="557" 
d="M35 1008h201v-775q0 -42 8 -56.5t35 -14.5q26 0 34.5 15t8.5 56v775h200v-1008h-188l-2 86h-8q-27 -53 -58.5 -74.5t-79.5 -21.5t-79.5 17.5t-46.5 53t-20 74.5t-5 98v775z" />
    <glyph glyph-name="v" unicode="v" horiz-adv-x="522" 
d="M389 0h-260l-125 1008h199l57 -709h8l60 709h188z" />
    <glyph glyph-name="v" unicode="&#x3bd;" horiz-adv-x="522" 
d="M389 0h-260l-125 1008h199l57 -709h8l60 709h188z" />
    <glyph glyph-name="w" unicode="w" horiz-adv-x="774" 
d="M332 0h-244l-84 1008h186l35 -670h8l52 670h202l56 -670h8l35 670h182l-84 -1008h-244l-49 690h-8z" />
    <glyph glyph-name="x" unicode="x" horiz-adv-x="546" 
d="M340 1008h197l-136 -476l142 -532h-207l-62 322h-8l-59 -322h-203l143 512l-137 496h203l61 -297h9z" />
    <glyph glyph-name="x" unicode="&#x445;" horiz-adv-x="546" 
d="M340 1008h197l-136 -476l142 -532h-207l-62 322h-8l-59 -322h-203l143 512l-137 496h203l61 -297h9z" />
    <glyph glyph-name="y" unicode="y" 
d="M236 1008v-766q0 -62 45 -62q44 0 47 62v766h192v-1246q0 -121 -60.5 -180t-183.5 -59q-121 0 -179 58.5t-58 180.5v177h190v-177q0 -61 47 -61q46 0 46 61v312h-9q-40 -74 -127 -74q-83 0 -117 50.5t-34 146.5v811h201z" />
    <glyph glyph-name="y" unicode="&#x443;" 
d="M236 1008v-766q0 -62 45 -62q44 0 47 62v766h192v-1246q0 -121 -60.5 -180t-183.5 -59q-121 0 -179 58.5t-58 180.5v177h190v-177q0 -61 47 -61q46 0 46 61v312h-9q-40 -74 -127 -74q-83 0 -117 50.5t-34 146.5v811h201z" />
    <glyph glyph-name="z" unicode="z" horiz-adv-x="466" 
d="M446 0h-426v184l220 645h-215v179h415v-179l-215 -647h221v-182z" />
    <glyph glyph-name="braceleft" unicode="{" horiz-adv-x="344" 
d="M326 -268h-88q-136 0 -136 217v502q0 73 -65 73v162q65 0 65 72v499q0 218 136 218h88v-154h-25q-45 0 -45 -64v-499q0 -119 -82 -150v-8q82 -31 82 -149v-502q0 -64 45 -64h25v-153z" />
    <glyph glyph-name="bar" unicode="|" horiz-adv-x="321" 
d="M238 -256h-154v1763h154v-1763z" />
    <glyph glyph-name="braceright" unicode="}" horiz-adv-x="344" 
d="M106 -268h-88v153h25q45 0 45 64v502q0 118 82 149v8q-82 31 -82 150v499q0 64 -45 64h-25v154h88q136 0 136 -218v-499q0 -72 65 -72v-162q-65 0 -65 -73v-502q0 -217 -136 -217z" />
    <glyph glyph-name="asciitilde" unicode="~" horiz-adv-x="526" 
d="M362 590q-44 0 -109.5 18.5t-98.5 18.5q-64 0 -123 -56v162q55 47 129 47q44 0 110.5 -18.5t98.5 -18.5q73 0 125 52v-160q-53 -45 -132 -45z" />
    <glyph glyph-name="uni00A0" unicode="&#xa0;" horiz-adv-x="188" 
 />
    <glyph glyph-name="exclamdown" unicode="&#xa1;" horiz-adv-x="305" 
d="M51 1008h203v-201h-203v201zM82 653h139q37 -214 37 -417v-588h-213v514q0 263 37 491z" />
    <glyph glyph-name="cent" unicode="&#xa2;" horiz-adv-x="536" 
d="M348 -10h-155v192q-162 34 -162 234v553q0 197 162 231v172h155v-172q156 -33 156 -231v-133h-187v147q0 61 -47 61q-45 0 -45 -61v-584q0 -61 45 -61t45 61v154h189v-137q0 -101 -37.5 -158t-118.5 -76v-192z" />
    <glyph glyph-name="sterling" unicode="&#xa3;" 
d="M522 674v-187h-284v-297h284v-190h-491v1100q0 131 64 199.5t188 68.5q239 0 239 -266v-273h-192v287q0 62 -47 62q-45 0 -45 -62v-442h284z" />
    <glyph glyph-name="currency" unicode="&#xa4;" horiz-adv-x="657" 
d="M532 375l-75 82q-65 -35 -125 -35q-64 0 -129 35l-74 -82l-98 98l82 74q-35 65 -35 129q0 60 35 125l-78 73l94 97l72 -78q65 35 129 35q59 0 131 -35l69 78l97 -97l-78 -69q35 -72 35 -131q0 -62 -35 -127l78 -74zM469 676q0 57 -41 97t-98 40q-58 0 -97.5 -40.5
t-39.5 -98.5t40 -97.5t99 -39.5q56 0 96.5 40t40.5 99z" />
    <glyph glyph-name="yen" unicode="&#xa5;" horiz-adv-x="565" 
d="M383 0h-193v176h-129v123h129v160h-129v123h129v14l-186 764h199l82 -442h8l72 442h196l-178 -764v-14h139v-123h-139v-160h139v-123h-139v-176z" />
    <glyph glyph-name="brokenbar" unicode="&#xa6;" horiz-adv-x="321" 
d="M238 -256h-154v786h154v-786zM238 729h-154v778h154v-778z" />
    <glyph glyph-name="section" unicode="&#xa7;" horiz-adv-x="466" 
d="M227 1368q97 0 146 -54.5t49 -152.5v-98h-152v117q0 45 -37 45q-19 0 -29.5 -11.5t-10.5 -29.5v-150q0 -31 25 -59t60.5 -52t71.5 -52t61 -72.5t25 -100.5v-305q0 -109 -51 -160q51 -57 51 -155v-156q0 -107 -48.5 -158t-151.5 -51q-106 0 -155.5 54t-49.5 163v101h153
v-129q0 -45 41 -45t41 41v170q0 28 -24 53.5t-58 50.5t-67.5 55.5t-57.5 81t-24 115.5v295q0 100 65 147q-65 65 -65 178v140q0 87 50 135.5t142 48.5zM193 733v-319q0 -15 11.5 -31.5t55.5 -54.5q6 9 6 88v272q0 22 -9 38.5t-42 43.5q-22 -6 -22 -37z" />
    <glyph glyph-name="dieresis" unicode="&#xa8;" horiz-adv-x="489" 
d="M215 1112h-184v182h184v-182zM457 1112h-185v182h185v-182z" />
    <glyph glyph-name="copyright" unicode="&#xa9;" horiz-adv-x="567" 
d="M535 1092v-836q0 -266 -250 -266q-124 0 -189 69t-65 199v838q0 130 65.5 201t186.5 71t186.5 -72.5t65.5 -203.5zM459 256v836q0 97 -45.5 148.5t-130.5 51.5q-84 0 -129 -51.5t-45 -144.5v-838q0 -93 44.5 -141.5t131.5 -48.5q174 0 174 188zM399 766h-75v113
q0 43 -35 43q-37 0 -37 -50v-395q0 -47 35 -47q37 0 37 45v146h75v-140q0 -123 -112 -123q-115 0 -115 125v385q0 60 29.5 93.5t83.5 33.5q55 0 84.5 -34t29.5 -95v-100z" />
    <glyph glyph-name="ordfeminine" unicode="&#xaa;" horiz-adv-x="358" 
d="M326 752h-113l-2 45h-4q-26 -52 -86 -52q-90 0 -90 101v139q0 55 24 84.5t88 46.5q26 6 36 9.5t18 11.5t8 22v82q0 25 -27 25q-26 0 -26 -29v-72h-113v86q0 117 149 117q138 0 138 -108v-508zM207 870v187q-35 -10 -46 -21t-11 -28v-129q0 -29 28 -29q22 0 29 20z" />
    <glyph glyph-name="guillemotleft" unicode="&#xab;" horiz-adv-x="473" 
d="M184 391l-176 260l176 260l78 -75l-127 -185l127 -184zM385 391l-176 260l176 260l78 -75l-127 -185l127 -184z" />
    <glyph glyph-name="logicalnot" unicode="&#xac;" horiz-adv-x="526" 
d="M494 102h-154v686h-309v154h463v-840z" />
    <glyph glyph-name="registered" unicode="&#xae;" horiz-adv-x="440" 
d="M408 1163v-381q0 -198 -187 -198q-93 0 -141.5 51t-48.5 149v379q0 98 48.5 151.5t139.5 53.5t140 -53.5t49 -151.5zM350 782v381q0 71 -34.5 109.5t-96.5 38.5t-96.5 -38.5t-34.5 -109.5v-379q0 -143 133 -143q129 0 129 141zM307 786h-59v142q0 26 -29 26h-26v-168h-60
v412h105q69 0 69 -76v-82q0 -52 -37 -55v-6q37 -9 37 -57v-136zM248 1026v96q0 23 -21 23h-34v-141h34q21 0 21 22z" />
    <glyph glyph-name="macron" unicode="&#xaf;" horiz-adv-x="438" 
d="M406 1130h-375v123h375v-123z" />
    <glyph glyph-name="degree" unicode="&#xb0;" horiz-adv-x="258" 
d="M129 1108q-117 0 -117 135q0 133 117 133t117 -133q0 -135 -117 -135zM129 1180q23 0 33 14.5t10 48.5q0 64 -43 64t-43 -64q0 -34 10 -48.5t33 -14.5z" />
    <glyph glyph-name="plusminus" unicode="&#xb1;" horiz-adv-x="526" 
d="M338 451h-154v155h-153v154h153v153h154v-153h156v-154h-156v-155zM494 139h-463v154h463v-154z" />
    <glyph glyph-name="twosuperior" unicode="&#xb2;" horiz-adv-x="303" 
d="M276 727h-245v131q0 74 39 129q14 20 48.5 56.5t41.5 46.5q18 27 18 61v86q0 31 -24 31q-23 0 -23 -33v-96h-98v86q0 75 23.5 107t97.5 32q70 0 96 -29.5t26 -95.5v-90q0 -65 -34 -107q-7 -9 -33.5 -39t-48.5 -57q-25 -32 -25 -65v-64h141v-90z" />
    <glyph glyph-name="threesuperior" unicode="&#xb3;" horiz-adv-x="303" 
d="M276 971v-115q0 -65 -31 -100t-91 -35q-123 0 -123 133v82h98v-88q0 -31 23 -31q22 0 22 31v131q0 33 -29 33h-32v86h34q27 0 27 35v104q0 31 -22 31q-23 0 -23 -31v-72h-98v60q0 66 31.5 102.5t89.5 36.5q57 0 87.5 -35t30.5 -82v-104q0 -71 -53 -80v-6q59 -10 59 -86z
" />
    <glyph glyph-name="acute" unicode="&#xb4;" horiz-adv-x="385" 
d="M352 1264l-246 -207l-75 78l221 247z" />
    <glyph glyph-name="paragraph" unicode="&#xb6;" horiz-adv-x="571" 
d="M532 -205h-163v1403h-93v-1403h-163v1155q-95 15 -95 115v184q0 111 148 111h405l-39 -164v-1401z" />
    <glyph glyph-name="periodcentered" unicode="&#xb7;" horiz-adv-x="266" 
d="M233 582h-202v200h202v-200z" />
    <glyph glyph-name="cedilla" unicode="&#xb8;" horiz-adv-x="239" 
d="M33 -455v88q44 8 65 26.5t21 55.5v54h-88v192h178v-192q0 -112 -42.5 -165.5t-133.5 -58.5z" />
    <glyph glyph-name="onesuperior" unicode="&#xb9;" horiz-adv-x="208" 
d="M176 727h-100v506h-51v82q56 0 63 45h88v-633z" />
    <glyph glyph-name="ordmasculine" unicode="&#xba;" horiz-adv-x="354" 
d="M322 1225v-332q0 -148 -146 -148q-145 0 -145 148v332q0 73 35.5 108t109.5 35q146 0 146 -143zM205 893v332q0 37 -29 37t-29 -37v-332q0 -39 29 -39t29 39z" />
    <glyph glyph-name="guillemotright" unicode="&#xbb;" horiz-adv-x="473" 
d="M86 393l-78 74l127 186l-127 185l78 73l176 -258zM287 393l-78 74l127 186l-127 185l78 73l176 -258z" />
    <glyph glyph-name="onequarter" unicode="&#xbc;" horiz-adv-x="614" 
d="M186 727h-100v506h-51v82q56 0 63 45h88v-633zM160 -33h-111l365 1426h110zM537 0h-99v133h-123v86l103 414h119v-414h38v-86h-38v-133zM438 219v203h-6l-49 -203h55z" />
    <glyph glyph-name="onehalf" unicode="&#xbd;" horiz-adv-x="614" 
d="M145 -33h-110l364 1426h111zM170 727h-100v506h-52v82q57 0 64 45h88v-633zM594 0h-246v131q0 74 39 129q14 20 48.5 56t41.5 46q19 28 19 62v86q0 31 -25 31q-22 0 -22 -33v-96h-99v86q0 75 23.5 107t97.5 32q71 0 97 -29.5t26 -95.5v-90q0 -64 -35 -107
q-7 -9 -33.5 -39t-48.5 -57q-24 -31 -24 -65v-64h141v-90z" />
    <glyph glyph-name="threequarters" unicode="&#xbe;" horiz-adv-x="614" 
d="M264 971v-115q0 -65 -31.5 -100t-91.5 -35q-123 0 -123 133v82h99v-88q0 -31 22 -31q23 0 23 31v131q0 33 -29 33h-33v86h35q27 0 27 35v104q0 31 -23 31q-22 0 -22 -31v-72h-99v60q0 66 31.5 102.5t89.5 36.5t88.5 -35t30.5 -82v-104q0 -71 -53 -80v-6q59 -10 59 -86z
M197 -33h-111l365 1426h110zM553 0h-98v133h-123v86l102 414h119v-414h39v-86h-39v-133zM455 219v203h-6l-50 -203h56z" />
    <glyph glyph-name="questiondown" unicode="&#xbf;" horiz-adv-x="532" 
d="M166 1008h203v-191h-203v191zM172 664h190v-148q0 -103 -26 -166q-9 -22 -49 -88t-49 -92q-13 -44 -13 -102v-166q0 -37 10.5 -53.5t36.5 -16.5t35.5 19t9.5 63v129h195v-88q0 -70 -4.5 -114.5t-18.5 -86.5t-41 -65t-72.5 -37t-111.5 -14q-74 0 -120.5 16t-71.5 53.5
t-34 87.5t-9 131v152q0 88 20 143q13 35 50.5 98.5t52.5 100.5q20 51 20 131v113z" />
    <glyph glyph-name="Agrave" unicode="&#xc0;" horiz-adv-x="571" 
d="M563 0h-207l-22 309h-105l-20 -309h-203l133 1360h291zM279 1014l-37 -527h80l-35 527h-8zM336 1395l-246 207l103 118l219 -247z" />
    <glyph glyph-name="Aacute" unicode="&#xc1;" horiz-adv-x="571" 
d="M563 0h-207l-22 309h-105l-20 -309h-203l133 1360h291zM279 1014l-37 -527h80l-35 527h-8zM473 1602l-246 -207l-75 78l221 247z" />
    <glyph glyph-name="Acircumflex" unicode="&#xc2;" horiz-adv-x="571" 
d="M563 0h-207l-22 309h-105l-20 -309h-203l133 1360h291zM279 1014l-37 -527h80l-35 527h-8zM496 1462l-86 -67l-131 149l-132 -149l-86 67l129 197h177z" />
    <glyph glyph-name="Atilde" unicode="&#xc3;" horiz-adv-x="571" 
d="M563 0h-207l-22 309h-105l-20 -309h-203l133 1360h291zM279 1014l-37 -527h80l-35 527h-8zM416 1581l84 -45q-11 -60 -43 -89.5t-76 -29.5q-36 0 -92 26.5t-84 26.5q-43 0 -55 -49l-84 47q23 117 120 117q35 0 90.5 -26.5t83.5 -26.5q43 0 56 49z" />
    <glyph glyph-name="Adieresis" unicode="&#xc4;" horiz-adv-x="571" 
d="M563 0h-207l-22 309h-105l-20 -309h-203l133 1360h291zM279 1014l-37 -527h80l-35 527h-8zM256 1450h-184v182h184v-182zM498 1450h-185v182h185v-182z" />
    <glyph glyph-name="Aring" unicode="&#xc5;" horiz-adv-x="571" 
d="M563 0h-207l-22 309h-105l-20 -309h-203l133 1360h291zM279 1014l-37 -527h80l-35 527h-8zM283 1475q55 0 55 73q0 74 -55 74q-27 0 -41.5 -20t-14.5 -54q0 -73 56 -73zM283 1395q-68 0 -103 40.5t-35 112.5t35 113t103 41q67 0 102 -41t35 -113t-34.5 -112.5
t-102.5 -40.5z" />
    <glyph glyph-name="AE" unicode="&#xc6;" horiz-adv-x="749" 
d="M735 0h-397v309h-107l-22 -309h-203l133 1360h584v-186h-180v-367h157v-189h-157v-432h192v-186zM295 1174l-45 -687h88v687h-43z" />
    <glyph glyph-name="Ccedilla" unicode="&#xc7;" horiz-adv-x="557" 
d="M330 242v313h194v-299q0 -266 -243 -266q-122 0 -186 69t-64 199v846q0 264 248 264q122 0 183.5 -63t61.5 -199v-234h-194v242q0 62 -47 62q-45 0 -45 -62v-872q0 -33 9.5 -47.5t33.5 -14.5q49 0 49 62zM186 -455v88q44 8 65 26.5t21 55.5v54h-88v192h178v-192
q0 -112 -42.5 -165.5t-133.5 -58.5z" />
    <glyph glyph-name="Egrave" unicode="&#xc8;" horiz-adv-x="442" 
d="M428 0h-397v1360h385v-186h-180v-367h157v-189h-157v-432h192v-186zM279 1395l-246 207l102 118l219 -247z" />
    <glyph glyph-name="Egrave" unicode="&#x400;" horiz-adv-x="442" 
d="M428 0h-397v1360h385v-186h-180v-367h157v-189h-157v-432h192v-186zM279 1395l-246 207l102 118l219 -247z" />
    <glyph glyph-name="Eacute" unicode="&#xc9;" horiz-adv-x="442" 
d="M428 0h-397v1360h385v-186h-180v-367h157v-189h-157v-432h192v-186zM420 1602l-246 -207l-76 78l221 247z" />
    <glyph glyph-name="Ecircumflex" unicode="&#xca;" horiz-adv-x="442" 
d="M428 0h-397v1360h385v-186h-180v-367h157v-189h-157v-432h192v-186zM442 1462l-86 -67l-131 149l-131 -149l-86 67l129 197h176z" />
    <glyph glyph-name="Edieresis" unicode="&#xcb;" horiz-adv-x="442" 
d="M428 0h-397v1360h385v-186h-180v-367h157v-189h-157v-432h192v-186zM195 1450h-185v182h185v-182zM436 1450h-184v182h184v-182z" />
    <glyph glyph-name="Edieresis" unicode="&#x401;" horiz-adv-x="442" 
d="M428 0h-397v1360h385v-186h-180v-367h157v-189h-157v-432h192v-186zM195 1450h-185v182h185v-182zM436 1450h-184v182h184v-182z" />
    <glyph glyph-name="Igrave" unicode="&#xcc;" horiz-adv-x="284" 
d="M252 0h-209v1360h209v-1360zM213 1395l-246 207l103 118l219 -247z" />
    <glyph glyph-name="Iacute" unicode="&#xcd;" horiz-adv-x="294" 
d="M240 0h-209v1360h209v-1360zM332 1602l-246 -207l-76 78l221 247z" />
    <glyph glyph-name="Icircumflex" unicode="&#xce;" horiz-adv-x="354" 
d="M281 0h-209v1360h209v-1360zM393 1462l-86 -67l-131 149l-131 -149l-86 67l129 197h176z" />
    <glyph glyph-name="Idieresis" unicode="&#xcf;" horiz-adv-x="344" 
d="M272 0h-209v1360h209v-1360zM141 1450h-184v182h184v-182zM383 1450h-184v182h184v-182z" />
    <glyph glyph-name="Idieresis" unicode="&#x407;" horiz-adv-x="344" 
d="M272 0h-209v1360h209v-1360zM141 1450h-184v182h184v-182zM383 1450h-184v182h184v-182z" />
    <glyph glyph-name="Idieresis" unicode="&#x3aa;" horiz-adv-x="344" 
d="M272 0h-209v1360h209v-1360zM141 1450h-184v182h184v-182zM383 1450h-184v182h184v-182z" />
    <glyph glyph-name="Eth" unicode="&#xd0;" horiz-adv-x="589" 
d="M315 0h-260v618h-55v189h55v553h260q119 0 181.5 -62t62.5 -184v-856q0 -258 -244 -258zM258 186h43q49 0 49 101v807q0 80 -61 80h-31v-367h57v-189h-57v-432z" />
    <glyph glyph-name="Eth" unicode="&#x110;" horiz-adv-x="589" 
d="M315 0h-260v618h-55v189h55v553h260q119 0 181.5 -62t62.5 -184v-856q0 -258 -244 -258zM258 186h43q49 0 49 101v807q0 80 -61 80h-31v-367h57v-189h-57v-432z" />
    <glyph glyph-name="Ntilde" unicode="&#xd1;" horiz-adv-x="602" 
d="M571 0h-243l-119 944h-8q8 -136 8 -508v-436h-178v1360h276l84 -875h8q-8 258 -8 572v303h180v-1360zM432 1581l84 -45q-11 -60 -43 -89.5t-76 -29.5q-36 0 -92 26.5t-84 26.5q-43 0 -55 -49l-84 47q12 59 44 88t77 29q35 0 90.5 -26.5t83.5 -26.5q42 0 55 49z" />
    <glyph glyph-name="Ograve" unicode="&#xd2;" 
d="M528 1092v-836q0 -132 -64 -199t-185 -67q-123 0 -188.5 69.5t-65.5 198.5v838q0 129 65.5 200.5t185.5 71.5t186 -72.5t66 -203.5zM324 242v872q0 62 -48 62q-45 0 -45 -62v-872q0 -62 45 -62q48 0 48 62zM332 1395l-246 207l102 118l220 -247z" />
    <glyph glyph-name="Oacute" unicode="&#xd3;" 
d="M528 1092v-836q0 -132 -64 -199t-185 -67q-123 0 -188.5 69.5t-65.5 198.5v838q0 129 65.5 200.5t185.5 71.5t186 -72.5t66 -203.5zM324 242v872q0 62 -48 62q-45 0 -45 -62v-872q0 -62 45 -62q48 0 48 62zM469 1602l-246 -207l-76 78l222 247z" />
    <glyph glyph-name="Ocircumflex" unicode="&#xd4;" 
d="M528 1092v-836q0 -132 -64 -199t-185 -67q-123 0 -188.5 69.5t-65.5 198.5v838q0 129 65.5 200.5t185.5 71.5t186 -72.5t66 -203.5zM324 242v872q0 62 -48 62q-45 0 -45 -62v-872q0 -62 45 -62q48 0 48 62zM496 1462l-86 -67l-131 149l-132 -149l-86 67l129 197h177z" />
    <glyph glyph-name="Otilde" unicode="&#xd5;" 
d="M528 1092v-836q0 -132 -64 -199t-185 -67q-123 0 -188.5 69.5t-65.5 198.5v838q0 129 65.5 200.5t185.5 71.5t186 -72.5t66 -203.5zM324 242v872q0 62 -48 62q-45 0 -45 -62v-872q0 -62 45 -62q48 0 48 62zM412 1581l84 -45q-11 -60 -43 -89.5t-76 -29.5q-36 0 -92 26.5
t-84 26.5q-44 0 -56 -49l-84 47q12 59 44 88t77 29q35 0 90.5 -26.5t83.5 -26.5q43 0 56 49z" />
    <glyph glyph-name="Odieresis" unicode="&#xd6;" 
d="M528 1092v-836q0 -132 -64 -199t-185 -67q-123 0 -188.5 69.5t-65.5 198.5v838q0 129 65.5 200.5t185.5 71.5t186 -72.5t66 -203.5zM324 242v872q0 62 -48 62q-45 0 -45 -62v-872q0 -62 45 -62q48 0 48 62zM250 1450h-184v182h184v-182zM492 1450h-185v182h185v-182z" />
    <glyph glyph-name="multiply" unicode="&#xd7;" horiz-adv-x="526" 
d="M492 801l-121 -121l121 -119l-109 -108l-121 118l-121 -118l-106 108l119 119l-119 121l108 108l119 -121l119 121z" />
    <glyph glyph-name="Oslash" unicode="&#xd8;" 
d="M160 -33h-119l29 117q-45 62 -45 174v838q0 129 65.5 200.5t185.5 71.5q60 0 107 -18l10 43h123l-33 -127q45 -70 45 -174v-836q0 -132 -64 -199t-185 -67q-59 0 -109 16zM324 242v379h-9l-84 -369q0 -72 45 -72q48 0 48 62zM231 1114v-377h9l84 373q0 66 -48 66
q-45 0 -45 -62z" />
    <glyph glyph-name="Ugrave" unicode="&#xd9;" horiz-adv-x="565" 
d="M326 242v1118h206v-1102q0 -130 -63.5 -199t-185.5 -69t-187 67t-65 199v1104h202v-1118q0 -62 48 -62q45 0 45 62zM336 1395l-246 207l103 118l219 -247z" />
    <glyph glyph-name="Uacute" unicode="&#xda;" horiz-adv-x="565" 
d="M326 242v1118h206v-1102q0 -130 -63.5 -199t-185.5 -69t-187 67t-65 199v1104h202v-1118q0 -62 48 -62q45 0 45 62zM471 1602l-246 -207l-75 78l221 247z" />
    <glyph glyph-name="Ucircumflex" unicode="&#xdb;" horiz-adv-x="565" 
d="M326 242v1118h206v-1102q0 -130 -63.5 -199t-185.5 -69t-187 67t-65 199v1104h202v-1118q0 -62 48 -62q45 0 45 62zM496 1462l-86 -67l-131 149l-132 -149l-86 67l129 197h177z" />
    <glyph glyph-name="Udieresis" unicode="&#xdc;" horiz-adv-x="565" 
d="M326 242v1118h206v-1102q0 -130 -63.5 -199t-185.5 -69t-187 67t-65 199v1104h202v-1118q0 -62 48 -62q45 0 45 62zM254 1450h-184v182h184v-182zM496 1450h-185v182h185v-182z" />
    <glyph glyph-name="Yacute" unicode="&#xdd;" horiz-adv-x="565" 
d="M391 0h-209v559l-178 801h205l76 -445h8l65 445h203l-170 -803v-557zM481 1602l-245 -207l-76 78l221 247z" />
    <glyph glyph-name="Thorn" unicode="&#xde;" horiz-adv-x="557" 
d="M31 0v1360h209v-203h86q107 0 154.5 -53.5t47.5 -159.5v-457q0 -106 -47.5 -159.5t-154.5 -53.5h-86v-274h-209zM283 977h-43v-524h43q49 0 49 75v381q0 68 -49 68z" />
    <glyph glyph-name="germandbls" unicode="&#xdf;" horiz-adv-x="583" 
d="M362 229v328q0 64 -10.5 87.5t-50.5 23.5h-43v166h23q36 0 36 53v258q0 61 -47 61q-45 0 -45 -61v-1145h-194v1145q0 124 60.5 181.5t191.5 57.5q122 0 181.5 -48.5t59.5 -161.5v-254q0 -143 -106 -164v-8q74 -10 105.5 -66t31.5 -154v-299q0 -126 -50 -182.5t-175 -56.5
q-39 0 -72 10v164q18 -6 35 -6q69 0 69 71z" />
    <glyph glyph-name="agrave" unicode="&#xe0;" horiz-adv-x="544" 
d="M313 197v307q-14 -8 -51 -19q-43 -11 -43 -63v-213q0 -47 47 -47q38 0 47 35zM510 0h-184l-4 74h-9q-9 -17 -17 -28t-24 -26t-41.5 -22.5t-58.5 -7.5q-147 0 -147 166v229q0 96 41 142t143 73q60 15 81 28t21 44v133q0 41 -43 41q-47 0 -47 -47v-119h-184v143
q0 96 64 144.5t182 48.5q227 0 227 -180v-836zM326 1057l-246 207l102 118l219 -247z" />
    <glyph glyph-name="aacute" unicode="&#xe1;" horiz-adv-x="544" 
d="M313 197v307q-14 -8 -51 -19q-43 -11 -43 -63v-213q0 -47 47 -47q38 0 47 35zM510 0h-184l-4 74h-9q-9 -17 -17 -28t-24 -26t-41.5 -22.5t-58.5 -7.5q-147 0 -147 166v229q0 96 41 142t143 73q60 15 81 28t21 44v133q0 41 -43 41q-47 0 -47 -47v-119h-184v143
q0 96 64 144.5t182 48.5q227 0 227 -180v-836zM459 1264l-246 -207l-76 78l221 247z" />
    <glyph glyph-name="acircumflex" unicode="&#xe2;" horiz-adv-x="544" 
d="M313 197v307q-14 -8 -51 -19q-43 -11 -43 -63v-213q0 -47 47 -47q38 0 47 35zM510 0h-184l-4 74h-9q-9 -17 -17 -28t-24 -26t-41.5 -22.5t-58.5 -7.5q-147 0 -147 166v229q0 96 41 142t143 73q60 15 81 28t21 44v133q0 41 -43 41q-47 0 -47 -47v-119h-184v143
q0 96 64 144.5t182 48.5q227 0 227 -180v-836zM483 1124l-86 -67l-131 149l-131 -149l-86 67l129 197h176z" />
    <glyph glyph-name="atilde" unicode="&#xe3;" horiz-adv-x="544" 
d="M313 197v307q-14 -8 -51 -19q-43 -11 -43 -63v-213q0 -47 47 -47q38 0 47 35zM510 0h-184l-4 74h-9q-9 -17 -17 -28t-24 -26t-41.5 -22.5t-58.5 -7.5q-147 0 -147 166v229q0 96 41 142t143 73q60 15 81 28t21 44v133q0 41 -43 41q-47 0 -47 -47v-119h-184v143
q0 96 64 144.5t182 48.5q227 0 227 -180v-836zM401 1243l84 -45q-11 -60 -42.5 -89.5t-75.5 -29.5q-36 0 -92.5 27t-84.5 27q-43 0 -55 -50l-84 47q12 59 44 88t77 29q35 0 90.5 -26.5t83.5 -26.5q42 0 55 49z" />
    <glyph glyph-name="adieresis" unicode="&#xe4;" horiz-adv-x="544" 
d="M313 197v307q-14 -8 -51 -19q-43 -11 -43 -63v-213q0 -47 47 -47q38 0 47 35zM510 0h-184l-4 74h-9q-9 -17 -17 -28t-24 -26t-41.5 -22.5t-58.5 -7.5q-147 0 -147 166v229q0 96 41 142t143 73q60 15 81 28t21 44v133q0 41 -43 41q-47 0 -47 -47v-119h-184v143
q0 96 64 144.5t182 48.5q227 0 227 -180v-836zM242 1112h-185v182h185v-182zM483 1112h-184v182h184v-182z" />
    <glyph glyph-name="aring" unicode="&#xe5;" horiz-adv-x="544" 
d="M313 197v307q-14 -8 -51 -19q-43 -11 -43 -63v-213q0 -47 47 -47q38 0 47 35zM510 0h-184l-4 74h-9q-9 -17 -17 -28t-24 -26t-41.5 -22.5t-58.5 -7.5q-147 0 -147 166v229q0 96 41 142t143 73q60 15 81 28t21 44v133q0 41 -43 41q-47 0 -47 -47v-119h-184v143
q0 96 64 144.5t182 48.5q227 0 227 -180v-836zM272 1137q56 0 56 73q0 34 -14.5 54t-41.5 20q-55 0 -55 -74q0 -73 55 -73zM272 1057q-68 0 -102.5 40.5t-34.5 112.5t35 113t102 41q68 0 103 -41t35 -113t-35 -112.5t-103 -40.5z" />
    <glyph glyph-name="ae" unicode="&#xe6;" horiz-adv-x="827" 
d="M795 340v-111q0 -239 -244 -239q-165 0 -215 112h-8q-21 -55 -55.5 -83.5t-100.5 -28.5q-147 0 -147 166v229q0 96 41 142t143 73q60 15 81 28t21 44v133q0 41 -43 41q-47 0 -47 -47v-119h-184v143q0 96 64 144.5t182 48.5q85 0 137 -27q53 27 133 27q242 0 242 -240
v-330h-289v-221q0 -61 45 -61q47 0 47 61v115h197zM313 197v307q-14 -8 -51 -19q-43 -11 -43 -63v-213q0 -47 47 -47q38 0 47 35zM598 588v192q0 62 -45 62q-47 0 -47 -62v-192h92z" />
    <glyph glyph-name="ccedilla" unicode="&#xe7;" horiz-adv-x="542" 
d="M319 229v136h189v-136q0 -121 -57 -180t-179 -59q-121 0 -179 58.5t-58 180.5v547q0 122 58.5 181t180.5 59q121 0 177.5 -59t56.5 -181v-129h-189v129q0 62 -45 62q-47 0 -47 -62v-547q0 -61 45 -61q47 0 47 61zM186 -455v88q44 8 65 26.5t21 55.5v54h-88v192h178v-192
q0 -112 -42.5 -165.5t-133.5 -58.5z" />
    <glyph glyph-name="egrave" unicode="&#xe8;" horiz-adv-x="550" 
d="M516 340v-111q0 -239 -244 -239q-121 0 -179 58.5t-58 180.5v547q0 122 58.5 181t180.5 59q242 0 242 -240v-330h-289v-221q0 -61 45 -61q47 0 47 61v115h197zM319 588v192q0 62 -45 62q-47 0 -47 -62v-192h92zM328 1057l-246 207l102 118l219 -247z" />
    <glyph glyph-name="egrave" unicode="&#x450;" horiz-adv-x="550" 
d="M516 340v-111q0 -239 -244 -239q-121 0 -179 58.5t-58 180.5v547q0 122 58.5 181t180.5 59q242 0 242 -240v-330h-289v-221q0 -61 45 -61q47 0 47 61v115h197zM319 588v192q0 62 -45 62q-47 0 -47 -62v-192h92zM328 1057l-246 207l102 118l219 -247z" />
    <glyph glyph-name="eacute" unicode="&#xe9;" horiz-adv-x="550" 
d="M516 340v-111q0 -239 -244 -239q-121 0 -179 58.5t-58 180.5v547q0 122 58.5 181t180.5 59q242 0 242 -240v-330h-289v-221q0 -61 45 -61q47 0 47 61v115h197zM319 588v192q0 62 -45 62q-47 0 -47 -62v-192h92zM465 1264l-246 -207l-76 78l222 247z" />
    <glyph glyph-name="ecircumflex" unicode="&#xea;" horiz-adv-x="550" 
d="M516 340v-111q0 -239 -244 -239q-121 0 -179 58.5t-58 180.5v547q0 122 58.5 181t180.5 59q242 0 242 -240v-330h-289v-221q0 -61 45 -61q47 0 47 61v115h197zM319 588v192q0 62 -45 62q-47 0 -47 -62v-192h92zM489 1124l-86 -67l-131 149l-131 -149l-86 67l129 197h176z
" />
    <glyph glyph-name="edieresis" unicode="&#xeb;" horiz-adv-x="550" 
d="M516 340v-111q0 -239 -244 -239q-121 0 -179 58.5t-58 180.5v547q0 122 58.5 181t180.5 59q242 0 242 -240v-330h-289v-221q0 -61 45 -61q47 0 47 61v115h197zM319 588v192q0 62 -45 62q-47 0 -47 -62v-192h92zM248 1112h-185v182h185v-182zM489 1112h-184v182h184v-182z
" />
    <glyph glyph-name="edieresis" unicode="&#x451;" horiz-adv-x="550" 
d="M516 340v-111q0 -239 -244 -239q-121 0 -179 58.5t-58 180.5v547q0 122 58.5 181t180.5 59q242 0 242 -240v-330h-289v-221q0 -61 45 -61q47 0 47 61v115h197zM319 588v192q0 62 -45 62q-47 0 -47 -62v-192h92zM248 1112h-185v182h185v-182zM489 1112h-184v182h184v-182z
" />
    <glyph glyph-name="igrave" unicode="&#xec;" horiz-adv-x="319" 
d="M244 1057l-246 207l102 118l219 -247zM283 0h-199v1008h199v-1008z" />
    <glyph glyph-name="iacute" unicode="&#xed;" horiz-adv-x="331" 
d="M332 1264l-246 -207l-76 78l221 247zM233 0h-198v1008h198v-1008z" />
    <glyph glyph-name="icircumflex" unicode="&#xee;" horiz-adv-x="397" 
d="M295 0h-199v1008h199v-1008zM414 1124l-86 -67l-131 149l-131 -149l-86 67l129 197h176z" />
    <glyph glyph-name="idieresis" unicode="&#xef;" horiz-adv-x="350" 
d="M145 1112h-184v182h184v-182zM387 1112h-184v182h184v-182zM270 0h-198v1008h198v-1008z" />
    <glyph glyph-name="idieresis" unicode="&#x457;" horiz-adv-x="350" 
d="M145 1112h-184v182h184v-182zM387 1112h-184v182h184v-182zM270 0h-198v1008h198v-1008z" />
    <glyph glyph-name="eth" unicode="&#xf0;" horiz-adv-x="557" 
d="M522 1354v-88l-82 -43q82 -146 82 -355v-559q0 -70 -6 -118.5t-21 -89t-43 -63.5t-71 -35.5t-105 -12.5q-78 0 -127.5 17.5t-73.5 54.5t-32 79.5t-8 108.5v543q0 85 42.5 133.5t115.5 48.5q92 0 131 -74h8q0 151 -41 244l-154 -80v88l119 61q-56 103 -135 162h170
q61 -34 106 -88zM283 162q45 0 45 61v533q-9 47 -47 47q-45 0 -45 -70v-510q0 -61 47 -61z" />
    <glyph glyph-name="ntilde" unicode="&#xf1;" horiz-adv-x="559" 
d="M524 0h-200v793q0 51 -41 51q-38 0 -50 -45v-799h-198v1008h186l4 -88h8q45 96 138 96q69 0 111 -48.5t42 -133.5v-834zM412 1243l84 -45q-11 -60 -43 -89.5t-76 -29.5q-36 0 -92 27t-84 27q-44 0 -56 -50l-84 47q12 59 44 88t77 29q35 0 90.5 -26.5t83.5 -26.5
q43 0 56 49z" />
    <glyph glyph-name="ograve" unicode="&#xf2;" horiz-adv-x="548" 
d="M514 776v-547q0 -122 -59 -180.5t-181 -58.5q-123 0 -181 58t-58 181v547q0 123 58 181.5t181 58.5q122 0 181 -58.5t59 -181.5zM319 229v547q0 62 -45 62q-47 0 -47 -62v-547q0 -61 47 -61q45 0 45 61zM328 1057l-246 207l102 118l219 -247z" />
    <glyph glyph-name="oacute" unicode="&#xf3;" horiz-adv-x="548" 
d="M514 776v-547q0 -122 -59 -180.5t-181 -58.5q-123 0 -181 58t-58 181v547q0 123 58 181.5t181 58.5q122 0 181 -58.5t59 -181.5zM319 229v547q0 62 -45 62q-47 0 -47 -62v-547q0 -61 47 -61q45 0 45 61zM465 1264l-246 -207l-76 78l222 247z" />
    <glyph glyph-name="ocircumflex" unicode="&#xf4;" horiz-adv-x="548" 
d="M514 776v-547q0 -122 -59 -180.5t-181 -58.5q-123 0 -181 58t-58 181v547q0 123 58 181.5t181 58.5q122 0 181 -58.5t59 -181.5zM319 229v547q0 62 -45 62q-47 0 -47 -62v-547q0 -61 47 -61q45 0 45 61zM492 1124l-86 -67l-132 149l-131 -149l-86 67l129 197h176z" />
    <glyph glyph-name="otilde" unicode="&#xf5;" horiz-adv-x="548" 
d="M514 776v-547q0 -122 -59 -180.5t-181 -58.5q-123 0 -181 58t-58 181v547q0 123 58 181.5t181 58.5q122 0 181 -58.5t59 -181.5zM319 229v547q0 62 -45 62q-47 0 -47 -62v-547q0 -61 47 -61q45 0 45 61zM406 1243l83 -45q-11 -60 -42.5 -89.5t-75.5 -29.5q-36 0 -92 27
t-84 27q-44 0 -56 -50l-84 47q12 59 44 88t77 29q35 0 90.5 -26.5t83.5 -26.5q43 0 56 49z" />
    <glyph glyph-name="odieresis" unicode="&#xf6;" horiz-adv-x="548" 
d="M514 776v-547q0 -122 -59 -180.5t-181 -58.5q-123 0 -181 58t-58 181v547q0 123 58 181.5t181 58.5q122 0 181 -58.5t59 -181.5zM319 229v547q0 62 -45 62q-47 0 -47 -62v-547q0 -61 47 -61q45 0 45 61zM246 1112h-185v182h185v-182zM487 1112h-184v182h184v-182z" />
    <glyph glyph-name="divide" unicode="&#xf7;" horiz-adv-x="526" 
d="M494 606h-463v154h463v-154zM362 313h-202v191h202v-191zM362 862h-202v191h202v-191z" />
    <glyph glyph-name="oslash" unicode="&#xf8;" horiz-adv-x="548" 
d="M162 -27h-115l29 95q-41 55 -41 161v547q0 123 58 181.5t181 58.5q56 0 99 -12l10 30h115l-31 -92q47 -59 47 -166v-547q0 -122 -59 -180.5t-181 -58.5q-58 0 -104 12zM319 229v242h-8l-80 -274v-2q12 -27 43 -27q45 0 45 61zM227 776v-233h9l77 270q-13 25 -39 25
q-47 0 -47 -62z" />
    <glyph glyph-name="ugrave" unicode="&#xf9;" horiz-adv-x="557" 
d="M35 1008h201v-775q0 -42 8 -56.5t35 -14.5q26 0 34.5 15t8.5 56v775h200v-1008h-188l-2 86h-8q-27 -53 -58.5 -74.5t-79.5 -21.5t-79.5 17.5t-46.5 53t-20 74.5t-5 98v775zM334 1057l-246 207l102 118l220 -247z" />
    <glyph glyph-name="uacute" unicode="&#xfa;" horiz-adv-x="557" 
d="M35 1008h201v-775q0 -42 8 -56.5t35 -14.5q26 0 34.5 15t8.5 56v775h200v-1008h-188l-2 86h-8q-27 -53 -58.5 -74.5t-79.5 -21.5t-79.5 17.5t-46.5 53t-20 74.5t-5 98v775zM469 1264l-246 -207l-76 78l222 247z" />
    <glyph glyph-name="ucircumflex" unicode="&#xfb;" horiz-adv-x="557" 
d="M35 1008h201v-775q0 -42 8 -56.5t35 -14.5q26 0 34.5 15t8.5 56v775h200v-1008h-188l-2 86h-8q-27 -53 -58.5 -74.5t-79.5 -21.5t-79.5 17.5t-46.5 53t-20 74.5t-5 98v775zM496 1124l-86 -67l-131 149l-132 -149l-86 67l129 197h177z" />
    <glyph glyph-name="udieresis" unicode="&#xfc;" horiz-adv-x="557" 
d="M35 1008h201v-775q0 -42 8 -56.5t35 -14.5q26 0 34.5 15t8.5 56v775h200v-1008h-188l-2 86h-8q-27 -53 -58.5 -74.5t-79.5 -21.5t-79.5 17.5t-46.5 53t-20 74.5t-5 98v775zM248 1112h-185v182h185v-182zM489 1112h-184v182h184v-182z" />
    <glyph glyph-name="yacute" unicode="&#xfd;" 
d="M236 1008v-766q0 -62 45 -62q44 0 47 62v766h192v-1246q0 -121 -60.5 -180t-183.5 -59q-121 0 -179 58.5t-58 180.5v177h190v-177q0 -61 47 -61q46 0 46 61v312h-9q-40 -74 -127 -74q-83 0 -117 50.5t-34 146.5v811h201zM469 1264l-246 -207l-76 78l222 247z" />
    <glyph glyph-name="thorn" unicode="&#xfe;" 
d="M231 -477h-196v1853h196v-434h9q36 74 122 74q33 0 59 -10t49.5 -35.5t36.5 -77t13 -127.5v-496q0 -65 -5.5 -110t-20.5 -86.5t-47.5 -62.5t-81.5 -21q-91 0 -125 73h-9v-540zM319 223v559q0 62 -47 62q-39 0 -45 -45v-590q6 -47 45 -47q47 0 47 61z" />
    <glyph glyph-name="ydieresis" unicode="&#xff;" 
d="M236 1008v-766q0 -62 45 -62q44 0 47 62v766h192v-1246q0 -121 -60.5 -180t-183.5 -59q-121 0 -179 58.5t-58 180.5v177h190v-177q0 -61 47 -61q46 0 46 61v312h-9q-40 -74 -127 -74q-83 0 -117 50.5t-34 146.5v811h201zM254 1112h-184v182h184v-182zM496 1112h-185v182
h185v-182z" />
    <glyph glyph-name="Amacron" unicode="&#x100;" horiz-adv-x="571" 
d="M563 0h-207l-22 309h-105l-20 -309h-203l133 1360h291zM279 1014l-37 -527h80l-35 527h-8zM467 1468h-375v123h375v-123z" />
    <glyph glyph-name="amacron" unicode="&#x101;" horiz-adv-x="544" 
d="M313 197v307q-14 -8 -51 -19q-43 -11 -43 -63v-213q0 -47 47 -47q38 0 47 35zM510 0h-184l-4 74h-9q-9 -17 -17 -28t-24 -26t-41.5 -22.5t-58.5 -7.5q-147 0 -147 166v229q0 96 41 142t143 73q60 15 81 28t21 44v133q0 41 -43 41q-47 0 -47 -47v-119h-184v143
q0 96 64 144.5t182 48.5q227 0 227 -180v-836zM455 1130h-375v123h375v-123z" />
    <glyph glyph-name="Abreve" unicode="&#x102;" horiz-adv-x="571" 
d="M563 0h-207l-22 309h-105l-20 -309h-203l133 1360h291zM279 1014l-37 -527h80l-35 527h-8zM281 1395q-100 0 -161 69t-61 193h144q3 -139 78 -139q72 0 75 139h146q0 -126 -60.5 -194t-160.5 -68z" />
    <glyph glyph-name="abreve" unicode="&#x103;" horiz-adv-x="544" 
d="M313 197v307q-14 -8 -51 -19q-43 -11 -43 -63v-213q0 -47 47 -47q38 0 47 35zM510 0h-184l-4 74h-9q-9 -17 -17 -28t-24 -26t-41.5 -22.5t-58.5 -7.5q-147 0 -147 166v229q0 96 41 142t143 73q60 15 81 28t21 44v133q0 41 -43 41q-47 0 -47 -47v-119h-184v143
q0 96 64 144.5t182 48.5q227 0 227 -180v-836zM264 1057q-99 0 -160 69t-61 193h143q3 -139 78 -139q73 0 76 139h145q0 -126 -60.5 -194t-160.5 -68z" />
    <glyph glyph-name="Aogonek" unicode="&#x104;" horiz-adv-x="571" 
d="M559 -272v-162q-41 -21 -102 -21q-78 0 -115 35.5t-37 118.5v61q0 164 172 232v8h-121l-22 309h-105l-20 -309h-203l133 1360h291l133 -1360q-123 -80 -123 -180v-56q0 -26 13 -35.5t45 -9.5q30 0 61 9zM279 1014l-37 -527h80l-35 527h-8z" />
    <glyph glyph-name="aogonek" unicode="&#x105;" horiz-adv-x="544" 
d="M508 -272v-162q-40 -21 -105 -21q-77 0 -113 35.5t-36 118.5v61q0 165 172 232v8h-100l-4 74h-9q-9 -17 -17 -28t-24 -26t-41.5 -22.5t-58.5 -7.5q-147 0 -147 166v229q0 96 41 142t143 73q60 15 81 28t21 44v133q0 41 -43 41q-47 0 -47 -47v-119h-184v143q0 96 64 144.5
t182 48.5q227 0 227 -180v-836q-123 -81 -123 -180v-56q0 -26 13 -35.5t46 -9.5q30 0 62 9zM313 197v307q-14 -8 -51 -19q-43 -11 -43 -63v-213q0 -47 47 -47q38 0 47 35z" />
    <glyph glyph-name="Cacute" unicode="&#x106;" horiz-adv-x="557" 
d="M330 242v313h194v-299q0 -266 -243 -266q-122 0 -186 69t-64 199v846q0 264 248 264q122 0 183.5 -63t61.5 -199v-234h-194v242q0 62 -47 62q-45 0 -45 -62v-872q0 -33 9.5 -47.5t33.5 -14.5q49 0 49 62zM473 1602l-246 -207l-75 78l221 247z" />
    <glyph glyph-name="cacute" unicode="&#x107;" horiz-adv-x="542" 
d="M319 229v136h189v-136q0 -121 -57 -180t-179 -59q-121 0 -179 58.5t-58 180.5v547q0 122 58.5 181t180.5 59q121 0 177.5 -59t56.5 -181v-129h-189v129q0 62 -45 62q-47 0 -47 -62v-547q0 -61 45 -61q47 0 47 61zM463 1264l-246 -207l-76 78l221 247z" />
    <glyph glyph-name="Cdotaccent" unicode="&#x10a;" horiz-adv-x="557" 
d="M330 242v313h194v-299q0 -266 -243 -266q-122 0 -186 69t-64 199v846q0 264 248 264q122 0 183.5 -63t61.5 -199v-234h-194v242q0 62 -47 62q-45 0 -45 -62v-872q0 -33 9.5 -47.5t33.5 -14.5q49 0 49 62zM383 1450h-201v182h201v-182z" />
    <glyph glyph-name="cdotaccent" unicode="&#x10b;" horiz-adv-x="542" 
d="M319 229v136h189v-136q0 -121 -57 -180t-179 -59q-121 0 -179 58.5t-58 180.5v547q0 122 58.5 181t180.5 59q121 0 177.5 -59t56.5 -181v-129h-189v129q0 62 -45 62q-47 0 -47 -62v-547q0 -61 45 -61q47 0 47 61zM373 1112h-201v182h201v-182z" />
    <glyph glyph-name="Ccaron" unicode="&#x10c;" horiz-adv-x="557" 
d="M330 242v313h194v-299q0 -266 -243 -266q-122 0 -186 69t-64 199v846q0 264 248 264q122 0 183.5 -63t61.5 -199v-234h-194v242q0 62 -47 62q-45 0 -45 -62v-872q0 -33 9.5 -47.5t33.5 -14.5q49 0 49 62zM367 1423h-177l-129 197l86 68l132 -150l131 150l86 -68z" />
    <glyph glyph-name="ccaron" unicode="&#x10d;" horiz-adv-x="542" 
d="M319 229v136h189v-136q0 -121 -57 -180t-179 -59q-121 0 -179 58.5t-58 180.5v547q0 122 58.5 181t180.5 59q121 0 177.5 -59t56.5 -181v-129h-189v129q0 62 -45 62q-47 0 -47 -62v-547q0 -61 45 -61q47 0 47 61zM360 1085h-176l-129 197l86 68l131 -150l131 150l86 -68z
" />
    <glyph glyph-name="Dcaron" unicode="&#x10e;" horiz-adv-x="567" 
d="M293 0h-262v1360h262q242 0 242 -246v-856q0 -133 -60.5 -195.5t-181.5 -62.5zM236 186h43q47 0 47 117v764q0 107 -62 107h-28v-988zM367 1423h-177l-129 197l86 68l132 -150l131 150l86 -68z" />
    <glyph glyph-name="dcaron" unicode="&#x10f;" horiz-adv-x="757" 
d="M520 0h-180l-2 86h-8q-42 -96 -135 -96q-73 0 -116.5 49.5t-43.5 132.5v664q0 83 43.5 131.5t114.5 48.5q82 0 122 -74h9v434h196v-1376zM236 782v-559q0 -61 47 -61q39 0 45 47v590q-6 45 -45 45q-47 0 -47 -62zM553 870v113q88 49 88 145v48h-88v200h203v-219
q0 -248 -203 -287z" />
    <glyph glyph-name="dcroat" unicode="&#x111;" 
d="M520 0h-180l-2 86h-8q-42 -96 -135 -96q-73 0 -116.5 49.5t-43.5 132.5v664q0 83 43.5 131.5t114.5 48.5q82 0 122 -74h9v188h-144v123h144v123h196v-123h35v-123h-35v-1130zM236 782v-559q0 -61 47 -61q39 0 45 47v590q-6 45 -45 45q-47 0 -47 -62z" />
    <glyph glyph-name="Emacron" unicode="&#x112;" horiz-adv-x="442" 
d="M428 0h-397v1360h385v-186h-180v-367h157v-189h-157v-432h192v-186zM414 1468h-375v123h375v-123z" />
    <glyph glyph-name="emacron" unicode="&#x113;" horiz-adv-x="550" 
d="M516 340v-111q0 -239 -244 -239q-121 0 -179 58.5t-58 180.5v547q0 122 58.5 181t180.5 59q242 0 242 -240v-330h-289v-221q0 -61 45 -61q47 0 47 61v115h197zM319 588v192q0 62 -45 62q-47 0 -47 -62v-192h92zM461 1130h-375v123h375v-123z" />
    <glyph glyph-name="Ebreve" unicode="&#x114;" horiz-adv-x="442" 
d="M428 0h-397v1360h385v-186h-180v-367h157v-189h-157v-432h192v-186zM238 1395q-100 0 -161 69t-61 193h144q3 -139 78 -139q72 0 75 139h146q0 -126 -60.5 -194t-160.5 -68z" />
    <glyph glyph-name="ebreve" unicode="&#x115;" horiz-adv-x="550" 
d="M516 340v-111q0 -239 -244 -239q-121 0 -179 58.5t-58 180.5v547q0 122 58.5 181t180.5 59q242 0 242 -240v-330h-289v-221q0 -61 45 -61q47 0 47 61v115h197zM319 588v192q0 62 -45 62q-47 0 -47 -62v-192h92zM274 1057q-99 0 -160 69t-61 193h144q1 -72 20 -105.5
t57 -33.5q73 0 76 139h146q0 -126 -61 -194t-161 -68z" />
    <glyph glyph-name="Edotaccent" unicode="&#x116;" horiz-adv-x="442" 
d="M428 0h-397v1360h385v-186h-180v-367h157v-189h-157v-432h192v-186zM330 1450h-201v182h201v-182z" />
    <glyph glyph-name="edotaccent" unicode="&#x117;" horiz-adv-x="550" 
d="M516 340v-111q0 -239 -244 -239q-121 0 -179 58.5t-58 180.5v547q0 122 58.5 181t180.5 59q242 0 242 -240v-330h-289v-221q0 -61 45 -61q47 0 47 61v115h197zM319 588v192q0 62 -45 62q-47 0 -47 -62v-192h92zM373 1112h-201v182h201v-182z" />
    <glyph glyph-name="Eogonek" unicode="&#x118;" horiz-adv-x="442" 
d="M424 -272v-162q-40 -21 -102 -21q-78 0 -115 35.5t-37 118.5v61q0 169 182 236v4h-321v1360h385v-186h-180v-367h157v-189h-157v-432h192v-186q-123 -80 -123 -180v-56q0 -26 13 -35.5t44 -9.5q30 0 62 9z" />
    <glyph glyph-name="eogonek" unicode="&#x119;" horiz-adv-x="550" 
d="M375 -272v-162q-40 -21 -105 -21q-77 0 -113 35.5t-36 118.5v61q0 152 135 224v6q-114 3 -167.5 61.5t-53.5 177.5v547q0 122 58.5 181t180.5 59q242 0 242 -240v-330h-289v-221q0 -61 45 -61q47 0 47 61v115h197v-111q0 -187 -145 -227q-117 -75 -117 -182v-56
q0 -26 13 -35.5t46 -9.5q31 0 62 9zM319 588v192q0 62 -45 62q-47 0 -47 -62v-192h92z" />
    <glyph glyph-name="Ecaron" unicode="&#x11a;" horiz-adv-x="442" 
d="M428 0h-397v1360h385v-186h-180v-367h157v-189h-157v-432h192v-186zM313 1423h-176l-129 197l86 68l131 -150l131 150l86 -68z" />
    <glyph glyph-name="ecaron" unicode="&#x11b;" horiz-adv-x="550" 
d="M516 340v-111q0 -239 -244 -239q-121 0 -179 58.5t-58 180.5v547q0 122 58.5 181t180.5 59q242 0 242 -240v-330h-289v-221q0 -61 45 -61q47 0 47 61v115h197zM319 588v192q0 62 -45 62q-47 0 -47 -62v-192h92zM362 1085h-176l-129 197l86 68l131 -150l132 150l86 -68z
" />
    <glyph glyph-name="Gbreve" unicode="&#x11e;" horiz-adv-x="557" 
d="M524 0h-133l-8 53h-8q-37 -63 -125 -63q-103 0 -161 70.5t-58 197.5v838q0 130 63 201t182 71q120 0 184 -72t64 -204v-152h-194v174q0 62 -47 62q-45 0 -45 -62v-872q0 -62 45 -62q47 0 47 62v274h-60v184h254v-700zM283 1395q-100 0 -161 69t-61 193h144
q3 -139 78 -139q72 0 75 139h146q0 -126 -60.5 -194t-160.5 -68z" />
    <glyph glyph-name="gbreve" unicode="&#x11f;" 
d="M520 -238q0 -239 -244 -239q-237 0 -237 239v177h190v-177q0 -61 47 -61q46 0 46 61v312h-9q-38 -74 -125 -74t-120 54t-33 169v608q0 86 43 135.5t115 49.5q87 0 137 -96h8l2 88h180v-1246zM236 782v-510q0 -51 8.5 -71.5t36.5 -20.5q47 0 47 80v500q0 84 -45 84
q-47 0 -47 -62zM283 1057q-100 0 -161 69t-61 193h144q3 -139 78 -139q72 0 75 139h146q0 -126 -60.5 -194t-160.5 -68z" />
    <glyph glyph-name="Gdotaccent" unicode="&#x120;" horiz-adv-x="557" 
d="M524 0h-133l-8 53h-8q-37 -63 -125 -63q-103 0 -161 70.5t-58 197.5v838q0 130 63 201t182 71q120 0 184 -72t64 -204v-152h-194v174q0 62 -47 62q-45 0 -45 -62v-872q0 -62 45 -62q47 0 47 62v274h-60v184h254v-700zM383 1450h-201v182h201v-182z" />
    <glyph glyph-name="gdotaccent" unicode="&#x121;" 
d="M520 -238q0 -239 -244 -239q-237 0 -237 239v177h190v-177q0 -61 47 -61q46 0 46 61v312h-9q-38 -74 -125 -74t-120 54t-33 169v608q0 86 43 135.5t115 49.5q87 0 137 -96h8l2 88h180v-1246zM236 782v-510q0 -51 8.5 -71.5t36.5 -20.5q47 0 47 80v500q0 84 -45 84
q-47 0 -47 -62zM383 1112h-201v182h201v-182z" />
    <glyph glyph-name="uni0122" unicode="&#x122;" horiz-adv-x="557" 
d="M524 0h-133l-8 53h-8q-37 -63 -125 -63q-103 0 -161 70.5t-58 197.5v838q0 130 63 201t182 71q120 0 184 -72t64 -204v-152h-194v174q0 62 -47 62q-45 0 -45 -62v-872q0 -62 45 -62q47 0 47 62v274h-60v184h254v-700zM193 -455v88q44 8 65 26.5t21 55.5v54h-89v192h179
v-192q0 -112 -42.5 -165.5t-133.5 -58.5z" />
    <glyph glyph-name="uni0123" unicode="&#x123;" 
d="M520 -238q0 -239 -244 -239q-237 0 -237 239v177h190v-177q0 -61 47 -61q46 0 46 61v312h-9q-38 -74 -125 -74t-120 54t-33 169v608q0 86 43 135.5t115 49.5q87 0 137 -96h8l2 88h180v-1246zM236 782v-510q0 -51 8.5 -71.5t36.5 -20.5q47 0 47 80v500q0 84 -45 84
q-47 0 -47 -62zM373 1528v-88q-44 -8 -65 -26.5t-21 -55.5v-53h88v-193h-178v193q0 112 42.5 165t133.5 58z" />
    <glyph glyph-name="Hbar" unicode="&#x126;" horiz-adv-x="573" 
d="M541 0h-209v633h-92v-633h-209v1022h-33v121h33v217h209v-217h92v217h209v-217h32v-121h-32v-1022zM240 819h92v203h-92v-203z" />
    <glyph glyph-name="hbar" unicode="&#x127;" horiz-adv-x="559" 
d="M373 1130h-140v-196h9q39 82 131 82q80 0 115.5 -53t35.5 -140v-823h-200v793q0 51 -41 51q-44 0 -50 -62v-782h-198v1130h-37v123h37v123h198v-123h140v-123z" />
    <glyph glyph-name="hbar" unicode="&#x45b;" horiz-adv-x="559" 
d="M373 1130h-140v-196h9q39 82 131 82q80 0 115.5 -53t35.5 -140v-823h-200v793q0 51 -41 51q-44 0 -50 -62v-782h-198v1130h-37v123h37v123h198v-123h140v-123z" />
    <glyph glyph-name="Itilde" unicode="&#x128;" horiz-adv-x="309" 
d="M258 0h-209v1360h209v-1360zM287 1581l84 -45q-11 -60 -43 -89.5t-76 -29.5q-36 0 -92 26.5t-84 26.5q-44 0 -56 -49l-83 47q23 117 120 117q35 0 90.5 -26.5t83.5 -26.5q43 0 56 49z" />
    <glyph glyph-name="itilde" unicode="&#x129;" horiz-adv-x="389" 
d="M326 1243l84 -45q-11 -60 -43 -89.5t-76 -29.5q-36 0 -92 27t-84 27q-44 0 -56 -50l-84 47q12 59 44 88t77 29q35 0 90.5 -26.5t83.5 -26.5q43 0 56 49zM289 0h-199v1008h199v-1008z" />
    <glyph glyph-name="Imacron" unicode="&#x12a;" horiz-adv-x="342" 
d="M274 0h-208v1360h208v-1360zM356 1468h-374v123h374v-123z" />
    <glyph glyph-name="imacron" unicode="&#x12b;" horiz-adv-x="325" 
d="M348 1130h-375v123h375v-123zM258 0h-199v1008h199v-1008z" />
    <glyph glyph-name="Ibreve" unicode="&#x12c;" horiz-adv-x="321" 
d="M264 0h-209v1360h209v-1360zM160 1395q-99 0 -160 69t-61 193h143q3 -139 78 -139q73 0 76 139h145q0 -126 -60.5 -194t-160.5 -68z" />
    <glyph glyph-name="ibreve" unicode="&#x12d;" horiz-adv-x="387" 
d="M190 1057q-99 0 -160 69t-61 193h144q1 -72 20 -105.5t57 -33.5q73 0 76 139h146q0 -126 -61 -194t-161 -68zM291 0h-199v1008h199v-1008z" />
    <glyph glyph-name="Iogonek" unicode="&#x12e;" horiz-adv-x="272" 
d="M238 -272v-162q-41 -21 -105 -21q-77 0 -113 35.5t-36 118.5v61q0 165 174 234v6h-127v1360h209v-1360q-123 -81 -123 -180v-56q0 -26 13 -35.5t46 -9.5q30 0 62 9z" />
    <glyph glyph-name="iogonek" unicode="&#x12f;" horiz-adv-x="270" 
d="M231 -272v-162q-40 -21 -104 -21q-77 0 -113.5 35.5t-36.5 118.5v61q0 164 175 234v6h-117v1008h198v-1008q-11 -7 -40 -31v-4h-7q-75 -66 -75 -145v-56q0 -26 13 -35.5t46 -9.5q30 0 61 9zM233 1112h-198v182h198v-182z" />
    <glyph glyph-name="Idotaccent" unicode="&#x130;" horiz-adv-x="272" 
d="M240 0h-209v1360h209v-1360zM238 1450h-201v182h201v-182z" />
    <glyph glyph-name="dotlessi" unicode="&#x131;" horiz-adv-x="270" 
d="M233 0h-198v1008h198v-1008z" />
    <glyph glyph-name="IJ" unicode="&#x132;" horiz-adv-x="806" 
d="M240 0h-209v1360h209v-1360zM569 242v1118h205v-1102q0 -130 -63 -199t-185 -69q-245 0 -245 266v258h196v-272q0 -62 45 -62q47 0 47 62z" />
    <glyph glyph-name="ij" unicode="&#x133;" horiz-adv-x="557" 
d="M236 0h-201v1008h201v-1008zM236 1112h-201v182h201v-182zM35 -238v134h201v-134q0 -61 43 -61t43 61v1246h198v-1246q0 -121 -60.5 -180t-183.5 -59q-122 0 -181.5 59t-59.5 180zM520 1112h-198v182h198v-182z" />
    <glyph glyph-name="uni0136" unicode="&#x136;" horiz-adv-x="565" 
d="M557 0h-211l-63 514h-7l-32 -133v-381h-213v1360h213v-469h8q6 47 98 469h209l-129 -514zM193 -455v88q44 8 65 26.5t21 55.5v54h-89v192h179v-192q0 -112 -42.5 -165.5t-133.5 -58.5z" />
    <glyph glyph-name="uni0137" unicode="&#x137;" horiz-adv-x="552" 
d="M547 0h-209l-64 360h-8l-33 -102v-258h-198v1376h198v-723h9q11 63 94 355h213l-129 -414zM193 -455v88q44 8 65 26.5t21 55.5v54h-89v192h179v-192q0 -112 -42.5 -165.5t-133.5 -58.5z" />
    <glyph glyph-name="Lacute" unicode="&#x139;" horiz-adv-x="454" 
d="M436 0h-405v1360h209v-1170h196v-190zM338 1602l-246 -207l-76 78l222 247z" />
    <glyph glyph-name="lacute" unicode="&#x13a;" horiz-adv-x="270" 
d="M233 0h-198v1376h198v-1376zM326 1602l-246 -207l-76 78l221 247z" />
    <glyph glyph-name="uni013B" unicode="&#x13b;" horiz-adv-x="454" 
d="M436 0h-405v1360h209v-1170h196v-190zM139 -455v88q44 8 65 26.5t21 55.5v54h-88v192h178v-192q0 -112 -42.5 -165.5t-133.5 -58.5z" />
    <glyph glyph-name="uni013C" unicode="&#x13c;" horiz-adv-x="270" 
d="M233 0h-198v1376h198v-1376zM45 -455v88q44 8 65 26.5t21 55.5v54h-88v192h178v-192q0 -112 -42.5 -165.5t-133.5 -58.5z" />
    <glyph glyph-name="Lcaron" unicode="&#x13d;" horiz-adv-x="473" 
d="M436 0h-405v1360h209v-1170h196v-190zM268 870v113q88 49 88 145v48h-88v200h203v-219q0 -248 -203 -287z" />
    <glyph glyph-name="lcaron" unicode="&#x13e;" horiz-adv-x="473" 
d="M233 0h-198v1376h198v-1376zM268 870v113q88 49 88 145v48h-88v200h203v-219q0 -248 -203 -287z" />
    <glyph glyph-name="Lslash" unicode="&#x141;" horiz-adv-x="454" 
d="M436 0h-405v1360h209v-334l141 59v-176l-141 -61v-658h196v-190z" />
    <glyph glyph-name="lslash" unicode="&#x142;" horiz-adv-x="358" 
d="M279 0h-199v567l-80 -30v149l80 31v659h199v-581l79 30v-149l-79 -31v-645z" />
    <glyph glyph-name="Nacute" unicode="&#x143;" horiz-adv-x="602" 
d="M571 0h-243l-119 944h-8q8 -136 8 -508v-436h-178v1360h276l84 -875h8q-8 258 -8 572v303h180v-1360zM494 1602l-246 -207l-76 78l221 247z" />
    <glyph glyph-name="nacute" unicode="&#x144;" horiz-adv-x="559" 
d="M524 0h-200v793q0 51 -41 51q-38 0 -50 -45v-799h-198v1008h186l4 -88h8q45 96 138 96q69 0 111 -48.5t42 -133.5v-834zM469 1264l-246 -207l-76 78l222 247z" />
    <glyph glyph-name="uni0145" unicode="&#x145;" horiz-adv-x="602" 
d="M571 0h-243l-119 944h-8q8 -136 8 -508v-436h-178v1360h276l84 -875h8q-8 258 -8 572v303h180v-1360zM201 -455v88q44 8 65 26.5t21 55.5v54h-88v192h178v-192q0 -112 -42.5 -165.5t-133.5 -58.5z" />
    <glyph glyph-name="uni0146" unicode="&#x146;" horiz-adv-x="559" 
d="M524 0h-200v793q0 51 -41 51q-38 0 -50 -45v-799h-198v1008h186l4 -88h8q45 96 138 96q69 0 111 -48.5t42 -133.5v-834zM190 -455v88q44 8 65 26.5t21 55.5v54h-88v192h179v-192q0 -112 -43 -165.5t-134 -58.5z" />
    <glyph glyph-name="Ncaron" unicode="&#x147;" horiz-adv-x="602" 
d="M571 0h-243l-119 944h-8q8 -136 8 -508v-436h-178v1360h276l84 -875h8q-8 258 -8 572v303h180v-1360zM391 1423h-176l-129 197l86 68l131 -150l131 150l86 -68z" />
    <glyph glyph-name="ncaron" unicode="&#x148;" horiz-adv-x="559" 
d="M524 0h-200v793q0 51 -41 51q-38 0 -50 -45v-799h-198v1008h186l4 -88h8q45 96 138 96q69 0 111 -48.5t42 -133.5v-834zM367 1085h-177l-129 197l86 68l132 -150l131 150l86 -68z" />
    <glyph glyph-name="Eng" unicode="&#x14a;" horiz-adv-x="602" 
d="M571 -238q0 -118 -68.5 -179.5t-191.5 -61.5q-33 0 -63 6v180q10 -6 35 -6q53 0 53 61v175l-127 1007h-8q8 -136 8 -508v-436h-178v1360h276l84 -875h8q-8 258 -8 572v303h180v-1598z" />
    <glyph glyph-name="eng" unicode="&#x14b;" horiz-adv-x="559" 
d="M248 -471v176q8 -4 28 -4q48 0 48 61v1031q0 51 -41 51q-38 0 -50 -45v-799h-198v1008h186l4 -88h8q45 96 138 96q69 0 111 -48.5t42 -133.5v-1072q0 -119 -58 -179t-165 -60q-41 0 -53 6z" />
    <glyph glyph-name="Omacron" unicode="&#x14c;" 
d="M528 1092v-836q0 -132 -64 -199t-185 -67q-123 0 -188.5 69.5t-65.5 198.5v838q0 129 65.5 200.5t185.5 71.5t186 -72.5t66 -203.5zM324 242v872q0 62 -48 62q-45 0 -45 -62v-872q0 -62 45 -62q48 0 48 62zM465 1468h-375v123h375v-123z" />
    <glyph glyph-name="omacron" unicode="&#x14d;" horiz-adv-x="548" 
d="M514 776v-547q0 -122 -59 -180.5t-181 -58.5q-123 0 -181 58t-58 181v547q0 123 58 181.5t181 58.5q122 0 181 -58.5t59 -181.5zM319 229v547q0 62 -45 62q-47 0 -47 -62v-547q0 -61 47 -61q45 0 45 61zM461 1130h-375v123h375v-123z" />
    <glyph glyph-name="Obreve" unicode="&#x14e;" 
d="M528 1092v-836q0 -132 -64 -199t-185 -67q-123 0 -188.5 69.5t-65.5 198.5v838q0 129 65.5 200.5t185.5 71.5t186 -72.5t66 -203.5zM324 242v872q0 62 -48 62q-45 0 -45 -62v-872q0 -62 45 -62q48 0 48 62zM276 1395q-99 0 -160 69t-61 193h144q1 -72 20 -105.5t57 -33.5
q73 0 76 139h146q0 -126 -61 -194t-161 -68z" />
    <glyph glyph-name="obreve" unicode="&#x14f;" horiz-adv-x="548" 
d="M514 776v-547q0 -122 -59 -180.5t-181 -58.5q-123 0 -181 58t-58 181v547q0 123 58 181.5t181 58.5q122 0 181 -58.5t59 -181.5zM319 229v547q0 62 -45 62q-47 0 -47 -62v-547q0 -61 47 -61q45 0 45 61zM274 1057q-99 0 -160 69t-61 193h144q1 -72 20 -105.5t57 -33.5
q73 0 76 139h146q0 -126 -61 -194t-161 -68z" />
    <glyph glyph-name="Ohungarumlaut" unicode="&#x150;" 
d="M528 1092v-836q0 -132 -64 -199t-185 -67q-123 0 -188.5 69.5t-65.5 198.5v838q0 129 65.5 200.5t185.5 71.5t186 -72.5t66 -203.5zM324 242v872q0 62 -48 62q-45 0 -45 -62v-872q0 -62 45 -62q48 0 48 62zM182 1395l-90 43l117 282l123 -69zM371 1395l-88 43l114 282
l125 -69z" />
    <glyph glyph-name="ohungarumlaut" unicode="&#x151;" horiz-adv-x="548" 
d="M514 776v-547q0 -122 -59 -180.5t-181 -58.5q-123 0 -181 58t-58 181v547q0 123 58 181.5t181 58.5q122 0 181 -58.5t59 -181.5zM319 229v547q0 62 -45 62q-47 0 -47 -62v-547q0 -61 47 -61q45 0 45 61zM180 1057l-90 43l117 282l123 -69zM369 1057l-88 43l114 282
l125 -69z" />
    <glyph glyph-name="OE" unicode="&#x152;" horiz-adv-x="749" 
d="M733 0h-371q-45 -10 -83 -10q-123 0 -188.5 69.5t-65.5 198.5v838q0 129 65.5 200.5t185.5 71.5q47 0 78 -8h367v-186h-199q6 -41 6 -82v-285h172v-189h-172v-362q0 -47 -6 -70h211v-186zM324 242v872q0 62 -48 62q-45 0 -45 -62v-872q0 -62 45 -62q48 0 48 62z" />
    <glyph glyph-name="oe" unicode="&#x153;" horiz-adv-x="817" 
d="M786 340v-111q0 -239 -243 -239q-84 0 -135 28q-51 -28 -134 -28q-123 0 -181 58t-58 181v547q0 123 58 181.5t181 58.5q83 0 134 -31q54 31 137 31q241 0 241 -240v-330h-288v-221q0 -61 45 -61q47 0 47 61v115h196zM319 229v547q0 62 -45 62q-47 0 -47 -62v-547
q0 -61 47 -61q45 0 45 61zM590 588v192q0 62 -45 62q-47 0 -47 -62v-192h92z" />
    <glyph glyph-name="Racute" unicode="&#x154;" horiz-adv-x="557" 
d="M236 0h-205v1360h297q106 0 153 -54.5t47 -160.5v-305q0 -67 -29.5 -111t-80.5 -53v-8q55 -8 84.5 -46t29.5 -118v-504h-204v522q0 58 -47 58h-45v-580zM328 817v303q0 54 -52 54h-40v-424h40q52 0 52 67zM457 1602l-246 -207l-76 78l221 247z" />
    <glyph glyph-name="racute" unicode="&#x155;" horiz-adv-x="417" 
d="M233 0h-198v1008h186l4 -88h8q39 96 125 96q26 0 45 -8v-179q-24 9 -53 9q-63 0 -90 -31t-27 -94v-713zM408 1264l-246 -207l-76 78l221 247z" />
    <glyph glyph-name="uni0156" unicode="&#x156;" horiz-adv-x="557" 
d="M236 0h-205v1360h297q106 0 153 -54.5t47 -160.5v-305q0 -67 -29.5 -111t-80.5 -53v-8q55 -8 84.5 -46t29.5 -118v-504h-204v522q0 58 -47 58h-45v-580zM328 817v303q0 54 -52 54h-40v-424h40q52 0 52 67zM193 -455v88q44 8 65 26.5t21 55.5v54h-89v192h179v-192
q0 -112 -42.5 -165.5t-133.5 -58.5z" />
    <glyph glyph-name="uni0157" unicode="&#x157;" horiz-adv-x="417" 
d="M233 0h-198v1008h186l4 -88h8q39 96 125 96q26 0 45 -8v-179q-24 9 -53 9q-63 0 -90 -31t-27 -94v-713zM43 -455v88q44 8 65 26.5t21 55.5v54h-88v192h178v-192q0 -112 -42.5 -165.5t-133.5 -58.5z" />
    <glyph glyph-name="Rcaron" unicode="&#x158;" horiz-adv-x="557" 
d="M236 0h-205v1360h297q106 0 153 -54.5t47 -160.5v-305q0 -67 -29.5 -111t-80.5 -53v-8q55 -8 84.5 -46t29.5 -118v-504h-204v522q0 58 -47 58h-45v-580zM328 817v303q0 54 -52 54h-40v-424h40q52 0 52 67zM356 1423h-176l-129 197l86 68l131 -150l131 150l86 -68z" />
    <glyph glyph-name="rcaron" unicode="&#x159;" horiz-adv-x="417" 
d="M233 0h-198v1008h186l4 -88h8q39 96 125 96q26 0 45 -8v-179q-24 9 -53 9q-63 0 -90 -31t-27 -94v-713zM305 1085h-176l-129 197l86 68l131 -150l131 150l86 -68z" />
    <glyph glyph-name="Sacute" unicode="&#x15a;" horiz-adv-x="577" 
d="M532 958h-194v158q0 60 -51 60q-25 0 -38 -15t-13 -39v-118q0 -57 7.5 -82t35.5 -56q33 -38 110.5 -107.5t104.5 -105.5q31 -42 44 -89.5t13 -127.5v-182q0 -131 -64 -197.5t-200 -66.5q-135 0 -198.5 66t-63.5 200v152h196v-168q0 -28 15 -44t43 -16q53 0 53 60v149
q0 71 -11.5 102.5t-44.5 67.5q-19 21 -63.5 65t-75 78.5t-51.5 71.5q-55 94 -55 240v114q0 116 64.5 178t187.5 62q132 0 190.5 -71.5t58.5 -204.5v-134zM475 1602l-246 -207l-75 78l221 247z" />
    <glyph glyph-name="sacute" unicode="&#x15b;" horiz-adv-x="540" 
d="M504 702h-187v109q0 43 -45 43q-47 0 -47 -39v-117q0 -26 7.5 -39.5t37.5 -35.5q21 -15 80.5 -49t87.5 -58q37 -31 55.5 -71.5t18.5 -112.5v-137q0 -103 -57.5 -154t-178.5 -51q-127 0 -187 53.5t-60 159.5v121h186v-127q0 -45 51 -45q47 0 47 38v136q0 26 -11.5 45
t-47.5 45q-12 9 -51 35t-67.5 48t-45.5 40q-53 58 -53 159v136q0 85 60.5 133.5t168.5 48.5q115 0 176.5 -56.5t61.5 -158.5v-99zM461 1264l-246 -207l-76 78l221 247z" />
    <glyph glyph-name="Scedilla" unicode="&#x15e;" horiz-adv-x="577" 
d="M532 958h-194v158q0 60 -51 60q-25 0 -38 -15t-13 -39v-118q0 -57 7.5 -82t35.5 -56q33 -38 110.5 -107.5t104.5 -105.5q31 -42 44 -89.5t13 -127.5v-182q0 -131 -64 -197.5t-200 -66.5q-135 0 -198.5 66t-63.5 200v152h196v-168q0 -28 15 -44t43 -16q53 0 53 60v149
q0 71 -11.5 102.5t-44.5 67.5q-19 21 -63.5 65t-75 78.5t-51.5 71.5q-55 94 -55 240v114q0 116 64.5 178t187.5 62q132 0 190.5 -71.5t58.5 -204.5v-134zM195 -455v88q44 8 65 26.5t21 55.5v54h-88v192h178v-192q0 -112 -42.5 -165.5t-133.5 -58.5z" />
    <glyph glyph-name="Scedilla" unicode="&#x218;" horiz-adv-x="577" 
d="M532 958h-194v158q0 60 -51 60q-25 0 -38 -15t-13 -39v-118q0 -57 7.5 -82t35.5 -56q33 -38 110.5 -107.5t104.5 -105.5q31 -42 44 -89.5t13 -127.5v-182q0 -131 -64 -197.5t-200 -66.5q-135 0 -198.5 66t-63.5 200v152h196v-168q0 -28 15 -44t43 -16q53 0 53 60v149
q0 71 -11.5 102.5t-44.5 67.5q-19 21 -63.5 65t-75 78.5t-51.5 71.5q-55 94 -55 240v114q0 116 64.5 178t187.5 62q132 0 190.5 -71.5t58.5 -204.5v-134zM195 -455v88q44 8 65 26.5t21 55.5v54h-88v192h178v-192q0 -112 -42.5 -165.5t-133.5 -58.5z" />
    <glyph glyph-name="scedilla" unicode="&#x15f;" horiz-adv-x="540" 
d="M504 702h-187v109q0 43 -45 43q-47 0 -47 -39v-117q0 -26 7.5 -39.5t37.5 -35.5q21 -15 80.5 -49t87.5 -58q37 -31 55.5 -71.5t18.5 -112.5v-137q0 -103 -57.5 -154t-178.5 -51q-127 0 -187 53.5t-60 159.5v121h186v-127q0 -45 51 -45q47 0 47 38v136q0 26 -11.5 45
t-47.5 45q-12 9 -51 35t-67.5 48t-45.5 40q-53 58 -53 159v136q0 85 60.5 133.5t168.5 48.5q115 0 176.5 -56.5t61.5 -158.5v-99zM182 -455v88q44 8 65 26.5t21 55.5v54h-88v192h178v-192q0 -112 -42.5 -165.5t-133.5 -58.5z" />
    <glyph glyph-name="scedilla" unicode="&#x219;" horiz-adv-x="540" 
d="M504 702h-187v109q0 43 -45 43q-47 0 -47 -39v-117q0 -26 7.5 -39.5t37.5 -35.5q21 -15 80.5 -49t87.5 -58q37 -31 55.5 -71.5t18.5 -112.5v-137q0 -103 -57.5 -154t-178.5 -51q-127 0 -187 53.5t-60 159.5v121h186v-127q0 -45 51 -45q47 0 47 38v136q0 26 -11.5 45
t-47.5 45q-12 9 -51 35t-67.5 48t-45.5 40q-53 58 -53 159v136q0 85 60.5 133.5t168.5 48.5q115 0 176.5 -56.5t61.5 -158.5v-99zM182 -455v88q44 8 65 26.5t21 55.5v54h-88v192h178v-192q0 -112 -42.5 -165.5t-133.5 -58.5z" />
    <glyph glyph-name="Scaron" unicode="&#x160;" horiz-adv-x="577" 
d="M532 958h-194v158q0 60 -51 60q-25 0 -38 -15t-13 -39v-118q0 -57 7.5 -82t35.5 -56q33 -38 110.5 -107.5t104.5 -105.5q31 -42 44 -89.5t13 -127.5v-182q0 -131 -64 -197.5t-200 -66.5q-135 0 -198.5 66t-63.5 200v152h196v-168q0 -28 15 -44t43 -16q53 0 53 60v149
q0 71 -11.5 102.5t-44.5 67.5q-19 21 -63.5 65t-75 78.5t-51.5 71.5q-55 94 -55 240v114q0 116 64.5 178t187.5 62q132 0 190.5 -71.5t58.5 -204.5v-134zM377 1423h-176l-129 197l86 68l131 -150l131 150l86 -68z" />
    <glyph glyph-name="scaron" unicode="&#x161;" horiz-adv-x="540" 
d="M504 702h-187v109q0 43 -45 43q-47 0 -47 -39v-117q0 -26 7.5 -39.5t37.5 -35.5q21 -15 80.5 -49t87.5 -58q37 -31 55.5 -71.5t18.5 -112.5v-137q0 -103 -57.5 -154t-178.5 -51q-127 0 -187 53.5t-60 159.5v121h186v-127q0 -45 51 -45q47 0 47 38v136q0 26 -11.5 45
t-47.5 45q-12 9 -51 35t-67.5 48t-45.5 40q-53 58 -53 159v136q0 85 60.5 133.5t168.5 48.5q115 0 176.5 -56.5t61.5 -158.5v-99zM354 1085h-176l-129 197l86 68l131 -150l131 150l86 -68z" />
    <glyph glyph-name="uni0162" unicode="&#x162;" horiz-adv-x="536" 
d="M371 0h-207v1174h-146v186h500v-186h-147v-1174zM178 -455v88q44 8 65 26.5t21 55.5v54h-88v192h178v-192q0 -112 -42.5 -165.5t-133.5 -58.5z" />
    <glyph glyph-name="uni0162" unicode="&#x21a;" horiz-adv-x="536" 
d="M371 0h-207v1174h-146v186h500v-186h-147v-1174zM178 -455v88q44 8 65 26.5t21 55.5v54h-88v192h178v-192q0 -112 -42.5 -165.5t-133.5 -58.5z" />
    <glyph glyph-name="uni0163" unicode="&#x163;" horiz-adv-x="524" 
d="M319 229v332h170v-332q0 -125 -48.5 -182t-166.5 -57q-123 0 -181 58.5t-58 180.5v1051h196v-272h258v-179h-258v-600q0 -61 45 -61q43 0 43 61zM180 -455v88q44 8 65 26.5t21 55.5v54h-88v192h178v-192q0 -112 -42.5 -165.5t-133.5 -58.5z" />
    <glyph glyph-name="uni0163" unicode="&#x21b;" horiz-adv-x="524" 
d="M319 229v332h170v-332q0 -125 -48.5 -182t-166.5 -57q-123 0 -181 58.5t-58 180.5v1051h196v-272h258v-179h-258v-600q0 -61 45 -61q43 0 43 61zM180 -455v88q44 8 65 26.5t21 55.5v54h-88v192h178v-192q0 -112 -42.5 -165.5t-133.5 -58.5z" />
    <glyph glyph-name="Tcaron" unicode="&#x164;" horiz-adv-x="536" 
d="M371 0h-207v1174h-146v186h500v-186h-147v-1174zM354 1423h-176l-129 197l86 68l131 -150l131 150l86 -68z" />
    <glyph glyph-name="tcaron" unicode="&#x165;" horiz-adv-x="706" 
d="M319 229v332h170v-332q0 -125 -48.5 -182t-166.5 -57q-123 0 -181 58.5t-58 180.5v1051h196v-272h258v-179h-258v-600q0 -61 45 -61q43 0 43 61zM504 870v113q88 49 88 145v48h-88v200h203v-219q0 -248 -203 -287z" />
    <glyph glyph-name="Tbar" unicode="&#x166;" horiz-adv-x="536" 
d="M371 0h-207v662h-84v122h84v390h-146v186h500v-186h-147v-390h84v-122h-84v-662z" />
    <glyph glyph-name="tbar" unicode="&#x167;" horiz-adv-x="524" 
d="M487 639h-256v-410q0 -61 45 -61q43 0 43 61v316h170v-316q0 -125 -48.5 -182t-166.5 -57q-123 0 -181 58.5t-58 180.5v1051h196v-272h258v-179h-258v-81h256v-109z" />
    <glyph glyph-name="Utilde" unicode="&#x168;" horiz-adv-x="565" 
d="M326 242v1118h206v-1102q0 -130 -63.5 -199t-185.5 -69t-187 67t-65 199v1104h202v-1118q0 -62 48 -62q45 0 45 62zM414 1581l84 -45q-11 -60 -43 -89.5t-76 -29.5q-36 0 -92 26.5t-84 26.5q-44 0 -56 -49l-84 47q12 59 44 88t77 29q35 0 90.5 -26.5t83.5 -26.5
q43 0 56 49z" />
    <glyph glyph-name="utilde" unicode="&#x169;" horiz-adv-x="557" 
d="M35 1008h201v-775q0 -42 8 -56.5t35 -14.5q26 0 34.5 15t8.5 56v775h200v-1008h-188l-2 86h-8q-27 -53 -58.5 -74.5t-79.5 -21.5t-79.5 17.5t-46.5 53t-20 74.5t-5 98v775zM412 1243l84 -45q-11 -60 -43 -89.5t-76 -29.5q-36 0 -92 27t-84 27q-44 0 -56 -50l-84 47
q12 59 44 88t77 29q35 0 90.5 -26.5t83.5 -26.5q43 0 56 49z" />
    <glyph glyph-name="Umacron" unicode="&#x16a;" horiz-adv-x="565" 
d="M326 242v1118h206v-1102q0 -130 -63.5 -199t-185.5 -69t-187 67t-65 199v1104h202v-1118q0 -62 48 -62q45 0 45 62zM469 1468h-375v123h375v-123z" />
    <glyph glyph-name="umacron" unicode="&#x16b;" horiz-adv-x="557" 
d="M35 1008h201v-775q0 -42 8 -56.5t35 -14.5q26 0 34.5 15t8.5 56v775h200v-1008h-188l-2 86h-8q-27 -53 -58.5 -74.5t-79.5 -21.5t-79.5 17.5t-46.5 53t-20 74.5t-5 98v775zM467 1130h-375v123h375v-123z" />
    <glyph glyph-name="Ubreve" unicode="&#x16c;" horiz-adv-x="565" 
d="M326 242v1118h206v-1102q0 -130 -63.5 -199t-185.5 -69t-187 67t-65 199v1104h202v-1118q0 -62 48 -62q45 0 45 62zM279 1395q-100 0 -161 69t-61 193h144q3 -139 78 -139q72 0 75 139h146q0 -126 -60.5 -194t-160.5 -68z" />
    <glyph glyph-name="ubreve" unicode="&#x16d;" horiz-adv-x="557" 
d="M35 1008h201v-775q0 -42 8 -56.5t35 -14.5q26 0 34.5 15t8.5 56v775h200v-1008h-188l-2 86h-8q-27 -53 -58.5 -74.5t-79.5 -21.5t-79.5 17.5t-46.5 53t-20 74.5t-5 98v775zM276 1057q-99 0 -160 69t-61 193h144q1 -72 20 -105.5t57 -33.5q73 0 76 139h146
q0 -126 -61 -194t-161 -68z" />
    <glyph glyph-name="Uring" unicode="&#x16e;" horiz-adv-x="565" 
d="M326 242v1118h206v-1102q0 -130 -63.5 -199t-185.5 -69t-187 67t-65 199v1104h202v-1118q0 -62 48 -62q45 0 45 62zM283 1475q55 0 55 73q0 74 -55 74q-27 0 -41.5 -20t-14.5 -54q0 -73 56 -73zM283 1395q-68 0 -103 40.5t-35 112.5t35 113t103 41q67 0 102 -41t35 -113
t-34.5 -112.5t-102.5 -40.5z" />
    <glyph glyph-name="uring" unicode="&#x16f;" horiz-adv-x="557" 
d="M35 1008h201v-775q0 -42 8 -56.5t35 -14.5q26 0 34.5 15t8.5 56v775h200v-1008h-188l-2 86h-8q-27 -53 -58.5 -74.5t-79.5 -21.5t-79.5 17.5t-46.5 53t-20 74.5t-5 98v775zM279 1137q55 0 55 73q0 74 -55 74q-27 0 -41.5 -20t-14.5 -54q0 -73 56 -73zM279 1057
q-68 0 -103 40.5t-35 112.5t35 113t103 41q67 0 102 -41t35 -113t-34.5 -112.5t-102.5 -40.5z" />
    <glyph glyph-name="Uhungarumlaut" unicode="&#x170;" horiz-adv-x="565" 
d="M326 242v1118h206v-1102q0 -130 -63.5 -199t-185.5 -69t-187 67t-65 199v1104h202v-1118q0 -62 48 -62q45 0 45 62zM188 1395l-90 43l117 282l123 -69zM377 1395l-88 43l114 282l125 -69z" />
    <glyph glyph-name="uhungarumlaut" unicode="&#x171;" horiz-adv-x="557" 
d="M35 1008h201v-775q0 -42 8 -56.5t35 -14.5q26 0 34.5 15t8.5 56v775h200v-1008h-188l-2 86h-8q-27 -53 -58.5 -74.5t-79.5 -21.5t-79.5 17.5t-46.5 53t-20 74.5t-5 98v775zM184 1057l-90 43l117 282l123 -69zM373 1057l-88 43l114 282l125 -69z" />
    <glyph glyph-name="Uogonek" unicode="&#x172;" horiz-adv-x="565" 
d="M354 -272v-162q-40 -21 -104 -21q-77 0 -113.5 35.5t-36.5 118.5v61q0 155 146 222v10q-215 19 -215 264v1104h202v-1118q0 -62 48 -62q45 0 45 62v1118h206v-1102q0 -111 -47 -178t-137 -84q-115 -74 -115 -176v-56q0 -26 13.5 -35.5t46.5 -9.5q29 0 61 9z" />
    <glyph glyph-name="uogonek" unicode="&#x173;" horiz-adv-x="557" 
d="M518 -272v-162q-40 -21 -102 -21q-78 0 -115 35.5t-37 118.5v61q0 164 176 234v6h-106l-2 86h-8q-27 -53 -58.5 -74.5t-79.5 -21.5t-79.5 17.5t-46.5 53t-20 74.5t-5 98v775h201v-775q0 -42 8 -56.5t35 -14.5q26 0 34.5 15t8.5 56v775h200v-1008q-123 -80 -123 -180v-56
q0 -26 13 -35.5t45 -9.5q29 0 61 9z" />
    <glyph glyph-name="Wcircumflex" unicode="&#x174;" horiz-adv-x="847" 
d="M365 0h-265l-94 1360h201l43 -952h8l55 952h222l61 -952h8l41 952h197l-94 -1360h-265l-55 954h-8zM637 1462l-86 -67l-131 149l-131 -149l-86 67l129 197h176z" />
    <glyph glyph-name="wcircumflex" unicode="&#x175;" horiz-adv-x="774" 
d="M332 0h-244l-84 1008h186l35 -670h8l52 670h202l56 -670h8l35 670h182l-84 -1008h-244l-49 690h-8zM602 1124l-86 -67l-131 149l-131 -149l-86 67l129 197h176z" />
    <glyph glyph-name="Ycircumflex" unicode="&#x176;" horiz-adv-x="565" 
d="M391 0h-209v559l-178 801h205l76 -445h8l65 445h203l-170 -803v-557zM506 1462l-86 -67l-131 149l-131 -149l-86 67l129 197h176z" />
    <glyph glyph-name="ycircumflex" unicode="&#x177;" 
d="M236 1008v-766q0 -62 45 -62q44 0 47 62v766h192v-1246q0 -121 -60.5 -180t-183.5 -59q-121 0 -179 58.5t-58 180.5v177h190v-177q0 -61 47 -61q46 0 46 61v312h-9q-40 -74 -127 -74q-83 0 -117 50.5t-34 146.5v811h201zM502 1124l-86 -67l-131 149l-131 -149l-86 67
l129 197h176z" />
    <glyph glyph-name="Ydieresis" unicode="&#x178;" horiz-adv-x="565" 
d="M391 0h-209v559l-178 801h205l76 -445h8l65 445h203l-170 -803v-557zM258 1450h-184v182h184v-182zM500 1450h-185v182h185v-182z" />
    <glyph glyph-name="Ydieresis" unicode="&#x3ab;" horiz-adv-x="565" 
d="M391 0h-209v559l-178 801h205l76 -445h8l65 445h203l-170 -803v-557zM258 1450h-184v182h184v-182zM500 1450h-185v182h185v-182z" />
    <glyph glyph-name="Zacute" unicode="&#x179;" horiz-adv-x="516" 
d="M498 0h-480v190l263 984h-261v186h469v-189l-258 -985h267v-186zM451 1602l-246 -207l-76 78l221 247z" />
    <glyph glyph-name="zacute" unicode="&#x17a;" horiz-adv-x="466" 
d="M446 0h-426v184l220 645h-215v179h415v-179l-215 -647h221v-182zM426 1264l-246 -207l-76 78l222 247z" />
    <glyph glyph-name="Zdotaccent" unicode="&#x17b;" horiz-adv-x="516" 
d="M498 0h-480v190l263 984h-261v186h469v-189l-258 -985h267v-186zM354 1450h-200v182h200v-182z" />
    <glyph glyph-name="zdotaccent" unicode="&#x17c;" horiz-adv-x="466" 
d="M446 0h-426v184l220 645h-215v179h415v-179l-215 -647h221v-182zM330 1112h-201v182h201v-182z" />
    <glyph glyph-name="Zcaron" unicode="&#x17d;" horiz-adv-x="516" 
d="M498 0h-480v190l263 984h-261v186h469v-189l-258 -985h267v-186zM346 1423h-176l-129 197l86 68l131 -150l131 150l86 -68z" />
    <glyph glyph-name="zcaron" unicode="&#x17e;" horiz-adv-x="466" 
d="M446 0h-426v184l220 645h-215v179h415v-179l-215 -647h221v-182zM322 1085h-177l-129 197l86 68l131 -150l132 150l86 -68z" />
    <glyph glyph-name="uni018E" unicode="&#x18e;" horiz-adv-x="442" 
d="M14 1360h398v-1360h-385v186h180v367h-158v186h158v432h-193v189z" />
    <glyph glyph-name="uni018F" unicode="&#x18f;" 
d="M25 967v114q0 131 64.5 209t189.5 78q123 0 186 -77t63 -210v-821q0 -128 -63 -199t-186 -71q-126 0 -190 71t-64 199v559h301v291q0 66 -47 66q-50 0 -50 -66v-143h-204zM227 633v-389q0 -64 52 -64q47 0 47 64v389h-99z" />
    <glyph glyph-name="uni018F" unicode="&#x4d8;" 
d="M25 967v114q0 131 64.5 209t189.5 78q123 0 186 -77t63 -210v-821q0 -128 -63 -199t-186 -71q-126 0 -190 71t-64 199v559h301v291q0 66 -47 66q-50 0 -50 -66v-143h-204zM227 633v-389q0 -64 52 -64q47 0 47 64v389h-99z" />
    <glyph glyph-name="florin" unicode="&#x192;" horiz-adv-x="477" 
d="M461 807h-107l-100 -987q-10 -99 -54 -136.5t-137 -37.5h-63v182h25q33 0 36 27l95 952h-76v123h88l29 272q10 98 53.5 136t136.5 38h74v-184h-35q-32 0 -35 -25l-24 -237h94v-123z" />
    <glyph glyph-name="uni0194" unicode="&#x194;" horiz-adv-x="634" 
d="M317 -477q-206 0 -206 213q0 44 19 161t91 513l-196 950h211l75 -467h8l78 467h211l-198 -950q73 -375 92.5 -493.5t19.5 -172.5q0 -103 -46 -162t-159 -59zM317 -336q43 0 43 66q0 64 -38 200h-15q-35 -123 -35 -202q0 -64 45 -64z" />
    <glyph glyph-name="uni019D" unicode="&#x19d;" horiz-adv-x="602" 
d="M571 0h-243l-119 944h-8q8 -133 8 -485v-697q0 -120 -51 -179.5t-146 -59.5q-37 0 -49 6v176q8 -4 27 -4q41 0 41 61v1598h276l84 -875h8q-8 258 -8 572v303h180v-1360z" />
    <glyph glyph-name="Ohorn" unicode="&#x1a0;" horiz-adv-x="647" 
d="M528 1092v-836q0 -133 -63.5 -199.5t-185.5 -66.5q-124 0 -189 69t-65 199v838q0 130 65 201t184 71q32 0 97.5 -7t89.5 -7q42 0 58 15t16 56q0 45 -7 76h105q14 -21 14 -92q0 -93 -22 -132.5t-76 -39.5q-24 0 -51 6q30 -61 30 -151zM324 242v872q0 62 -48 62
q-45 0 -45 -62v-872q0 -62 45 -62q48 0 48 62z" />
    <glyph glyph-name="ohorn" unicode="&#x1a1;" horiz-adv-x="622" 
d="M514 776v-547q0 -124 -58 -181.5t-182 -57.5q-123 0 -181 57.5t-58 181.5v547q0 240 231 240q36 0 94 -7.5t80 -7.5q41 0 55.5 16t14.5 56q0 49 -6 76h104q15 -23 15 -94q0 -92 -22.5 -131t-76.5 -39q-16 0 -26 2q16 -53 16 -111zM319 229v547q0 62 -45 62q-47 0 -47 -62
v-547q0 -61 47 -61q45 0 45 61z" />
    <glyph glyph-name="Uhorn" unicode="&#x1af;" horiz-adv-x="704" 
d="M326 242v1118h206q32 0 45 16t13 54q0 51 -6 71h106q15 -27 15 -94q0 -92 -23 -131t-76 -39q-20 0 -74 12v-991q0 -130 -63 -199t-186 -69q-122 0 -187 66.5t-65 199.5v1104h202v-1118q0 -62 48 -62q45 0 45 62z" />
    <glyph glyph-name="uhorn" unicode="&#x1b0;" horiz-adv-x="688" 
d="M35 1008h201v-795q0 -51 38 -51q36 0 48 47v799h200q28 0 39.5 15t11.5 54q0 42 -6 72h107q14 -25 14 -96q0 -90 -22.5 -129t-77.5 -39q-32 0 -66 12v-897h-188l-2 86h-6q-49 -96 -133 -96q-39 0 -67.5 14t-45.5 37.5t-27.5 60t-14 74.5t-3.5 88v744z" />
    <glyph glyph-name="uni04D9" unicode="&#x1dd;" horiz-adv-x="550" 
d="M35 668v108q0 240 241 240q122 0 181 -58.5t59 -181.5v-547q0 -239 -240 -239q-122 0 -181.5 59t-59.5 180v332h287v221q0 62 -46 62q-45 0 -45 -62v-114h-196zM229 418v-193q0 -61 47 -61q46 0 46 61v193h-93z" />
    <glyph glyph-name="uni04D9" unicode="&#x4d9;" horiz-adv-x="550" 
d="M35 668v108q0 240 241 240q122 0 181 -58.5t59 -181.5v-547q0 -239 -240 -239q-122 0 -181.5 59t-59.5 180v332h287v221q0 62 -46 62q-45 0 -45 -62v-114h-196zM229 418v-193q0 -61 47 -61q46 0 46 61v193h-93z" />
    <glyph glyph-name="uni04D9" unicode="&#x259;" horiz-adv-x="550" 
d="M35 668v108q0 240 241 240q122 0 181 -58.5t59 -181.5v-547q0 -239 -240 -239q-122 0 -181.5 59t-59.5 180v332h287v221q0 62 -46 62q-45 0 -45 -62v-114h-196zM229 418v-193q0 -61 47 -61q46 0 46 61v193h-93z" />
    <glyph glyph-name="Gcaron" unicode="&#x1e6;" horiz-adv-x="557" 
d="M524 0h-133l-8 53h-8q-37 -63 -125 -63q-103 0 -161 70.5t-58 197.5v838q0 130 63 201t182 71q120 0 184 -72t64 -204v-152h-194v174q0 62 -47 62q-45 0 -45 -62v-872q0 -62 45 -62q47 0 47 62v274h-60v184h254v-700zM373 1423h-176l-129 197l86 68l131 -150l131 150
l86 -68z" />
    <glyph glyph-name="gcaron" unicode="&#x1e7;" 
d="M520 -238q0 -239 -244 -239q-237 0 -237 239v177h190v-177q0 -61 47 -61q46 0 46 61v312h-9q-38 -74 -125 -74t-120 54t-33 169v608q0 86 43 135.5t115 49.5q87 0 137 -96h8l2 88h180v-1246zM236 782v-510q0 -51 8.5 -71.5t36.5 -20.5q47 0 47 80v500q0 84 -45 84
q-47 0 -47 -62zM367 1085h-177l-129 197l86 68l132 -150l131 150l86 -68z" />
    <glyph glyph-name="uni01F4" unicode="&#x1f4;" horiz-adv-x="557" 
d="M524 0h-133l-8 53h-8q-37 -63 -125 -63q-103 0 -161 70.5t-58 197.5v838q0 130 63 201t182 71q120 0 184 -72t64 -204v-152h-194v174q0 62 -47 62q-45 0 -45 -62v-872q0 -62 45 -62q47 0 47 62v274h-60v184h254v-700zM475 1602l-246 -207l-75 78l221 247z" />
    <glyph glyph-name="uni01F5" unicode="&#x1f5;" 
d="M520 -238q0 -239 -244 -239q-237 0 -237 239v177h190v-177q0 -61 47 -61q46 0 46 61v312h-9q-38 -74 -125 -74t-120 54t-33 169v608q0 86 43 135.5t115 49.5q87 0 137 -96h8l2 88h180v-1246zM236 782v-510q0 -51 8.5 -71.5t36.5 -20.5q47 0 47 80v500q0 84 -45 84
q-47 0 -47 -62zM475 1264l-246 -207l-75 78l221 247z" />
    <glyph glyph-name="uni01F8" unicode="&#x1f8;" horiz-adv-x="602" 
d="M571 0h-243l-119 944h-8q8 -136 8 -508v-436h-178v1360h276l84 -875h8q-8 258 -8 572v303h180v-1360zM358 1395l-245 207l102 118l219 -247z" />
    <glyph glyph-name="uni01F9" unicode="&#x1f9;" horiz-adv-x="559" 
d="M524 0h-200v793q0 51 -41 51q-38 0 -50 -45v-799h-198v1008h186l4 -88h8q45 96 138 96q69 0 111 -48.5t42 -133.5v-834zM334 1057l-246 207l102 118l220 -247z" />
    <glyph glyph-name="uni0237" unicode="&#x237;" horiz-adv-x="270" 
d="M-248 -238v183h191v-183q0 -61 45 -61q47 0 47 61v1246h198v-1246q0 -121 -60 -180t-183 -59q-121 0 -179.5 58.5t-58.5 180.5z" />
    <glyph glyph-name="uni0241" unicode="&#x241;" horiz-adv-x="524" 
d="M358 0h-208v455q0 111 28 186q17 44 59.5 113t49.5 90q16 50 16 131v139q0 62 -45 62q-27 0 -37 -17.5t-10 -56.5v-137h-195v127q0 74 9.5 121.5t35.5 84.5t74.5 53.5t124.5 16.5q73 0 120 -15t73.5 -48.5t36.5 -79t10 -115.5v-119q0 -113 -25 -180q-14 -33 -49.5 -89.5
t-48.5 -96.5q-19 -63 -19 -164v-461z" />
    <glyph glyph-name="uni0242" unicode="&#x242;" horiz-adv-x="548" 
d="M369 0h-201v221q0 54 22 111q16 37 57 91.5t52 74.5q20 38 20 77v203q0 60 -45 60q-47 0 -47 -62v-155h-190v124q0 146 55 208.5t180 62.5q123 0 182.5 -59t59.5 -183v-201q0 -49 -18 -98q-16 -37 -58 -91.5t-55 -84.5q-14 -40 -14 -80v-219z" />
    <glyph glyph-name="uni024C" unicode="&#x24c;" horiz-adv-x="614" 
d="M293 0h-205v580h-88v170h88v610h297q106 0 153.5 -54.5t47.5 -160.5v-305q0 -67 -30 -111t-83 -53v-8q56 -8 85.5 -45.5t29.5 -118.5v-504h-203v522q0 58 -49 58h-43v-580zM385 817v303q0 54 -51 54h-41v-424h41q51 0 51 67z" />
    <glyph glyph-name="uni024D" unicode="&#x24d;" horiz-adv-x="450" 
d="M266 0h-200v399h-68v121h68v488h188l2 -88h8q21 47 49.5 71.5t75.5 24.5q29 0 45 -8v-179q-21 9 -53 9q-63 0 -89 -30.5t-26 -94.5v-193h107v-121h-107v-399z" />
    <glyph glyph-name="uni0263" unicode="&#x263;" horiz-adv-x="542" 
d="M539 1008l-183 -752q60 -290 76.5 -384t16.5 -140q0 -209 -179 -209q-178 0 -178 207q0 47 15.5 135.5t76.5 390.5l-180 752h203l57 -340h10l62 340h203zM307 -291q0 65 -33 176h-8q-33 -111 -33 -174q0 -57 37 -57q20 0 28.5 13t8.5 42z" />
    <glyph glyph-name="uni0272" unicode="&#x272;" horiz-adv-x="559" 
d="M524 0h-200v793q0 51 -41 51q-38 0 -50 -45v-1037q0 -119 -57.5 -179t-163.5 -60q-41 0 -53 6v176q8 -4 29 -4q47 0 47 61v1246h186l4 -88h8q45 96 138 96q69 0 111 -48.5t42 -133.5v-834z" />
    <glyph glyph-name="circumflex" unicode="&#x2c6;" horiz-adv-x="497" 
d="M465 1124l-86 -67l-131 149l-131 -149l-86 67l129 197h176z" />
    <glyph glyph-name="caron" unicode="&#x2c7;" horiz-adv-x="493" 
d="M336 1085h-176l-129 197l86 68l131 -150l131 150l86 -68z" />
    <glyph glyph-name="uni02C9" unicode="&#x2c9;" horiz-adv-x="0" 
d="M-98 1130h-375v123h375v-123z" />
    <glyph glyph-name="breve" unicode="&#x2d8;" horiz-adv-x="505" 
d="M252 1057q-99 0 -160 69t-61 193h143q3 -139 78 -139q73 0 76 139h145q0 -126 -60.5 -194t-160.5 -68z" />
    <glyph glyph-name="dotaccent" unicode="&#x2d9;" horiz-adv-x="264" 
d="M231 1112h-200v182h200v-182z" />
    <glyph glyph-name="ring" unicode="&#x2da;" horiz-adv-x="337" 
d="M168 1137q55 0 55 73q0 74 -55 74t-55 -74q0 -73 55 -73zM168 1057q-68 0 -102.5 40.5t-34.5 112.5t35 113t102 41t102 -41t35 -113t-34.5 -112.5t-102.5 -40.5z" />
    <glyph glyph-name="ogonek" unicode="&#x2db;" horiz-adv-x="307" 
d="M272 -272v-162q-40 -21 -102 -21q-78 0 -115 35.5t-37 118.5v61q0 172 195 240h63q-122 -79 -122 -180v-56q0 -26 13 -35.5t44 -9.5q29 0 61 9z" />
    <glyph glyph-name="tilde" unicode="&#x2dc;" horiz-adv-x="497" 
d="M381 1243l84 -45q-11 -60 -43 -89.5t-76 -29.5q-36 0 -92 27t-84 27q-43 0 -55 -50l-84 47q12 59 44 88t77 29q35 0 90.5 -26.5t83.5 -26.5q42 0 55 49z" />
    <glyph glyph-name="hungarumlaut" unicode="&#x2dd;" horiz-adv-x="491" 
d="M121 1057l-90 43l116 282l123 -69zM309 1057l-88 43l115 282l125 -69z" />
    <glyph glyph-name="gravecomb" unicode="&#x300;" horiz-adv-x="0" 
d="M-229 1057l-246 207l102 118l219 -247z" />
    <glyph glyph-name="acutecomb" unicode="&#x301;" horiz-adv-x="0" 
d="M-125 1264l-246 -207l-75 78l221 247z" />
    <glyph glyph-name="uni0302" unicode="&#x302;" horiz-adv-x="0" 
d="M-68 1124l-86 -67l-131 149l-131 -149l-86 67l129 197h176z" />
    <glyph glyph-name="tildecomb" unicode="&#x303;" horiz-adv-x="0" 
d="M-152 1243l84 -45q-11 -60 -42.5 -89.5t-75.5 -29.5q-36 0 -92 27t-84 27q-44 0 -56 -50l-84 47q12 59 44 88t77 29q35 0 90.5 -26.5t83.5 -26.5q42 0 55 49z" />
    <glyph glyph-name="uni0304" unicode="&#x304;" horiz-adv-x="0" 
d="M-98 1130h-375v123h375v-123z" />
    <glyph glyph-name="uni0306" unicode="&#x306;" horiz-adv-x="0" 
d="M-285 1057q-99 0 -160 69t-61 193h144q1 -72 20 -105.5t57 -33.5q73 0 76 139h146q0 -126 -61 -194t-161 -68z" />
    <glyph glyph-name="uni0307" unicode="&#x307;" horiz-adv-x="0" 
d="M-182 1112h-201v182h201v-182z" />
    <glyph glyph-name="uni0308" unicode="&#x308;" horiz-adv-x="0" 
d="M-313 1112h-185v182h185v-182zM-72 1112h-184v182h184v-182z" />
    <glyph glyph-name="hookabovecomb" unicode="&#x309;" horiz-adv-x="0" 
d="M-258 1075h-92q0 33 13 56.5t28 33t28 23t13 29.5q0 20 -31 20q-38 0 -74 -31l-33 105q49 43 125 43q53 0 87 -32t34 -87q0 -33 -15.5 -57.5t-33.5 -36.5t-33.5 -29t-15.5 -37z" />
    <glyph glyph-name="uni030A" unicode="&#x30a;" horiz-adv-x="0" 
d="M-285 1137q56 0 56 73q0 34 -14.5 54t-41.5 20q-55 0 -55 -74q0 -73 55 -73zM-285 1057q-68 0 -102.5 40.5t-34.5 112.5t35 113t102 41q68 0 103 -41t35 -113t-35 -112.5t-103 -40.5z" />
    <glyph glyph-name="uni030B" unicode="&#x30b;" horiz-adv-x="0" 
d="M-410 1057l-90 43l117 282l123 -69zM-221 1057l-88 43l114 282l125 -69z" />
    <glyph glyph-name="uni030C" unicode="&#x30c;" horiz-adv-x="0" 
d="M-195 1085h-176l-129 197l86 68l131 -150l131 150l86 -68z" />
    <glyph glyph-name="uni0313" unicode="&#x313;" horiz-adv-x="0" 
d="M-197 1497v-88q-44 -8 -65 -26.5t-21 -55.5v-53h88v-193h-178v193q0 112 42.5 165t133.5 58z" />
    <glyph glyph-name="uni031B" unicode="&#x31b;" horiz-adv-x="118" 
d="M-145 940v68q81 -7 90 -7q41 0 51 11.5t10 50.5q0 56 -6 86h104q15 -27 15 -100q0 -86 -23.5 -125t-75.5 -39q-38 0 -85 16.5t-80 38.5z" />
    <glyph glyph-name="dotbelowcomb" unicode="&#x323;" horiz-adv-x="0" 
d="M-182 -274h-199v180h199v-180z" />
    <glyph glyph-name="uni0326" unicode="&#x326;" horiz-adv-x="0" 
d="M-373 -455v88q44 8 65 26.5t21 55.5v54h-88v192h178v-192q0 -112 -42.5 -165.5t-133.5 -58.5z" />
    <glyph glyph-name="uni0328" unicode="&#x328;" horiz-adv-x="0" 
d="M-160 -272v-162q-40 -21 -102 -21q-78 0 -115 35.5t-37 118.5v61q0 172 195 240h63q-123 -80 -123 -180v-56q0 -26 13 -35.5t45 -9.5q29 0 61 9z" />
    <glyph glyph-name="uni032D" unicode="&#x32d;" horiz-adv-x="0" 
d="M-68 -322l-86 -67l-131 149l-131 -149l-86 67l129 197h176z" />
    <glyph glyph-name="tonos" unicode="&#x384;" horiz-adv-x="172" 
d="M137 1073h-121v359h156z" />
    <glyph glyph-name="dieresistonos" unicode="&#x385;" horiz-adv-x="0" 
d="M-219 1073h-121v359h156zM-365 1112h-200v182h200v-182zM16 1112h-200v182h200v-182z" />
    <glyph glyph-name="Alphatonos" unicode="&#x386;" horiz-adv-x="636" 
d="M629 0h-207l-23 309h-104l-21 -309h-202l133 1360h291zM344 1014l-37 -527h80l-35 527h-8zM137 1073h-121v359h156z" />
    <glyph glyph-name="anoteleia" unicode="&#x387;" horiz-adv-x="266" 
d="M233 643h-202v201h202v-201z" />
    <glyph glyph-name="Epsilontonos" unicode="&#x388;" horiz-adv-x="591" 
d="M575 0h-397v1360h385v-186h-180v-367h158v-189h-158v-432h192v-186zM137 1073h-121v359h156z" />
    <glyph glyph-name="Etatonos" unicode="&#x389;" horiz-adv-x="718" 
d="M686 0h-209v633h-92v-633h-209v1360h209v-541h92v541h209v-1360zM137 1073h-121v359h156z" />
    <glyph glyph-name="Iotatonos" unicode="&#x38a;" horiz-adv-x="417" 
d="M385 0h-209v1360h209v-1360zM137 1073h-121v359h156z" />
    <glyph glyph-name="Omicrontonos" unicode="&#x38c;" horiz-adv-x="694" 
d="M666 1092v-836q0 -132 -64.5 -199t-185.5 -67q-123 0 -188.5 69.5t-65.5 198.5v838q0 129 66 200.5t186 71.5t186 -72.5t66 -203.5zM461 242v872q0 62 -47 62q-45 0 -45 -62v-872q0 -62 45 -62q47 0 47 62zM137 1073h-121v359h156z" />
    <glyph glyph-name="Upsilontonos" unicode="&#x38e;" horiz-adv-x="735" 
d="M559 0h-209v559l-178 801h205l76 -445h8l65 445h203l-170 -803v-557zM137 1073h-121v359h156z" />
    <glyph glyph-name="Omegatonos" unicode="&#x38f;" horiz-adv-x="737" 
d="M721 0h-258v170q29 33 29 207v731q0 68 -54 68q-53 0 -53 -68v-731q0 -174 29 -207v-170h-258v178h108v8q-92 74 -92 193v754q0 114 70 174.5t196 60.5t196.5 -60.5t70.5 -174.5v-754q0 -118 -93 -193v-8h109v-178zM137 1073h-121v359h156z" />
    <glyph glyph-name="iotadieresistonos" unicode="&#x390;" horiz-adv-x="528" 
d="M406 0h-27q-221 0 -221 211v797h198v-797q0 -35 25 -35h25v-176zM317 1073h-120v359h155zM174 1112h-201v182h201v-182zM553 1112h-201v182h201v-182z" />
    <glyph glyph-name="Gamma" unicode="&#x393;" horiz-adv-x="454" 
d="M240 0h-209v1360h405v-191h-196v-1169z" />
    <glyph glyph-name="Gamma" unicode="&#x413;" horiz-adv-x="454" 
d="M240 0h-209v1360h405v-191h-196v-1169z" />
    <glyph glyph-name="uni0394" unicode="&#x394;" horiz-adv-x="571" 
d="M563 0h-557l133 1360h291zM338 190l-51 824h-8l-52 -824h111z" />
    <glyph glyph-name="Theta" unicode="&#x398;" 
d="M528 1092v-836q0 -133 -63.5 -199.5t-185.5 -66.5q-124 0 -189 69t-65 199v838q0 129 65.5 200.5t185.5 71.5t186 -72.5t66 -203.5zM324 618h-93v189h93v-189zM338 242v872q0 62 -62 62q-61 0 -61 -62v-872q0 -62 61 -62q62 0 62 62z" />
    <glyph glyph-name="Lambda" unicode="&#x39b;" horiz-adv-x="571" 
d="M141 1360h289l133 -1360h-205l-71 977h-8l-70 -977h-201z" />
    <glyph glyph-name="Xi" unicode="&#x39e;" horiz-adv-x="442" 
d="M428 0h-414v186h414v-186zM393 618h-344v189h344v-189zM416 1174h-389v186h389v-186z" />
    <glyph glyph-name="Pi" unicode="&#x3a0;" horiz-adv-x="573" 
d="M541 0h-209v1174h-92v-1174h-209v1360h510v-1360z" />
    <glyph glyph-name="Pi" unicode="&#x41f;" horiz-adv-x="573" 
d="M541 0h-209v1174h-92v-1174h-209v1360h510v-1360z" />
    <glyph glyph-name="Sigma" unicode="&#x3a3;" horiz-adv-x="442" 
d="M426 0h-408v186l134 500l-136 494v180h400v-186h-201l129 -486l-131 -502h213v-186z" />
    <glyph glyph-name="Phi" unicode="&#x3a6;" horiz-adv-x="792" 
d="M498 0h-203v274h-74q-107 0 -154 54t-47 159v457q0 105 47 159t154 54h74v203h203v-203h73q107 0 154 -54t47 -159v-457q0 -105 -47 -159t-154 -54h-73v-274zM590 520v389q0 68 -51 68h-41v-524h41q51 0 51 67zM295 453v524h-41q-51 0 -51 -68v-389q0 -67 51 -67h41z" />
    <glyph glyph-name="Phi" unicode="&#x424;" horiz-adv-x="792" 
d="M498 0h-203v274h-74q-107 0 -154 54t-47 159v457q0 105 47 159t154 54h74v203h203v-203h73q107 0 154 -54t47 -159v-457q0 -105 -47 -159t-154 -54h-73v-274zM590 520v389q0 68 -51 68h-41v-524h41q51 0 51 67zM295 453v524h-41q-51 0 -51 -68v-389q0 -67 51 -67h41z" />
    <glyph glyph-name="Psi" unicode="&#x3a8;" horiz-adv-x="804" 
d="M504 0h-203v274h-74q-107 0 -153.5 53.5t-46.5 159.5v873h182v-840q0 -67 51 -67h41v907h203v-907h41q51 0 51 67v840h182v-873q0 -106 -46.5 -159.5t-153.5 -53.5h-74v-274z" />
    <glyph glyph-name="uni03A9" unicode="&#x3a9;" horiz-adv-x="595" 
d="M580 0h-258v170q28 32 28 207v731q0 68 -53 68t-53 -68v-731q0 -175 28 -207v-170h-258v178h109v8q-92 74 -92 193v754q0 114 70 174.5t196 60.5t196 -60.5t70 -174.5v-754q0 -119 -92 -193v-8h109v-178z" />
    <glyph glyph-name="alphatonos" unicode="&#x3ac;" horiz-adv-x="583" 
d="M569 0h-26q-85 0 -129.5 20t-63.5 66h-8q-49 -96 -152 -96q-39 0 -67 13t-45 35t-26.5 57t-13 72t-3.5 87v582q0 83 43 131.5t117 48.5q46 0 78 -22.5t57 -73.5h8l2 88h180v-797q0 -35 25 -35h24v-176zM236 782v-559q0 -61 47 -61q23 0 32.5 15t12.5 50v555
q-3 35 -14 48.5t-31 13.5q-47 0 -47 -62zM334 1073h-121v359h156z" />
    <glyph glyph-name="epsilontonos" unicode="&#x3ad;" horiz-adv-x="540" 
d="M326 1073h-121v359h155zM504 354v-166q0 -198 -232 -198q-123 0 -182 54.5t-59 152.5v192q0 72 30 103.5t86 39.5v9q-100 15 -100 121v161q0 94 57 143.5t166 49.5q113 0 173.5 -53.5t60.5 -151.5v-145h-187v129q0 51 -45 51t-45 -62v-141q0 -49 49 -49h70v-127h-65
q-56 0 -56 -53v-193q0 -61 45 -61t45 61v133h189z" />
    <glyph glyph-name="etatonos" unicode="&#x3ae;" horiz-adv-x="559" 
d="M524 -477h-200v1270q0 51 -41 51q-38 0 -50 -45v-799h-198v1008h186l4 -88h8q45 96 138 96q69 0 111 -48.5t42 -133.5v-1311zM334 1073h-121v359h156z" />
    <glyph glyph-name="iotatonos" unicode="&#x3af;" horiz-adv-x="296" 
d="M283 0h-27q-221 0 -221 211v797h198v-797q0 -35 25 -35h25v-176zM199 1073h-121v359h155z" />
    <glyph glyph-name="upsilondieresistonos" unicode="&#x3b0;" horiz-adv-x="542" 
d="M326 1073h-121v359h155zM319 229v779h189v-779q0 -123 -57.5 -181t-180.5 -58q-121 0 -178 58t-57 181v779h192v-779q0 -61 47 -61q45 0 45 61zM182 1112h-200v182h200v-182zM561 1112h-201v182h201v-182z" />
    <glyph glyph-name="alpha" unicode="&#x3b1;" horiz-adv-x="583" 
d="M569 0h-26q-85 0 -129.5 20t-63.5 66h-8q-49 -96 -152 -96q-39 0 -67 13t-45 35t-26.5 57t-13 72t-3.5 87v582q0 83 43 131.5t117 48.5q46 0 78 -22.5t57 -73.5h8l2 88h180v-797q0 -35 25 -35h24v-176zM236 782v-559q0 -61 47 -61q23 0 32.5 15t12.5 50v555
q-3 35 -14 48.5t-31 13.5q-47 0 -47 -62z" />
    <glyph glyph-name="beta" unicode="&#x3b2;" horiz-adv-x="557" 
d="M231 -477h-196v1667q0 105 55 149.5t189 44.5q125 0 179 -42.5t54 -149.5v-295q0 -103 -102 -133v-8q112 -34 112 -178v-349q0 -131 -56.5 -185t-156.5 -54q-53 0 -78 14v-481zM324 221v389q0 67 -48 64h-22v153h22q48 0 48 52v251q0 40 -9 58t-39 18t-37.5 -17t-7.5 -59
v-952q19 -16 37 -16q56 0 56 59z" />
    <glyph glyph-name="gamma" unicode="&#x3b3;" horiz-adv-x="522" 
d="M356 -477h-196v368l-156 1117h201l55 -703h8l58 703h190l-160 -1117v-368z" />
    <glyph glyph-name="gamma" unicode="&#x4af;" horiz-adv-x="522" 
d="M356 -477h-196v368l-156 1117h201l55 -703h8l58 703h190l-160 -1117v-368z" />
    <glyph glyph-name="delta" unicode="&#x3b4;" horiz-adv-x="548" 
d="M35 680q0 108 80 170q-47 47 -47 131v180q0 120 64 171.5t192 51.5q74 0 131 -8v-178q-62 19 -123 19q-41 0 -57.5 -12.5t-16.5 -43.5v-172q0 -27 11 -40t38 -29q124 -81 144 -99q63 -57 63 -174v-418q0 -124 -58 -181.5t-182 -57.5q-123 0 -181 57.5t-58 181.5v451z
M319 229v428q0 24 -15 44t-60 53q-17 -31 -17 -76v-449q0 -61 47 -61q45 0 45 61z" />
    <glyph glyph-name="epsilon" unicode="&#x3b5;" horiz-adv-x="540" 
d="M504 354v-166q0 -198 -232 -198q-123 0 -182 54.5t-59 152.5v192q0 72 30 103.5t86 39.5v9q-100 15 -100 121v161q0 94 57 143.5t166 49.5q113 0 173.5 -53.5t60.5 -151.5v-145h-187v129q0 51 -45 51t-45 -62v-141q0 -49 49 -49h70v-127h-65q-56 0 -56 -53v-193
q0 -61 45 -61t45 61v133h189z" />
    <glyph glyph-name="zeta" unicode="&#x3b6;" horiz-adv-x="495" 
d="M461 -375h-201v344q0 31 -27 31h-53q-145 0 -145 154v370q0 71 11 119.5t40 112.5l197 442h-230v178h424v-178l-221 -514q-23 -59 -23 -133v-346q0 -29 27 -29h78q123 0 123 -141v-410z" />
    <glyph glyph-name="eta" unicode="&#x3b7;" horiz-adv-x="559" 
d="M524 -477h-200v1270q0 51 -41 51q-38 0 -50 -45v-799h-198v1008h186l4 -88h8q45 96 138 96q69 0 111 -48.5t42 -133.5v-1311z" />
    <glyph glyph-name="theta" unicode="&#x3b8;" horiz-adv-x="548" 
d="M35 229v908q0 123 58 181t181 58q122 0 181 -58.5t59 -180.5v-908q0 -122 -59 -180.5t-181 -58.5q-123 0 -181 58t-58 181zM319 229v408h-92v-408q0 -61 47 -61q45 0 45 61zM319 784v353q0 61 -45 61q-47 0 -47 -61v-353h92z" />
    <glyph glyph-name="iota" unicode="&#x3b9;" horiz-adv-x="296" 
d="M283 0h-27q-221 0 -221 211v797h198v-797q0 -35 25 -35h25v-176z" />
    <glyph glyph-name="kappa" unicode="&#x3ba;" horiz-adv-x="552" 
d="M547 0h-209l-64 360h-8l-33 -102v-258h-198v1008h198v-355h9q6 46 94 355h213l-129 -412z" />
    <glyph glyph-name="kappa" unicode="&#x43a;" horiz-adv-x="552" 
d="M547 0h-209l-64 360h-8l-33 -102v-258h-198v1008h198v-355h9q6 46 94 355h213l-129 -412z" />
    <glyph glyph-name="lambda" unicode="&#x3bb;" horiz-adv-x="559" 
d="M543 174v-174h-72q-71 0 -101 28.5t-38 88.5l-53 409h-9l-69 -526h-197l189 1040l-15 127q-3 33 -33 33h-36v176h100q77 0 113.5 -31t46.5 -116l129 -1024q3 -31 26 -31h19z" />
    <glyph glyph-name="uni03BC" unicode="&#x3bc;" horiz-adv-x="557" 
d="M233 -477h-198v1485h201v-795q0 -51 40 -51q34 0 46 47v799h200v-1008h-188l-2 86h-8q-45 -96 -113 -96z" />
    <glyph glyph-name="xi" unicode="&#x3be;" horiz-adv-x="528" 
d="M492 -375h-199v344q0 31 -27 31h-86q-145 0 -145 154v487q0 71 30.5 103t86.5 40v9q-103 18 -103 120v279q0 94 57 143t166 49q115 0 175.5 -53t60.5 -151v-138h-189v121q0 51 -43 51q-45 0 -45 -61v-258q0 -49 50 -49h65v-127h-57q-56 0 -56 -53v-461q0 -29 27 -29h111
q121 0 121 -141v-410z" />
    <glyph glyph-name="pi" unicode="&#x3c0;" horiz-adv-x="688" 
d="M637 0h-27q-221 0 -221 211v618h-92v-829h-199v829h-84v179h658v-179h-84v-618q0 -35 24 -35h25v-176z" />
    <glyph glyph-name="rho" unicode="&#x3c1;" horiz-adv-x="548" 
d="M319 223v553q0 62 -47 62q-45 0 -45 -62v-567q6 -47 45 -47q47 0 47 61zM231 -477h-196v1253q0 123 58 181.5t181 58.5q122 0 181 -58.5t59 -181.5v-604q0 -84 -41 -133t-111 -49q-83 0 -122 73h-9v-540z" />
    <glyph glyph-name="uni03C2" unicode="&#x3c2;" horiz-adv-x="542" 
d="M508 -375h-201v344q0 31 -24 31h-103q-145 0 -145 154v622q0 122 58.5 181t180.5 59q121 0 177.5 -59t56.5 -181v-129h-189v129q0 62 -45 62q-47 0 -47 -62v-571q0 -29 29 -29h131q121 0 121 -141v-410z" />
    <glyph glyph-name="sigma" unicode="&#x3c3;" horiz-adv-x="581" 
d="M565 1008v-179h-65q6 -30 6 -69v-531q0 -124 -55.5 -181.5t-176.5 -57.5q-123 0 -181 58t-58 181v539q0 123 58 181.5t181 58.5h291zM319 760q0 44 -8 71h-24q-32 0 -46 -14.5t-14 -48.5v-539q0 -61 47 -61q45 0 45 61v531z" />
    <glyph glyph-name="tau" unicode="&#x3c4;" horiz-adv-x="434" 
d="M365 0h-27q-221 0 -221 211v618h-103v179h404v-179h-103v-618q0 -35 25 -35h25v-176z" />
    <glyph glyph-name="upsilon" unicode="&#x3c5;" horiz-adv-x="542" 
d="M319 229v779h189v-779q0 -123 -57.5 -181t-180.5 -58q-121 0 -178 58t-57 181v779h192v-779q0 -61 47 -61q45 0 45 61z" />
    <glyph glyph-name="phi" unicode="&#x3c6;" horiz-adv-x="786" 
d="M487 -477h-188v477h-106q-71 0 -114.5 48.5t-43.5 131.5v645q0 83 43.5 133t114.5 50h106v368h188v-368h107q71 0 114.5 -50t43.5 -133v-645q0 -83 -43.5 -131.5t-114.5 -48.5h-107v-477zM299 162v682h-35q-45 0 -45 -62v-559q0 -61 45 -61h35zM487 844v-682h35
q45 0 45 61v559q0 62 -45 62h-35z" />
    <glyph glyph-name="phi" unicode="&#x444;" horiz-adv-x="786" 
d="M487 -477h-188v477h-106q-71 0 -114.5 48.5t-43.5 131.5v645q0 83 43.5 133t114.5 50h106v368h188v-368h107q71 0 114.5 -50t43.5 -133v-645q0 -83 -43.5 -131.5t-114.5 -48.5h-107v-477zM299 162v682h-35q-45 0 -45 -62v-559q0 -61 45 -61h35zM487 844v-682h35
q45 0 45 61v559q0 62 -45 62h-35z" />
    <glyph glyph-name="chi" unicode="&#x3c7;" horiz-adv-x="546" 
d="M543 -477h-209l-60 483h-8l-57 -483h-205l143 751l-137 734h205l59 -449h9l55 449h199l-138 -701z" />
    <glyph glyph-name="psi" unicode="&#x3c8;" horiz-adv-x="786" 
d="M487 -477h-188v477h-106q-71 0 -114.5 48.5t-43.5 131.5v828h184v-785q0 -61 45 -61h35v1214h188v-1214h35q45 0 45 61v785h185v-828q0 -83 -43.5 -131.5t-114.5 -48.5h-107v-477z" />
    <glyph glyph-name="omega" unicode="&#x3c9;" horiz-adv-x="811" 
d="M582 231v592q0 112 -37 185h190q39 -53 39 -185v-587q0 -128 -45.5 -187t-138.5 -59q-112 0 -180 82h-9q-68 -82 -180 -82q-95 0 -140.5 59t-45.5 187v587q0 127 39 185h190q-37 -73 -37 -185v-592q0 -63 47 -63q45 0 45 63v484h170v-484q0 -63 46 -63q47 0 47 63z" />
    <glyph glyph-name="iotadieresis" unicode="&#x3ca;" horiz-adv-x="399" 
d="M344 0h-27q-221 0 -221 211v797h199v-797q0 -35 24 -35h25v-176zM170 1112h-184v182h184v-182zM412 1112h-185v182h185v-182z" />
    <glyph glyph-name="upsilondieresis" unicode="&#x3cb;" horiz-adv-x="542" 
d="M319 229v779h189v-779q0 -123 -57.5 -181t-180.5 -58q-121 0 -178 58t-57 181v779h192v-779q0 -61 47 -61q45 0 45 61zM246 1112h-185v182h185v-182zM487 1112h-184v182h184v-182z" />
    <glyph glyph-name="omicrontonos" unicode="&#x3cc;" horiz-adv-x="548" 
d="M514 776v-547q0 -122 -59 -180.5t-181 -58.5q-123 0 -181 58t-58 181v547q0 123 58 181.5t181 58.5q122 0 181 -58.5t59 -181.5zM319 229v547q0 62 -45 62q-47 0 -47 -62v-547q0 -61 47 -61q45 0 45 61zM328 1073h-121v359h155z" />
    <glyph glyph-name="upsilontonos" unicode="&#x3cd;" horiz-adv-x="542" 
d="M322 1073h-121v359h155zM319 229v779h189v-779q0 -123 -57.5 -181t-180.5 -58q-121 0 -178 58t-57 181v779h192v-779q0 -61 47 -61q45 0 45 61z" />
    <glyph glyph-name="omegatonos" unicode="&#x3ce;" horiz-adv-x="811" 
d="M582 231v592q0 112 -37 185h190q39 -53 39 -185v-587q0 -128 -45.5 -187t-138.5 -59q-112 0 -180 82h-9q-68 -82 -180 -82q-95 0 -140.5 59t-45.5 187v587q0 127 39 185h190q-37 -73 -37 -185v-592q0 -63 47 -63q45 0 45 63v484h170v-484q0 -63 46 -63q47 0 47 63z
M446 1073h-120v359h155z" />
    <glyph glyph-name="uni0402" unicode="&#x402;" horiz-adv-x="671" 
d="M127 0v1174h-109v186h437v-186h-119v-332h8q36 36 69 51.5t79 15.5q76 0 111.5 -41.5t35.5 -126.5v-979q0 -120 -65.5 -179.5t-190.5 -59.5q-124 0 -190 59.5t-66 179.5v156h209v-156q0 -61 45 -61q47 0 47 61v918q0 43 -45 43q-22 0 -32 -13.5t-15 -47.5v-662h-209z" />
    <glyph glyph-name="uni0403" unicode="&#x403;" horiz-adv-x="454" 
d="M424 1602l-246 -207l-76 78l222 247zM240 0h-209v1360h405v-191h-196v-1169z" />
    <glyph glyph-name="uni0404" unicode="&#x404;" horiz-adv-x="557" 
d="M524 395v-139q0 -266 -243 -266q-122 0 -186 69t-64 199v838q0 130 63.5 201t181.5 71q120 0 184 -72t64 -204v-117h-194v139q0 62 -47 62q-45 0 -45 -62v-313h122v-170h-122v-389q0 -62 45 -62q47 0 47 62v153h194z" />
    <glyph glyph-name="uni0409" unicode="&#x409;" horiz-adv-x="915" 
d="M606 1360v-541h86q109 0 155 -48t46 -146v-412q0 -213 -201 -213h-295v1174h-78l-12 -390q-18 -528 -74 -667q-26 -67 -70 -92t-118 -25h-27v190h13q27 0 41.5 11.5t23.5 44.5q26 95 41 540l17 574h452zM606 184h41q29 0 40 18t11 60v313q0 37 -10.5 50.5t-40.5 13.5h-41
v-455z" />
    <glyph glyph-name="uni040A" unicode="&#x40a;" horiz-adv-x="849" 
d="M541 1360v-541h86q110 0 156 -48t46 -146v-412q0 -101 -46.5 -157t-155.5 -56h-295v639h-92v-639h-209v1360h209v-541h92v541h209zM541 184h43q28 0 38.5 17.5t10.5 60.5v313q0 37 -10 50.5t-39 13.5h-43v-455z" />
    <glyph glyph-name="uni040B" unicode="&#x40b;" horiz-adv-x="669" 
d="M127 0v1174h-109v186h437v-186h-119v-332h8q36 36 69 51.5t79 15.5q76 0 111.5 -41.5t35.5 -126.5v-741h-211v680q0 43 -43 43q-18 0 -29 -9.5t-20 -33.5v-680h-209z" />
    <glyph glyph-name="uni040C" unicode="&#x40c;" horiz-adv-x="565" 
d="M557 0h-211l-63 514h-7l-32 -133v-381h-213v1360h213v-469h8q6 47 98 469h209l-129 -514zM461 1602l-246 -207l-76 78l221 247z" />
    <glyph glyph-name="uni040D" unicode="&#x40d;" horiz-adv-x="602" 
d="M358 1395l-245 207l102 118l219 -247zM571 0h-200v799h-9l-124 -799h-207v1360h202v-705h9l108 705h221v-1360z" />
    <glyph glyph-name="uni040E" unicode="&#x40e;" horiz-adv-x="565" 
d="M281 1395q-100 0 -161 69t-61 193h144q3 -139 78 -139q72 0 75 139h146q0 -126 -60.5 -194t-160.5 -68zM326 242v338h-9q-17 -33 -54.5 -48.5t-74.5 -15.5q-75 0 -116 66.5t-41 197.5v580h202v-592q0 -61 43 -61q42 0 50 43v610h206v-1102q0 -130 -63 -199t-186 -69
q-122 0 -187 66.5t-65 199.5v197h202v-211q0 -62 48 -62q45 0 45 62z" />
    <glyph glyph-name="uni040F" unicode="&#x40f;" horiz-adv-x="573" 
d="M362 -307h-153v307h-178v1360h209v-1170h92v1170h209v-1360h-179v-307z" />
    <glyph glyph-name="uni0411" unicode="&#x411;" horiz-adv-x="548" 
d="M436 1169h-196v-350h86q36 0 64 -5t49 -17.5t36 -26t24.5 -37t15.5 -44t8.5 -54t3.5 -60t1 -67.5v-295q0 -101 -46.5 -157t-155.5 -56h-295v1360h405v-191zM240 184h43q28 0 38.5 17.5t10.5 60.5v313q0 37 -10 50.5t-39 13.5h-43v-455z" />
    <glyph glyph-name="uni0414" unicode="&#x414;" horiz-adv-x="688" 
d="M674 -307h-154v307h-352v-307h-154v497h21q24 0 35 9q31 22 45 138.5t24 446.5l19 576h450v-1170h66v-497zM399 190v984h-75l-15 -392q-17 -476 -49 -592h139z" />
    <glyph glyph-name="uni0416" unicode="&#x416;" horiz-adv-x="903" 
d="M221 0h-217l182 692l-174 668h213l117 -492h8v492h203v-492h8l117 492h213l-176 -668l184 -692h-217l-121 553h-8v-553h-203v553h-8z" />
    <glyph glyph-name="uni0418" unicode="&#x418;" horiz-adv-x="602" 
d="M571 0h-200v799h-9l-124 -799h-207v1360h202v-705h9l108 705h221v-1360z" />
    <glyph glyph-name="uni0419" unicode="&#x419;" horiz-adv-x="602" 
d="M305 1395q-99 0 -160 69t-61 193h143q3 -139 78 -139q73 0 76 139h145q0 -126 -60.5 -194t-160.5 -68zM571 0h-200v799h-9l-124 -799h-207v1360h202v-705h9l108 705h221v-1360z" />
    <glyph glyph-name="uni041B" unicode="&#x41b;" horiz-adv-x="638" 
d="M606 0h-209v1174h-78l-12 -390q-18 -528 -74 -667q-26 -67 -70 -92t-118 -25h-27v190h13q27 0 41.5 11.5t23.5 44.5q26 95 41 540l17 574h452v-1360z" />
    <glyph glyph-name="uni0423" unicode="&#x423;" horiz-adv-x="565" 
d="M326 242v338h-9q-17 -33 -54.5 -48.5t-74.5 -15.5q-75 0 -116 66.5t-41 197.5v580h202v-592q0 -61 43 -61q42 0 50 43v610h206v-1102q0 -130 -63 -199t-186 -69q-122 0 -187 66.5t-65 199.5v197h202v-211q0 -62 48 -62q45 0 45 62z" />
    <glyph glyph-name="uni0426" unicode="&#x426;" horiz-adv-x="620" 
d="M606 -307h-153v307h-422v1360h209v-1170h92v1170h209v-1170h65v-497z" />
    <glyph glyph-name="uni0427" unicode="&#x427;" horiz-adv-x="565" 
d="M532 0h-206v567h-7q-55 -18 -110 -18q-96 0 -137 54.5t-41 184.5v572h202v-559q0 -62 50 -62q32 0 43 11v610h206v-1360z" />
    <glyph glyph-name="uni0428" unicode="&#x428;" horiz-adv-x="860" 
d="M827 0h-796v1360h209v-1170h92v1170h194v-1170h92v1170h209v-1360z" />
    <glyph glyph-name="uni0429" unicode="&#x429;" horiz-adv-x="907" 
d="M891 -307h-154v307h-706v1360h209v-1170h92v1170h194v-1170h92v1170h209v-1170h64v-497z" />
    <glyph glyph-name="uni042A" unicode="&#x42a;" horiz-adv-x="731" 
d="M213 0v1169h-195v191h404v-541h86q119 0 161 -60.5t42 -193.5v-352q0 -213 -203 -213h-295zM422 184h43q27 0 38 14.5t11 55.5v326q0 34 -9.5 46.5t-39.5 12.5h-43v-455z" />
    <glyph glyph-name="uni042B" unicode="&#x42b;" horiz-adv-x="833" 
d="M799 0h-209v1360h209v-1360zM240 1360v-541h86q110 0 156 -48t46 -146v-412q0 -101 -46.5 -157t-155.5 -56h-295v1360h209zM240 184h43q28 0 38.5 17.5t10.5 60.5v313q0 37 -10 50.5t-39 13.5h-43v-455z" />
    <glyph glyph-name="uni042C" unicode="&#x42c;" horiz-adv-x="548" 
d="M240 1360v-541h86q110 0 156 -48t46 -146v-412q0 -101 -46.5 -157t-155.5 -56h-295v1360h209zM240 184h43q28 0 38.5 17.5t10.5 60.5v313q0 37 -10 50.5t-39 13.5h-43v-455z" />
    <glyph glyph-name="uni042D" unicode="&#x42d;" horiz-adv-x="557" 
d="M31 256v139h196v-153q0 -62 45 -62q47 0 47 62v389h-122v170h122v313q0 62 -47 62q-45 0 -45 -62v-139h-196v117q0 132 64 204t184 72q118 0 181.5 -71t63.5 -201v-838q0 -130 -63 -199t-185 -69q-245 0 -245 266z" />
    <glyph glyph-name="uni042E" unicode="&#x42e;" horiz-adv-x="868" 
d="M240 0h-209v1360h209v-547h92v283q0 129 66 200.5t186 71.5t186 -72.5t66 -203.5v-836q0 -132 -64.5 -199t-185.5 -67q-123 0 -188.5 69.5t-65.5 198.5v369h-92v-627zM631 242v872q0 62 -47 62q-45 0 -45 -62v-872q0 -62 45 -62q47 0 47 62z" />
    <glyph glyph-name="uni042F" unicode="&#x42f;" horiz-adv-x="548" 
d="M213 0h-209l86 596q-70 55 -70 223v277q0 69 7.5 114t29 81t61.5 52.5t103 16.5h295v-1360h-209v559h-24zM215 797q0 -68 51 -68h41v445h-41q-51 0 -51 -78v-299z" />
    <glyph glyph-name="uni0431" unicode="&#x431;" horiz-adv-x="557" 
d="M319 223v559q0 62 -45 62q-38 0 -47 -45v-576q0 -61 47 -61q45 0 45 61zM522 836v-664q0 -85 -61.5 -133.5t-181.5 -48.5q-126 0 -185 57.5t-59 181.5v856q0 157 36.5 224t137.5 67h80q74 0 86 78h117q0 -256 -130 -256h-73q-68 0 -68 -113v-143h8q47 74 133 74
q74 0 117 -48.5t43 -131.5z" />
    <glyph glyph-name="uni0432" unicode="&#x432;" horiz-adv-x="546" 
d="M504 678q0 -120 -101 -137v-9q117 -18 117 -143v-182q0 -105 -58 -156t-183 -51h-244v1008h248q221 0 221 -179v-151zM270 467h-37v-307h50q43 0 43 61v193q0 53 -56 53zM324 635v162q0 43 -45 43h-46v-246h41q26 0 38 8.5t12 32.5z" />
    <glyph glyph-name="uni0433" unicode="&#x433;" horiz-adv-x="368" 
d="M233 0h-198v1008h317v-179h-119v-829z" />
    <glyph glyph-name="uni0434" unicode="&#x434;" horiz-adv-x="649" 
d="M633 -307h-154v307h-311v-307h-154v483h23q30 0 46 24.5t27.5 112.5t18.5 269l16 426h424v-832h64v-483zM369 176v653h-74l-14 -247q-20 -331 -43 -406h131z" />
    <glyph glyph-name="uni0436" unicode="&#x436;" horiz-adv-x="854" 
d="M848 0h-205l-113 414h-8v-414h-192v414h-8l-113 -414h-205l166 512l-158 496h203l107 -369h8v369h192v-369h8l109 369h201l-160 -496z" />
    <glyph glyph-name="uni0437" unicode="&#x437;" horiz-adv-x="540" 
d="M508 389v-192q0 -98 -59.5 -152.5t-182.5 -54.5q-231 0 -231 198v166h188v-133q0 -61 47 -61q43 0 43 61v193q0 53 -55 53h-65v127h69q49 0 49 49v141q0 62 -45 62t-45 -51v-93h-186v109q0 98 60.5 151.5t174.5 53.5q107 0 164.5 -49.5t57.5 -143.5v-161
q0 -107 -101 -121v-9q56 -9 86.5 -40t30.5 -103z" />
    <glyph glyph-name="uni0438" unicode="&#x438;" horiz-adv-x="579" 
d="M545 0h-199v535h-8l-109 -535h-194v1008h196v-523h9l100 523h205v-1008z" />
    <glyph glyph-name="uni0439" unicode="&#x439;" horiz-adv-x="579" 
d="M289 1057q-99 0 -160 69t-61 193h143q3 -139 78 -139q73 0 76 139h145q0 -126 -60.5 -194t-160.5 -68zM545 0h-199v535h-8l-109 -535h-194v1008h196v-523h9l100 523h205v-1008z" />
    <glyph glyph-name="uni043B" unicode="&#x43b;" horiz-adv-x="595" 
d="M559 0h-199v829h-73l-17 -247q-15 -250 -31.5 -360.5t-45.5 -155.5q-21 -36 -57 -51t-97 -15h-25v176h13q35 0 47 25q18 28 28 111t17 270l18 426h422v-1008z" />
    <glyph glyph-name="uni043C" unicode="&#x43c;" horiz-adv-x="768" 
d="M731 0h-172v449q0 127 8 225h-8l-94 -674h-164l-94 674h-8q6 -74 6 -225v-449h-170v1008h287l61 -627h8l60 627h280v-1008z" />
    <glyph glyph-name="uni043D" unicode="&#x43d;" horiz-adv-x="561" 
d="M526 0h-200v430h-93v-430h-198v1008h198v-400h93v400h200v-1008z" />
    <glyph glyph-name="uni043F" unicode="&#x43f;" horiz-adv-x="561" 
d="M526 0h-200v829h-93v-829h-198v1008h491v-1008z" />
    <glyph glyph-name="uni0442" unicode="&#x442;" horiz-adv-x="466" 
d="M332 0h-199v829h-115v179h431v-179h-117v-829z" />
    <glyph glyph-name="uni0446" unicode="&#x446;" horiz-adv-x="606" 
d="M590 -287h-154v287h-401v1008h198v-832h93v832h200v-832h64v-463z" />
    <glyph glyph-name="uni0447" unicode="&#x447;" horiz-adv-x="559" 
d="M522 0h-198v410h-9q-51 -31 -118 -31q-86 0 -126 39.5t-40 126.5v463h200v-412q0 -45 52 -45q28 0 41 10v447h198v-1008z" />
    <glyph glyph-name="uni0448" unicode="&#x448;" horiz-adv-x="829" 
d="M795 0h-760v1008h198v-832h93v832h178v-832h92v832h199v-1008z" />
    <glyph glyph-name="uni0449" unicode="&#x449;" horiz-adv-x="874" 
d="M860 -287h-153v287h-672v1008h198v-832h93v832h178v-832h92v832h199v-832h65v-463z" />
    <glyph glyph-name="uni044A" unicode="&#x44a;" horiz-adv-x="636" 
d="M336 1008v-357h82q103 0 148.5 -42.5t45.5 -131.5v-319q0 -78 -46 -118t-148 -40h-283v829h-119v179h320zM336 170h39q30 0 39.5 12.5t9.5 44.5v207q0 51 -49 51h-39v-315z" />
    <glyph glyph-name="uni044B" unicode="&#x44b;" horiz-adv-x="800" 
d="M233 1008v-357h84q103 0 148 -43.5t45 -132.5v-317q0 -78 -45.5 -118t-147.5 -40h-282v1008h198zM233 170h41q50 0 50 51v213q0 51 -50 51h-41v-315zM764 0h-199v1008h199v-1008z" />
    <glyph glyph-name="uni044C" unicode="&#x44c;" horiz-adv-x="534" 
d="M233 1008v-357h84q103 0 148 -43.5t45 -132.5v-317q0 -78 -45.5 -118t-147.5 -40h-282v1008h198zM233 170h41q50 0 50 51v213q0 51 -50 51h-41v-315z" />
    <glyph glyph-name="uni044D" unicode="&#x44d;" horiz-adv-x="542" 
d="M315 459h-118v139h118v186q0 62 -47 62q-43 0 -43 -43v-101h-186v107q0 207 229 207q123 0 181.5 -59t58.5 -181v-547q0 -122 -58.5 -180.5t-179.5 -58.5q-123 0 -179 58.5t-56 180.5v125h188v-133q0 -61 47 -61q45 0 45 61v238z" />
    <glyph glyph-name="uni044E" unicode="&#x44e;" horiz-adv-x="829" 
d="M793 776v-547q0 -124 -57.5 -181.5t-182.5 -57.5q-123 0 -178.5 57t-55.5 182v203h-92v-432h-192v1008h192v-398h92v166q0 125 55.5 182.5t178.5 57.5q125 0 182.5 -58t57.5 -182zM600 229v547q0 62 -47 62q-45 0 -45 -62v-547q0 -61 45 -61q47 0 47 61z" />
    <glyph glyph-name="uni044F" unicode="&#x44f;" horiz-adv-x="546" 
d="M207 0h-203l107 389q-43 22 -59.5 64t-16.5 112v283q0 78 45 119t147 41h283v-1008h-199v371h-22zM221 578q0 -50 49 -50h41v308h-41q-30 0 -39.5 -14.5t-9.5 -51.5v-192z" />
    <glyph glyph-name="uni0452" unicode="&#x452;" horiz-adv-x="559" 
d="M373 1130h-140v-196h9q39 82 131 82q80 0 115.5 -53t35.5 -140v-1061q0 -239 -245 -239q-121 0 -179.5 58.5t-58.5 180.5v183h190v-183q0 -61 45 -61q48 0 48 61v1031q0 51 -41 51q-44 0 -50 -62v-782h-198v1130h-37v123h37v123h198v-123h140v-123z" />
    <glyph glyph-name="uni0453" unicode="&#x453;" horiz-adv-x="368" 
d="M377 1264l-246 -207l-76 78l221 247zM233 0h-198v1008h317v-179h-119v-829z" />
    <glyph glyph-name="uni0454" unicode="&#x454;" horiz-adv-x="542" 
d="M346 459h-119v-238q0 -61 45 -61q47 0 47 61v133h189v-125q0 -122 -56.5 -180.5t-179.5 -58.5q-121 0 -179 58.5t-58 180.5v547q0 122 58.5 181t180.5 59q230 0 230 -207v-107h-187v101q0 43 -43 43q-47 0 -47 -62v-186h119v-139z" />
    <glyph glyph-name="uni0459" unicode="&#x459;" horiz-adv-x="860" 
d="M559 1008v-357h84q103 0 148 -43.5t45 -132.5v-317q0 -78 -45.5 -118t-147.5 -40h-283v829h-73l-17 -247q-15 -250 -31.5 -360.5t-45.5 -155.5q-21 -36 -57 -51t-97 -15h-25v176h13q35 0 47 25q18 28 28 111t17 270l18 426h422zM559 170h41q49 0 49 51v213q0 51 -49 51
h-41v-315z" />
    <glyph glyph-name="uni045A" unicode="&#x45a;" horiz-adv-x="827" 
d="M526 1008v-357h82q104 0 149.5 -43.5t45.5 -132.5v-317q0 -78 -46 -118t-149 -40h-282v485h-93v-485h-198v1008h198v-357h93v357h200zM526 170h39q49 0 49 51v213q0 51 -49 51h-39v-315z" />
    <glyph glyph-name="uni045C" unicode="&#x45c;" horiz-adv-x="552" 
d="M475 1264l-246 -207l-75 78l221 247zM547 0h-209l-64 360h-8l-33 -102v-258h-198v1008h198v-355h9q6 46 94 355h213l-129 -412z" />
    <glyph glyph-name="uni045D" unicode="&#x45d;" horiz-adv-x="579" 
d="M344 1057l-246 207l103 118l219 -247zM545 0h-199v535h-8l-109 -535h-194v1008h196v-523h9l100 523h205v-1008z" />
    <glyph glyph-name="uni045E" unicode="&#x45e;" 
d="M236 1008v-766q0 -62 45 -62q44 0 47 62v766h192v-1246q0 -121 -60.5 -180t-183.5 -59q-121 0 -179 58.5t-58 180.5v177h190v-177q0 -61 47 -61q46 0 46 61v312h-9q-40 -74 -127 -74q-83 0 -117 50.5t-34 146.5v811h201zM283 1057q-100 0 -161 69t-61 193h144
q3 -139 78 -139q72 0 75 139h146q0 -126 -60.5 -194t-160.5 -68z" />
    <glyph glyph-name="uni045F" unicode="&#x45f;" horiz-adv-x="561" 
d="M356 -287h-153v287h-168v1008h198v-832h93v832h200v-1008h-170v-287z" />
    <glyph glyph-name="uni0490" unicode="&#x490;" horiz-adv-x="452" 
d="M240 0h-209v1360h252v280h153v-471h-196v-1169z" />
    <glyph glyph-name="uni0491" unicode="&#x491;" horiz-adv-x="368" 
d="M233 0h-198v1008h164v249h153v-428h-119v-829z" />
    <glyph glyph-name="uni0492" unicode="&#x492;" horiz-adv-x="481" 
d="M266 0h-209v575h-57v160h57v625h406v-191h-197v-434h109v-160h-109v-575z" />
    <glyph glyph-name="uni0493" unicode="&#x493;" horiz-adv-x="391" 
d="M256 0h-201v391h-55v123h55v494h320v-179h-119v-315h119v-123h-119v-391z" />
    <glyph glyph-name="uni0496" unicode="&#x496;" horiz-adv-x="978" 
d="M221 0h-217l182 692l-174 668h213l117 -492h8v492h203v-492h8l117 492h213l-176 -668l133 -502h117v-452h-154v262h-129l-121 553h-8v-553h-203v553h-8z" />
    <glyph glyph-name="uni0497" unicode="&#x497;" horiz-adv-x="929" 
d="M915 -262h-153v262h-119l-113 414h-8v-414h-192v414h-8l-113 -414h-205l166 512l-158 496h203l107 -369h8v369h192v-369h8l109 369h201l-160 -496l104 -322h131v-452z" />
    <glyph glyph-name="uni0498" unicode="&#x498;" horiz-adv-x="546" 
d="M147 -434v162q31 -9 64 -9q30 0 42.5 9.5t12.5 35.5v56q0 26 -0.5 43t-4 42t-9.5 41t-18 30.5t-29 21.5q-31 12 -49.5 21t-45.5 29.5t-42 45.5t-26 66.5t-11 95.5v139h196v-153q0 -62 45 -62q47 0 47 62v319q0 70 -59 70h-63v170h71q51 0 51 67v246q0 62 -47 62
q-45 0 -45 -62v-139h-196v117q0 132 63.5 204t179.5 72t176 -68.5t60 -162.5v-246q0 -147 -104 -164v-8q55 -10 87.5 -52t32.5 -120v-289q0 -119 -53 -186.5t-154 -77.5v-8q82 -82 82 -226v-61q0 -83 -36.5 -118.5t-114.5 -35.5q-62 0 -103 21z" />
    <glyph glyph-name="uni0499" unicode="&#x499;" horiz-adv-x="540" 
d="M508 389v-192q0 -93 -53.5 -147t-163.5 -60v-10q104 -73 104 -220v-61q0 -83 -36 -118.5t-113 -35.5q-64 0 -105 21v162q31 -9 64 -9q31 0 44 9.5t13 35.5v56q0 46 -8.5 79.5t-24 53t-27.5 29t-30 18.5q-28 14 -42 22t-35.5 25t-32 34t-19 45t-8.5 62v166h188v-133
q0 -61 47 -61q43 0 43 61v193q0 53 -55 53h-65v127h69q49 0 49 49v141q0 62 -45 62t-45 -51v-93h-186v109q0 98 60.5 151.5t174.5 53.5q107 0 164.5 -49.5t57.5 -143.5v-161q0 -107 -101 -121v-9q56 -9 86.5 -40t30.5 -103z" />
    <glyph glyph-name="uni049A" unicode="&#x49a;" horiz-adv-x="636" 
d="M621 -262h-154v262h-121l-63 514h-7l-32 -133v-381h-213v1360h213v-469h8q6 47 98 469h209l-129 -514l98 -656h93v-452z" />
    <glyph glyph-name="uni049B" unicode="&#x49b;" horiz-adv-x="626" 
d="M610 -262h-153v262h-119l-64 360h-8l-33 -102v-258h-198v1008h198v-355h9q12 62 94 355h213l-129 -412l86 -406h104v-452z" />
    <glyph glyph-name="uni04A0" unicode="&#x4a0;" horiz-adv-x="747" 
d="M739 0h-211l-63 514h-6l-33 -133v-381h-213v1169h-195v191h408v-469h8q6 47 98 469h209l-129 -514z" />
    <glyph glyph-name="uni04A1" unicode="&#x4a1;" horiz-adv-x="655" 
d="M647 0h-207l-63 360h-8l-33 -102v-258h-201v829h-117v179h318v-355h8q8 52 94 355h213l-129 -412z" />
    <glyph glyph-name="uni04A2" unicode="&#x4a2;" horiz-adv-x="620" 
d="M606 -262h-153v262h-121v633h-92v-633h-209v1360h209v-541h92v541h209v-1170h65v-452z" />
    <glyph glyph-name="uni04A3" unicode="&#x4a3;" horiz-adv-x="626" 
d="M610 -262h-153v262h-131v430h-93v-430h-198v1008h198v-400h93v400h200v-818h84v-452z" />
    <glyph glyph-name="uni04AA" unicode="&#x4aa;" horiz-adv-x="557" 
d="M164 -434v162q32 -9 63 -9q30 0 43 9.5t13 35.5v56q0 42 -9 74.5t-26.5 53.5t-31 32t-32.5 22q-36 21 -56.5 36.5t-46.5 45t-38 73t-12 101.5v846q0 264 248 264q120 0 181.5 -63t61.5 -199v-234h-192v242q0 62 -47 62q-45 0 -45 -62v-872q0 -33 9.5 -47.5t33.5 -14.5
q49 0 49 62v313h194v-299q0 -124 -54 -190t-157 -74v-19q105 -73 105 -213v-61q0 -83 -37 -118.5t-115 -35.5q-62 0 -102 21z" />
    <glyph glyph-name="uni04AB" unicode="&#x4ab;" horiz-adv-x="542" 
d="M145 -434v162q31 -9 64 -9q30 0 42.5 9.5t12.5 35.5v56q0 47 -9 81.5t-25.5 54.5t-29.5 29.5t-32 18.5q-32 15 -50 26.5t-40 36.5t-32.5 65t-10.5 97v547q0 122 58.5 181t180.5 59q121 0 177.5 -59t56.5 -181v-129h-189v129q0 62 -45 62q-47 0 -47 -62v-547q0 -61 45 -61
q47 0 47 61v136h189v-136q0 -118 -53 -176.5t-166 -62.5v-10q110 -70 110 -220v-61q0 -83 -36.5 -118.5t-114.5 -35.5q-62 0 -103 21z" />
    <glyph glyph-name="uni04B2" unicode="&#x4b2;" horiz-adv-x="669" 
d="M381 1360h203l-150 -643l115 -527h106v-452h-153v262h-123l-78 461h-8l-78 -461h-209l160 688l-154 672h209l76 -428h8z" />
    <glyph glyph-name="uni04B3" unicode="&#x4b3;" horiz-adv-x="624" 
d="M340 1008h197l-136 -476l91 -342h116v-452h-153v262h-119l-62 322h-8l-59 -322h-203l143 512l-137 496h203l61 -297h9z" />
    <glyph glyph-name="uni04B6" unicode="&#x4b6;" horiz-adv-x="620" 
d="M606 -262h-153v262h-127v567h-7q-55 -18 -110 -18q-96 0 -137 54.5t-41 184.5v572h202v-559q0 -62 50 -62q32 0 43 11v610h206v-1170h74v-452z" />
    <glyph glyph-name="uni04B7" unicode="&#x4b7;" horiz-adv-x="612" 
d="M596 -262h-154v262h-118v410h-9q-51 -31 -118 -31q-86 0 -126 39.5t-40 126.5v463h200v-412q0 -45 52 -45q28 0 41 10v447h198v-818h74v-452z" />
    <glyph glyph-name="uni04BA" unicode="&#x4ba;" horiz-adv-x="565" 
d="M33 1360h205v-569h6q55 18 110 18q96 0 137 -54.5t41 -185.5v-569h-202v557q0 35 -11 48t-38 13q-33 0 -43 -10v-608h-205v1360z" />
    <glyph glyph-name="uni04C3" unicode="&#x4c3;" horiz-adv-x="565" 
d="M309 -477l-2 178q43 0 43 61v238l-67 514h-7l-32 -133v-381h-213v1360h213v-469h8q6 47 98 469h209l-129 -514l127 -846v-238q0 -239 -248 -239z" />
    <glyph glyph-name="uni04C4" unicode="&#x4c4;" horiz-adv-x="552" 
d="M303 -477l-2 178q45 0 45 61v205l-72 393h-8l-33 -102v-258h-198v1008h198v-355h9q13 68 94 355h213l-129 -412l127 -596v-238q0 -239 -244 -239z" />
    <glyph glyph-name="uni04C7" unicode="&#x4c7;" horiz-adv-x="573" 
d="M287 -477v178q45 0 45 61v871h-92v-633h-209v1360h209v-541h92v541h209v-1598q0 -239 -254 -239z" />
    <glyph glyph-name="uni04C8" unicode="&#x4c8;" horiz-adv-x="561" 
d="M283 -477l-2 178q45 0 45 61v668h-93v-430h-198v1008h198v-400h93v400h200v-1246q0 -239 -243 -239z" />
    <glyph glyph-name="uni04E8" unicode="&#x4e8;" 
d="M528 1092v-836q0 -132 -64 -199t-185 -67q-123 0 -188.5 69.5t-65.5 198.5v838q0 129 65.5 200.5t185.5 71.5t186 -72.5t66 -203.5zM324 242v356h-93v-356q0 -62 45 -62q48 0 48 62zM231 1114v-334h93v334q0 62 -48 62q-45 0 -45 -62z" />
    <glyph glyph-name="uni04E9" unicode="&#x4e9;" horiz-adv-x="548" 
d="M514 776v-547q0 -122 -59 -180.5t-181 -58.5q-123 0 -181 58t-58 181v547q0 123 58 181.5t181 58.5q122 0 181 -58.5t59 -181.5zM319 229v222h-92v-222q0 -61 47 -61q45 0 45 61zM227 776v-203h92v203q0 62 -45 62q-47 0 -47 -62z" />
    <glyph glyph-name="uni04EE" unicode="&#x4ee;" horiz-adv-x="565" 
d="M469 1468h-375v123h375v-123zM326 242v338h-9q-17 -33 -54.5 -48.5t-74.5 -15.5q-75 0 -116 66.5t-41 197.5v580h202v-592q0 -61 43 -61q42 0 50 43v610h206v-1102q0 -130 -63 -199t-186 -69q-122 0 -187 66.5t-65 199.5v197h202v-211q0 -62 48 -62q45 0 45 62z" />
    <glyph glyph-name="uni04EF" unicode="&#x4ef;" 
d="M236 1008v-766q0 -62 45 -62q44 0 47 62v766h192v-1246q0 -121 -60.5 -180t-183.5 -59q-121 0 -179 58.5t-58 180.5v177h190v-177q0 -61 47 -61q46 0 46 61v312h-9q-40 -74 -127 -74q-83 0 -117 50.5t-34 146.5v811h201zM469 1130h-375v123h375v-123z" />
    <glyph glyph-name="uni0512" unicode="&#x512;" horiz-adv-x="638" 
d="M350 -477v178q47 0 47 61v1412h-78l-12 -390q-18 -528 -74 -667q-26 -67 -70 -92t-118 -25h-27v190h13q27 0 41.5 11.5t23.5 44.5q26 95 41 540l17 574h452v-1598q0 -120 -66 -179.5t-190 -59.5z" />
    <glyph glyph-name="uni0513" unicode="&#x513;" horiz-adv-x="595" 
d="M313 -477v178q47 0 47 61v1067h-73l-17 -247q-15 -250 -31.5 -360.5t-45.5 -155.5q-21 -36 -57 -51t-97 -15h-25v176h13q35 0 47 25q18 28 28 111t17 270l18 426h422v-1246q0 -239 -246 -239z" />
    <glyph glyph-name="uni058F" unicode="&#x58f;" horiz-adv-x="602" 
d="M512 0h-205v303h-184v123h184v160h-184v123h184v407q0 62 -47 62q-45 0 -45 -62v-270h-197v256q0 133 62.5 199.5t183.5 66.5q122 0 185 -68.5t63 -199.5v-391h72v-123h-72v-160h72v-123h-72v-303z" />
    <glyph glyph-name="uni1E0C" unicode="&#x1e0c;" horiz-adv-x="567" 
d="M293 0h-262v1360h262q242 0 242 -246v-856q0 -133 -60.5 -195.5t-181.5 -62.5zM236 186h43q47 0 47 117v764q0 107 -62 107h-28v-988zM360 -274h-198v180h198v-180z" />
    <glyph glyph-name="uni1E0D" unicode="&#x1e0d;" 
d="M520 0h-180l-2 86h-8q-42 -96 -135 -96q-73 0 -116.5 49.5t-43.5 132.5v664q0 83 43.5 131.5t114.5 48.5q82 0 122 -74h9v434h196v-1376zM236 782v-559q0 -61 47 -61q39 0 45 47v590q-6 45 -45 45q-47 0 -47 -62zM377 -274h-199v180h199v-180z" />
    <glyph glyph-name="uni1E12" unicode="&#x1e12;" horiz-adv-x="567" 
d="M293 0h-262v1360h262q242 0 242 -246v-856q0 -133 -60.5 -195.5t-181.5 -62.5zM236 186h43q47 0 47 117v764q0 107 -62 107h-28v-988zM459 -322l-86 -67l-131 149l-131 -149l-86 67l129 197h176z" />
    <glyph glyph-name="uni1E13" unicode="&#x1e13;" 
d="M520 0h-180l-2 86h-8q-42 -96 -135 -96q-73 0 -116.5 49.5t-43.5 132.5v664q0 83 43.5 131.5t114.5 48.5q82 0 122 -74h9v434h196v-1376zM236 782v-559q0 -61 47 -61q39 0 45 47v590q-6 45 -45 45q-47 0 -47 -62zM487 -322l-86 -67l-131 149l-131 -149l-86 67l129 197
h176z" />
    <glyph glyph-name="uni1E24" unicode="&#x1e24;" horiz-adv-x="573" 
d="M541 0h-209v633h-92v-633h-209v1360h209v-541h92v541h209v-1360zM385 -274h-199v180h199v-180z" />
    <glyph glyph-name="uni1E25" unicode="&#x1e25;" horiz-adv-x="559" 
d="M524 0h-200v793q0 51 -41 51q-44 0 -50 -62v-782h-198v1376h198v-442h9q37 82 131 82q80 0 115.5 -53t35.5 -140v-823zM377 -274h-199v180h199v-180z" />
    <glyph glyph-name="uni1E3C" unicode="&#x1e3c;" horiz-adv-x="454" 
d="M436 0h-405v1360h209v-1170h196v-190zM451 -322l-86 -67l-132 149l-131 -149l-86 67l129 197h177z" />
    <glyph glyph-name="uni1E3D" unicode="&#x1e3d;" horiz-adv-x="272" 
d="M233 0h-198v1376h198v-1376zM348 -322l-86 -67l-131 149l-131 -149l-86 67l129 197h176z" />
    <glyph glyph-name="uni1E44" unicode="&#x1e44;" horiz-adv-x="602" 
d="M571 0h-243l-119 944h-8q8 -136 8 -508v-436h-178v1360h276l84 -875h8q-8 258 -8 572v303h180v-1360zM395 1450h-200v182h200v-182z" />
    <glyph glyph-name="uni1E45" unicode="&#x1e45;" horiz-adv-x="559" 
d="M524 0h-200v793q0 51 -41 51q-38 0 -50 -45v-799h-198v1008h186l4 -88h8q45 96 138 96q69 0 111 -48.5t42 -133.5v-834zM377 1112h-201v182h201v-182z" />
    <glyph glyph-name="uni1E4A" unicode="&#x1e4a;" horiz-adv-x="602" 
d="M571 0h-243l-119 944h-8q8 -136 8 -508v-436h-178v1360h276l84 -875h8q-8 258 -8 572v303h180v-1360zM506 -322l-86 -67l-131 149l-131 -149l-86 67l129 197h176z" />
    <glyph glyph-name="uni1E4B" unicode="&#x1e4b;" horiz-adv-x="559" 
d="M524 0h-200v793q0 51 -41 51q-38 0 -50 -45v-799h-198v1008h186l4 -88h8q45 96 138 96q69 0 111 -48.5t42 -133.5v-834zM494 -322l-86 -67l-132 149l-131 -149l-86 67l129 197h177z" />
    <glyph glyph-name="uni1E5A" unicode="&#x1e5a;" horiz-adv-x="557" 
d="M236 0h-205v1360h297q106 0 153 -54.5t47 -160.5v-305q0 -67 -29.5 -111t-80.5 -53v-8q55 -8 84.5 -46t29.5 -118v-504h-204v522q0 58 -47 58h-45v-580zM328 817v303q0 54 -52 54h-40v-424h40q52 0 52 67zM377 -274h-199v180h199v-180z" />
    <glyph glyph-name="uni1E5B" unicode="&#x1e5b;" horiz-adv-x="417" 
d="M233 0h-198v1008h186l4 -88h8q39 96 125 96q26 0 45 -8v-179q-24 9 -53 9q-63 0 -90 -31t-27 -94v-713zM223 -274h-198v180h198v-180z" />
    <glyph glyph-name="uni1E62" unicode="&#x1e62;" horiz-adv-x="577" 
d="M532 958h-194v158q0 60 -51 60q-25 0 -38 -15t-13 -39v-118q0 -57 7.5 -82t35.5 -56q33 -38 110.5 -107.5t104.5 -105.5q31 -42 44 -89.5t13 -127.5v-182q0 -131 -64 -197.5t-200 -66.5q-135 0 -198.5 66t-63.5 200v152h196v-168q0 -28 15 -44t43 -16q53 0 53 60v149
q0 71 -11.5 102.5t-44.5 67.5q-19 21 -63.5 65t-75 78.5t-51.5 71.5q-55 94 -55 240v114q0 116 64.5 178t187.5 62q132 0 190.5 -71.5t58.5 -204.5v-134zM383 -274h-199v180h199v-180z" />
    <glyph glyph-name="uni1E63" unicode="&#x1e63;" horiz-adv-x="540" 
d="M504 702h-187v109q0 43 -45 43q-47 0 -47 -39v-117q0 -26 7.5 -39.5t37.5 -35.5q21 -15 80.5 -49t87.5 -58q37 -31 55.5 -71.5t18.5 -112.5v-137q0 -103 -57.5 -154t-178.5 -51q-127 0 -187 53.5t-60 159.5v121h186v-127q0 -45 51 -45q47 0 47 38v136q0 26 -11.5 45
t-47.5 45q-12 9 -51 35t-67.5 48t-45.5 40q-53 58 -53 159v136q0 85 60.5 133.5t168.5 48.5q115 0 176.5 -56.5t61.5 -158.5v-99zM371 -274h-199v180h199v-180z" />
    <glyph glyph-name="uni1E6C" unicode="&#x1e6c;" horiz-adv-x="536" 
d="M371 0h-207v1174h-146v186h500v-186h-147v-1174zM367 -274h-199v180h199v-180z" />
    <glyph glyph-name="uni1E6D" unicode="&#x1e6d;" horiz-adv-x="524" 
d="M319 229v332h170v-332q0 -125 -48.5 -182t-166.5 -57q-123 0 -181 58.5t-58 180.5v1051h196v-272h258v-179h-258v-600q0 -61 45 -61q43 0 43 61zM371 -274h-199v180h199v-180z" />
    <glyph glyph-name="Wgrave" unicode="&#x1e80;" horiz-adv-x="847" 
d="M365 0h-265l-94 1360h201l43 -952h8l55 952h222l61 -952h8l41 952h197l-94 -1360h-265l-55 954h-8zM477 1395l-246 207l103 118l219 -247z" />
    <glyph glyph-name="wgrave" unicode="&#x1e81;" horiz-adv-x="774" 
d="M332 0h-244l-84 1008h186l35 -670h8l52 670h202l56 -670h8l35 670h182l-84 -1008h-244l-49 690h-8zM442 1057l-245 207l102 118l219 -247z" />
    <glyph glyph-name="Wacute" unicode="&#x1e82;" horiz-adv-x="847" 
d="M365 0h-265l-94 1360h201l43 -952h8l55 952h222l61 -952h8l41 952h197l-94 -1360h-265l-55 954h-8zM618 1602l-245 -207l-76 78l221 247z" />
    <glyph glyph-name="wacute" unicode="&#x1e83;" horiz-adv-x="774" 
d="M332 0h-244l-84 1008h186l35 -670h8l52 670h202l56 -670h8l35 670h182l-84 -1008h-244l-49 690h-8zM578 1264l-246 -207l-76 78l221 247z" />
    <glyph glyph-name="Wdieresis" unicode="&#x1e84;" horiz-adv-x="847" 
d="M365 0h-265l-94 1360h201l43 -952h8l55 952h222l61 -952h8l41 952h197l-94 -1360h-265l-55 954h-8zM393 1450h-184v182h184v-182zM635 1450h-184v182h184v-182z" />
    <glyph glyph-name="wdieresis" unicode="&#x1e85;" horiz-adv-x="774" 
d="M332 0h-244l-84 1008h186l35 -670h8l52 670h202l56 -670h8l35 670h182l-84 -1008h-244l-49 690h-8zM356 1112h-184v182h184v-182zM598 1112h-184v182h184v-182z" />
    <glyph glyph-name="uni1E92" unicode="&#x1e92;" horiz-adv-x="516" 
d="M498 0h-480v190l263 984h-261v186h469v-189l-258 -985h267v-186zM356 -274h-198v180h198v-180z" />
    <glyph glyph-name="uni1E93" unicode="&#x1e93;" horiz-adv-x="466" 
d="M446 0h-426v184l220 645h-215v179h415v-179l-215 -647h221v-182zM334 -274h-199v180h199v-180z" />
    <glyph glyph-name="Germandbls" unicode="&#x1e9e;" horiz-adv-x="632" 
d="M289 0v180q20 -10 51 -10q55 0 55 59v404q0 51 -49 51q-28 0 -57 -16v182l84 324h-60q-73 0 -73 -82v-1092h-209v1096q0 129 64.5 196.5t187.5 67.5h284v-176l-92 -338q125 -15 125 -199v-409q0 -132 -53 -190t-166 -58q-50 0 -92 10z" />
    <glyph glyph-name="uni1EA0" unicode="&#x1ea0;" horiz-adv-x="571" 
d="M563 0h-207l-22 309h-105l-20 -309h-203l133 1360h291zM279 1014l-37 -527h80l-35 527h-8zM381 -274h-199v180h199v-180z" />
    <glyph glyph-name="uni1EA1" unicode="&#x1ea1;" horiz-adv-x="544" 
d="M313 197v307q-14 -8 -51 -19q-43 -11 -43 -63v-213q0 -47 47 -47q38 0 47 35zM510 0h-184l-4 74h-9q-9 -17 -17 -28t-24 -26t-41.5 -22.5t-58.5 -7.5q-147 0 -147 166v229q0 96 41 142t143 73q60 15 81 28t21 44v133q0 41 -43 41q-47 0 -47 -47v-119h-184v143
q0 96 64 144.5t182 48.5q227 0 227 -180v-836zM365 -274h-199v180h199v-180z" />
    <glyph glyph-name="uni1EA2" unicode="&#x1ea2;" horiz-adv-x="571" 
d="M563 0h-207l-22 309h-105l-20 -309h-203l133 1360h291zM279 1014l-37 -527h80l-35 527h-8zM324 1413h-93q0 33 13 56t28 33t28 23t13 29q0 21 -30 21q-38 0 -74 -31l-33 105q49 43 125 43q53 0 87 -32t34 -87q0 -33 -15.5 -57.5t-33.5 -36.5t-33.5 -29t-15.5 -37z" />
    <glyph glyph-name="uni1EA3" unicode="&#x1ea3;" horiz-adv-x="544" 
d="M313 197v307q-14 -8 -51 -19q-43 -11 -43 -63v-213q0 -47 47 -47q38 0 47 35zM510 0h-184l-4 74h-9q-9 -17 -17 -28t-24 -26t-41.5 -22.5t-58.5 -7.5q-147 0 -147 166v229q0 96 41 142t143 73q60 15 81 28t21 44v133q0 41 -43 41q-47 0 -47 -47v-119h-184v143
q0 96 64 144.5t182 48.5q227 0 227 -180v-836zM307 1075h-92q0 33 13 56.5t28 33t28 23t13 29.5q0 20 -31 20q-37 0 -73 -31l-33 105q49 43 125 43q53 0 87 -32t34 -87q0 -33 -15.5 -57.5t-34 -36.5t-34 -29t-15.5 -37z" />
    <glyph glyph-name="uni1EA4" unicode="&#x1ea4;" horiz-adv-x="571" 
d="M563 0h-207l-22 309h-105l-20 -309h-203l133 1360h291zM279 1014l-37 -527h80l-35 527h-8zM498 1462l-86 -67l-129 137l-131 -137l-86 67l129 185h174zM678 1726l-205 -155l-74 76l179 194z" />
    <glyph glyph-name="uni1EA5" unicode="&#x1ea5;" horiz-adv-x="544" 
d="M313 197v307q-14 -8 -51 -19q-43 -11 -43 -63v-213q0 -47 47 -47q38 0 47 35zM510 0h-184l-4 74h-9q-9 -17 -17 -28t-24 -26t-41.5 -22.5t-58.5 -7.5q-147 0 -147 166v229q0 96 41 142t143 73q60 15 81 28t21 44v133q0 41 -43 41q-47 0 -47 -47v-119h-184v143
q0 96 64 144.5t182 48.5q227 0 227 -180v-836zM494 1124l-86 -67l-129 137l-132 -137l-86 67l129 185h175zM674 1389l-205 -156l-74 76l178 194z" />
    <glyph glyph-name="uni1EA6" unicode="&#x1ea6;" horiz-adv-x="571" 
d="M563 0h-207l-22 309h-105l-20 -309h-203l133 1360h291zM279 1014l-37 -527h80l-35 527h-8zM492 1462l-86 -67l-130 137l-131 -137l-86 67l129 185h174zM537 1571l-205 155l98 115l180 -194z" />
    <glyph glyph-name="uni1EA7" unicode="&#x1ea7;" horiz-adv-x="544" 
d="M313 197v307q-14 -8 -51 -19q-43 -11 -43 -63v-213q0 -47 47 -47q38 0 47 35zM510 0h-184l-4 74h-9q-9 -17 -17 -28t-24 -26t-41.5 -22.5t-58.5 -7.5q-147 0 -147 166v229q0 96 41 142t143 73q60 15 81 28t21 44v133q0 41 -43 41q-47 0 -47 -47v-119h-184v143
q0 96 64 144.5t182 48.5q227 0 227 -180v-836zM479 1124l-86 -67l-129 137l-131 -137l-86 67l129 185h174zM524 1233l-205 156l99 114l180 -194z" />
    <glyph glyph-name="uni1EA8" unicode="&#x1ea8;" horiz-adv-x="571" 
d="M563 0h-207l-22 309h-105l-20 -309h-203l133 1360h291zM279 1014l-37 -527h80l-35 527h-8zM502 1462l-86 -67l-131 137l-131 -137l-86 67l129 185h176zM547 1563h-92q0 32 13 55t28 32.5t28 22.5t13 29q0 22 -31 22q-40 0 -74 -30l-33 104q49 43 125 43q53 0 87 -33
t34 -86q0 -34 -15.5 -58.5t-33.5 -36.5t-33.5 -28.5t-15.5 -35.5z" />
    <glyph glyph-name="uni1EA9" unicode="&#x1ea9;" horiz-adv-x="544" 
d="M313 197v307q-14 -8 -51 -19q-43 -11 -43 -63v-213q0 -47 47 -47q38 0 47 35zM510 0h-184l-4 74h-9q-9 -17 -17 -28t-24 -26t-41.5 -22.5t-58.5 -7.5q-147 0 -147 166v229q0 96 41 142t143 73q60 15 81 28t21 44v133q0 41 -43 41q-47 0 -47 -47v-119h-184v143
q0 96 64 144.5t182 48.5q227 0 227 -180v-836zM471 1124l-86 -67l-131 137l-131 -137l-86 67l129 185h176zM516 1225h-92q0 32 13 55t28 32.5t28 22.5t13 29q0 22 -31 22q-39 0 -74 -30l-32 104q49 43 125 43q53 0 86.5 -32.5t33.5 -86.5q0 -34 -15.5 -58.5t-33.5 -36.5
t-33.5 -28.5t-15.5 -35.5z" />
    <glyph glyph-name="uni1EAA" unicode="&#x1eaa;" horiz-adv-x="571" 
d="M563 0h-207l-22 309h-105l-20 -309h-203l133 1360h291zM279 1014l-37 -527h80l-35 527h-8zM498 1462l-86 -67l-129 137l-131 -137l-86 67l129 185h174zM414 1839l86 -45q-10 -60 -42.5 -88.5t-76.5 -28.5q-35 0 -90.5 24.5t-85.5 24.5q-42 0 -51 -47l-86 47
q20 115 118 115q35 0 90.5 -23.5t85.5 -23.5q43 0 52 45z" />
    <glyph glyph-name="uni1EAB" unicode="&#x1eab;" horiz-adv-x="544" 
d="M313 197v307q-14 -8 -51 -19q-43 -11 -43 -63v-213q0 -47 47 -47q38 0 47 35zM510 0h-184l-4 74h-9q-9 -17 -17 -28t-24 -26t-41.5 -22.5t-58.5 -7.5q-147 0 -147 166v229q0 96 41 142t143 73q60 15 81 28t21 44v133q0 41 -43 41q-47 0 -47 -47v-119h-184v143
q0 96 64 144.5t182 48.5q227 0 227 -180v-836zM473 1124l-86 -67l-129 137l-131 -137l-86 67l129 185h174zM389 1501l86 -45q-10 -60 -42.5 -88.5t-76.5 -28.5q-35 0 -90.5 25t-85.5 25q-42 0 -51 -48l-86 48q10 59 41.5 86.5t77.5 27.5q35 0 90.5 -23.5t85.5 -23.5
q42 0 51 45z" />
    <glyph glyph-name="uni1EAC" unicode="&#x1eac;" horiz-adv-x="571" 
d="M563 0h-207l-22 309h-105l-20 -309h-203l133 1360h291zM279 1014l-37 -527h80l-35 527h-8zM498 1462l-86 -67l-131 149l-131 -149l-87 67l130 197h176zM383 -274h-199v180h199v-180z" />
    <glyph glyph-name="uni1EAD" unicode="&#x1ead;" horiz-adv-x="544" 
d="M313 197v307q-14 -8 -51 -19q-43 -11 -43 -63v-213q0 -47 47 -47q38 0 47 35zM510 0h-184l-4 74h-9q-9 -17 -17 -28t-24 -26t-41.5 -22.5t-58.5 -7.5q-147 0 -147 166v229q0 96 41 142t143 73q60 15 81 28t21 44v133q0 41 -43 41q-47 0 -47 -47v-119h-184v143
q0 96 64 144.5t182 48.5q227 0 227 -180v-836zM483 1124l-86 -67l-131 149l-131 -149l-86 67l129 197h176zM369 -274h-199v180h199v-180z" />
    <glyph glyph-name="uni1EAE" unicode="&#x1eae;" horiz-adv-x="571" 
d="M563 0h-207l-22 309h-105l-20 -309h-203l133 1360h291zM279 1014l-37 -527h80l-35 527h-8zM291 1389q-99 0 -158 57t-59 176h141q3 -125 76 -125t76 125h143q0 -119 -59 -176t-160 -57zM492 1726l-205 -155l-74 76l180 194z" />
    <glyph glyph-name="uni1EAF" unicode="&#x1eaf;" horiz-adv-x="544" 
d="M313 197v307q-14 -8 -51 -19q-43 -11 -43 -63v-213q0 -47 47 -47q38 0 47 35zM510 0h-184l-4 74h-9q-9 -17 -17 -28t-24 -26t-41.5 -22.5t-58.5 -7.5q-147 0 -147 166v229q0 96 41 142t143 73q60 15 81 28t21 44v133q0 41 -43 41q-47 0 -47 -47v-119h-184v143
q0 96 64 144.5t182 48.5q227 0 227 -180v-836zM276 1051q-99 0 -158 57t-59 176h142q2 -64 19.5 -94.5t55.5 -30.5q73 0 76 125h144q0 -119 -59.5 -176t-160.5 -57zM477 1389l-205 -156l-73 76l180 194z" />
    <glyph glyph-name="uni1EB0" unicode="&#x1eb0;" horiz-adv-x="571" 
d="M563 0h-207l-22 309h-105l-20 -309h-203l133 1360h291zM279 1014l-37 -527h80l-35 527h-8zM295 1389q-102 0 -161.5 57t-59.5 176h145q3 -125 76 -125q74 0 74 125h141q0 -119 -58 -176t-157 -57zM299 1571l-207 155l101 115l180 -194z" />
    <glyph glyph-name="uni1EB1" unicode="&#x1eb1;" horiz-adv-x="544" 
d="M313 197v307q-14 -8 -51 -19q-43 -11 -43 -63v-213q0 -47 47 -47q38 0 47 35zM510 0h-184l-4 74h-9q-9 -17 -17 -28t-24 -26t-41.5 -22.5t-58.5 -7.5q-147 0 -147 166v229q0 96 41 142t143 73q60 15 81 28t21 44v133q0 41 -43 41q-47 0 -47 -47v-119h-184v143
q0 96 64 144.5t182 48.5q227 0 227 -180v-836zM268 1051q-102 0 -161.5 57t-59.5 176h146q2 -64 19.5 -94.5t55.5 -30.5q74 0 74 125h141q0 -119 -58 -176t-157 -57zM272 1233l-206 156l100 114l180 -194z" />
    <glyph glyph-name="uni1EB2" unicode="&#x1eb2;" horiz-adv-x="571" 
d="M563 0h-207l-22 309h-105l-20 -309h-203l133 1360h291zM279 1014l-37 -527h80l-35 527h-8zM285 1389q-101 0 -160 57t-59 176h141q3 -125 76 -125q38 0 55.5 30.5t19.5 94.5h144q0 -119 -59 -176t-158 -57zM313 1581h-90q0 31 11.5 52.5t25.5 30t25.5 20t11.5 26.5
q0 21 -31 21q-33 0 -73 -29l-31 98q22 19 57.5 30t67.5 11q52 0 85.5 -30.5t33.5 -81.5q0 -32 -14.5 -55t-32 -33.5t-32 -26t-14.5 -33.5z" />
    <glyph glyph-name="uni1EB3" unicode="&#x1eb3;" horiz-adv-x="544" 
d="M313 197v307q-14 -8 -51 -19q-43 -11 -43 -63v-213q0 -47 47 -47q38 0 47 35zM510 0h-184l-4 74h-9q-9 -17 -17 -28t-24 -26t-41.5 -22.5t-58.5 -7.5q-147 0 -147 166v229q0 96 41 142t143 73q60 15 81 28t21 44v133q0 41 -43 41q-47 0 -47 -47v-119h-184v143
q0 96 64 144.5t182 48.5q227 0 227 -180v-836zM270 1051q-101 0 -160 57t-59 176h142q2 -64 19.5 -94.5t55.5 -30.5q73 0 76 125h143q0 -119 -59 -176t-158 -57zM299 1243h-90q0 31 11.5 52.5t25.5 30t25.5 20t11.5 26.5q0 21 -31 21q-34 0 -74 -29l-31 98q22 19 57.5 30
t67.5 11q52 0 85.5 -30.5t33.5 -81.5q0 -32 -14.5 -55t-31.5 -33.5t-31.5 -26t-14.5 -33.5z" />
    <glyph glyph-name="uni1EB4" unicode="&#x1eb4;" horiz-adv-x="571" 
d="M563 0h-207l-22 309h-105l-20 -309h-203l133 1360h291zM279 1014l-37 -527h80l-35 527h-8zM281 1389q-101 0 -160.5 57t-59.5 176h142q3 -125 76 -125q38 0 55.5 30.5t19.5 94.5h144q0 -119 -59 -176t-158 -57zM410 1831l84 -45q-10 -60 -42 -89.5t-77 -29.5
q-35 0 -90.5 26.5t-83.5 26.5q-46 0 -56 -49l-84 47q10 59 42.5 88t76.5 29q35 0 90.5 -26.5t83.5 -26.5q46 0 56 49z" />
    <glyph glyph-name="uni1EB5" unicode="&#x1eb5;" horiz-adv-x="544" 
d="M313 197v307q-14 -8 -51 -19q-43 -11 -43 -63v-213q0 -47 47 -47q38 0 47 35zM510 0h-184l-4 74h-9q-9 -17 -17 -28t-24 -26t-41.5 -22.5t-58.5 -7.5q-147 0 -147 166v229q0 96 41 142t143 73q60 15 81 28t21 44v133q0 41 -43 41q-47 0 -47 -47v-119h-184v143
q0 96 64 144.5t182 48.5q227 0 227 -180v-836zM264 1051q-101 0 -160 57t-59 176h141q3 -125 76 -125t76 125h143q0 -119 -59 -176t-158 -57zM393 1493l84 -45q-10 -60 -42 -89.5t-77 -29.5q-35 0 -90.5 26.5t-83.5 26.5q-45 0 -55 -49l-84 47q10 59 42.5 88t76.5 29
q35 0 90.5 -26.5t83.5 -26.5q45 0 55 49z" />
    <glyph glyph-name="uni1EB6" unicode="&#x1eb6;" horiz-adv-x="571" 
d="M563 0h-207l-22 309h-105l-20 -309h-203l133 1360h291zM279 1014l-37 -527h80l-35 527h-8zM283 1395q-100 0 -161 69t-61 193h144q3 -139 78 -139q72 0 75 139h146q0 -126 -60.5 -194t-160.5 -68zM383 -274h-199v180h199v-180z" />
    <glyph glyph-name="uni1EB7" unicode="&#x1eb7;" horiz-adv-x="544" 
d="M313 197v307q-14 -8 -51 -19q-43 -11 -43 -63v-213q0 -47 47 -47q38 0 47 35zM510 0h-184l-4 74h-9q-9 -17 -17 -28t-24 -26t-41.5 -22.5t-58.5 -7.5q-147 0 -147 166v229q0 96 41 142t143 73q60 15 81 28t21 44v133q0 41 -43 41q-47 0 -47 -47v-119h-184v143
q0 96 64 144.5t182 48.5q227 0 227 -180v-836zM264 1057q-99 0 -160 69t-61 193h143q3 -139 78 -139q73 0 76 139h145q0 -126 -60.5 -194t-160.5 -68zM365 -274h-199v180h199v-180z" />
    <glyph glyph-name="uni1EB8" unicode="&#x1eb8;" horiz-adv-x="442" 
d="M428 0h-397v1360h385v-186h-180v-367h157v-189h-157v-432h192v-186zM319 -274h-198v180h198v-180z" />
    <glyph glyph-name="uni1EB9" unicode="&#x1eb9;" horiz-adv-x="550" 
d="M516 340v-111q0 -239 -244 -239q-121 0 -179 58.5t-58 180.5v547q0 122 58.5 181t180.5 59q242 0 242 -240v-330h-289v-221q0 -61 45 -61q47 0 47 61v115h197zM319 588v192q0 62 -45 62q-47 0 -47 -62v-192h92zM371 -274h-199v180h199v-180z" />
    <glyph glyph-name="uni1EBA" unicode="&#x1eba;" horiz-adv-x="442" 
d="M428 0h-397v1360h385v-186h-180v-367h157v-189h-157v-432h192v-186zM281 1413h-93q0 33 13 56t28 33t28 23t13 29q0 21 -30 21q-38 0 -74 -31l-33 105q49 43 125 43q53 0 87 -32t34 -87q0 -33 -15.5 -57.5t-33.5 -36.5t-33.5 -29t-15.5 -37z" />
    <glyph glyph-name="uni1EBB" unicode="&#x1ebb;" horiz-adv-x="550" 
d="M516 340v-111q0 -239 -244 -239q-121 0 -179 58.5t-58 180.5v547q0 122 58.5 181t180.5 59q242 0 242 -240v-330h-289v-221q0 -61 45 -61q47 0 47 61v115h197zM319 588v192q0 62 -45 62q-47 0 -47 -62v-192h92zM309 1075h-92q0 33 13 56.5t28 33t28 23t13 29.5
q0 20 -31 20q-37 0 -73 -31l-33 105q49 43 125 43q53 0 87 -32t34 -87q0 -33 -15.5 -57.5t-34 -36.5t-34 -29t-15.5 -37z" />
    <glyph glyph-name="uni1EBC" unicode="&#x1ebc;" horiz-adv-x="442" 
d="M428 0h-397v1360h385v-186h-180v-367h157v-189h-157v-432h192v-186zM358 1581l84 -45q-11 -60 -42.5 -89.5t-75.5 -29.5q-36 0 -92.5 26.5t-84.5 26.5q-43 0 -55 -49l-84 47q12 59 44 88t77 29q35 0 90.5 -26.5t83.5 -26.5q42 0 55 49z" />
    <glyph glyph-name="uni1EBD" unicode="&#x1ebd;" horiz-adv-x="550" 
d="M516 340v-111q0 -239 -244 -239q-121 0 -179 58.5t-58 180.5v547q0 122 58.5 181t180.5 59q242 0 242 -240v-330h-289v-221q0 -61 45 -61q47 0 47 61v115h197zM319 588v192q0 62 -45 62q-47 0 -47 -62v-192h92zM406 1243l83 -45q-11 -60 -42.5 -89.5t-75.5 -29.5
q-36 0 -92 27t-84 27q-44 0 -56 -50l-84 47q12 59 44 88t77 29q35 0 90.5 -26.5t83.5 -26.5q43 0 56 49z" />
    <glyph glyph-name="uni1EBE" unicode="&#x1ebe;" horiz-adv-x="442" 
d="M428 0h-397v1360h385v-186h-180v-367h157v-189h-157v-432h192v-186zM449 1462l-87 -67l-129 137l-131 -137l-86 67l129 185h174zM629 1726l-205 -155l-74 76l178 194z" />
    <glyph glyph-name="uni1EBF" unicode="&#x1ebf;" horiz-adv-x="550" 
d="M516 340v-111q0 -239 -244 -239q-121 0 -179 58.5t-58 180.5v547q0 122 58.5 181t180.5 59q242 0 242 -240v-330h-289v-221q0 -61 45 -61q47 0 47 61v115h197zM319 588v192q0 62 -45 62q-47 0 -47 -62v-192h92zM492 1124l-86 -67l-130 137l-131 -137l-86 67l129 185h174z
M672 1389l-205 -156l-74 76l178 194z" />
    <glyph glyph-name="uni1EC0" unicode="&#x1ec0;" horiz-adv-x="442" 
d="M428 0h-397v1360h385v-186h-180v-367h157v-189h-157v-432h192v-186zM442 1462l-86 -67l-129 137l-131 -137l-86 67l129 185h174zM487 1571l-204 155l98 115l180 -194z" />
    <glyph glyph-name="uni1EC1" unicode="&#x1ec1;" horiz-adv-x="550" 
d="M516 340v-111q0 -239 -244 -239q-121 0 -179 58.5t-58 180.5v547q0 122 58.5 181t180.5 59q242 0 242 -240v-330h-289v-221q0 -61 45 -61q47 0 47 61v115h197zM319 588v192q0 62 -45 62q-47 0 -47 -62v-192h92zM477 1124l-86 -67l-129 137l-131 -137l-86 67l129 185h174z
M522 1233l-205 156l99 114l180 -194z" />
    <glyph glyph-name="uni1EC2" unicode="&#x1ec2;" horiz-adv-x="442" 
d="M428 0h-397v1360h385v-186h-180v-367h157v-189h-157v-432h192v-186zM446 1462l-86 -67l-131 137l-131 -137l-86 67l129 185h176zM492 1563h-93q0 32 13 55t28 32.5t28 22.5t13 29q0 12 -6.5 17t-23.5 5q-39 0 -74 -30l-33 104q49 43 125 43q53 0 87 -33t34 -86
q0 -34 -15.5 -58.5t-33.5 -36.5t-33.5 -28.5t-15.5 -35.5z" />
    <glyph glyph-name="uni1EC3" unicode="&#x1ec3;" horiz-adv-x="550" 
d="M516 340v-111q0 -239 -244 -239q-121 0 -179 58.5t-58 180.5v547q0 122 58.5 181t180.5 59q242 0 242 -240v-330h-289v-221q0 -61 45 -61q47 0 47 61v115h197zM319 588v192q0 62 -45 62q-47 0 -47 -62v-192h92zM473 1124l-86 -67l-131 137l-131 -137l-86 67l129 185h176z
M518 1225h-92q0 32 13 55t28 32.5t28 22.5t13 29q0 22 -31 22q-39 0 -74 -30l-32 104q49 43 125 43q53 0 86.5 -32.5t33.5 -86.5q0 -34 -15.5 -58.5t-33.5 -36.5t-33.5 -28.5t-15.5 -35.5z" />
    <glyph glyph-name="uni1EC4" unicode="&#x1ec4;" horiz-adv-x="442" 
d="M428 0h-397v1360h385v-186h-180v-367h157v-189h-157v-432h192v-186zM449 1462l-87 -67l-129 137l-131 -137l-86 67l129 185h174zM365 1839l86 -45q-10 -60 -42.5 -88.5t-76.5 -28.5q-35 0 -90.5 24.5t-85.5 24.5q-43 0 -52 -47l-86 47q20 115 119 115q35 0 90.5 -23.5
t85.5 -23.5q43 0 52 45z" />
    <glyph glyph-name="uni1EC5" unicode="&#x1ec5;" horiz-adv-x="550" 
d="M516 340v-111q0 -239 -244 -239q-121 0 -179 58.5t-58 180.5v547q0 122 58.5 181t180.5 59q242 0 242 -240v-330h-289v-221q0 -61 45 -61q47 0 47 61v115h197zM319 588v192q0 62 -45 62q-47 0 -47 -62v-192h92zM487 1124l-86 -67l-129 137l-131 -137l-86 67l129 185h174z
M403 1501l86 -45q-10 -60 -42 -88.5t-76 -28.5q-35 0 -90.5 25t-85.5 25q-43 0 -52 -48l-86 48q10 59 41.5 86.5t77.5 27.5q35 0 90.5 -23.5t85.5 -23.5q42 0 51 45z" />
    <glyph glyph-name="uni1EC6" unicode="&#x1ec6;" horiz-adv-x="442" 
d="M428 0h-397v1360h385v-186h-180v-367h157v-189h-157v-432h192v-186zM453 1462l-86 -67l-131 149l-132 -149l-86 67l129 197h177zM334 -274h-199v180h199v-180z" />
    <glyph glyph-name="uni1EC7" unicode="&#x1ec7;" horiz-adv-x="550" 
d="M516 340v-111q0 -239 -244 -239q-121 0 -179 58.5t-58 180.5v547q0 122 58.5 181t180.5 59q242 0 242 -240v-330h-289v-221q0 -61 45 -61q47 0 47 61v115h197zM319 588v192q0 62 -45 62q-47 0 -47 -62v-192h92zM489 1124l-86 -67l-131 149l-131 -149l-86 67l129 197h176z
M371 -274h-199v180h199v-180z" />
    <glyph glyph-name="uni1EC8" unicode="&#x1ec8;" horiz-adv-x="272" 
d="M240 0h-209v1360h209v-1360zM174 1413h-92q0 33 13 56t28 33t28 23t13 29q0 21 -31 21q-38 0 -74 -31l-32 105q49 43 125 43q53 0 86.5 -32t33.5 -87q0 -33 -15.5 -57.5t-33.5 -36.5t-33.5 -29t-15.5 -37z" />
    <glyph glyph-name="uni1EC9" unicode="&#x1ec9;" horiz-adv-x="270" 
d="M233 0h-198v1008h198v-1008zM172 1075h-92q0 33 13 56.5t28 33t28 23t13 29.5q0 20 -31 20q-38 0 -74 -31l-32 105q49 43 125 43q53 0 86.5 -32t33.5 -87q0 -33 -15.5 -57.5t-33.5 -36.5t-33.5 -29t-15.5 -37z" />
    <glyph glyph-name="uni1ECA" unicode="&#x1eca;" horiz-adv-x="272" 
d="M240 0h-209v1360h209v-1360zM236 -274h-199v180h199v-180z" />
    <glyph glyph-name="uni1ECB" unicode="&#x1ecb;" horiz-adv-x="270" 
d="M233 0h-198v1008h198v-1008zM233 1112h-198v182h198v-182zM229 -274h-198v180h198v-180z" />
    <glyph glyph-name="uni1ECC" unicode="&#x1ecc;" 
d="M528 1092v-836q0 -132 -64 -199t-185 -67q-123 0 -188.5 69.5t-65.5 198.5v838q0 129 65.5 200.5t185.5 71.5t186 -72.5t66 -203.5zM324 242v872q0 62 -48 62q-45 0 -45 -62v-872q0 -62 45 -62q48 0 48 62zM377 -274h-199v180h199v-180z" />
    <glyph glyph-name="uni1ECD" unicode="&#x1ecd;" horiz-adv-x="548" 
d="M514 776v-547q0 -122 -59 -180.5t-181 -58.5q-123 0 -181 58t-58 181v547q0 123 58 181.5t181 58.5q122 0 181 -58.5t59 -181.5zM319 229v547q0 62 -45 62q-47 0 -47 -62v-547q0 -61 47 -61q45 0 45 61zM375 -274h-199v180h199v-180z" />
    <glyph glyph-name="uni1ECE" unicode="&#x1ece;" 
d="M528 1092v-836q0 -132 -64 -199t-185 -67q-123 0 -188.5 69.5t-65.5 198.5v838q0 129 65.5 200.5t185.5 71.5t186 -72.5t66 -203.5zM324 242v872q0 62 -48 62q-45 0 -45 -62v-872q0 -62 45 -62q48 0 48 62zM315 1413h-92q0 33 13 56t28 33t28 23t13 29q0 21 -31 21
q-37 0 -73 -31l-33 105q49 43 125 43q53 0 87 -32t34 -87q0 -33 -15.5 -57.5t-34 -36.5t-34 -29t-15.5 -37z" />
    <glyph glyph-name="uni1ECF" unicode="&#x1ecf;" horiz-adv-x="548" 
d="M514 776v-547q0 -122 -59 -180.5t-181 -58.5q-123 0 -181 58t-58 181v547q0 123 58 181.5t181 58.5q122 0 181 -58.5t59 -181.5zM319 229v547q0 62 -45 62q-47 0 -47 -62v-547q0 -61 47 -61q45 0 45 61zM313 1075h-92q0 33 13 56.5t28 33t28 23t13 29.5q0 20 -31 20
q-37 0 -73 -31l-33 105q49 43 125 43q53 0 87 -32t34 -87q0 -33 -15.5 -57.5t-34 -36.5t-34 -29t-15.5 -37z" />
    <glyph glyph-name="uni1ED0" unicode="&#x1ed0;" 
d="M528 1092v-836q0 -132 -64 -199t-185 -67q-123 0 -188.5 69.5t-65.5 198.5v838q0 129 65.5 200.5t185.5 71.5t186 -72.5t66 -203.5zM324 242v872q0 62 -48 62q-45 0 -45 -62v-872q0 -62 45 -62q48 0 48 62zM500 1462l-86 -67l-129 137l-131 -137l-86 67l129 185h174z
M680 1726l-205 -155l-74 76l179 194z" />
    <glyph glyph-name="uni1ED1" unicode="&#x1ed1;" horiz-adv-x="548" 
d="M514 776v-547q0 -122 -59 -180.5t-181 -58.5q-123 0 -181 58t-58 181v547q0 123 58 181.5t181 58.5q122 0 181 -58.5t59 -181.5zM319 229v547q0 62 -45 62q-47 0 -47 -62v-547q0 -61 47 -61q45 0 45 61zM487 1124l-86 -67l-129 137l-131 -137l-86 67l129 185h174z
M668 1389l-205 -156l-74 76l178 194z" />
    <glyph glyph-name="uni1ED2" unicode="&#x1ed2;" 
d="M528 1092v-836q0 -132 -64 -199t-185 -67q-123 0 -188.5 69.5t-65.5 198.5v838q0 129 65.5 200.5t185.5 71.5t186 -72.5t66 -203.5zM324 242v872q0 62 -48 62q-45 0 -45 -62v-872q0 -62 45 -62q48 0 48 62zM498 1462l-86 -67l-129 137l-131 -137l-86 67l129 185h174z
M543 1571l-205 155l98 115l180 -194z" />
    <glyph glyph-name="uni1ED3" unicode="&#x1ed3;" horiz-adv-x="548" 
d="M514 776v-547q0 -122 -59 -180.5t-181 -58.5q-123 0 -181 58t-58 181v547q0 123 58 181.5t181 58.5q122 0 181 -58.5t59 -181.5zM319 229v547q0 62 -45 62q-47 0 -47 -62v-547q0 -61 47 -61q45 0 45 61zM485 1124l-86 -67l-129 137l-131 -137l-86 67l129 185h174z
M530 1233l-204 156l98 114l180 -194z" />
    <glyph glyph-name="uni1ED4" unicode="&#x1ed4;" 
d="M528 1092v-836q0 -132 -64 -199t-185 -67q-123 0 -188.5 69.5t-65.5 198.5v838q0 129 65.5 200.5t185.5 71.5t186 -72.5t66 -203.5zM324 242v872q0 62 -48 62q-45 0 -45 -62v-872q0 -62 45 -62q48 0 48 62zM494 1462l-86 -67l-132 137l-131 -137l-86 67l129 185h177z
M539 1563h-93q0 32 13 55t28 32.5t28 22.5t13 29q0 12 -6.5 17t-23.5 5q-39 0 -74 -30l-33 104q49 43 125 43q53 0 87 -33t34 -86q0 -34 -15.5 -58.5t-33.5 -36.5t-33.5 -28.5t-15.5 -35.5z" />
    <glyph glyph-name="uni1ED5" unicode="&#x1ed5;" horiz-adv-x="548" 
d="M514 776v-547q0 -122 -59 -180.5t-181 -58.5q-123 0 -181 58t-58 181v547q0 123 58 181.5t181 58.5q122 0 181 -58.5t59 -181.5zM319 229v547q0 62 -45 62q-47 0 -47 -62v-547q0 -61 47 -61q45 0 45 61zM483 1124l-86 -67l-131 137l-131 -137l-86 67l129 185h176z
M528 1225h-92q0 32 13 55t28 32.5t28 22.5t13 29q0 22 -31 22q-39 0 -73 -30l-33 104q49 43 125 43q53 0 87 -33t34 -86q0 -34 -15.5 -58.5t-34 -36.5t-34 -28.5t-15.5 -35.5z" />
    <glyph glyph-name="uni1ED6" unicode="&#x1ed6;" 
d="M528 1092v-836q0 -132 -64 -199t-185 -67q-123 0 -188.5 69.5t-65.5 198.5v838q0 129 65.5 200.5t185.5 71.5t186 -72.5t66 -203.5zM324 242v872q0 62 -48 62q-45 0 -45 -62v-872q0 -62 45 -62q48 0 48 62zM496 1462l-86 -67l-129 137l-131 -137l-87 67l130 185h174z
M412 1839l86 -45q-10 -60 -42.5 -88.5t-76.5 -28.5q-35 0 -90.5 24.5t-85.5 24.5q-42 0 -51 -47l-86 47q20 115 118 115q35 0 90.5 -23.5t85.5 -23.5q43 0 52 45z" />
    <glyph glyph-name="uni1ED7" unicode="&#x1ed7;" horiz-adv-x="548" 
d="M514 776v-547q0 -122 -59 -180.5t-181 -58.5q-123 0 -181 58t-58 181v547q0 123 58 181.5t181 58.5q122 0 181 -58.5t59 -181.5zM319 229v547q0 62 -45 62q-47 0 -47 -62v-547q0 -61 47 -61q45 0 45 61zM492 1124l-86 -67l-130 137l-131 -137l-86 67l129 185h174z
M408 1501l86 -45q-10 -60 -42.5 -88.5t-76.5 -28.5q-35 0 -90.5 25t-85.5 25q-43 0 -52 -48l-86 48q10 59 41.5 86.5t77.5 27.5q35 0 90.5 -23.5t85.5 -23.5q43 0 52 45z" />
    <glyph glyph-name="uni1ED8" unicode="&#x1ed8;" 
d="M528 1092v-836q0 -132 -64 -199t-185 -67q-123 0 -188.5 69.5t-65.5 198.5v838q0 129 65.5 200.5t185.5 71.5t186 -72.5t66 -203.5zM324 242v872q0 62 -48 62q-45 0 -45 -62v-872q0 -62 45 -62q48 0 48 62zM494 1462l-86 -67l-132 149l-131 -149l-86 67l129 197h177z
M377 -274h-199v180h199v-180z" />
    <glyph glyph-name="uni1ED9" unicode="&#x1ed9;" horiz-adv-x="548" 
d="M514 776v-547q0 -122 -59 -180.5t-181 -58.5q-123 0 -181 58t-58 181v547q0 123 58 181.5t181 58.5q122 0 181 -58.5t59 -181.5zM319 229v547q0 62 -45 62q-47 0 -47 -62v-547q0 -61 47 -61q45 0 45 61zM492 1124l-86 -67l-132 149l-131 -149l-86 67l129 197h176z
M373 -274h-199v180h199v-180z" />
    <glyph glyph-name="uni1EDA" unicode="&#x1eda;" horiz-adv-x="647" 
d="M528 1092v-836q0 -133 -63.5 -199.5t-185.5 -66.5q-124 0 -189 69t-65 199v838q0 130 65 201t184 71q32 0 97.5 -7t89.5 -7q42 0 58 15t16 56q0 45 -7 76h105q14 -21 14 -92q0 -93 -22 -132.5t-76 -39.5q-24 0 -51 6q30 -61 30 -151zM324 242v872q0 62 -48 62
q-45 0 -45 -62v-872q0 -62 45 -62q48 0 48 62zM469 1602l-246 -207l-76 78l222 247z" />
    <glyph glyph-name="uni1EDB" unicode="&#x1edb;" horiz-adv-x="622" 
d="M469 1264l-246 -207l-76 78l222 247zM514 776v-547q0 -124 -58 -181.5t-182 -57.5q-123 0 -181 57.5t-58 181.5v547q0 240 231 240q36 0 94 -7.5t80 -7.5q41 0 55.5 16t14.5 56q0 49 -6 76h104q15 -23 15 -94q0 -92 -22.5 -131t-76.5 -39q-16 0 -26 2q16 -53 16 -111z
M319 229v547q0 62 -45 62q-47 0 -47 -62v-547q0 -61 47 -61q45 0 45 61z" />
    <glyph glyph-name="uni1EDC" unicode="&#x1edc;" horiz-adv-x="647" 
d="M528 1092v-836q0 -133 -63.5 -199.5t-185.5 -66.5q-124 0 -189 69t-65 199v838q0 130 65 201t184 71q32 0 97.5 -7t89.5 -7q42 0 58 15t16 56q0 45 -7 76h105q14 -21 14 -92q0 -93 -22 -132.5t-76 -39.5q-24 0 -51 6q30 -61 30 -151zM324 242v872q0 62 -48 62
q-45 0 -45 -62v-872q0 -62 45 -62q48 0 48 62zM332 1395l-246 207l102 118l220 -247z" />
    <glyph glyph-name="uni1EDD" unicode="&#x1edd;" horiz-adv-x="622" 
d="M330 1057l-246 207l102 118l220 -247zM514 776v-547q0 -124 -58 -181.5t-182 -57.5q-123 0 -181 57.5t-58 181.5v547q0 240 231 240q36 0 94 -7.5t80 -7.5q41 0 55.5 16t14.5 56q0 49 -6 76h104q15 -23 15 -94q0 -92 -22.5 -131t-76.5 -39q-16 0 -26 2q16 -53 16 -111z
M319 229v547q0 62 -45 62q-47 0 -47 -62v-547q0 -61 47 -61q45 0 45 61z" />
    <glyph glyph-name="uni1EDE" unicode="&#x1ede;" horiz-adv-x="647" 
d="M528 1092v-836q0 -133 -63.5 -199.5t-185.5 -66.5q-124 0 -189 69t-65 199v838q0 130 65 201t184 71q32 0 97.5 -7t89.5 -7q42 0 58 15t16 56q0 45 -7 76h105q14 -21 14 -92q0 -93 -22 -132.5t-76 -39.5q-24 0 -51 6q30 -61 30 -151zM324 242v872q0 62 -48 62
q-45 0 -45 -62v-872q0 -62 45 -62q48 0 48 62zM313 1413h-92q0 33 13 56t28 33t28 23t13 29q0 21 -31 21q-37 0 -73 -31l-33 105q49 43 125 43q53 0 87 -32t34 -87q0 -33 -15.5 -57.5t-34 -36.5t-34 -29t-15.5 -37z" />
    <glyph glyph-name="uni1EDF" unicode="&#x1edf;" horiz-adv-x="622" 
d="M514 776v-547q0 -124 -58 -181.5t-182 -57.5q-123 0 -181 57.5t-58 181.5v547q0 240 231 240q36 0 94 -7.5t80 -7.5q41 0 55.5 16t14.5 56q0 49 -6 76h104q15 -23 15 -94q0 -92 -22.5 -131t-76.5 -39q-16 0 -26 2q16 -53 16 -111zM319 229v547q0 62 -45 62q-47 0 -47 -62
v-547q0 -61 47 -61q45 0 45 61zM317 1075h-92q0 33 13 56.5t28 33t28 23t13 29.5q0 20 -31 20q-37 0 -73 -31l-33 105q49 43 125 43q53 0 87 -32t34 -87q0 -33 -15.5 -57.5t-34 -36.5t-34 -29t-15.5 -37z" />
    <glyph glyph-name="uni1EE0" unicode="&#x1ee0;" horiz-adv-x="647" 
d="M528 1092v-836q0 -133 -63.5 -199.5t-185.5 -66.5q-124 0 -189 69t-65 199v838q0 130 65 201t184 71q32 0 97.5 -7t89.5 -7q42 0 58 15t16 56q0 45 -7 76h105q14 -21 14 -92q0 -93 -22 -132.5t-76 -39.5q-24 0 -51 6q30 -61 30 -151zM324 242v872q0 62 -48 62
q-45 0 -45 -62v-872q0 -62 45 -62q48 0 48 62zM412 1581l84 -45q-11 -60 -43 -89.5t-76 -29.5q-36 0 -92 26.5t-84 26.5q-44 0 -56 -49l-84 47q12 59 44 88t77 29q35 0 90.5 -26.5t83.5 -26.5q43 0 56 49z" />
    <glyph glyph-name="uni1EE1" unicode="&#x1ee1;" horiz-adv-x="622" 
d="M514 776v-547q0 -124 -58 -181.5t-182 -57.5q-123 0 -181 57.5t-58 181.5v547q0 240 231 240q36 0 94 -7.5t80 -7.5q41 0 55.5 16t14.5 56q0 49 -6 76h104q15 -23 15 -94q0 -92 -22.5 -131t-76.5 -39q-16 0 -26 2q16 -53 16 -111zM319 229v547q0 62 -45 62q-47 0 -47 -62
v-547q0 -61 47 -61q45 0 45 61zM408 1243l84 -45q-11 -60 -43 -89.5t-76 -29.5q-36 0 -92 27t-84 27q-44 0 -56 -50l-84 47q12 59 44 88t77 29q35 0 90.5 -26.5t83.5 -26.5q43 0 56 49z" />
    <glyph glyph-name="uni1EE2" unicode="&#x1ee2;" horiz-adv-x="647" 
d="M528 1092v-836q0 -133 -63.5 -199.5t-185.5 -66.5q-124 0 -189 69t-65 199v838q0 130 65 201t184 71q32 0 97.5 -7t89.5 -7q42 0 58 15t16 56q0 45 -7 76h105q14 -21 14 -92q0 -93 -22 -132.5t-76 -39.5q-24 0 -51 6q30 -61 30 -151zM324 242v872q0 62 -48 62
q-45 0 -45 -62v-872q0 -62 45 -62q48 0 48 62zM377 -274h-199v180h199v-180z" />
    <glyph glyph-name="uni1EE3" unicode="&#x1ee3;" horiz-adv-x="622" 
d="M514 776v-547q0 -124 -58 -181.5t-182 -57.5q-123 0 -181 57.5t-58 181.5v547q0 240 231 240q36 0 94 -7.5t80 -7.5q41 0 55.5 16t14.5 56q0 49 -6 76h104q15 -23 15 -94q0 -92 -22.5 -131t-76.5 -39q-16 0 -26 2q16 -53 16 -111zM319 229v547q0 62 -45 62q-47 0 -47 -62
v-547q0 -61 47 -61q45 0 45 61zM375 -274h-199v180h199v-180z" />
    <glyph glyph-name="uni1EE4" unicode="&#x1ee4;" horiz-adv-x="565" 
d="M326 242v1118h206v-1102q0 -130 -63.5 -199t-185.5 -69t-187 67t-65 199v1104h202v-1118q0 -62 48 -62q45 0 45 62zM377 -274h-199v180h199v-180z" />
    <glyph glyph-name="uni1EE5" unicode="&#x1ee5;" horiz-adv-x="557" 
d="M35 1008h201v-775q0 -42 8 -56.5t35 -14.5q26 0 34.5 15t8.5 56v775h200v-1008h-188l-2 86h-8q-27 -53 -58.5 -74.5t-79.5 -21.5t-79.5 17.5t-46.5 53t-20 74.5t-5 98v775zM379 -274h-199v180h199v-180z" />
    <glyph glyph-name="uni1EE6" unicode="&#x1ee6;" horiz-adv-x="565" 
d="M326 242v1118h206v-1102q0 -130 -63.5 -199t-185.5 -69t-187 67t-65 199v1104h202v-1118q0 -62 48 -62q45 0 45 62zM319 1413h-92q0 33 13 56t28 33t28 23t13 29q0 21 -30 21q-38 0 -74 -31l-33 105q49 43 125 43q53 0 87 -32t34 -87q0 -33 -15.5 -57.5t-34 -36.5
t-34 -29t-15.5 -37z" />
    <glyph glyph-name="uni1EE7" unicode="&#x1ee7;" horiz-adv-x="557" 
d="M35 1008h201v-775q0 -42 8 -56.5t35 -14.5q26 0 34.5 15t8.5 56v775h200v-1008h-188l-2 86h-8q-27 -53 -58.5 -74.5t-79.5 -21.5t-79.5 17.5t-46.5 53t-20 74.5t-5 98v775zM319 1075h-92q0 33 13 56.5t28 33t28 23t13 29.5q0 20 -30 20q-38 0 -74 -31l-33 105
q49 43 125 43q53 0 87 -32t34 -87q0 -33 -15.5 -57.5t-34 -36.5t-34 -29t-15.5 -37z" />
    <glyph glyph-name="uni1EE8" unicode="&#x1ee8;" horiz-adv-x="704" 
d="M326 242v1118h206q32 0 45 16t13 54q0 51 -6 71h106q15 -27 15 -94q0 -92 -23 -131t-76 -39q-20 0 -74 12v-991q0 -130 -63 -199t-186 -69q-122 0 -187 66.5t-65 199.5v1104h202v-1118q0 -62 48 -62q45 0 45 62zM469 1602l-246 -207l-76 78l222 247z" />
    <glyph glyph-name="uni1EE9" unicode="&#x1ee9;" horiz-adv-x="688" 
d="M469 1264l-246 -207l-76 78l222 247zM35 1008h201v-795q0 -51 38 -51q36 0 48 47v799h200q28 0 39.5 15t11.5 54q0 42 -6 72h107q14 -25 14 -96q0 -90 -22.5 -129t-77.5 -39q-32 0 -66 12v-897h-188l-2 86h-6q-49 -96 -133 -96q-39 0 -67.5 14t-45.5 37.5t-27.5 60
t-14 74.5t-3.5 88v744z" />
    <glyph glyph-name="uni1EEA" unicode="&#x1eea;" horiz-adv-x="704" 
d="M326 242v1118h206q32 0 45 16t13 54q0 51 -6 71h106q15 -27 15 -94q0 -92 -23 -131t-76 -39q-20 0 -74 12v-991q0 -130 -63 -199t-186 -69q-122 0 -187 66.5t-65 199.5v1104h202v-1118q0 -62 48 -62q45 0 45 62zM338 1395l-246 207l103 118l219 -247z" />
    <glyph glyph-name="uni1EEB" unicode="&#x1eeb;" horiz-adv-x="688" 
d="M334 1057l-246 207l102 118l220 -247zM35 1008h201v-795q0 -51 38 -51q36 0 48 47v799h200q28 0 39.5 15t11.5 54q0 42 -6 72h107q14 -25 14 -96q0 -90 -22.5 -129t-77.5 -39q-32 0 -66 12v-897h-188l-2 86h-6q-49 -96 -133 -96q-39 0 -67.5 14t-45.5 37.5t-27.5 60
t-14 74.5t-3.5 88v744z" />
    <glyph glyph-name="uni1EEC" unicode="&#x1eec;" horiz-adv-x="704" 
d="M326 242v1118h206q32 0 45 16t13 54q0 51 -6 71h106q15 -27 15 -94q0 -92 -23 -131t-76 -39q-20 0 -74 12v-991q0 -130 -63 -199t-186 -69q-122 0 -187 66.5t-65 199.5v1104h202v-1118q0 -62 48 -62q45 0 45 62zM319 1413h-92q0 33 13 56t28 33t28 23t13 29q0 21 -30 21
q-38 0 -74 -31l-33 105q49 43 125 43q53 0 87 -32t34 -87q0 -33 -15.5 -57.5t-34 -36.5t-34 -29t-15.5 -37z" />
    <glyph glyph-name="uni1EED" unicode="&#x1eed;" horiz-adv-x="688" 
d="M35 1008h201v-795q0 -51 38 -51q36 0 48 47v799h200q28 0 39.5 15t11.5 54q0 42 -6 72h107q14 -25 14 -96q0 -90 -22.5 -129t-77.5 -39q-32 0 -66 12v-897h-188l-2 86h-6q-49 -96 -133 -96q-39 0 -67.5 14t-45.5 37.5t-27.5 60t-14 74.5t-3.5 88v744zM315 1075h-92
q0 33 13 56.5t28 33t28 23t13 29.5q0 20 -31 20q-37 0 -73 -31l-33 105q49 43 125 43q53 0 87 -32t34 -87q0 -33 -15.5 -57.5t-34 -36.5t-34 -29t-15.5 -37z" />
    <glyph glyph-name="uni1EEE" unicode="&#x1eee;" horiz-adv-x="704" 
d="M326 242v1118h206q32 0 45 16t13 54q0 51 -6 71h106q15 -27 15 -94q0 -92 -23 -131t-76 -39q-20 0 -74 12v-991q0 -130 -63 -199t-186 -69q-122 0 -187 66.5t-65 199.5v1104h202v-1118q0 -62 48 -62q45 0 45 62zM412 1581l84 -45q-11 -60 -43 -89.5t-76 -29.5
q-36 0 -92 26.5t-84 26.5q-44 0 -56 -49l-84 47q12 59 44 88t77 29q35 0 90.5 -26.5t83.5 -26.5q43 0 56 49z" />
    <glyph glyph-name="uni1EEF" unicode="&#x1eef;" horiz-adv-x="688" 
d="M412 1243l84 -45q-11 -60 -43 -89.5t-76 -29.5q-36 0 -92 27t-84 27q-44 0 -56 -50l-84 47q12 59 44 88t77 29q35 0 90.5 -26.5t83.5 -26.5q43 0 56 49zM35 1008h201v-795q0 -51 38 -51q36 0 48 47v799h200q28 0 39.5 15t11.5 54q0 42 -6 72h107q14 -25 14 -96
q0 -90 -22.5 -129t-77.5 -39q-32 0 -66 12v-897h-188l-2 86h-6q-49 -96 -133 -96q-39 0 -67.5 14t-45.5 37.5t-27.5 60t-14 74.5t-3.5 88v744z" />
    <glyph glyph-name="uni1EF0" unicode="&#x1ef0;" horiz-adv-x="704" 
d="M326 242v1118h206q32 0 45 16t13 54q0 51 -6 71h106q15 -27 15 -94q0 -92 -23 -131t-76 -39q-20 0 -74 12v-991q0 -130 -63 -199t-186 -69q-122 0 -187 66.5t-65 199.5v1104h202v-1118q0 -62 48 -62q45 0 45 62zM377 -274h-199v180h199v-180z" />
    <glyph glyph-name="uni1EF1" unicode="&#x1ef1;" horiz-adv-x="688" 
d="M35 1008h201v-795q0 -51 38 -51q36 0 48 47v799h200q28 0 39.5 15t11.5 54q0 42 -6 72h107q14 -25 14 -96q0 -90 -22.5 -129t-77.5 -39q-32 0 -66 12v-897h-188l-2 86h-6q-49 -96 -133 -96q-39 0 -67.5 14t-45.5 37.5t-27.5 60t-14 74.5t-3.5 88v744zM377 -274h-199v180
h199v-180z" />
    <glyph glyph-name="Ygrave" unicode="&#x1ef2;" horiz-adv-x="565" 
d="M391 0h-209v559l-178 801h205l76 -445h8l65 445h203l-170 -803v-557zM342 1395l-246 207l103 118l219 -247z" />
    <glyph glyph-name="ygrave" unicode="&#x1ef3;" 
d="M236 1008v-766q0 -62 45 -62q44 0 47 62v766h192v-1246q0 -121 -60.5 -180t-183.5 -59q-121 0 -179 58.5t-58 180.5v177h190v-177q0 -61 47 -61q46 0 46 61v312h-9q-40 -74 -127 -74q-83 0 -117 50.5t-34 146.5v811h201zM334 1057l-246 207l102 118l220 -247z" />
    <glyph glyph-name="uni1EF6" unicode="&#x1ef6;" horiz-adv-x="565" 
d="M391 0h-209v559l-178 801h205l76 -445h8l65 445h203l-170 -803v-557zM332 1413h-92q0 33 13 56t28 33t28 23t13 29q0 21 -31 21q-38 0 -74 -31l-33 105q49 43 125 43q53 0 87 -32t34 -87q0 -33 -15.5 -57.5t-33.5 -36.5t-33.5 -29t-15.5 -37z" />
    <glyph glyph-name="uni1EF7" unicode="&#x1ef7;" 
d="M236 1008v-766q0 -62 45 -62q44 0 47 62v766h192v-1246q0 -121 -60.5 -180t-183.5 -59q-121 0 -179 58.5t-58 180.5v177h190v-177q0 -61 47 -61q46 0 46 61v312h-9q-40 -74 -127 -74q-83 0 -117 50.5t-34 146.5v811h201zM322 1075h-93q0 33 13 56.5t28 33t28 23t13 29.5
q0 20 -30 20q-38 0 -74 -31l-33 105q49 43 125 43q53 0 87 -32t34 -87q0 -33 -15.5 -57.5t-33.5 -36.5t-33.5 -29t-15.5 -37z" />
    <glyph glyph-name="endash" unicode="&#x2013;" horiz-adv-x="380" 
d="M356 543h-331v170h331v-170z" />
    <glyph glyph-name="emdash" unicode="&#x2014;" horiz-adv-x="548" 
d="M524 543h-499v170h499v-170z" />
    <glyph glyph-name="quoteleft" unicode="&#x2018;" horiz-adv-x="266" 
d="M233 1438v-113q-86 -50 -86 -145v-47h86v-201h-202v219q0 245 202 287z" />
    <glyph glyph-name="quoteright" unicode="&#x2019;" horiz-adv-x="266" 
d="M31 870v113q88 49 88 145v48h-88v200h202v-219q0 -248 -202 -287z" />
    <glyph glyph-name="quotesinglbase" unicode="&#x201a;" horiz-adv-x="266" 
d="M31 -305v112q88 49 88 146v47h-88v201h202v-219q0 -248 -202 -287z" />
    <glyph glyph-name="quotedblleft" unicode="&#x201c;" horiz-adv-x="534" 
d="M233 1438v-113q-86 -50 -86 -145v-47h86v-201h-202v219q0 245 202 287zM500 1438v-113q-86 -50 -86 -145v-47h86v-201h-203v219q0 245 203 287z" />
    <glyph glyph-name="quotedblright" unicode="&#x201d;" horiz-adv-x="532" 
d="M31 870v113q88 49 88 145v48h-88v200h202v-219q0 -248 -202 -287zM295 870v113q88 49 88 145v48h-88v200h203v-219q0 -248 -203 -287z" />
    <glyph glyph-name="quotedblbase" unicode="&#x201e;" horiz-adv-x="532" 
d="M31 -305v112q88 49 88 146v47h-88v201h202v-219q0 -248 -202 -287zM295 -305v112q88 49 88 146v47h-88v201h203v-219q0 -248 -203 -287z" />
    <glyph glyph-name="dagger" unicode="&#x2020;" horiz-adv-x="464" 
d="M295 0h-119v975h-145v110h145v275h119v-275h137v-110h-137v-975z" />
    <glyph glyph-name="daggerdbl" unicode="&#x2021;" horiz-adv-x="460" 
d="M295 0h-119v274h-145v111h145v590h-145v110h145v275h119v-275h137v-110h-137v-590h137v-111h-137v-274z" />
    <glyph glyph-name="bullet" unicode="&#x2022;" horiz-adv-x="354" 
d="M178 524q-62 0 -104.5 44.5t-42.5 111.5q0 68 42.5 113t104.5 45q61 0 102.5 -45t41.5 -113q0 -67 -41.5 -111.5t-102.5 -44.5z" />
    <glyph glyph-name="ellipsis" unicode="&#x2026;" horiz-adv-x="763" 
d="M483 0h-202v201h202v-201zM731 0h-203v201h203v-201zM233 0h-202v201h202v-201z" />
    <glyph glyph-name="perthousand" unicode="&#x2030;" horiz-adv-x="847" 
d="M156 -33h-111l365 1426h110zM575 479v-329q0 -156 -124 -156q-62 0 -94.5 43t-32.5 117v325q0 158 127 158q124 0 124 -158zM471 150v331q0 60 -22 60q-23 0 -23 -60v-331q0 -60 23 -60q22 0 22 60zM848 479v-329q0 -156 -125 -156q-62 0 -94.5 43t-32.5 117v325
q0 158 127 158q125 0 125 -158zM743 150v331q0 60 -22 60q-23 0 -23 -60v-331q0 -60 23 -60q22 0 22 60zM252 1206v-329q0 -156 -125 -156q-62 0 -94.5 43t-32.5 117v325q0 158 127 158q125 0 125 -158zM147 877v331q0 60 -22 60q-23 0 -23 -60v-331q0 -60 23 -60
q22 0 22 60z" />
    <glyph glyph-name="guilsinglleft" unicode="&#x2039;" horiz-adv-x="270" 
d="M184 391l-176 260l176 260l78 -75l-127 -185l127 -184z" />
    <glyph glyph-name="guilsinglright" unicode="&#x203a;" horiz-adv-x="270" 
d="M86 393l-78 74l127 186l-127 185l78 73l176 -258z" />
    <glyph glyph-name="fraction" unicode="&#x2044;" horiz-adv-x="137" 
d="M-55 -33h-111l365 1426h110z" />
    <glyph glyph-name="uni2070" unicode="&#x2070;" horiz-adv-x="313" 
d="M283 1206v-329q0 -156 -125 -156q-62 0 -94.5 43t-32.5 117v325q0 158 127 158q125 0 125 -158zM178 877v331q0 60 -22 60q-23 0 -23 -60v-331q0 -60 23 -60q22 0 22 60z" />
    <glyph glyph-name="uni2074" unicode="&#x2074;" horiz-adv-x="309" 
d="M147 946v203h-6l-49 -203h55zM246 727h-99v133h-122v86l102 414h119v-414h39v-86h-39v-133z" />
    <glyph glyph-name="uni2075" unicode="&#x2075;" horiz-adv-x="307" 
d="M276 1026v-170q0 -65 -31 -100t-91 -35q-53 0 -88 29.5t-35 101.5v39h98v-43q0 -31 23 -31q22 0 22 31v168q0 31 -22 31q-16 0 -25 -15h-96l12 328h219v-92h-131l-6 -154q21 21 61 21q90 0 90 -109z" />
    <glyph glyph-name="uni2076" unicode="&#x2076;" horiz-adv-x="307" 
d="M276 1024v-170q0 -133 -122 -133q-61 0 -92 35t-31 100v371q0 66 32 101.5t93 35.5q59 0 89.5 -31.5t30.5 -91.5v-63h-98v59q0 31 -22 31q-23 0 -23 -31v-160h2q22 39 64 39q35 0 56 -24.5t21 -67.5zM178 848v151q0 31 -22 31q-20 0 -23 -22v-160q0 -31 23 -31
q22 0 22 31z" />
    <glyph glyph-name="uni2077" unicode="&#x2077;" horiz-adv-x="258" 
d="M154 727h-101q1 121 29 273.5t63 265.5h-120v94h208v-86q-36 -116 -57.5 -265.5t-21.5 -281.5z" />
    <glyph glyph-name="uni2078" unicode="&#x2078;" horiz-adv-x="303" 
d="M152 1268q-23 0 -23 -25v-125q0 -26 23 -26q20 0 20 26v125q0 25 -20 25zM152 721q-62 0 -94.5 35.5t-32.5 99.5v80q0 54 11.5 80t45.5 35v6q-49 8 -49 84v106q0 48 30 82.5t89 34.5q57 0 87.5 -35t30.5 -82v-106q0 -76 -51 -84v-6q33 -9 45 -35.5t12 -79.5v-80
q0 -64 -31.5 -99.5t-92.5 -35.5zM152 817q22 0 22 27v133q0 29 -22 29q-23 0 -23 -29v-133q0 -27 23 -27z" />
    <glyph glyph-name="uni2079" unicode="&#x2079;" horiz-adv-x="307" 
d="M31 1071v146q0 77 27 112t96 35t95.5 -37.5t26.5 -114.5v-342q0 -72 -27 -110.5t-97 -38.5q-121 0 -121 131v47h98v-51q0 -29 23 -29q22 0 22 39v160h-8q-19 -39 -57 -39q-35 0 -56.5 25t-21.5 67zM129 1237v-141q0 -31 23 -31q22 0 22 31v141q0 31 -22 31q-23 0 -23 -31
z" />
    <glyph glyph-name="uni2080" unicode="&#x2080;" horiz-adv-x="313" 
d="M283 479v-329q0 -156 -125 -156q-62 0 -94.5 43t-32.5 117v325q0 158 127 158q125 0 125 -158zM178 150v331q0 60 -22 60q-23 0 -23 -60v-331q0 -60 23 -60q22 0 22 60z" />
    <glyph glyph-name="uni2081" unicode="&#x2081;" horiz-adv-x="208" 
d="M176 0h-100v506h-51v82q56 0 63 45h88v-633z" />
    <glyph glyph-name="uni2082" unicode="&#x2082;" horiz-adv-x="303" 
d="M276 0h-245v131q0 74 39 129q14 20 48.5 56t41.5 46q18 27 18 62v86q0 31 -24 31q-23 0 -23 -33v-96h-98v86q0 75 23.5 107t97.5 32q70 0 96 -29.5t26 -95.5v-90q0 -65 -34 -107q-7 -9 -33.5 -39t-48.5 -57q-25 -32 -25 -65v-64h141v-90z" />
    <glyph glyph-name="uni2083" unicode="&#x2083;" horiz-adv-x="303" 
d="M276 244v-115q0 -65 -31 -100t-91 -35q-123 0 -123 133v82h98v-88q0 -31 23 -31q22 0 22 31v131q0 33 -29 33h-32v86h34q27 0 27 35v104q0 31 -22 31q-23 0 -23 -31v-72h-98v60q0 66 31.5 102.5t89.5 36.5q57 0 87.5 -35t30.5 -82v-104q0 -71 -53 -80v-6q59 -10 59 -86z
" />
    <glyph glyph-name="uni2084" unicode="&#x2084;" horiz-adv-x="309" 
d="M147 219v203h-6l-49 -203h55zM246 0h-99v133h-122v86l102 414h119v-414h39v-86h-39v-133z" />
    <glyph glyph-name="uni2085" unicode="&#x2085;" horiz-adv-x="307" 
d="M276 299v-170q0 -65 -31 -100t-91 -35q-53 0 -88 29.5t-35 101.5v39h98v-43q0 -31 23 -31q22 0 22 31v168q0 30 -22 30q-17 0 -25 -14h-96l12 328h219v-92h-131l-6 -154q21 21 61 21q90 0 90 -109z" />
    <glyph glyph-name="uni2086" unicode="&#x2086;" horiz-adv-x="307" 
d="M276 297v-170q0 -133 -122 -133q-61 0 -92 35t-31 100v371q0 66 32 101.5t93 35.5q59 0 89.5 -31.5t30.5 -91.5v-63h-98v59q0 31 -22 31q-23 0 -23 -31v-160h2q22 39 64 39q35 0 56 -24.5t21 -67.5zM178 121v151q0 31 -22 31q-20 0 -23 -22v-160q0 -31 23 -31q22 0 22 31
z" />
    <glyph glyph-name="uni2087" unicode="&#x2087;" horiz-adv-x="258" 
d="M154 0h-101q1 121 29 273.5t63 265.5h-120v94h208v-86q-36 -116 -57.5 -265.5t-21.5 -281.5z" />
    <glyph glyph-name="uni2088" unicode="&#x2088;" horiz-adv-x="303" 
d="M152 541q-23 0 -23 -25v-125q0 -26 23 -26q20 0 20 26v125q0 25 -20 25zM152 -6q-62 0 -94.5 35.5t-32.5 99.5v80q0 54 11.5 80t45.5 35v6q-49 8 -49 84v106q0 48 30 82.5t89 34.5q57 0 87.5 -35t30.5 -82v-106q0 -76 -51 -84v-6q33 -9 45 -35.5t12 -79.5v-80
q0 -64 -31.5 -99.5t-92.5 -35.5zM152 90q22 0 22 27v133q0 29 -22 29q-23 0 -23 -29v-133q0 -27 23 -27z" />
    <glyph glyph-name="uni2089" unicode="&#x2089;" horiz-adv-x="307" 
d="M31 344v145q0 77 27 112.5t96 35.5t95.5 -37.5t26.5 -114.5v-342q0 -72 -27 -110.5t-97 -38.5q-121 0 -121 131v47h98v-51q0 -29 23 -29q22 0 22 39v160h-8q-19 -39 -57 -39q-35 0 -56.5 25t-21.5 67zM129 510v-141q0 -31 23 -31q22 0 22 31v141q0 31 -22 31
q-23 0 -23 -31z" />
    <glyph glyph-name="uni20A9" unicode="&#x20a9;" horiz-adv-x="843" 
d="M360 0h-231l-35 553h-80v102h74l-8 144h-66v102h60l-29 459h174l17 -459h61l25 459h198l25 -459h63l17 459h172l-29 -459h61v-102h-67l-10 -144h77v-102h-84l-32 -553h-234l-30 553h-60zM551 799l8 -144h41l4 144h-53zM240 799l6 -144h39l6 144h-51zM401 799l-8 -144h51
l-8 144h-35zM258 305h8l13 248h-29zM580 305h8l8 248h-31zM416 1067l-10 -166h26l-8 166h-8z" />
    <glyph glyph-name="uni20AA" unicode="&#x20aa;" horiz-adv-x="733" 
d="M522 233h-131v875q0 28 -10 38.5t-31 10.5h-190v-1157h-129v1360h377q61 0 87.5 -34t26.5 -128v-965zM211 1124h129v-872q0 -30 10 -41.5t31 -11.5h190v1161h129v-1360h-374q-62 0 -88.5 32.5t-26.5 127.5v964z" />
    <glyph glyph-name="dong" unicode="&#x20ab;" horiz-adv-x="466" 
d="M410 215h-129l-5 61h-8q-30 -69 -116 -69q-55 0 -86 33t-31 98v530q0 65 32 97t83 32q39 0 69 -15t41 -38h8v232h-184v104h184v96h142v-96h45v-104h-45v-961zM178 829v-446q0 -51 47 -51q20 0 29.5 8.5t15.5 30.5v458q-6 24 -16.5 33.5t-30.5 9.5q-45 0 -45 -43zM410 0
h-387v104h387v-104z" />
    <glyph glyph-name="Euro" unicode="&#x20ac;" horiz-adv-x="528" 
d="M399 252l117 -123q-75 -139 -217 -139q-105 0 -164 70t-59 198v229h-53l16 123h37v160h-53l16 123h37v203q0 132 63.5 202t188.5 70q88 0 133 -39l-31 -199q-43 46 -90 46q-57 0 -57 -62v-221h127l-17 -123h-110v-160h92l-17 -123h-75v-245q0 -62 43 -62q45 0 73 72z" />
    <glyph glyph-name="uni20AD" unicode="&#x20ad;" horiz-adv-x="636" 
d="M606 672h-119l113 -672h-211l-96 672h-6v-672h-213v672h-62v135h62v553h213v-553h6l100 553h209l-121 -553h125v-135z" />
    <glyph glyph-name="uni20AE" unicode="&#x20ae;" horiz-adv-x="536" 
d="M492 801l-121 -68v-170l121 68v-142l-121 -67v-422h-207v309l-119 -65v141l119 66v170l-119 -66v139l119 66v414h-146v186h500v-186h-147v-302l121 68v-139z" />
    <glyph glyph-name="uni20B1" unicode="&#x20b1;" horiz-adv-x="624" 
d="M625 784h-64v-55q0 -105 -47 -159t-154 -54h-86v-516h-208v784h-66v93h66v112h-66v92h66v279h294q106 0 153.5 -54.5t47.5 -160.5v-64h64v-92h-64v-112h64v-93zM274 989v-112h93v112h-93zM274 1174v-93h93v39q0 54 -52 54h-41zM315 694q52 0 52 68v22h-93v-90h41z" />
    <glyph glyph-name="uni20B2" unicode="&#x20b2;" horiz-adv-x="557" 
d="M158 -33h-121l31 123q-37 64 -37 168v838q0 130 63 201t182 71q58 0 105 -18l10 43h121l-31 -125q43 -67 43 -176v-152h-125l-59 -240h184v-700h-133l-8 53h-8q-37 -63 -123 -63q-42 0 -86 14zM330 516h-37l-55 -227q0 -64 10.5 -86.5t34.5 -22.5q47 0 47 62v274z
M238 1114v-340h8l82 363q-9 39 -45 39q-45 0 -45 -62z" />
    <glyph glyph-name="uni20B4" unicode="&#x20b4;" horiz-adv-x="577" 
d="M578 551h-285q-28 -33 -38.5 -64.5t-10.5 -97.5v-149q0 -60 55 -60t55 60v168h197v-152q0 -134 -62.5 -200t-197.5 -66q-136 0 -200 66.5t-64 197.5v182q0 74 8 115h-35v92h74l100 105h-174v92h272q46 50 57 77.5t11 86.5v118q0 24 -12.5 39t-36.5 15q-51 0 -51 -60v-158
h-195v134q0 276 248 276q124 0 189 -62t65 -178v-114q0 -103 -25 -174h56v-92h-105l-90 -105h195v-92z" />
    <glyph glyph-name="uni20B8" unicode="&#x20b8;" horiz-adv-x="479" 
d="M324 0h-162v942h-139v178h438v-178h-137v-942zM461 1188h-438v172h438v-172z" />
    <glyph glyph-name="uni20B9" unicode="&#x20b9;" horiz-adv-x="468" 
d="M369 0h-205l-96 580v114h63q70 0 70 78v119h-176v135h176v121q0 72 -66 72h-110v141h421v-141h-79v-11q16 -26 16 -61v-121h63v-135h-63v-119q0 -150 -121 -194z" />
    <glyph glyph-name="uni20BA" unicode="&#x20ba;" horiz-adv-x="589" 
d="M463 694l-178 -98v-410h43q47 0 47 62v219h196v-209q0 -258 -241 -258h-250v481l-62 -32v141l62 33v170l-62 -33v139l62 33v428h205v-313l178 98v-139l-178 -99v-170l178 99v-142z" />
    <glyph glyph-name="uni20BC" unicode="&#x20bc;" horiz-adv-x="804" 
d="M301 1360h203v-275h74q107 0 153.5 -53.5t46.5 -159.5v-872h-182v838q0 67 -51 67h-41v-905h-203v905h-41q-51 0 -51 -67v-838h-182v872q0 106 46.5 159.5t153.5 53.5h74v275z" />
    <glyph glyph-name="uni20BD" unicode="&#x20bd;" horiz-adv-x="608" 
d="M510 274h-209v-274h-209v274h-80v123h80v135h-80v123h80v705h295q106 0 153.5 -54.5t47.5 -160.5v-400q0 -105 -47 -159t-154 -54h-86v-135h209v-123zM393 723v397q0 54 -51 54h-41v-519h41q51 0 51 68z" />
    <glyph glyph-name="uni20BE" unicode="&#x20be;" horiz-adv-x="645" 
d="M322 813h-48v354q-47 -14 -47 -59v-664q0 -142 117 -274v-170h-330v178h140v8q-123 76 -123 256v691q0 107 57 165t186 68v141h48v-139h47v139h47v-143q205 -28 205 -231v-220h-160v195q0 42 -45 57v-352h-47v363h-47v-363z" />
    <glyph glyph-name="uni2113" unicode="&#x2113;" horiz-adv-x="444" 
d="M309 133v-133q-33 -10 -63 -10q-90 0 -134 61.5t-44 192.5l-56 -15v156l56 6v778q0 101 42 150t130 49q180 0 180 -199v-419q0 -309 -219 -445q0 -105 16 -141.5t53 -36.5q21 0 39 6zM201 1174v-713q92 95 92 301v412q0 47 -47 47q-45 0 -45 -47z" />
    <glyph glyph-name="uni2116" unicode="&#x2116;" horiz-adv-x="1024" 
d="M578 0h-244l-119 944h-8q8 -136 8 -508v-436h-178v1360h276l84 -875h9q-9 290 -9 572v303h181v-1360zM995 1145v-316q0 -113 -42.5 -167t-131.5 -54q-90 0 -135 58t-45 168v311q0 223 180 223q89 0 131.5 -54.5t42.5 -168.5zM860 836v307q0 84 -41 84t-41 -84v-307
q0 -86 41 -86t41 86z" />
    <glyph glyph-name="uni2117" unicode="&#x2117;" horiz-adv-x="540" 
d="M535 1092v-836q0 -133 -64 -199.5t-186 -66.5q-124 0 -189 69t-65 199v838q0 129 66 200.5t186 71.5t186 -72.5t66 -203.5zM459 256v836q0 96 -46 148t-130 52q-83 0 -128.5 -51.5t-45.5 -144.5v-838q0 -93 44.5 -141.5t131.5 -48.5q174 0 174 188zM248 360h-80v635h139
q92 0 92 -100v-176q0 -113 -92 -113h-59v-246zM322 709v176q0 39 -39 39h-35v-254h35q39 0 39 39z" />
    <glyph glyph-name="trademark" unicode="&#x2122;" horiz-adv-x="583" 
d="M162 877h-82v409h-60v74h201v-74h-59v-409zM551 877h-74v311h-8l-33 -311h-71l-33 311h-8v-311h-72v483h123l20 -289h8l27 289h121v-483z" />
    <glyph glyph-name="onethird" unicode="&#x2153;" horiz-adv-x="614" 
d="M154 -33h-111l365 1426h110zM176 727h-100v506h-51v82q56 0 63 45h88v-633zM596 244v-115q0 -65 -31.5 -100t-91.5 -35q-123 0 -123 133v82h99v-88q0 -31 22 -31q23 0 23 31v131q0 33 -29 33h-33v86h35q27 0 27 35v104q0 31 -23 31q-22 0 -22 -31v-72h-99v60
q0 66 31.5 102.5t89.5 36.5t88.5 -35t30.5 -82v-104q0 -71 -53 -80v-6q59 -10 59 -86z" />
    <glyph glyph-name="twothirds" unicode="&#x2154;" horiz-adv-x="614" 
d="M190 -33h-110l364 1426h111zM246 727h-246v131q0 74 39 129q14 20 48.5 56.5t41.5 46.5q18 27 18 61v86q0 31 -24 31q-23 0 -23 -33v-96h-98v86q0 75 23.5 107t97.5 32q71 0 97 -29.5t26 -95.5v-90q0 -64 -35 -107q-7 -9 -33.5 -39t-48.5 -57q-25 -32 -25 -65v-64h142
v-90zM608 244v-115q0 -65 -31.5 -100t-91.5 -35q-123 0 -123 133v82h99v-88q0 -31 22 -31q23 0 23 31v131q0 33 -29 33h-33v86h35q27 0 27 35v104q0 31 -23 31q-22 0 -22 -31v-72h-99v60q0 66 31.5 102.5t89.5 36.5t88.5 -35t30.5 -82v-104q0 -71 -53 -80v-6q59 -10 59 -86z
" />
    <glyph glyph-name="oneeighth" unicode="&#x215b;" horiz-adv-x="614" 
d="M188 727h-100v506h-51v82q56 0 63 45h88v-633zM141 -33h-110l364 1426h111zM453 -6q-62 0 -94.5 35.5t-32.5 99.5v80q0 54 11.5 80t45.5 35v6q-49 8 -49 84v106q0 48 30 82.5t89 34.5q57 0 87.5 -35t30.5 -82v-106q0 -76 -51 -84v-6q33 -9 45.5 -35.5t12.5 -79.5v-80
q0 -64 -32 -99.5t-93 -35.5zM453 541q-23 0 -23 -25v-125q0 -26 23 -26q20 0 20 26v125q0 25 -20 25zM453 90q22 0 22 27v133q0 29 -22 29q-23 0 -23 -29v-133q0 -27 23 -27z" />
    <glyph glyph-name="threeeighths" unicode="&#x215c;" horiz-adv-x="614" 
d="M252 971v-115q0 -65 -31.5 -100t-91.5 -35q-123 0 -123 133v82h98v-88q0 -31 23 -31t23 31v131q0 33 -29 33h-33v86h35q27 0 27 35v104q0 31 -23 31t-23 -31v-72h-98v60q0 66 31.5 102.5t89.5 36.5t88.5 -35t30.5 -82v-104q0 -71 -53 -80v-6q59 -10 59 -86zM180 -33h-110
l364 1426h111zM477 -6q-62 0 -94.5 35.5t-32.5 99.5v80q0 54 12 80t46 35v6q-50 9 -50 84v106q0 48 30 82.5t89 34.5q58 0 88.5 -35t30.5 -82v-106q0 -76 -51 -84v-6q33 -9 45 -35.5t12 -79.5v-80q0 -64 -32 -99.5t-93 -35.5zM477 541q-22 0 -22 -25v-125q0 -26 22 -26
q21 0 21 26v125q0 25 -21 25zM477 90q23 0 23 27v133q0 29 -23 29q-22 0 -22 -29v-133q0 -27 22 -27z" />
    <glyph glyph-name="fiveeighths" unicode="&#x215d;" horiz-adv-x="614" 
d="M258 1026v-170q0 -65 -31.5 -100t-91.5 -35q-53 0 -88 29.5t-35 101.5v39h99v-43q0 -31 22 -31q23 0 23 31v168q0 31 -23 31q-15 0 -24 -15h-97l13 328h219v-92h-131l-7 -154q21 21 62 21q90 0 90 -109zM180 -33h-110l364 1426h111zM475 -6q-62 0 -94.5 35.5t-32.5 99.5
v80q0 54 12 80t46 35v6q-50 9 -50 84v106q0 48 30 82.5t89 34.5q58 0 88.5 -35t30.5 -82v-106q0 -76 -51 -84v-6q33 -9 45 -35.5t12 -79.5v-80q0 -64 -32 -99.5t-93 -35.5zM475 541q-22 0 -22 -25v-125q0 -26 22 -26q21 0 21 26v125q0 25 -21 25zM475 90q23 0 23 27v133
q0 29 -23 29q-22 0 -22 -29v-133q0 -27 22 -27z" />
    <glyph glyph-name="seveneighths" unicode="&#x215e;" horiz-adv-x="614" 
d="M166 727h-100q1 121 29 273.5t63 265.5h-121v94h209v-86q-37 -116 -58.5 -266t-21.5 -281zM145 -33h-110l364 1426h111zM449 -6q-62 0 -94.5 35.5t-32.5 99.5v80q0 54 11.5 80t45.5 35v6q-49 8 -49 84v106q0 48 30 82.5t89 34.5q57 0 87.5 -35t30.5 -82v-106
q0 -76 -51 -84v-6q33 -9 45 -35.5t12 -79.5v-80q0 -64 -31.5 -99.5t-92.5 -35.5zM449 541q-23 0 -23 -25v-125q0 -26 23 -26q20 0 20 26v125q0 25 -20 25zM449 90q22 0 22 27v133q0 29 -22 29q-23 0 -23 -29v-133q0 -27 23 -27z" />
    <glyph glyph-name="partialdiff" unicode="&#x2202;" horiz-adv-x="473" 
d="M285 201v475q-12 53 -56 53q-45 0 -45 -57v-469q0 -60 54 -60q47 0 47 58zM31 193v477q0 105 37.5 159t107.5 54q57 0 100 -43h7v139q0 123 -23 179t-70 56q-58 0 -96 -38l-41 141q48 51 150 51q122 0 179.5 -100t57.5 -312v-743q0 -107 -53.5 -165t-157.5 -58
q-198 0 -198 203z" />
    <glyph glyph-name="product" unicode="&#x220f;" horiz-adv-x="460" 
d="M430 -373h-154v1579h-92v-1579h-153v1733h399v-1733z" />
    <glyph glyph-name="summation" unicode="&#x2211;" horiz-adv-x="438" 
d="M399 -373h-362v144l135 723l-135 720v146h362v-154h-204l129 -712l-129 -713h204v-154z" />
    <glyph glyph-name="minus" unicode="&#x2212;" horiz-adv-x="526" 
d="M494 606h-463v154h463v-154z" />
    <glyph glyph-name="radical" unicode="&#x221a;" horiz-adv-x="485" 
d="M319 0h-188l-53 635h-70v153h187l28 -522h8l107 1094h141z" />
    <glyph glyph-name="infinity" unicode="&#x221e;" horiz-adv-x="776" 
d="M334 678q-45 88 -105 88q-71 0 -71 -82q0 -88 71 -88q60 0 105 82zM387 561q-80 -108 -190 -108q-85 0 -125.5 56.5t-40.5 174.5q0 234 166 234q108 0 190 -111q85 111 191 111q165 0 165 -234q0 -118 -40 -174.5t-123 -56.5q-110 0 -193 108zM442 678q42 -82 103 -82
q73 0 73 88q0 82 -71 82q-60 0 -105 -88z" />
    <glyph glyph-name="integral" unicode="&#x222b;" horiz-adv-x="387" 
d="M113 -477h-82v153h57q29 0 29 43v1481q0 160 155 160h82v-154h-57q-27 0 -27 -43v-1482q0 -158 -157 -158z" />
    <glyph glyph-name="approxequal" unicode="&#x2248;" horiz-adv-x="526" 
d="M362 459q-44 0 -109.5 18.5t-98.5 18.5q-64 0 -123 -56v162q55 47 129 47q44 0 110.5 -18.5t98.5 -18.5q73 0 125 52v-160q-53 -45 -132 -45zM362 719q-44 0 -109.5 18.5t-98.5 18.5q-64 0 -123 -56v162q55 47 129 47q44 0 110.5 -18.5t98.5 -18.5q73 0 125 52v-160
q-53 -45 -132 -45z" />
    <glyph glyph-name="notequal" unicode="&#x2260;" horiz-adv-x="526" 
d="M145 -41h-120l116 481h-110v154h149l43 174h-192v154h229l119 479h121l-119 -479h113v-154h-150l-43 -174h193v-154h-232z" />
    <glyph glyph-name="lessequal" unicode="&#x2264;" horiz-adv-x="526" 
d="M494 393l-463 207v164l463 205v-174l-293 -111v-8l293 -113v-170zM494 139h-463v154h463v-154z" />
    <glyph glyph-name="greaterequal" unicode="&#x2265;" horiz-adv-x="526" 
d="M494 139h-463v154h463v-154zM494 600l-463 -207v170l295 113v8l-295 111v174l463 -205v-164z" />
    <glyph glyph-name="dotmath" unicode="&#x22c5;" horiz-adv-x="264" 
d="M233 582h-202v200h202v-200z" />
    <glyph glyph-name="lozenge" unicode="&#x25ca;" horiz-adv-x="518" 
d="M346 0h-164l-151 678l151 682h164l139 -682zM338 678l-76 375l-74 -375l74 -371z" />
    <glyph glyph-name="uniE000" unicode="&#xe000;" horiz-adv-x="557" 
d="M807 -55v-183q0 -122 -58.5 -180.5t-179.5 -58.5q-123 0 -181 58.5t-58 180.5v291h-8q-18 -31 -43 -47t-74 -16q-174 0 -174 237v869q0 130 63 201t182 71q120 0 184 -72t64 -204v-152h-194v174q0 62 -47 62q-45 0 -45 -62v-872q0 -62 45 -62q47 0 47 62v274h-60v184h254
v-938q0 -61 47 -61q45 0 45 61v183h191z" />
    <glyph glyph-name="uniE001" unicode="&#xe001;" 
d="M520 -477h-196v540h-9q-42 -73 -127 -73q-86 0 -119.5 59.5t-33.5 177.5v609q0 83 43 131.5t117 48.5q47 0 78.5 -22.5t56.5 -73.5h8l2 88h180v-1485zM236 782v-559q0 -61 45 -61q41 0 47 55v574q-8 53 -47 53q-45 0 -45 -62z" />
    <glyph glyph-name="uniE002" unicode="&#xe002;" horiz-adv-x="507" 
d="M489 602h-210l83 -86l-96 -102l-266 262l266 264l96 -98l-83 -86h210v-154z" />
    <glyph glyph-name="uniE003" unicode="&#xe003;" horiz-adv-x="507" 
d="M0 754h209l-84 88l96 100l268 -260l-268 -266l-96 100l84 84h-209v154z" />
    <glyph glyph-name="uniE004" unicode="&#xe004;" horiz-adv-x="972" 
d="M823 -55v-183q0 -239 -254 -239q-123 0 -181 58.5t-58 180.5v291h-8q-18 -31 -43 -47t-74 -16q-174 0 -174 237v869q0 130 63 201t182 71q120 0 184 -72t64 -204v-152h-194v174q0 62 -47 62q-45 0 -45 -62v-872q0 -62 45 -62q47 0 47 62v274h-60v184h254v-938
q0 -61 47 -61q45 0 45 61v183h207zM823 0h-207v1174h-77v186h415v-186h-131v-1174z" />
    <glyph glyph-name="uniE005" unicode="&#xe005;" horiz-adv-x="565" 
d="M63 0h-32v190h32q50 0 70.5 15t30.5 61l26 113l-186 981h201l80 -563h8l69 563h199l-207 -1135q-23 -127 -87.5 -176t-203.5 -49z" />
    <glyph glyph-name="uniE006" unicode="&#xe006;" horiz-adv-x="434" 
d="M418 1008v-179h-121v-618q0 -35 25 -35h79v-176h-82q-221 0 -221 211v618h-84v179h84v266h199v-266h121z" />
    <glyph glyph-name="CR" horiz-adv-x="0" 
 />
    <glyph glyph-name="breveacute" horiz-adv-x="0" 
d="M-287 1051q-99 0 -158 57t-59 176h142q2 -64 19.5 -94.5t55.5 -30.5q73 0 76 125h143q0 -119 -59 -176t-160 -57zM-86 1389l-205 -156l-74 76l181 194z" />
    <glyph glyph-name="brevegrave" horiz-adv-x="0" 
d="M-283 1051q-102 0 -161.5 57t-59.5 176h146q2 -64 19.5 -94.5t55.5 -30.5q74 0 74 125h141q0 -119 -58 -176t-157 -57zM-279 1233l-206 156l100 114l180 -194z" />
    <glyph glyph-name="brevehook" horiz-adv-x="0" 
d="M-285 1051q-101 0 -160 57t-59 176h142q2 -64 19.5 -94.5t55.5 -30.5q73 0 76 125h143q0 -119 -59 -176t-158 -57zM-256 1243h-90q0 31 11.5 52.5t25.5 30t25.5 20t11.5 26.5q0 21 -31 21q-34 0 -74 -29l-31 98q22 19 57.5 30t67.5 11q52 0 85.5 -30.5t33.5 -81.5
q0 -32 -14.5 -55t-31.5 -33.5t-31.5 -26t-14.5 -33.5z" />
    <glyph glyph-name="brevetilde" horiz-adv-x="0" 
d="M-285 1051q-101 0 -160 57t-59 176h142q2 -64 19.5 -94.5t55.5 -30.5q73 0 76 125h143q0 -119 -59 -176t-158 -57zM-156 1493l84 -45q-10 -60 -41.5 -89.5t-76.5 -29.5q-35 0 -91 26.5t-84 26.5q-45 0 -55 -49l-84 47q10 59 42.5 88t76.5 29q35 0 90.5 -26.5t83.5 -26.5
q45 0 55 49z" />
    <glyph glyph-name="carontilde" horiz-adv-x="0" 
d="M-68 1124l-86 -67l-129 137l-131 -137l-86 67l129 185h174zM-152 1501l86 -45q-10 -60 -42 -88.5t-76 -28.5q-35 0 -90.5 25t-85.5 25q-43 0 -52 -48l-86 48q10 59 41.5 86.5t77.5 27.5q35 0 90.5 -23.5t85.5 -23.5q42 0 51 45z" />
    <glyph glyph-name="circumflexacute" horiz-adv-x="0" 
d="M-68 1124l-86 -67l-129 137l-131 -137l-86 67l129 185h174zM113 1389l-205 -156l-74 76l178 194z" />
    <glyph glyph-name="circumflexhook" horiz-adv-x="0" 
d="M-76 1124l-86 -67l-131 137l-131 -137l-86 67l129 185h176zM-31 1225h-92q0 32 13 55t28 32.5t28 22.5t13 29q0 22 -31 22q-38 0 -73 -30l-33 104q49 43 125 43q53 0 87 -33t34 -86q0 -34 -15.5 -58.5t-34 -36.5t-34 -28.5t-15.5 -35.5z" />
    <glyph glyph-name="gravecircumflex" horiz-adv-x="0" 
d="M-68 1124l-86 -67l-129 137l-131 -137l-86 67l129 185h174zM-23 1233l-204 156l98 114l180 -194z" />
    </font>
</defs>
</svg>
